<svg width="56" height="56" viewBox="0 0 56 56" fill="none" xmlns="http://www.w3.org/2000/svg">
<circle cx="22.5" cy="27.5" r="22.5" fill="white"/>
<path d="M37.9618 37.0091C37.9451 37.211 38.001 37.3892 38.1295 37.5436C38.2579 37.7027 38.4221 37.7901 38.6221 37.8056C38.7741 37.8251 38.9243 37.8391 39.0728 37.8476C39.2782 37.8577 39.4564 37.7948 39.6074 37.6589C39.7579 37.5222 39.8382 37.351 39.8484 37.1453C39.8587 36.9469 39.7958 36.7722 39.6598 36.6213C39.5231 36.4709 39.3519 36.3906 39.1462 36.3802C39.0222 36.3747 38.8964 36.3642 38.7689 36.3488C38.5667 36.3322 38.3851 36.3881 38.2238 36.5165C38.0716 36.6446 37.9842 36.8088 37.9618 37.0091ZM35.8551 35.7828C35.7223 35.7443 35.5896 35.7024 35.4568 35.657C35.2658 35.5989 35.0807 35.6164 34.9013 35.7094C34.7215 35.8032 34.5992 35.9465 34.5345 36.1391C34.4762 36.3305 34.4936 36.5156 34.5869 36.6946C34.6803 36.8759 34.8236 36.9982 35.0166 37.0615C35.1494 37.1034 35.2821 37.1453 35.4149 37.1873C35.6058 37.2471 35.791 37.2296 35.9704 37.1348C36.1502 37.041 36.269 36.8978 36.3267 36.7051C36.392 36.5138 36.3781 36.3286 36.2848 36.1496C36.1914 35.97 36.0481 35.8478 35.8551 35.7828ZM31.4425 34.3783C31.3298 34.5477 31.2913 34.7294 31.3272 34.9233C31.3652 35.1252 31.4665 35.2824 31.6312 35.395C31.76 35.4862 31.8893 35.5701 32.019 35.6465C32.198 35.7515 32.3832 35.7759 32.5745 35.7199C32.7744 35.6734 32.9247 35.5616 33.0252 35.3845C33.1302 35.213 33.1546 35.0278 33.0985 34.829C33.0514 34.636 32.9396 34.4858 32.7631 34.3783C32.6622 34.3219 32.5609 34.259 32.4592 34.1896C32.2967 34.0773 32.1151 34.0389 31.9142 34.0743C31.7188 34.1123 31.5616 34.2136 31.4425 34.3783ZM28.0675 30.1753C28.1142 29.9823 28.0827 29.8006 27.9732 29.6303C27.9018 29.5202 27.832 29.4084 27.7636 29.2949C27.663 29.1254 27.5128 29.0136 27.3129 28.9595C27.121 28.9104 26.9359 28.9348 26.7574 29.0329C26.5873 29.1403 26.4755 29.2906 26.422 29.4836C26.3729 29.6818 26.3974 29.867 26.4954 30.0391C26.5737 30.1701 26.6541 30.2993 26.7364 30.4269C26.8486 30.5968 27.0023 30.7016 27.1976 30.7413C27.398 30.7863 27.5832 30.7514 27.7531 30.6365C27.9235 30.5298 28.0283 30.376 28.0675 30.1753ZM30.342 32.8061C30.342 32.6035 30.2686 32.4288 30.1219 32.282C30.0834 32.2436 30.0415 32.2017 29.9961 32.1563C29.9389 32.0986 29.883 32.0392 29.8284 31.9781C29.6936 31.8283 29.5259 31.7479 29.3253 31.737C29.1236 31.7266 28.9454 31.7895 28.7907 31.9257C28.6421 32.0604 28.5618 32.2281 28.5497 32.4288C28.5393 32.6316 28.6022 32.8098 28.7383 32.9633C28.8095 33.0419 28.8829 33.1188 28.9584 33.1939C29.0039 33.2393 29.0458 33.2813 29.0842 33.3197C29.231 33.4664 29.4056 33.5398 29.6083 33.5398C29.8109 33.5398 29.9821 33.4664 30.1219 33.3197C30.2686 33.1799 30.342 33.0087 30.342 32.8061ZM24.9965 26.6432C25.042 26.7795 25.0839 26.9122 25.1223 27.0414C25.1896 27.233 25.3119 27.3728 25.4892 27.4607C25.6745 27.5557 25.8631 27.5697 26.0552 27.5026C26.2469 27.4424 26.3866 27.3201 26.4744 27.1358C26.5694 26.9576 26.5834 26.7724 26.5163 26.5803C26.4796 26.4579 26.4412 26.3321 26.401 26.2029C26.3378 26.0099 26.2155 25.8667 26.0342 25.7732C25.8552 25.68 25.67 25.6625 25.4787 25.7208C25.286 25.7855 25.1428 25.9078 25.049 26.0876C24.956 26.267 24.9385 26.4522 24.9965 26.6432ZM24.3572 22.9328C24.3656 23.0883 24.3761 23.242 24.3886 23.394C24.4112 23.594 24.4985 23.7582 24.6507 23.8866C24.8121 24.0151 24.9938 24.0675 25.1957 24.0438C25.396 24.0284 25.5602 23.941 25.6883 23.7818C25.8167 23.6276 25.8691 23.4494 25.8455 23.2472C25.8371 23.1197 25.8301 22.9904 25.8246 22.8594C25.8142 22.6607 25.7338 22.493 25.5835 22.3563C25.4326 22.2203 25.2544 22.1574 25.049 22.1677C24.8503 22.1779 24.6826 22.2582 24.5459 22.4087C24.41 22.5597 24.3471 22.7344 24.3572 22.9328ZM24.4725 19.6417C24.4409 19.8447 24.4828 20.0263 24.5983 20.1867C24.7229 20.3527 24.8837 20.4505 25.0804 20.4802C25.2837 20.512 25.4654 20.4666 25.6254 20.3439C25.7912 20.2266 25.889 20.0659 25.9189 19.8618C25.9399 19.7255 25.9608 19.5858 25.9818 19.4425C26.0134 19.2466 25.9679 19.0649 25.8455 18.8975C25.7278 18.7385 25.5671 18.6442 25.3634 18.6145C25.1671 18.5828 24.9854 18.6247 24.8184 18.7403C24.6596 18.8647 24.5652 19.0254 24.5354 19.2224C24.5144 19.3657 24.4934 19.5054 24.4725 19.6417ZM26.7364 16.5707C26.784 16.454 26.8329 16.3387 26.8832 16.2248C26.9661 16.0422 26.9696 15.857 26.8936 15.6693C26.8239 15.4801 26.6947 15.3438 26.5058 15.2605C26.3239 15.1775 26.1387 15.1705 25.9503 15.2396C25.7612 15.3169 25.6249 15.4461 25.5416 15.6274C25.48 15.772 25.4206 15.9187 25.3634 16.0676C25.2962 16.2575 25.3032 16.4426 25.3844 16.6231C25.4739 16.8093 25.6136 16.9351 25.8036 17.0004C25.9932 17.0747 26.1784 17.0677 26.3591 16.9795C26.5453 16.8967 26.6711 16.7604 26.7364 16.5707ZM27.1138 12.7765C27.0015 12.9459 26.963 13.1276 26.9985 13.3215C27.0364 13.5238 27.1377 13.681 27.3024 13.7932C27.4718 13.9129 27.6535 13.9548 27.8474 13.919C28.0493 13.881 28.2065 13.7762 28.3191 13.6045C28.3945 13.5049 28.4713 13.4036 28.5497 13.3006C28.6719 13.1373 28.7173 12.9556 28.6859 12.7555C28.6601 12.5558 28.5658 12.3951 28.4029 12.2734C28.24 12.1509 28.0583 12.102 27.8579 12.1267C27.6585 12.1598 27.4978 12.2576 27.3758 12.4201C27.2864 12.5407 27.1991 12.6595 27.1138 12.7765ZM30.9604 9.7579C30.8269 9.60641 30.6592 9.52257 30.4573 9.50636C30.2555 9.49219 30.0773 9.55158 29.9227 9.68454C29.8179 9.77537 29.7131 9.86621 29.6083 9.95704C29.4554 10.0907 29.3716 10.2584 29.3567 10.4601C29.3424 10.6605 29.4018 10.8352 29.5349 10.9842C29.6684 11.1427 29.8361 11.23 30.038 11.2462C30.2397 11.2604 30.4179 11.201 30.5726 11.0681C30.6774 10.9772 30.7822 10.8864 30.887 10.7955C31.0398 10.6619 31.1237 10.4942 31.1385 10.2925C31.1529 10.0921 31.0935 9.91389 30.9604 9.7579ZM33.5597 7.53589C33.3678 7.476 33.1792 7.48998 32.9937 7.57781C32.8627 7.64916 32.7299 7.72253 32.5954 7.79792C32.4178 7.89732 32.299 8.04406 32.2391 8.23812C32.188 8.43175 32.2125 8.61692 32.3124 8.79363C32.4115 8.9714 32.5583 9.0867 32.7527 9.13952C32.9461 9.19727 33.1313 9.1763 33.3082 9.07662C33.4252 9.01223 33.5405 8.94935 33.654 8.88796C33.8382 8.79991 33.9605 8.66016 34.0209 8.46872C34.088 8.2767 34.074 8.08803 33.979 7.90273C33.8912 7.72537 33.7514 7.60309 33.5597 7.53589ZM39.2825 7.14809C39.4292 7.29482 39.6039 7.36819 39.8065 7.36819C39.9253 7.36819 40.0441 7.36819 40.1629 7.36819C40.1768 7.36819 40.1908 7.36819 40.2048 7.36819C40.4074 7.36819 40.5786 7.29482 40.7184 7.14809C40.8651 7.00831 40.9385 6.83711 40.9385 6.6345C40.9385 6.43189 40.8651 6.25721 40.7184 6.11044C40.5786 5.97069 40.4074 5.90082 40.2048 5.90082C40.1908 5.90082 40.1768 5.90082 40.1629 5.90082C40.0441 5.90082 39.9253 5.90082 39.8065 5.90082C39.6039 5.90082 39.4292 5.97069 39.2825 6.11044C39.1427 6.25721 39.0728 6.43189 39.0728 6.6345C39.0728 6.83711 39.1427 7.00831 39.2825 7.14809ZM35.5616 7.28433C35.6151 7.48435 35.7269 7.63459 35.897 7.73503C36.077 7.83998 36.2656 7.86443 36.463 7.80839C36.5835 7.78074 36.7023 7.7528 36.8194 7.72455C37.0198 7.68533 37.1735 7.58052 37.2805 7.41012C37.3954 7.24051 37.4303 7.05533 37.3853 6.85461C37.3463 6.66114 37.2415 6.50741 37.0709 6.39343C36.9013 6.2857 36.7161 6.25076 36.5154 6.28862C36.3739 6.32325 36.2306 6.35819 36.0857 6.39343C35.8912 6.44701 35.741 6.55882 35.635 6.72884C35.537 6.90737 35.5125 7.09253 35.5616 7.28433ZM42.8041 37.6799C43.0082 37.65 43.1689 37.5522 43.2863 37.3864C43.4089 37.2263 43.4543 37.0447 43.4225 36.8414C43.3929 36.6446 43.2951 36.4839 43.1291 36.3592C42.9687 36.2438 42.787 36.2019 42.584 36.2335C42.4478 36.2544 42.308 36.2754 42.1648 36.2964C41.9677 36.3262 41.807 36.4205 41.6826 36.5793C41.567 36.7464 41.5251 36.9281 41.5569 37.1244C41.5865 37.3281 41.6808 37.4888 41.8399 37.6065C42.0072 37.7289 42.1889 37.7743 42.3849 37.7428C42.5281 37.7218 42.6679 37.7008 42.8041 37.6799ZM46.3573 35.2797C46.1695 35.2106 45.9809 35.2176 45.7913 35.3006C45.6795 35.3527 45.5642 35.4017 45.4454 35.4474C45.2617 35.5206 45.129 35.6499 45.0471 35.8352C44.9658 36.0207 44.9623 36.2059 45.0366 36.3907C45.1099 36.5817 45.2392 36.7179 45.4244 36.7994C45.6097 36.8807 45.7948 36.8842 45.9799 36.8099C46.1197 36.7578 46.256 36.7019 46.3887 36.6422C46.5769 36.5589 46.7062 36.4226 46.7765 36.2335C46.8526 36.0451 46.8491 35.8564 46.766 35.6675C46.6827 35.4856 46.5465 35.3564 46.3573 35.2797ZM48.7051 33.5817C48.5933 33.6656 48.4815 33.7494 48.3697 33.8333C48.2071 33.9552 48.1093 34.116 48.0762 34.3154C48.0515 34.5158 48.1005 34.6975 48.2229 34.8604C48.3447 35.0233 48.5054 35.1176 48.7051 35.1434C48.9052 35.1748 49.0868 35.1294 49.2501 35.0072C49.3619 34.9233 49.4737 34.8395 49.5855 34.7556C49.748 34.6336 49.8424 34.4729 49.8685 34.2735C49.9001 34.073 49.8547 33.8914 49.7322 33.7285C49.6105 33.5656 49.4498 33.4678 49.2501 33.435C49.05 33.4106 48.8683 33.4595 48.7051 33.5817ZM50.7175 32.0934C50.7337 32.2953 50.8175 32.463 50.969 32.5965C51.125 32.7296 51.3032 32.789 51.5036 32.7747C51.7053 32.7598 51.873 32.676 52.0067 32.5231C52.0975 32.4183 52.1883 32.3135 52.2792 32.2087C52.4121 32.0541 52.4715 31.8759 52.4573 31.6741C52.4411 31.4722 52.3538 31.3045 52.1953 31.171C52.0463 31.0379 51.8716 30.9785 51.6712 30.9929C51.4695 31.0077 51.3018 31.0915 51.1682 31.2444C51.0773 31.3492 50.9865 31.454 50.8956 31.5588C50.7627 31.7135 50.7033 31.8916 50.7175 32.0934ZM53.0443 28.425C52.9915 28.5398 52.9321 28.6481 52.8661 28.7499C52.7682 28.9289 52.7437 29.1141 52.7927 29.3054C52.8462 29.5053 52.958 29.6556 53.1281 29.7561C53.3066 29.8611 53.4918 29.8855 53.6836 29.8294C53.8836 29.7823 54.0338 29.6706 54.1343 29.494C54.2151 29.3652 54.2885 29.2289 54.3544 29.0853C54.4493 28.9068 54.4632 28.7216 54.3964 28.5298C54.3361 28.3381 54.2138 28.1948 54.0295 28.1C53.8512 28.0119 53.666 27.998 53.474 28.0581C53.2825 28.1255 53.1393 28.2478 53.0443 28.425ZM54.1658 25.2596C54.1428 25.3906 54.1148 25.5199 54.0819 25.6474C54.0332 25.8431 54.0611 26.0283 54.1658 26.2029C54.2703 26.377 54.4206 26.4888 54.6165 26.5383C54.8125 26.5873 54.9976 26.5594 55.172 26.4545C55.3458 26.3503 55.4576 26.2 55.5074 26.0038C55.5443 25.8518 55.5758 25.6981 55.6017 25.5426C55.6446 25.3502 55.6096 25.1685 55.4969 24.9976C55.3858 24.8319 55.2321 24.7271 55.0357 24.6832C54.8378 24.647 54.6526 24.6855 54.4802 24.7984C54.3147 24.911 54.2099 25.0647 54.1658 25.2596ZM55.7799 22.8175C55.9266 22.6777 56 22.5065 56 22.3039C56 22.1642 56 22.0244 56 21.8847C56 21.6821 55.9266 21.5074 55.7799 21.3606C55.6401 21.2209 55.4689 21.151 55.2663 21.151C55.0637 21.151 54.889 21.2209 54.7422 21.3606C54.6025 21.5074 54.5326 21.6821 54.5326 21.8847C54.5326 22.0244 54.5326 22.1642 54.5326 22.3039C54.5326 22.5065 54.6025 22.6777 54.7422 22.8175C54.889 22.9642 55.0637 23.0376 55.2663 23.0376C55.4689 23.0376 55.6401 22.9642 55.7799 22.8175ZM55.4655 18.4783C55.3054 18.3627 55.1237 18.3207 54.9204 18.3525C54.7237 18.3821 54.563 18.4765 54.4383 18.6355C54.3229 18.8029 54.2809 18.9845 54.3125 19.1805C54.3335 19.3238 54.3544 19.4635 54.3754 19.5998C54.4053 19.8038 54.4996 19.9645 54.6584 20.0819C54.8254 20.2045 55.0071 20.25 55.2034 20.2182C55.4072 20.1885 55.5679 20.0907 55.6856 19.9247C55.808 19.7643 55.8534 19.5826 55.8218 19.3797C55.8008 19.2434 55.7799 19.1037 55.7589 18.9604C55.7291 18.7633 55.6312 18.6026 55.4655 18.4783ZM54.8471 15.7741C54.7947 15.6414 54.7388 15.5086 54.6794 15.3758C54.6038 15.1882 54.4711 15.0555 54.2811 14.9776C54.0976 14.9015 53.9124 14.9015 53.7256 14.9776C53.5377 15.0598 53.405 15.1926 53.3273 15.3758C53.2514 15.5661 53.2514 15.7547 53.3273 15.9418C53.3867 16.0746 53.4426 16.2073 53.495 16.3401C53.5775 16.5277 53.7102 16.6605 53.8933 16.7384C54.0837 16.8145 54.2724 16.811 54.4593 16.7279C54.6471 16.6526 54.7799 16.5198 54.8575 16.3296C54.9334 16.1464 54.9299 15.9612 54.8471 15.7741ZM53.1596 13.049C53.191 12.8489 53.1456 12.6672 53.0233 12.504C52.9345 12.3852 52.8401 12.2664 52.7403 12.1476C52.6139 11.9905 52.4497 11.8997 52.2477 11.8751C52.0479 11.8583 51.8697 11.9142 51.7132 12.0428C51.5558 12.1707 51.465 12.3349 51.4407 12.5354C51.4224 12.7351 51.4748 12.9132 51.5979 13.07C51.6867 13.1748 51.7706 13.2796 51.8494 13.3844C51.9714 13.547 52.1321 13.6413 52.3316 13.6674C52.532 13.699 52.7137 13.6536 52.8766 13.5311C53.0394 13.4094 53.1338 13.2487 53.1596 13.049ZM50.7489 10.2505C50.7342 10.0525 50.6503 9.88482 50.4974 9.74742C50.3786 9.64588 50.2598 9.54456 50.141 9.44346C49.9843 9.32039 49.8061 9.26798 49.6065 9.28624C49.4059 9.31056 49.2417 9.40141 49.1138 9.55877C48.9852 9.71527 48.9293 9.89345 48.9461 10.0933C48.9707 10.2953 49.0615 10.4595 49.2186 10.5859C49.3235 10.6735 49.4283 10.7608 49.5331 10.8479C49.6857 10.9861 49.8603 11.049 50.0571 11.0366C50.2622 11.0223 50.4299 10.9385 50.5602 10.7851C50.6985 10.6329 50.7614 10.4547 50.7489 10.2505ZM47.0176 7.42059C46.8391 7.33276 46.6539 7.31878 46.4621 7.37867C46.2704 7.44587 46.1271 7.56815 46.0324 7.74551C45.9442 7.93081 45.9303 8.11948 45.9904 8.3115C46.0578 8.50294 46.1801 8.64269 46.3573 8.73075C46.4865 8.79713 46.6123 8.86001 46.7346 8.9194C46.9201 9.01422 47.1087 9.0282 47.3006 8.96133C47.4923 8.90109 47.6321 8.77881 47.7198 8.59449C47.8149 8.41617 47.8289 8.23101 47.7618 8.03899C47.7014 7.84752 47.5791 7.70426 47.3949 7.60925C47.2726 7.54986 47.1469 7.48698 47.0176 7.42059ZM44.3658 6.65546C44.2616 6.48165 44.1114 6.36985 43.9151 6.32007C43.7632 6.28308 43.6094 6.24814 43.454 6.21525C43.2615 6.17933 43.0799 6.21776 42.909 6.33055C42.7432 6.44158 42.6384 6.59531 42.5945 6.79172C42.5584 6.98964 42.5968 7.17131 42.7098 7.33674C42.8223 7.50924 42.9761 7.61406 43.171 7.65118C43.302 7.68115 43.4313 7.71259 43.5588 7.74551C43.7545 7.79426 43.9396 7.7663 44.1143 7.66165C44.2883 7.55712 44.4001 7.40689 44.4497 7.21097C44.4987 7.01497 44.4707 6.82979 44.3658 6.65546Z" fill="#FDCA0C"/>
<path d="M23.4885 24.0095L18.1078 27.5454L16.3399 32.0805L19.0302 34.7709H23.4885L28.0237 31.1581L31.5596 25.7774L30.714 21.3192L23.4885 24.0095Z" fill="#FECD34"/>
<path d="M23.2652 8.79855L22.9513 8.88418L22.723 9.11249L22.566 9.49778C22.5184 9.65 22.547 9.83075 22.6516 10.04L23.1083 10.4967C24.5448 10.8582 25.772 11.6811 26.7899 12.9654C27.608 13.9357 28.1503 15.1106 28.4167 16.49C27.1799 16.9562 26.2048 17.6744 25.4913 18.6448C24.7208 19.6152 24.3355 20.6902 24.3355 21.8698C24.3355 22.4406 24.3878 22.8544 24.4924 23.1113C21.6194 23.9294 19.2601 25.2328 17.4146 27.0212C15.3692 29.1237 14.9078 31.1215 16.0304 33.0146C16.8009 34.2989 17.8284 35.1741 19.1127 35.6403C20.3875 36.1445 21.7716 36.2444 23.2652 35.94C23.5697 37.6333 24.3878 39.0698 25.7196 40.2495C27.0039 41.4291 28.5166 42.1426 30.2575 42.39L31.0994 44.3164L31.342 44.5447L31.5703 44.6303L31.87 44.5447L32.0127 44.3164L32.398 43.5173V42.0189C32.4455 41.9333 32.4693 41.8429 32.4693 41.7478V17.6316C32.4693 17.5365 32.4455 17.4461 32.398 17.3605V15.8764C31.9984 15.8384 31.5989 15.8289 31.1993 15.8479C30.8283 15.8574 30.4668 15.8907 30.1148 15.9478C29.8009 14.3115 29.054 12.8274 27.8744 11.4956C26.5996 10.1637 25.1917 9.2647 23.6505 8.79855H23.2652ZM28.7877 24.4955C28.9494 24.6953 29.0541 25.1281 29.1016 25.794C29.1016 26.6693 28.9732 27.5445 28.7163 28.4197C28.3643 29.7516 27.6984 30.8741 26.7185 31.7874C25.9004 32.7578 24.8254 33.5046 23.4935 34.0278C22.723 34.2846 22.057 34.4131 21.4958 34.4131C20.6776 34.4131 19.9118 34.2038 19.1983 33.7852C18.4182 33.2715 17.8522 32.7102 17.5002 32.1013C17.2433 31.6923 17.1149 31.2784 17.1149 30.8599C17.1625 30.4603 17.3147 30.056 17.5715 29.6469C18.3421 28.258 19.8547 26.9975 22.1094 25.8654C24.2118 24.7904 26.0812 24.2529 27.7174 24.2529C28.1265 24.2529 28.4833 24.3337 28.7877 24.4955ZM30.5714 28.1771C30.7522 28.1581 30.9329 28.1486 31.1137 28.1486V33.4142C30.1814 33.3856 29.1492 33.2525 28.0171 33.0146C29.3585 31.5305 30.2099 29.9181 30.5714 28.1771ZM31.1137 37.9378V40.806C30.0387 40.7584 28.9589 40.4207 27.8744 39.7928C26.7994 39.0698 25.9813 38.1185 25.42 36.9389C27.199 37.5858 29.0969 37.9187 31.1137 37.9378Z" fill="#4C3451"/>
<path d="M31.1138 28.1484C30.933 28.1484 30.7523 28.1579 30.5715 28.1769C30.21 29.9179 29.3586 31.5304 28.0172 33.0144C29.1493 33.2523 30.1815 33.3855 31.1138 33.414V28.1484Z" fill="#C4C2C2"/>
<path d="M44.242 22.9971C44.3896 22.969 44.4826 22.8968 44.5212 22.7805C44.551 22.6906 44.5439 22.5893 44.5019 22.5045C44.4478 22.3953 44.3469 22.3407 44.1992 22.3407L41.0455 22.5405C40.8942 22.5405 40.7755 22.664 40.6647 22.7671L37.8388 25.3986C37.4969 25.7169 37.0471 25.8939 36.58 25.8939C35.562 25.8939 34.7358 25.0702 34.7329 24.0522L34.7121 16.9333C34.7106 16.4028 34.9199 15.8934 35.2939 15.5172L37.2498 13.5504C37.402 13.3982 37.402 13.2508 37.2498 13.1081C37.1832 13.0415 37.1118 13.0082 37.0357 13.0082C36.9311 13.0082 36.8454 13.0415 36.7788 13.1081L34.1532 15.7195C34.0866 15.7861 34.0533 15.8717 34.0533 15.9763L34.1101 30.2582C34.1103 30.2973 34.0961 30.3356 34.0961 30.3747C34.0961 30.3943 34.1104 30.4191 34.1105 30.4387L34.1532 42.7467C34.1532 42.806 34.1635 42.8568 34.1843 42.8991C34.236 43.0047 34.3588 43.0513 34.4557 43.118L37.8348 45.4437C37.9204 45.4913 37.987 45.5151 38.0346 45.5151C38.1583 45.5151 38.2439 45.4628 38.2914 45.3581C38.4056 45.1774 38.3818 45.0299 38.2201 44.9157L35.6696 43.1549C35.1308 42.7829 34.8082 42.1709 34.8058 41.5162L34.7736 32.5663C34.7698 31.499 35.6046 30.6168 36.6705 30.5618L36.9444 30.5476C37.4945 30.5192 38.0319 30.7189 38.43 31.0997L41.5701 34.1033C41.6861 34.2142 41.8126 34.3417 41.9731 34.3417L45.826 34.2418C46.0448 34.2418 46.1542 34.1324 46.1542 33.9136C46.1542 33.6948 46.0448 33.5854 45.826 33.5854L42.9328 33.663C42.4007 33.6773 41.8849 33.4788 41.4995 33.1116L38.3043 30.067C38.2104 29.9774 38.1126 29.8844 37.9885 29.8463C37.9584 29.837 37.931 29.8324 37.9062 29.8324L36.5449 29.9187C35.5739 29.9802 34.7525 29.2092 34.7525 28.2362C34.7525 27.3051 35.5073 26.5503 36.4384 26.5503H37.4352C37.5018 26.5503 37.5684 26.517 37.635 26.4504L40.7002 23.6662C41.0347 23.3623 41.4622 23.1807 41.9132 23.1509L44.242 22.9971Z" fill="#4C3451"/>
<path d="M38.0346 45.5151C37.987 45.5151 37.9204 45.4913 37.8348 45.4437L34.4557 43.118C34.3588 43.0514 34.236 43.0047 34.1843 42.8991C34.1635 42.8568 34.1532 42.806 34.1532 42.7467L34.1105 30.4387C34.1104 30.4191 34.0961 30.3943 34.0961 30.3747V30.3747V30.3747C34.0961 30.3356 34.1103 30.2973 34.1101 30.2582L34.0533 15.9763C34.0533 15.8717 34.0866 15.7861 34.1532 15.7195L36.7788 13.1081C36.8454 13.0415 36.9311 13.0082 37.0357 13.0082C37.1118 13.0082 37.1832 13.0415 37.2498 13.1081C37.402 13.2508 37.402 13.3982 37.2498 13.5504L35.2939 15.5172C34.9199 15.8934 34.7106 16.4028 34.7121 16.9333L34.7329 24.0522C34.7358 25.0702 35.562 25.8939 36.58 25.8939V25.8939C37.0471 25.8939 37.4969 25.7169 37.8388 25.3986L40.6647 22.7671C40.7755 22.664 40.8942 22.5405 41.0455 22.5405V22.5405L44.1992 22.3407C44.3469 22.3407 44.4478 22.3953 44.5019 22.5045C44.5439 22.5893 44.551 22.6906 44.5212 22.7805C44.4826 22.8968 44.3896 22.969 44.242 22.9971L41.9132 23.1509C41.4622 23.1807 41.0347 23.3623 40.7002 23.6662L37.635 26.4505C37.5684 26.517 37.5018 26.5503 37.4352 26.5503H36.4384C35.5073 26.5503 34.7525 27.3051 34.7525 28.2362V28.2362C34.7525 29.2092 35.5739 29.9802 36.5449 29.9187L37.9062 29.8324C37.931 29.8324 37.9584 29.837 37.9885 29.8463C38.1126 29.8844 38.2104 29.9774 38.3043 30.067L41.4995 33.1116C41.8849 33.4788 42.4007 33.6773 42.9328 33.663L45.826 33.5854C46.0448 33.5854 46.1542 33.6948 46.1542 33.9136C46.1542 34.1324 46.0448 34.2418 45.826 34.2418L41.9731 34.3417V34.3417C41.8126 34.3417 41.6861 34.2142 41.5701 34.1033L38.43 31.0997C38.0319 30.7189 37.4945 30.5192 36.9444 30.5476L36.6705 30.5618C35.6046 30.6168 34.7698 31.499 34.7736 32.5663L34.8058 41.5162C34.8082 42.1709 35.1308 42.7829 35.6696 43.1549L38.2201 44.9157C38.3818 45.0299 38.4056 45.1774 38.2914 45.3581C38.2439 45.4628 38.1583 45.5151 38.0346 45.5151Z" stroke="#4C3451" stroke-width="1.5" stroke-linecap="round" stroke-linejoin="round"/>
<path d="M41.0883 11.3102C41.0883 10.6157 40.8457 10.0259 40.3606 9.54069C39.8754 9.05551 39.2856 8.81293 38.5911 8.81293C37.9062 8.81293 37.3211 9.05551 36.8359 9.54069C36.3412 10.0259 36.0939 10.6157 36.0939 11.3102C36.0939 11.9951 36.3412 12.5802 36.8359 13.0654C37.3401 13.5601 37.9252 13.8074 38.5911 13.8074C39.2856 13.8074 39.8754 13.5601 40.3606 13.0654C40.8457 12.5802 41.0883 11.9951 41.0883 11.3102ZM38.5911 9.46934C39.0953 9.46934 39.5329 9.64534 39.9039 9.99733C40.2559 10.3493 40.4319 10.7869 40.4319 11.3102C40.4319 11.8144 40.2559 12.252 39.9039 12.623C39.5329 12.975 39.0953 13.151 38.5911 13.151C38.0869 13.151 37.6588 12.975 37.3068 12.623C36.9358 12.252 36.7503 11.8144 36.7503 11.3102C36.7503 10.7869 36.9358 10.3493 37.3068 9.99733C37.6588 9.64534 38.0869 9.46934 38.5911 9.46934ZM42.0016 48.0267C42.4868 47.5415 42.7294 46.9564 42.7294 46.2715C42.7294 45.577 42.4868 44.9872 42.0016 44.502C41.5164 44.0168 40.9266 43.7742 40.2322 43.7742C39.5472 43.7742 38.9669 44.0168 38.4912 44.502C38.006 44.9872 37.7634 45.577 37.7634 46.2715C37.7634 46.9564 38.006 47.5415 38.4912 48.0267C38.9859 48.5214 39.5662 48.7687 40.2322 48.7687C40.9266 48.7687 41.5164 48.5214 42.0016 48.0267ZM42.073 46.2715C42.073 46.7757 41.897 47.2038 41.545 47.5558C41.174 47.9078 40.7364 48.0838 40.2322 48.0838C39.7279 48.0838 39.2998 47.9078 38.9479 47.5558C38.5959 47.2038 38.4199 46.7757 38.4199 46.2715C38.4199 45.7482 38.5959 45.3106 38.9479 44.9586C39.2998 44.6067 39.7279 44.4307 40.2322 44.4307C40.7364 44.4307 41.174 44.6067 41.545 44.9586C41.897 45.3106 42.073 45.7482 42.073 46.2715ZM49.8786 32.1443C49.3839 31.6591 48.7941 31.4165 48.1091 31.4165C47.4337 31.4165 46.8534 31.6591 46.3682 32.1443C45.883 32.6294 45.6404 33.2193 45.6404 33.9137C45.6404 34.5987 45.883 35.1838 46.3682 35.6689C46.8344 36.1636 47.4147 36.411 48.1091 36.411C48.7941 36.411 49.3839 36.1636 49.8786 35.6689C50.3638 35.1838 50.6064 34.5987 50.6064 33.9137C50.6064 33.2193 50.3638 32.6294 49.8786 32.1443ZM48.1091 32.0729C48.6324 32.0729 49.07 32.2537 49.422 32.6152C49.774 32.9767 49.95 33.4095 49.95 33.9137C49.95 34.4274 49.774 34.8651 49.422 35.2266C49.07 35.5786 48.6324 35.7545 48.1091 35.7545C47.6049 35.7545 47.1768 35.5786 46.8248 35.2266C46.4729 34.8651 46.2969 34.4274 46.2969 33.9137C46.2969 33.4095 46.4729 32.9767 46.8248 32.6152C47.1768 32.2537 47.6049 32.0729 48.1091 32.0729ZM49.0652 21.9983C49.0652 21.3134 48.8226 20.7236 48.3375 20.2289C47.8428 19.7437 47.2529 19.5011 46.568 19.5011C45.8735 19.5011 45.2932 19.7437 44.8271 20.2289C44.3419 20.7236 44.0993 21.3134 44.0993 21.9983C44.0993 22.6928 44.3419 23.2731 44.8271 23.7393C45.3122 24.2244 45.8925 24.467 46.568 24.467C47.2529 24.467 47.8428 24.2244 48.3375 23.7393C48.8226 23.2731 49.0652 22.6928 49.0652 21.9983ZM47.8808 20.6855C48.2328 21.0375 48.4088 21.4751 48.4088 21.9983C48.4088 22.5025 48.2328 22.9306 47.8808 23.2826C47.5288 23.6441 47.0912 23.8249 46.568 23.8249C46.0638 23.8249 45.6357 23.6441 45.2837 23.2826C44.9317 22.9306 44.7557 22.5025 44.7557 21.9983C44.7557 21.4751 44.9317 21.0375 45.2837 20.6855C45.6357 20.3335 46.0638 20.1575 46.568 20.1575C47.0912 20.1575 47.5288 20.3335 47.8808 20.6855Z" fill="#4C3451"/>
<path d="M39.904 9.99735C39.533 9.64536 39.0954 9.46936 38.5912 9.46936C38.087 9.46936 37.6589 9.64536 37.3069 9.99735C36.9358 10.3493 36.7503 10.787 36.7503 11.3102C36.7503 11.8144 36.9358 12.252 37.3069 12.623C37.6589 12.975 38.087 13.151 38.5912 13.151C39.0954 13.151 39.533 12.975 39.904 12.623C40.256 12.252 40.432 11.8144 40.432 11.3102C40.432 10.787 40.256 10.3493 39.904 9.99735ZM41.545 47.5558C41.897 47.2038 42.073 46.7757 42.073 46.2715C42.073 45.7483 41.897 45.3107 41.545 44.9587C41.174 44.6067 40.7364 44.4307 40.2322 44.4307C39.728 44.4307 39.2999 44.6067 38.9479 44.9587C38.5959 45.3107 38.4199 45.7483 38.4199 46.2715C38.4199 46.7757 38.5959 47.2038 38.9479 47.5558C39.2999 47.9078 39.728 48.0838 40.2322 48.0838C40.7364 48.0838 41.174 47.9078 41.545 47.5558ZM49.422 32.6152C49.07 32.2537 48.6324 32.0729 48.1092 32.0729C47.605 32.0729 47.1769 32.2537 46.8249 32.6152C46.4729 32.9767 46.2969 33.4095 46.2969 33.9137C46.2969 34.4275 46.4729 34.8651 46.8249 35.2266C47.1769 35.5786 47.605 35.7546 48.1092 35.7546C48.6324 35.7546 49.07 35.5786 49.422 35.2266C49.774 34.8651 49.95 34.4275 49.95 33.9137C49.95 33.4095 49.774 32.9767 49.422 32.6152ZM48.4089 21.9984C48.4089 21.4751 48.2329 21.0375 47.8809 20.6855C47.5289 20.3335 47.0913 20.1575 46.568 20.1575C46.0638 20.1575 45.6357 20.3335 45.2837 20.6855C44.9317 21.0375 44.7558 21.4751 44.7558 21.9984C44.7558 22.5026 44.9317 22.9307 45.2837 23.2826C45.6357 23.6441 46.0638 23.8249 46.568 23.8249C47.0913 23.8249 47.5289 23.6441 47.8809 23.2826C48.2329 22.9307 48.4089 22.5026 48.4089 21.9984Z" fill="#FECD34"/>
<path d="M46.568 24.467C45.8925 24.467 45.3122 24.2244 44.8271 23.7393C44.3419 23.2731 44.0993 22.6928 44.0993 21.9983C44.0993 21.3134 44.3419 20.7236 44.8271 20.2289C45.2932 19.7437 45.8735 19.5011 46.568 19.5011C47.2529 19.5011 47.8428 19.7437 48.3375 20.2289C48.8226 20.7236 49.0652 21.3134 49.0652 21.9983C49.0652 22.6928 48.8226 23.2731 48.3375 23.7393C47.8428 24.2244 47.2529 24.467 46.568 24.467ZM48.1091 36.411C47.4147 36.411 46.8344 36.1636 46.3682 35.6689C45.883 35.1838 45.6404 34.5987 45.6404 33.9137C45.6404 33.2193 45.883 32.6294 46.3682 32.1443C46.8534 31.6591 47.4337 31.4165 48.1091 31.4165C48.7941 31.4165 49.3839 31.6591 49.8786 32.1443C50.3638 32.6294 50.6064 33.2193 50.6064 33.9137C50.6064 34.5987 50.3638 35.1838 49.8786 35.6689C49.3839 36.1636 48.7941 36.411 48.1091 36.411ZM40.2322 48.7687C39.5662 48.7687 38.9859 48.5214 38.4912 48.0267C38.006 47.5415 37.7634 46.9564 37.7634 46.2715C37.7634 45.577 38.006 44.9872 38.4912 44.502C38.9669 44.0168 39.5472 43.7742 40.2322 43.7742C40.9266 43.7742 41.5164 44.0168 42.0016 44.502C42.4868 44.9872 42.7294 45.577 42.7294 46.2715C42.7294 46.9564 42.4868 47.5415 42.0016 48.0267C41.5164 48.5214 40.9266 48.7687 40.2322 48.7687ZM38.5911 13.8074C37.9252 13.8074 37.3401 13.5601 36.8359 13.0654C36.3412 12.5802 36.0939 11.9951 36.0939 11.3102C36.0939 10.6157 36.3412 10.0259 36.8359 9.54069C37.3211 9.05551 37.9062 8.81293 38.5911 8.81293C39.2856 8.81293 39.8754 9.05551 40.3606 9.54069C40.8457 10.0259 41.0883 10.6157 41.0883 11.3102C41.0883 11.9951 40.8457 12.5802 40.3606 13.0654C39.8754 13.5601 39.2856 13.8074 38.5911 13.8074Z" stroke="#4C3451" stroke-width="1.4" stroke-linecap="round" stroke-linejoin="round"/>
</svg>
