<svg width="24" height="24" viewBox="0 0 24 24" fill="none" xmlns="http://www.w3.org/2000/svg">
<path fill-rule="evenodd" clip-rule="evenodd" d="M4 3.80001C3.94695 3.80001 3.89608 3.82108 3.85858 3.85859C3.82107 3.8961 3.8 3.94697 3.8 4.00001V18C3.8 18.0531 3.82107 18.1039 3.85858 18.1414C3.89608 18.1789 3.94695 18.2 4 18.2H10C10.4191 18.2 10.8285 18.294 11.2 18.4702V5.00001C11.2 4.68175 11.0736 4.37653 10.8485 4.15148C10.6235 3.92644 10.3183 3.80001 10 3.80001H4ZM12.8 5.00001V18.4702C13.1715 18.294 13.5809 18.2 14 18.2H20C20.053 18.2 20.1039 18.1789 20.1414 18.1414C20.1789 18.1039 20.2 18.0531 20.2 18V4.00001C20.2 3.94697 20.1789 3.8961 20.1414 3.85859C20.1039 3.82108 20.053 3.80001 20 3.80001H14C13.6817 3.80001 13.3765 3.92644 13.1515 4.15148C12.9264 4.37653 12.8 4.68175 12.8 5.00001ZM10.8485 20.1515C11.0736 20.3765 11.2 20.6818 11.2 21C11.2 21.4418 11.5582 21.8 12 21.8C12.4418 21.8 12.8 21.4418 12.8 21C12.8 20.6818 12.9264 20.3765 13.1515 20.1515C13.3765 19.9264 13.6817 19.8 14 19.8H20C20.4774 19.8 20.9352 19.6104 21.2728 19.2728C21.6104 18.9352 21.8 18.4774 21.8 18V4.00001C21.8 3.52262 21.6104 3.06479 21.2728 2.72722C20.9352 2.38965 20.4774 2.20001 20 2.20001H14C13.2574 2.20001 12.5452 2.49501 12.0201 3.02011L12 3.04042L11.9799 3.02011C11.4548 2.49501 10.7426 2.20001 10 2.20001H4C3.52261 2.20001 3.06477 2.38965 2.7272 2.72722C2.38964 3.06479 2.2 3.52262 2.2 4.00001V18C2.2 18.4774 2.38964 18.9352 2.7272 19.2728C3.06477 19.6104 3.52261 19.8 4 19.8H10C10.3183 19.8 10.6235 19.9264 10.8485 20.1515ZM7 6.20001C6.55817 6.20001 6.2 6.55818 6.2 7.00001C6.2 7.44184 6.55817 7.80001 7 7.80001H8C8.44182 7.80001 8.8 7.44184 8.8 7.00001C8.8 6.55818 8.44182 6.20001 8 6.20001H7ZM6.2 11C6.2 10.5582 6.55817 10.2 7 10.2H8C8.44182 10.2 8.8 10.5582 8.8 11C8.8 11.4418 8.44182 11.8 8 11.8H7C6.55817 11.8 6.2 11.4418 6.2 11ZM16 6.20001C15.5582 6.20001 15.2 6.55818 15.2 7.00001C15.2 7.44184 15.5582 7.80001 16 7.80001H17C17.4418 7.80001 17.8 7.44184 17.8 7.00001C17.8 6.55818 17.4418 6.20001 17 6.20001H16ZM15.2 11C15.2 10.5582 15.5582 10.2 16 10.2H17C17.4418 10.2 17.8 10.5582 17.8 11C17.8 11.4418 17.4418 11.8 17 11.8H16C15.5582 11.8 15.2 11.4418 15.2 11ZM16 14.2C15.5582 14.2 15.2 14.5582 15.2 15C15.2 15.4418 15.5582 15.8 16 15.8H17C17.4418 15.8 17.8 15.4418 17.8 15C17.8 14.5582 17.4418 14.2 17 14.2H16Z" fill="#68556C"/>
</svg>
