<svg width="40" height="44" viewBox="0 0 40 44" fill="none" xmlns="http://www.w3.org/2000/svg">
<path d="M17.1996 1.74784C18.9324 0.750759 21.0676 0.75076 22.8004 1.74784L36.2021 9.45965C37.9345 10.4565 39 12.2976 39 14.2882V29.7118C39 31.7025 37.9345 33.5435 36.2021 34.5404L22.8004 42.2522C21.0676 43.2493 18.9324 43.2493 17.1996 42.2522L3.7979 34.5404C2.06552 33.5435 1 31.7025 1 29.7118V14.2882C1 12.2976 2.06552 10.4565 3.7979 9.45965L17.1996 1.74784Z" stroke="#FECD34" stroke-width="2"/>
<path d="M12 19.0054V28.2079C12.0017 28.6837 12.2228 29.1395 12.6148 29.4755C13.0069 29.8114 13.5379 30 14.0916 30H25.9084C26.4621 30 26.9931 29.8114 27.3852 29.4755C27.7772 29.1395 27.9983 28.6837 28 28.2079V19L12 19.0054Z" fill="#FECD34"/>
<path d="M23.0298 14.3565V13.5762C23.0298 13.3799 23.1061 13.1916 23.2419 13.0528C23.3777 12.914 23.5618 12.836 23.7539 12.836C23.9465 12.836 24.1313 12.9137 24.2682 13.0524C24.405 13.191 24.4827 13.3793 24.4844 13.5762V15.8571C24.4833 15.9781 24.4536 16.097 24.398 16.2038C24.3423 16.3106 24.2624 16.4021 24.1648 16.4707" stroke="#422A47" stroke-width="1.5" stroke-miterlimit="10" stroke-linecap="round" stroke-linejoin="round"/>
<path d="M15.9458 14.355V13.5748C15.9457 13.4753 15.9653 13.3768 16.0033 13.2852C16.0413 13.1936 16.097 13.1107 16.167 13.0416C16.237 12.9725 16.32 12.9186 16.4109 12.883C16.5017 12.8474 16.5987 12.8309 16.696 12.8345V12.8345C16.888 12.8345 17.0722 12.9125 17.208 13.0513C17.3437 13.1902 17.42 13.3784 17.42 13.5748V15.8556C17.4188 15.9766 17.3892 16.0955 17.3335 16.2023C17.2779 16.3091 17.1979 16.4007 17.1004 16.4692" stroke="#422A47" stroke-width="1.5" stroke-miterlimit="10" stroke-linecap="round" stroke-linejoin="round"/>
<path d="M26.1547 14.4805H13.8455C13.2682 14.4823 12.715 14.7175 12.3068 15.1349C11.8986 15.5522 11.6685 16.1178 11.6667 16.708V28.1122C11.6685 28.7018 11.8988 29.2667 12.3072 29.683C12.7156 30.0993 13.2688 30.333 13.8455 30.333H26.1547C26.7314 30.333 27.2846 30.0993 27.693 29.683C28.1014 29.2667 28.3317 28.7018 28.3334 28.1122V16.7013C28.3317 16.1117 28.1014 15.5469 27.693 15.1306C27.2846 14.7143 26.7314 14.4805 26.1547 14.4805Z" stroke="#422A47" stroke-width="1.5" stroke-miterlimit="10" stroke-linecap="round" stroke-linejoin="round"/>
<path d="M28.3334 18.5489H11.6667" stroke="#422A47" stroke-width="1.5" stroke-miterlimit="10" stroke-linecap="round" stroke-linejoin="round"/>
<path d="M20.0648 20.5187C20.177 20.3587 20.4286 20.4381 20.4286 20.6335V23.1111H22.6155C22.7773 23.1111 22.8722 23.2934 22.7792 23.426L19.9352 27.4814C19.823 27.6414 19.5714 27.562 19.5714 27.3665V24.8889H17.3845C17.2227 24.8889 17.1278 24.7066 17.2208 24.5741L20.0648 20.5187Z" fill="#4C3451"/>
</svg>
