<svg width="24" height="24" viewBox="0 0 24 24" fill="none" xmlns="http://www.w3.org/2000/svg">
<path fill-rule="evenodd" clip-rule="evenodd" d="M11.1187 3.28838C11.3439 3.17577 11.609 3.17577 11.8342 3.28838L22.3104 8.52647C22.5814 8.66199 22.7526 8.939 22.7526 9.24201C22.7526 9.54503 22.5814 9.82204 22.3104 9.95756L19.6095 11.308V16.5714C19.6095 17.2501 19.2953 17.8993 18.8632 18.4515C18.4231 19.014 17.8104 19.5424 17.0861 19.9958C15.637 20.9027 13.6575 21.5619 11.4762 21.5619C9.29487 21.5619 7.31529 20.9027 5.86627 19.9958C5.14196 19.5424 4.52919 19.014 4.08909 18.4515C3.65698 17.8993 3.34283 17.2501 3.34283 16.5714V11.3077L0.642485 9.95756C0.371458 9.82204 0.200256 9.54503 0.200256 9.24201C0.200256 8.939 0.371458 8.66199 0.642485 8.52647L11.1187 3.28838ZM4.56586 10.1304C4.5235 10.1039 4.47848 10.0814 4.43131 10.0631L2.78911 9.24201L11.4764 4.89835L20.1638 9.24201L18.5235 10.0622C18.4746 10.0809 18.428 10.1043 18.3843 10.1318L11.4764 13.5857L4.56586 10.1304ZM4.94283 12.1077V16.5714C4.94283 16.7607 5.03909 17.0693 5.34916 17.4655C5.65122 17.8515 6.1124 18.2622 6.71516 18.6395C7.92029 19.3938 9.60736 19.9619 11.4762 19.9619C13.345 19.9619 15.032 19.3938 16.2372 18.6395C16.8399 18.2622 17.3011 17.8515 17.6032 17.4655C17.9132 17.0693 18.0095 16.7607 18.0095 16.5714V12.108L11.8342 15.1957C11.609 15.3083 11.3439 15.3083 11.1187 15.1957L4.94283 12.1077ZM23 11.5809C23.4418 11.5809 23.8 11.939 23.8 12.3809V17.619C23.8 18.0608 23.4418 18.419 23 18.419C22.5582 18.419 22.2 18.0608 22.2 17.619V12.3809C22.2 11.939 22.5582 11.5809 23 11.5809Z" fill="#422A47"/>
</svg>
