<svg width="24" height="24" viewBox="0 0 24 24" fill="none" xmlns="http://www.w3.org/2000/svg">
<path fill-rule="evenodd" clip-rule="evenodd" d="M11.4343 2.43433C11.7467 2.12191 12.2532 2.12191 12.5657 2.43433L21.5657 11.4343C21.7945 11.6631 21.8629 12.0072 21.7391 12.3062C21.6153 12.6051 21.3235 12.8 21 12.8H19.8V19C19.8 19.7426 19.505 20.4548 18.9799 20.9799C18.4548 21.505 17.7426 21.8 17 21.8H15H8.99997H6.99997C6.25737 21.8 5.54518 21.505 5.02008 20.9799C4.49497 20.4548 4.19997 19.7426 4.19997 19V12.8H2.99997C2.6764 12.8 2.3847 12.6051 2.26087 12.3062C2.13705 12.0072 2.20549 11.6631 2.43429 11.4343L11.4343 2.43433ZM9.79997 20.2H14.2V15C14.2 14.6818 14.0735 14.3765 13.8485 14.1515C13.6235 13.9264 13.3182 13.8 13 13.8H11C10.6817 13.8 10.3765 13.9264 10.1514 14.1515C9.9264 14.3765 9.79997 14.6818 9.79997 15V20.2ZM15.8 20.2V15C15.8 14.2574 15.505 13.5452 14.9799 13.0201C14.4548 12.495 13.7426 12.2 13 12.2H11C10.2574 12.2 9.54518 12.495 9.02008 13.0201C8.49497 13.5452 8.19997 14.2574 8.19997 15V20.2H6.99997C6.68172 20.2 6.37649 20.0736 6.15145 19.8485C5.9264 19.6235 5.79997 19.3183 5.79997 19L5.79997 12C5.79997 11.5582 5.4418 11.2 4.99997 11.2H4.93135L12 4.13138L19.0686 11.2H19C18.5581 11.2 18.2 11.5582 18.2 12V19C18.2 19.3183 18.0735 19.6235 17.8485 19.8485C17.6235 20.0736 17.3182 20.2 17 20.2H15.8Z" fill="#422A47"/>
</svg>
