<svg width="40" height="44" viewBox="0 0 40 44" fill="none" xmlns="http://www.w3.org/2000/svg">
<path d="M17.1996 1.74784C18.9324 0.750759 21.0676 0.75076 22.8004 1.74784L36.2021 9.45965C37.9345 10.4565 39 12.2976 39 14.2882V29.7118C39 31.7025 37.9345 33.5435 36.2021 34.5404L22.8004 42.2522C21.0676 43.2493 18.9324 43.2493 17.1996 42.2522L3.7979 34.5404C2.06552 33.5435 1 31.7025 1 29.7118V14.2882C1 12.2976 2.06552 10.4565 3.7979 9.45965L17.1996 1.74784Z" stroke="#FECD34" stroke-width="2"/>
<g clip-path="url(#clip0_2_422)">
<circle cx="20" cy="19" r="6" fill="#FECD34"/>
</g>
<g clip-path="url(#clip1_2_422)">
<path d="M20 25C23.3137 25 26 22.3137 26 19C26 15.6863 23.3137 13 20 13C16.6863 13 14 15.6863 14 19C14 22.3137 16.6863 25 20 25Z" stroke="#4C3451" stroke-width="1.5" stroke-miterlimit="10" stroke-linecap="round" stroke-linejoin="round"/>
<path d="M20.0019 25.0034L23.4019 30.8923L25 27.6603L28.5981 27.8923L25.1981 22.0034" stroke="#4C3451" stroke-width="1.5" stroke-miterlimit="10" stroke-linecap="round" stroke-linejoin="round"/>
<path d="M14.8019 22.0034L11.4019 27.8923L15 27.6603L16.5981 30.8923L19.9981 25.0034" stroke="#4C3451" stroke-width="1.5" stroke-miterlimit="10" stroke-linecap="round" stroke-linejoin="round"/>
</g>
<defs>
<clipPath id="clip0_2_422">
<rect width="24" height="24" fill="white" transform="translate(8 10)"/>
</clipPath>
<clipPath id="clip1_2_422">
<rect width="24" height="24" fill="white" transform="translate(8 10)"/>
</clipPath>
</defs>
</svg>
