<svg width="24" height="24" viewBox="0 0 24 24" fill="none" xmlns="http://www.w3.org/2000/svg">
<path fill-rule="evenodd" clip-rule="evenodd" d="M16.9998 2.81436C16.558 2.81436 16.1998 2.45618 16.1998 2.01436C16.1998 1.57253 16.558 1.21436 16.9998 1.21436H19.8283C20.2701 1.21436 20.6283 1.57253 20.6283 2.01436V4.84278C20.6283 5.28461 20.2701 5.64278 19.8283 5.64278C19.3864 5.64278 19.0283 5.28461 19.0283 4.84278V3.96288L5.46505 13.651C5.10553 13.9078 4.60588 13.8245 4.34908 13.465C4.09227 13.1055 4.17554 12.6058 4.53507 12.349L17.8835 2.81436H16.9998ZM20.6 8.8C20.6 8.35817 20.2418 8 19.8 8C19.3582 8 19 8.35817 19 8.8V21.2C19 21.6418 19.3582 22 19.8 22C20.2418 22 20.6 21.6418 20.6 21.2V8.8ZM14.8 11C15.2418 11 15.6 11.3582 15.6 11.8V21.2C15.6 21.6418 15.2418 22 14.8 22C14.3582 22 14 21.6418 14 21.2V11.8C14 11.3582 14.3582 11 14.8 11ZM10.6 14.8C10.6 14.3582 10.2418 14 9.8 14C9.35817 14 9 14.3582 9 14.8V21.2C9 21.6418 9.35817 22 9.8 22C10.2418 22 10.6 21.6418 10.6 21.2V14.8ZM5.6 17.8C5.6 17.3582 5.24183 17 4.8 17C4.35817 17 4 17.3582 4 17.8V21.2C4 21.6418 4.35817 22 4.8 22C5.24183 22 5.6 21.6418 5.6 21.2V17.8Z" fill="#68556C"/>
</svg>
