<svg width="19" height="30" viewBox="0 0 19 30" fill="none" xmlns="http://www.w3.org/2000/svg">
<path d="M7.5235 18.3197C7.62208 17.7709 8.40917 17.7709 8.50775 18.3197L8.94464 20.752C8.97409 20.916 9.08329 21.0545 9.23586 21.1215L11.4253 22.0821C11.8241 22.2571 11.8241 22.8229 11.4253 22.9979L9.23586 23.9586C9.08329 24.0255 8.97409 24.164 8.94464 24.328L8.50775 26.7603C8.40917 27.3091 7.62208 27.3091 7.5235 26.7603L7.08661 24.328C7.05716 24.164 6.94796 24.0255 6.79539 23.9586L4.60597 22.9979C4.20718 22.8229 4.20718 22.2571 4.60597 22.0821L6.79539 21.1215C6.94796 21.0545 7.05716 20.916 7.08661 20.752L7.5235 18.3197Z" fill="#FCAE39"/>
<path d="M4.55291 3.65009C4.64126 3.0867 5.45249 3.0867 5.54084 3.65009L5.92712 6.11347C5.95632 6.29971 6.08779 6.45369 6.26714 6.51173L8.62366 7.27429C9.08508 7.4236 9.08508 8.0764 8.62366 8.22571L6.28155 8.98361C6.09475 9.04406 5.96061 9.20825 5.93863 9.40335L5.54373 12.9091C5.47704 13.5012 4.61671 13.5012 4.55002 12.9091L4.15512 9.40336C4.13314 9.20825 3.999 9.04406 3.8122 8.98361L1.47009 8.22571C1.00867 8.0764 1.00867 7.4236 1.47009 7.27429L3.82661 6.51173C4.00596 6.45369 4.13743 6.29971 4.16663 6.11347L4.55291 3.65009Z" fill="#FFE596"/>
<path d="M13.4609 10.2225C13.5588 9.67275 14.3474 9.67275 14.4454 10.2225L14.8262 12.3595C14.8597 12.5477 14.9976 12.7003 15.1815 12.7526L17.3113 13.3591C17.7954 13.497 17.7954 14.1831 17.3113 14.3209L15.1815 14.9274C14.9976 14.9798 14.8597 15.1324 14.8262 15.3206L14.4454 17.4576C14.3474 18.0073 13.5588 18.0073 13.4609 17.4576L13.0801 15.3206C13.0465 15.1324 12.9086 14.9798 12.7248 14.9274L10.595 14.3209C10.1109 14.1831 10.1109 13.497 10.595 13.3591L12.7248 12.7526C12.9086 12.7003 13.0465 12.5477 13.0801 12.3595L13.4609 10.2225Z" fill="#CE6401"/>
</svg>
