<svg width="56" height="56" viewBox="0 0 56 56" fill="none" xmlns="http://www.w3.org/2000/svg">
<path d="M54.3907 37.4765C56.2112 42.8632 54.084 48.4476 49.6396 49.9496C45.1952 51.4515 38.3205 47.8869 36.5001 42.5002C34.6796 37.1134 38.6029 31.9445 43.0473 30.4426C45.0001 30.4426 52.5703 32.0898 54.3907 37.4765Z" fill="white"/>
<path d="M37.5 11.5L9.5 15.5C13.6667 27.3333 22.1 51.1 22.5 51.5C22.9 51.9 41.6667 48 51 46L37.5 11.5Z" fill="white"/>
<path d="M10.342 16.0603C10.0402 16.7168 10.0191 17.6142 10.2785 18.7525C10.4744 19.6525 10.7709 20.6743 11.1679 21.8179C11.2791 22.1514 11.6444 23.1521 12.2639 24.8198C12.7456 26.101 13.2248 27.4272 13.7013 28.7985C14.0454 29.8097 14.4557 31.0459 14.9322 32.5071C15.2022 33.3278 15.6019 34.5666 16.1314 36.2238C16.7402 38.0874 17.2988 39.7657 17.807 41.2587C18.2094 42.4446 18.5376 43.3711 18.7918 44.0382C19.1783 45.0547 19.5727 45.9547 19.9751 46.7383C20.1709 47.1142 20.2954 47.3551 20.3483 47.461C20.4754 47.7363 20.568 47.9878 20.6263 48.2154C20.6368 48.2472 20.6845 48.496 20.7692 48.9619C20.8274 49.2584 20.9016 49.4967 20.9916 49.6767C21.431 50.5238 22.466 50.9102 24.0967 50.8361C25.0656 50.7991 26.5188 50.672 28.4566 50.4549C30.1719 50.3226 31.6094 50.3729 32.7688 50.6058C33.0018 50.6535 33.0394 50.4049 33.5 50.5002C33.897 50.5585 34.2088 50.0585 34.5 50.0002C34.9712 49.9049 35.543 49.9185 35.866 49.5002C36.1889 49.0873 36.5066 49.1896 36.4854 48.7078C36.4643 48.1889 36.2578 47.7098 35.866 47.2704C35.5007 46.868 35.0533 46.5715 34.5239 46.3809C34.0792 46.2168 33.555 46.1162 32.9515 46.0792C32.6391 46.058 32.1838 46.058 31.5855 46.0792C31.612 46.0474 31.6385 46.013 31.6649 45.9759C31.7761 45.7853 31.837 45.4835 31.8476 45.0706C31.8635 44.5359 31.8317 44.1388 31.7523 43.8794C31.6941 43.6941 31.5511 43.3976 31.3235 42.9899C31.1434 42.6352 30.9926 42.2805 30.8708 41.9258C30.7067 41.3222 30.5611 40.8748 30.434 40.5836C30.2064 40.0648 29.8993 39.726 29.5128 39.5671C29.4334 39.5354 29.3222 39.501 29.1792 39.4639C29.0045 39.4268 28.8934 39.4004 28.8457 39.3845C28.581 39.2627 28.3798 39.1833 28.2422 39.1462C27.9616 39.0615 27.636 39.0642 27.2653 39.1542C27.1171 39.1859 26.7942 39.2945 26.2965 39.4798C25.8729 39.6227 25.4732 39.726 25.0973 39.7895C24.8591 39.8319 24.7161 39.861 24.6685 39.8769C24.5044 39.9139 24.3667 39.9695 24.2555 40.0436C24.0014 40.2183 23.8373 40.5122 23.7631 40.9251C23.6837 41.3646 23.7287 41.8861 23.8982 42.4896C23.9935 42.839 24.1496 43.3579 24.3667 44.0461C24.3879 44.1414 24.4302 44.3373 24.4938 44.6338C24.2926 44.4962 24.1417 44.3823 24.0411 44.2923C23.8452 44.1017 23.6705 43.8582 23.517 43.5617C23.4111 43.3605 23.2946 43.072 23.1675 42.6961L21.9922 39.4004C21.3092 37.4997 20.8142 36.0279 20.5071 34.9849C20.2689 34.1272 20.0889 33.4813 19.9671 33.0472C19.75 32.2742 19.5515 31.6336 19.3715 31.1253C19.2656 30.813 18.9956 30.1167 18.5615 29.0367C18.2173 28.179 17.9659 27.4749 17.807 26.9243C17.7329 26.6596 17.5873 26.0613 17.3702 25.1295C17.2008 24.3936 17.0341 23.8059 16.8699 23.3665C16.764 23.0965 16.4914 22.4956 16.052 21.5638C15.6972 20.8173 15.4616 20.2005 15.3452 19.7134C15.1969 18.6651 15.0778 17.8868 14.9878 17.3786C14.829 16.468 14.5192 15.7956 14.0586 15.3614C13.5239 14.8585 12.8489 14.6838 12.0336 14.8373C11.2182 14.9908 10.6544 15.3985 10.342 16.0603ZM27.035 30.5297C26.8074 30.0109 26.5003 29.672 26.1138 29.5132C26.0344 29.4814 25.9232 29.447 25.7803 29.41C25.6056 29.3729 25.4917 29.3438 25.4388 29.3226C25.1794 29.2061 24.9808 29.1267 24.8432 29.0844C24.5626 28.9996 24.237 29.0023 23.8664 29.0923C23.7181 29.1294 23.3925 29.2379 22.8896 29.4179C22.4713 29.5661 22.0743 29.672 21.6984 29.7356C21.4601 29.7726 21.3145 29.8017 21.2616 29.8229C21.0975 29.86 20.9624 29.9156 20.8566 29.9897C20.6024 30.1591 20.4383 30.4529 20.3642 30.8712C20.2848 31.3053 20.3298 31.8268 20.4992 32.4357C20.5945 32.7851 20.7507 33.3013 20.9677 33.9843C20.9942 34.0954 21.0445 34.3363 21.1186 34.7069C21.1769 34.9981 21.2351 35.2337 21.2933 35.4137C21.4628 35.9643 21.7354 36.3588 22.1113 36.597C22.3337 36.7347 22.6063 36.8194 22.9293 36.8511C23.1305 36.867 23.4243 36.8644 23.8108 36.8432C24.1708 36.822 24.6791 36.7929 25.3356 36.7558C25.7909 36.7294 26.1297 36.7055 26.3521 36.6844C26.7227 36.6367 27.0536 36.5732 27.3448 36.4938C27.8001 36.3614 28.1071 36.1708 28.266 35.922C28.3772 35.7314 28.438 35.427 28.4486 35.0087C28.4592 34.474 28.4248 34.0796 28.3454 33.8254C28.2924 33.6401 28.1521 33.341 27.9245 32.928C27.7392 32.5786 27.5883 32.2239 27.4718 31.8639C27.3077 31.2603 27.1621 30.8156 27.035 30.5297ZM24.1443 21.7226C23.9802 21.119 23.8346 20.6743 23.7076 20.3884C23.4852 19.8696 23.1808 19.5307 22.7943 19.3719C22.7149 19.3348 22.6037 19.3004 22.4607 19.2687C22.2807 19.2263 22.1669 19.1972 22.1193 19.1813C21.8545 19.0648 21.656 18.9854 21.5236 18.9431C21.2378 18.8584 20.9095 18.861 20.5389 18.951C20.3907 18.9881 20.0677 19.0966 19.57 19.2766C19.1518 19.4248 18.7547 19.5307 18.3788 19.5943C18.1406 19.6313 17.995 19.6604 17.942 19.6816C17.7779 19.7187 17.6403 19.7743 17.5291 19.8484C17.2749 20.0178 17.1108 20.3116 17.0367 20.7299C16.9573 21.164 17.0023 21.6855 17.1717 22.2944C17.2723 22.6385 17.4285 23.1547 17.6403 23.843C17.672 23.9541 17.725 24.1924 17.7991 24.5577C17.852 24.8542 17.9076 25.0924 17.9659 25.2724C18.1353 25.823 18.4079 26.2175 18.7838 26.4557C19.0062 26.5881 19.2788 26.6728 19.6018 26.7098C19.8083 26.7257 20.1048 26.7231 20.4913 26.7019C20.846 26.6807 21.3542 26.6516 22.016 26.6145C22.4713 26.5881 22.8102 26.5616 23.0325 26.5351C23.3978 26.4928 23.7261 26.4319 24.0173 26.3525C24.4726 26.2201 24.7797 26.0295 24.9385 25.7807C25.055 25.5848 25.1185 25.2804 25.1291 24.8674C25.1397 24.3327 25.1053 23.9383 25.0258 23.6841C24.9676 23.4935 24.8247 23.1944 24.597 22.7867C24.417 22.4373 24.2661 22.0826 24.1443 21.7226ZM36.9302 11.9784C36.7078 11.8937 36.4298 11.8222 36.0963 11.7639C35.7151 11.7004 35.4266 11.6475 35.2307 11.6051C34.9236 11.5363 34.6959 11.486 34.5477 11.4542C34.283 11.4066 34.0527 11.3881 33.8568 11.3986C33.5074 11.4251 33.1844 11.5416 32.8879 11.7481C32.5967 11.9598 32.3876 12.2272 32.2606 12.5502C32.0964 13.0055 32.1282 13.482 32.3559 13.9796C32.5782 14.4508 32.9118 14.8082 33.3565 15.0517C33.4571 15.0994 33.7588 15.2238 34.2618 15.425C34.6324 15.5679 34.9104 15.7241 35.0957 15.8935C35.2969 16.0735 35.5166 16.415 35.7548 16.918L37.8434 21.3652C38.1452 21.9952 38.3676 22.4876 38.5105 22.8423C38.7276 23.3982 38.8917 23.9091 39.0029 24.375C39.0399 24.5445 39.0902 24.7959 39.1538 25.1295C39.212 25.426 39.2755 25.6748 39.3444 25.876C39.3867 26.003 39.5058 26.2889 39.7017 26.7337C39.8553 27.0884 39.9532 27.3822 39.9956 27.6152C40.022 27.7264 40.0538 27.8984 40.0909 28.1314C40.1332 28.3326 40.1968 28.4914 40.2815 28.6079C40.5303 28.9467 40.9962 29.0685 41.6792 28.9732C42.3251 28.8832 42.7539 28.6661 42.9657 28.322C43.061 28.142 43.1192 27.8693 43.1404 27.504C43.2198 26.2704 43.2225 25.0818 43.1483 23.9383C43.1166 23.3877 43.0689 22.9456 43.0054 22.612C42.9207 22.1832 42.783 21.7173 42.5924 21.2143C42.4707 20.8914 42.2801 20.4414 42.0207 19.8643L40.7818 17.1324C40.4324 16.3541 40.165 15.7823 39.9797 15.417C39.662 14.787 39.3417 14.2443 39.0188 13.789C38.3676 12.8678 37.6714 12.2643 36.9302 11.9784Z" fill="#C4C2C2"/>
<path d="M15.0355 13.7256L10.2468 14.3927C9.24088 14.5304 8.66909 14.9539 8.53144 15.6634C8.45732 16.0604 8.5182 16.5475 8.71409 17.1246C11.5466 29.021 15.2367 40.0649 19.7845 50.2565C19.9434 50.7171 20.1419 51.1063 20.3802 51.4239C20.9678 52.1863 21.8202 52.4907 22.9373 52.3372L38.8044 49.5894L36.827 48.2394L23.4932 50.0898C23.0379 50.1268 22.6699 49.923 22.3893 49.4783C16.8144 39.3767 13.209 28.6001 11.573 17.1484C11.3242 16.5396 11.4566 16.1716 11.9701 16.0446L16.9494 15.3457C16.9441 15.2133 16.9177 15.0783 16.87 14.9407C16.8224 14.7924 16.7588 14.6548 16.6794 14.5277C16.5471 14.3318 16.3697 14.1571 16.1473 14.0036C15.782 13.7706 15.4114 13.678 15.0355 13.7256ZM25.2721 9.95343C24.9068 9.69401 24.5388 9.58812 24.1682 9.63577L20.9916 10.0805C20.6263 10.1334 20.359 10.3055 20.1896 10.5967C20.0148 10.8773 20.0572 11.4914 20.3166 12.4391L19.1572 12.6297C18.1618 12.7674 17.5953 13.1936 17.4577 13.9083C17.373 14.3001 17.4259 14.7819 17.6165 15.3536L17.9739 16.4972H17.9898C17.9898 16.5078 17.9924 16.521 17.9977 16.5369C18.0401 16.6481 18.1115 16.7381 18.2121 16.8069C18.3286 16.8758 18.4398 16.9022 18.5457 16.8864L31.2521 15.1154C31.6227 15.0625 31.7153 14.856 31.53 14.496C31.53 14.4907 31.5221 14.4854 31.5062 14.4801L31.1568 13.4715C30.9662 12.8997 30.7094 12.4471 30.3864 12.1135C29.8041 11.4994 29.0099 11.2585 28.004 11.3908L26.3363 11.6291C25.9974 10.7661 25.6427 10.2076 25.2721 9.95343ZM24.1524 10.5093C24.29 10.4829 24.425 10.5173 24.5574 10.6126C24.7056 10.7026 24.8009 10.8191 24.8433 10.962C24.8909 11.0944 24.8777 11.2214 24.8036 11.3432C24.74 11.4597 24.6394 11.5311 24.5018 11.5576L21.9129 11.915C21.7752 11.9309 21.6349 11.8938 21.492 11.8038C21.3649 11.7138 21.2775 11.6 21.2299 11.4623C21.1875 11.3194 21.1928 11.1897 21.2458 11.0732C21.3199 10.9514 21.4258 10.8826 21.5634 10.8667L24.1524 10.5093ZM36.2076 12.6694C36.8111 12.6377 37.2029 12.9315 37.3829 13.5509C40.0671 18.5382 42.0763 23.5255 43.4105 28.5127L45.1259 28.1395L39.9956 12.7727C39.8051 12.2009 39.5483 11.7403 39.2253 11.3908C38.6377 10.7873 37.8409 10.5543 36.8349 10.692L32.7768 11.2558C32.3956 11.3088 32.1203 11.4914 31.9509 11.8038C31.8397 11.9997 31.7894 12.2088 31.8 12.4312C31.8053 12.5635 31.8318 12.7038 31.8794 12.8521C31.9271 12.9897 31.9906 13.1221 32.07 13.2492L36.2076 12.6694Z" fill="#4C3451"/>
<path d="M24.5575 10.6122C24.4251 10.5169 24.2901 10.4825 24.1525 10.509L21.5635 10.8663C21.4259 10.8822 21.32 10.951 21.2459 11.0728C21.1929 11.1893 21.1876 11.319 21.23 11.4619C21.2776 11.5996 21.365 11.7134 21.4921 11.8034C21.635 11.8934 21.7753 11.9305 21.913 11.9146L24.5019 11.5572C24.6395 11.5308 24.7401 11.4593 24.8037 11.3428C24.8778 11.2211 24.891 11.094 24.8434 10.9616C24.801 10.8187 24.7057 10.7022 24.5575 10.6122Z" fill="white"/>
<path d="M26.5665 21.405C26.4977 21.5426 26.4924 21.6935 26.5506 21.8576C26.6036 22.0271 26.7041 22.1594 26.8524 22.2547C27.0112 22.3606 27.1727 22.4003 27.3368 22.3738L37.6846 20.9364C37.8487 20.9153 37.9652 20.8358 38.034 20.6982C38.1134 20.5711 38.1267 20.4229 38.0737 20.2535C38.0155 20.0893 37.907 19.9543 37.7481 19.8485C37.5999 19.7479 37.4437 19.7082 37.2796 19.7293L26.9318 21.1667C26.7677 21.1932 26.6459 21.2726 26.5665 21.405ZM36.7475 18.1331C36.9116 18.1119 37.0281 18.0325 37.0969 17.8948C37.1763 17.7625 37.1869 17.6142 37.1287 17.4501C37.0757 17.2807 36.9699 17.1457 36.811 17.0451C36.6628 16.9445 36.5066 16.9048 36.3425 16.926L25.9947 18.3634C25.8306 18.3899 25.7088 18.4693 25.6294 18.6016C25.5606 18.734 25.5526 18.8849 25.6056 19.0543C25.6638 19.2184 25.767 19.3508 25.9153 19.4514C26.0741 19.5573 26.2356 19.597 26.3997 19.5705L36.7475 18.1331ZM33.7138 41.4493L34.4365 41.354L34.1903 39.9881L33.3088 40.2502C33.1447 40.2766 33.0229 40.3534 32.9435 40.4805C32.8747 40.6181 32.8694 40.769 32.9276 40.9331C32.9806 41.1026 33.0812 41.2349 33.2294 41.3302C33.3882 41.4361 33.5497 41.4758 33.7138 41.4493ZM32.7767 38.646L33.968 38.5189L34.1506 37.1292L32.3717 37.4389C32.2076 37.4653 32.0858 37.5448 32.0064 37.6771C31.9376 37.8148 31.9297 37.9657 31.9826 38.1298C32.0408 38.2992 32.1441 38.4316 32.2923 38.5269C32.4511 38.6327 32.6126 38.6724 32.7767 38.646ZM29.7352 30.8712C29.6663 31.0089 29.6584 31.1598 29.7113 31.3239C29.7696 31.4933 29.8728 31.6257 30.021 31.721C30.1746 31.8269 30.3334 31.8666 30.4975 31.8401L37.2081 30.911L37.4702 29.6165L30.1005 30.6409C29.9363 30.6674 29.8146 30.7442 29.7352 30.8712ZM28.7981 28.0679C28.7239 28.2056 28.716 28.3564 28.7742 28.5206C28.8325 28.69 28.9357 28.8223 29.084 28.9176C29.2375 29.0235 29.3963 29.0632 29.5604 29.0368L39.9082 27.5994C40.0723 27.5782 40.1915 27.4988 40.2656 27.3611C40.345 27.234 40.3556 27.0858 40.2973 26.9164C40.2391 26.7523 40.1332 26.6173 39.9797 26.5114C39.8314 26.4108 39.6753 26.3711 39.5111 26.3922L29.1634 27.8297C28.9992 27.8561 28.8775 27.9355 28.7981 28.0679Z" fill="#4C3451"/>
<path d="M40.9043 39.2411L39.9498 38.5934L39.8731 38.5508C39.8219 38.511 39.7651 38.494 39.7026 38.4997C39.6458 38.511 39.6032 38.5423 39.5748 38.5934C39.535 38.6673 39.5435 38.7411 39.6003 38.815L40.2225 39.6502L40.231 39.6758L41.6628 41.3462L42.3957 42.0876C42.8162 42.5081 43.3417 42.9768 43.9724 43.4938L44.7565 44.0989L44.7905 44.133L44.8843 44.1927C45.0832 44.3518 45.2451 44.4683 45.3701 44.5421L45.6684 44.7552L45.6769 44.7722L45.7195 44.7807L45.728 44.7893V44.7978H45.7365L45.8985 44.8915C46.0121 44.9597 46.1201 45.0165 46.2223 45.062C46.3303 45.0961 46.3985 45.116 46.4269 45.1216C46.5121 45.1501 46.5831 45.1671 46.6399 45.1728H46.6825L46.7081 45.1813L46.7507 45.1728H46.7933L46.8786 45.1643L46.9041 45.1728L46.9553 45.1557L47.0661 45.1387L47.4155 44.9682L47.5348 44.8404L47.5774 44.8148L47.5859 44.7807H47.5944L47.6115 44.7552L47.6285 44.7467L47.9268 44.2012C49.2131 39.5075 50.892 35.2065 52.9636 31.2982C52.9807 31.247 52.975 31.193 52.9466 31.1362C52.9125 31.0794 52.867 31.0396 52.8102 31.0169C52.7193 30.9658 52.6483 30.9658 52.5972 31.0169L52.367 31.2044L50.9353 32.6788L49.0859 35.1929C48.6995 35.7952 48.3672 36.3435 48.0888 36.8378L47.1342 38.6616C46.8331 39.2866 46.549 39.9314 46.282 40.5962C46.0945 41.0507 45.8843 41.6075 45.6513 42.2666L43.8786 41.2013C43.8502 41.1899 43.7821 41.1502 43.6741 41.082L43.6315 41.0394L43.5718 41.0223L42.6599 40.4257L42.6088 40.4002L40.9639 39.2923L40.9043 39.2411ZM46.8104 42.8632H46.7592L46.7252 42.8376L46.6825 42.8206L46.5291 42.7268C46.5632 42.7382 46.6002 42.7495 46.6399 42.7609L46.7337 42.8035H46.7422L46.8104 42.8461V42.8632ZM35.7482 33.2413C35.7368 33.264 35.7255 33.2782 35.7141 33.2839L35.0834 34.4344L34.6147 35.7554L34.3505 37.7326L34.4528 39.3178C34.4812 39.5564 34.5181 39.7922 34.5636 40.0252L34.5976 40.1615V40.2212L34.7084 40.6473L34.734 40.7155V40.7411L35.484 42.8632C35.5976 43.0961 35.7169 43.3319 35.8419 43.5705L36.6942 44.9512C37.0578 45.4569 37.4044 45.8858 37.7339 46.2381L38.3049 46.8347C38.5152 47.0449 38.7197 47.2352 38.9185 47.4057L40.0435 48.2835L40.0606 48.3091L40.3162 48.471L40.3844 48.5306L40.5208 48.6159L40.5549 48.65C40.5719 48.6556 40.589 48.6613 40.606 48.667L40.6145 48.6926L41.9185 49.4425L42.2849 49.613C42.444 49.6925 42.6883 49.8005 43.0179 49.9369C43.5065 50.1414 44.0036 50.309 44.5093 50.4397L44.6031 50.4738L45.4553 50.6613L46.9467 50.8147L48.191 50.7891C48.2649 50.7777 48.3217 50.7749 48.3615 50.7806L49.2734 50.6527L49.3501 50.6272C49.4239 50.6158 49.4779 50.6044 49.512 50.5931C49.5802 50.5817 49.6342 50.5704 49.6739 50.559L49.7506 50.5505L50.1512 50.4482C50.2876 50.4141 50.4893 50.3488 50.7563 50.2522L51.3443 50.0306C51.3784 50.0192 51.5659 49.9283 51.9068 49.7579L52.6909 49.2721L52.7335 49.2551L52.7506 49.238L53.0574 49.0164L54.0119 48.113L54.1738 47.8915C54.3954 47.6301 54.6085 47.3318 54.813 46.9966L55.0516 46.5534L55.0772 46.5279L55.1369 46.4085L55.1454 46.3744L55.1624 46.3574V46.3404L55.1965 46.2892L55.2817 46.0676C55.4011 45.7836 55.5232 45.4654 55.6482 45.1131L55.8698 44.133C55.938 43.7296 55.9749 43.4029 55.9806 43.1529C56.0033 42.7836 56.0061 42.4711 55.9891 42.2155C55.9664 41.9541 55.9294 41.6473 55.8783 41.295L55.6908 40.4513C55.6283 40.1843 55.5545 39.9229 55.4692 39.6673L54.9664 38.4911L54.9494 38.4741L54.9408 38.44L54.0034 36.8548C53.85 36.6332 53.688 36.423 53.5176 36.2242L53.0659 35.7213L53.0488 35.6872C52.9977 35.6361 52.9437 35.6077 52.8869 35.602C52.8131 35.602 52.7591 35.6162 52.725 35.6446C52.6454 35.7242 52.6426 35.8151 52.7165 35.9174L52.921 36.2583L52.9636 36.3094L53.4579 37.2639L53.85 38.2099L54.2676 39.7013C54.3073 39.8831 54.3443 40.1076 54.3784 40.3746C54.4409 40.8746 54.4579 41.3661 54.4295 41.849C54.4124 42.1331 54.3812 42.3888 54.3357 42.616C54.2903 42.9172 54.2306 43.1728 54.1568 43.3831C54.0147 43.9115 53.7988 44.4171 53.5091 44.9001L53.3897 45.0876L53.3727 45.1472L53.0403 45.6245C52.8642 45.8574 52.6739 46.0847 52.4693 46.3063C52.3898 46.3915 52.2818 46.4938 52.1455 46.6131L52.0688 46.6898L51.0205 47.4057C50.725 47.5591 50.4296 47.6926 50.1342 47.8062L48.6512 48.1897L47.032 48.3005C46.6513 48.2892 46.2763 48.2551 45.907 48.1983C45.674 48.1642 45.4894 48.1301 45.353 48.096L44.3559 47.8233L44.2877 47.7892L43.6571 47.5591C43.5264 47.5023 43.3389 47.4142 43.0946 47.2949L41.5776 46.4L41.552 46.3744L41.1003 46.0676L41.0492 46.008L40.981 45.9654L40.4952 45.5648C39.8475 45.008 39.285 44.3944 38.8078 43.724C38.3589 43.099 37.9726 42.3973 37.6487 41.6189L37.1288 40.0508V40.0167L36.9925 39.3945C36.93 39.0309 36.8902 38.6701 36.8732 38.3122L36.8817 37.6559L37.0351 36.5139L37.4015 35.3634L37.4527 35.2526C37.4584 35.2242 37.4726 35.1873 37.4953 35.1418L37.7595 34.6134C37.7652 34.6077 37.7652 34.6049 37.7595 34.6049V34.5964L37.7851 34.5708L37.8021 34.5111L38.2708 33.8038L38.3135 33.7612C38.4385 33.585 38.6316 33.3634 38.893 33.0964L39.5407 32.5339C39.9895 32.193 40.4668 31.926 40.9725 31.7328C41.1429 31.6646 41.3958 31.5794 41.731 31.4771L42.481 31.2896L43.9468 31.1448C44.4468 31.1448 44.8928 31.1703 45.2849 31.2215L46.674 31.5197L47.3388 31.7328L48.5575 32.2782C48.6143 32.301 48.6711 32.3067 48.7279 32.2953C48.7791 32.2726 48.816 32.2356 48.8387 32.1845C48.8842 32.0936 48.8529 32.0027 48.745 31.9118L47.441 31.051L47.2706 30.9573L45.907 30.3607C45.6172 30.2584 45.3928 30.1874 45.2337 30.1476L43.5804 29.8323L42.7281 29.7812L42.6684 29.7897H42.0548L42.0122 29.7982H41.944C41.6088 29.8266 41.2992 29.8635 41.0151 29.909C40.6969 29.9544 40.3787 30.0198 40.0606 30.105L39.3702 30.3351H39.3447L39.106 30.4289C38.7879 30.5766 38.4754 30.7357 38.1686 30.9061C37.8902 31.0709 37.5976 31.2754 37.2908 31.5197C36.9385 31.8322 36.6743 32.0879 36.4982 32.2868L35.7993 33.1561L35.7482 33.2413Z" fill="#FDCA0C"/>
<path d="M17.2144 21.2646C16.9911 20.5966 17.2056 20.2173 17.8578 20.1265L21.1353 19.6706C21.2443 19.6562 21.3222 19.6034 21.369 19.5123C21.4227 19.4257 21.4306 19.3267 21.3927 19.2154C21.3561 19.1039 21.2846 19.0125 21.1781 18.9412C21.0795 18.8772 20.9759 18.8532 20.8673 18.8691L17.5898 19.325C16.4158 19.4883 16.0298 20.1711 16.4317 21.3735L17.9155 25.8122C18.3174 27.0146 19.1054 27.5341 20.2794 27.3708L24.3494 26.8047C25.5234 26.6414 25.9095 25.9586 25.5075 24.7562L24.5898 22.0108C24.5532 21.8993 24.4817 21.8078 24.3753 21.7365C24.2766 21.6726 24.173 21.6486 24.0645 21.6644C23.9554 21.6788 23.8731 21.7287 23.8176 21.8141C23.7726 21.9065 23.7692 22.0083 23.8071 22.1196L24.7248 24.8651C24.9481 25.533 24.7337 25.9124 24.0814 26.0031L20.0115 26.5692C19.3592 26.66 18.9215 26.3713 18.6982 25.7034L17.2144 21.2646Z" fill="#4C3451"/>
<path d="M23.2956 17.2206C23.148 17.2691 23.0498 17.3632 23.0009 17.5028L22.264 19.9541L21.6519 23.6358L19.6604 21.7213C19.5265 21.5862 19.3724 21.5132 19.1982 21.5025C19.0217 21.4851 18.8806 21.5327 18.7749 21.6453C18.6757 21.7569 18.6323 21.8923 18.6445 22.0514C18.6567 22.2104 18.721 22.3518 18.8374 22.4754L21.798 25.4819C21.9407 25.6229 22.1079 25.7045 22.2996 25.7267C22.4891 25.7423 22.6432 25.6929 22.762 25.5785C22.8571 25.4954 22.9084 25.3834 22.9159 25.2426L22.9223 25.2312L23.3343 21.808L24.2073 18.0795L24.2137 18.0681C24.2581 17.9151 24.2329 17.7579 24.1379 17.5963C24.0495 17.4338 23.919 17.3192 23.7465 17.2523C23.587 17.1836 23.4367 17.1731 23.2956 17.2206Z" fill="#FDCA0C"/>
<path d="M20.5694 31.2724C20.3461 30.6045 20.5605 30.2251 21.2128 30.1344L24.4903 29.6785C24.5993 29.6641 24.6772 29.6113 24.724 29.5202C24.7777 29.4335 24.7856 29.3346 24.7476 29.2233C24.7111 29.1118 24.6396 29.0203 24.5331 28.949C24.4344 28.8851 24.3308 28.861 24.2223 28.8769L20.9448 29.3328C19.7708 29.4961 19.3847 30.1789 19.7867 31.3813L21.2705 35.8201C21.6724 37.0224 22.4604 37.542 23.6344 37.3787L27.7044 36.8125C28.8784 36.6492 29.2644 35.9664 28.8625 34.764L27.9448 32.0186C27.9082 31.9071 27.8367 31.8157 27.7302 31.7444C27.6316 31.6804 27.528 31.6564 27.4195 31.6723C27.3104 31.6867 27.2281 31.7366 27.1726 31.8219C27.1276 31.9143 27.1241 32.0162 27.1621 32.1275L28.0798 34.8729C28.3031 35.5409 28.0886 35.9202 27.4364 36.011L23.3664 36.5771C22.7142 36.6678 22.2764 36.3792 22.0531 35.7112L20.5694 31.2724Z" fill="#4C3451"/>
<path d="M27.4929 27.6041C27.4045 27.4417 27.274 27.327 27.1015 27.2601C26.942 27.1914 26.7917 27.1809 26.6506 27.2285C26.503 27.277 26.4048 27.371 26.3559 27.5107L25.6191 29.9619L25.0069 33.6437L23.0154 31.7292C22.8815 31.594 22.7274 31.5211 22.5532 31.5103C22.3767 31.4929 22.2357 31.5405 22.1299 31.6531C22.0308 31.7648 21.9873 31.9001 21.9995 32.0592C22.0117 32.2183 22.076 32.3596 22.1924 32.4833L25.153 35.4898C25.2957 35.6307 25.4629 35.7123 25.6546 35.7346C25.8441 35.7502 25.9982 35.7008 26.117 35.5864C26.2121 35.5032 26.2634 35.3912 26.2709 35.2504L26.2773 35.239L26.6893 31.8158L27.5623 28.0873L27.5687 28.0759C27.6131 27.923 27.5879 27.7657 27.4929 27.6041Z" fill="#FDCA0C"/>
<path d="M23.9016 41.2923C23.6783 40.6243 23.8928 40.245 24.545 40.1542L27.8225 39.6983C27.9315 39.6839 28.0094 39.6311 28.0563 39.54C28.1099 39.4534 28.1178 39.3544 28.0799 39.2431C28.0433 39.1316 27.9718 39.0402 27.8654 38.9689C27.7667 38.9049 27.6631 38.8809 27.5546 38.8968L24.2771 39.3527C23.103 39.516 22.717 40.1988 23.1189 41.4012L24.6027 45.8399C25.0046 47.0423 25.7926 47.5618 26.9666 47.3985L31.0366 46.8324C32.2106 46.6691 32.5967 45.9863 32.1948 44.7839L31.277 42.0385C31.2405 41.927 31.169 41.8355 31.0625 41.7642C30.9638 41.7003 30.8602 41.6763 30.7517 41.6921C30.6427 41.7065 30.5604 41.7564 30.5048 41.8418C30.4599 41.9342 30.4564 42.036 30.4943 42.1473L31.4121 44.8928C31.6354 45.5607 31.4209 45.9401 30.7687 46.0308L26.6987 46.5969C26.0465 46.6877 25.6087 46.399 25.3854 45.731L23.9016 41.2923Z" fill="#4C3451"/>
<path d="M30.8243 37.624C30.7359 37.4615 30.6054 37.3468 30.4329 37.2799C30.2734 37.2113 30.1231 37.2007 29.9821 37.2483C29.8345 37.2968 29.7362 37.3908 29.6873 37.5305L28.9505 39.9817L28.3383 43.6635L26.3468 41.749C26.2129 41.6138 26.0588 41.5409 25.8846 41.5301C25.7082 41.5127 25.5671 41.5603 25.4614 41.6729C25.3622 41.7846 25.3187 41.9199 25.3309 42.079C25.3431 42.2381 25.4075 42.3794 25.5239 42.5031L28.4844 45.5096C28.6271 45.6505 28.7943 45.7321 28.986 45.7544C29.1755 45.77 29.3297 45.7206 29.4484 45.6062C29.5435 45.523 29.5948 45.4111 29.6023 45.2702L29.6088 45.2588L30.0207 41.8356L30.8937 38.1071L30.9001 38.0958C30.9446 37.9428 30.9193 37.7855 30.8243 37.624Z" fill="#FDCA0C"/>
<path d="M10.5634 15.6619C10.2616 16.3184 10.2404 17.2158 10.4998 18.3541C10.6957 19.2541 10.9922 20.2759 11.3893 21.4195C11.5005 21.753 11.8658 22.7537 12.4852 24.4214C12.967 25.7026 13.4461 27.0288 13.9226 28.4001C14.2668 29.4113 14.6771 30.6475 15.1536 32.1088C15.4236 32.9294 15.8233 34.1683 16.3527 35.8254C16.9616 37.689 17.5201 39.3673 18.0284 40.8603C18.4308 42.0462 18.759 42.9727 19.0131 43.6398C19.3996 44.6563 19.794 45.5564 20.1964 46.3399C20.3923 46.7158 20.5167 46.9567 20.5697 47.0626C20.6967 47.3379 20.7894 47.5894 20.8476 47.817C20.8582 47.8488 20.9059 48.0976 20.9906 48.5635C21.0488 48.86 21.1229 49.0983 21.2129 49.2783C21.6524 50.1254 22.6874 50.5119 24.3181 50.4377C25.2869 50.4007 26.7402 50.2736 28.6779 50.0565C30.3933 49.9242 31.8307 49.9745 32.9902 50.2074C33.2231 50.2551 33.2607 49.5066 33.7213 49.6019C34.1184 49.6601 34.9301 49.1601 35.2213 49.1019C35.6925 49.0066 35.9312 50.0698 36.2541 49.6515C36.5771 49.2386 36.728 48.7912 36.7068 48.3094C36.6856 47.7906 36.4791 47.3114 36.0874 46.872C35.722 46.4696 35.2747 46.1732 34.7452 45.9826C34.3005 45.8184 33.7764 45.7178 33.1728 45.6808C32.8605 45.6596 32.4051 45.6596 31.8069 45.6808C31.8334 45.649 31.8598 45.6146 31.8863 45.5775C31.9975 45.3869 32.0584 45.0852 32.069 44.6722C32.0848 44.1375 32.0531 43.7404 31.9737 43.481C31.9154 43.2957 31.7725 42.9992 31.5448 42.5915C31.3648 42.2368 31.2139 41.8821 31.0922 41.5274C30.928 40.9238 30.7824 40.4765 30.6554 40.1853C30.4277 39.6664 30.1206 39.3276 29.7342 39.1687C29.6547 39.137 29.5436 39.1026 29.4006 39.0655C29.2259 39.0285 29.1147 39.002 29.0671 38.9861C28.8024 38.8643 28.6012 38.7849 28.4635 38.7479C28.1829 38.6631 27.8573 38.6658 27.4867 38.7558C27.3385 38.7876 27.0155 38.8961 26.5178 39.0814C26.0943 39.2243 25.6946 39.3276 25.3187 39.3911C25.0804 39.4335 24.9375 39.4626 24.8898 39.4785C24.7257 39.5155 24.5881 39.5711 24.4769 39.6452C24.2228 39.82 24.0586 40.1138 23.9845 40.5267C23.9051 40.9662 23.9501 41.4877 24.1195 42.0912C24.2148 42.4407 24.371 42.9595 24.5881 43.6478C24.6092 43.7431 24.6516 43.9389 24.7151 44.2354C24.5139 44.0978 24.3631 43.9839 24.2625 43.8939C24.0666 43.7033 23.8919 43.4598 23.7383 43.1633C23.6324 42.9621 23.516 42.6736 23.3889 42.2977L22.2136 39.002C21.5306 37.1013 21.0356 35.6295 20.7285 34.5865C20.4903 33.7288 20.3102 33.0829 20.1885 32.6488C19.9714 31.8758 19.7729 31.2352 19.5929 30.7269C19.487 30.4146 19.217 29.7184 18.7828 28.6383C18.4387 27.7806 18.1872 27.0765 18.0284 26.5259C17.9543 26.2612 17.8087 25.6629 17.5916 24.7311C17.4222 23.9952 17.2554 23.4075 17.0913 22.9681C16.9854 22.6981 16.7127 22.0972 16.2733 21.1654C15.9186 20.4189 15.683 19.8021 15.5665 19.315C15.4183 18.2667 15.2992 17.4885 15.2092 16.9802C15.0503 16.0696 14.7406 15.3972 14.28 14.9631C13.7453 14.4601 13.0702 14.2854 12.2549 14.4389C11.4396 14.5925 10.8757 15.0001 10.5634 15.6619ZM27.2564 30.1313C27.0288 29.6125 26.7217 29.2736 26.3352 29.1148C26.2558 29.083 26.1446 29.0486 26.0017 29.0116C25.8269 28.9745 25.7131 28.9454 25.6602 28.9242C25.4007 28.8077 25.2022 28.7283 25.0646 28.686C24.784 28.6013 24.4584 28.6039 24.0878 28.6939C23.9395 28.731 23.6139 28.8395 23.1109 29.0195C22.6927 29.1678 22.2956 29.2736 21.9197 29.3372C21.6815 29.3742 21.5359 29.4034 21.4829 29.4245C21.3188 29.4616 21.1838 29.5172 21.0779 29.5913C20.8238 29.7607 20.6597 30.0546 20.5855 30.4728C20.5061 30.9069 20.5511 31.4284 20.7206 32.0373C20.8159 32.3867 20.972 32.9029 21.1891 33.5859C21.2156 33.6971 21.2659 33.938 21.34 34.3086C21.3982 34.5997 21.4565 34.8353 21.5147 35.0154C21.6841 35.566 21.9568 35.9604 22.3327 36.1986C22.555 36.3363 22.8277 36.421 23.1507 36.4528C23.3518 36.4686 23.6457 36.466 24.0322 36.4448C24.3922 36.4236 24.9004 36.3945 25.5569 36.3575C26.0122 36.331 26.3511 36.3072 26.5734 36.286C26.944 36.2383 27.2749 36.1748 27.5661 36.0954C28.0214 35.963 28.3285 35.7724 28.4873 35.5236C28.5985 35.333 28.6594 35.0286 28.67 34.6103C28.6806 34.0756 28.6462 33.6812 28.5668 33.4271C28.5138 33.2418 28.3735 32.9426 28.1459 32.5297C27.9606 32.1802 27.8097 31.8255 27.6932 31.4655C27.5291 30.8619 27.3835 30.4172 27.2564 30.1313ZM24.3657 21.3242C24.2016 20.7207 24.056 20.2759 23.9289 19.99C23.7066 19.4712 23.4021 19.1323 23.0156 18.9735C22.9362 18.9365 22.8251 18.902 22.6821 18.8703C22.5021 18.8279 22.3883 18.7988 22.3406 18.7829C22.0759 18.6665 21.8774 18.587 21.745 18.5447C21.4591 18.46 21.1309 18.4626 20.7603 18.5526C20.612 18.5897 20.2891 18.6982 19.7914 18.8782C19.3731 19.0265 18.9761 19.1323 18.6002 19.1959C18.3619 19.2329 18.2163 19.2621 18.1634 19.2832C17.9993 19.3203 17.8616 19.3759 17.7504 19.45C17.4963 19.6194 17.3322 19.9133 17.2581 20.3315C17.1786 20.7657 17.2236 21.2871 17.3931 21.896C17.4937 22.2401 17.6498 22.7563 17.8616 23.4446C17.8934 23.5558 17.9463 23.794 18.0204 24.1593C18.0734 24.4558 18.129 24.694 18.1872 24.8741C18.3566 25.4247 18.6293 25.8191 19.0052 26.0573C19.2276 26.1897 19.5002 26.2744 19.8232 26.3115C20.0296 26.3273 20.3261 26.3247 20.7126 26.3035C21.0673 26.2823 21.5756 26.2532 22.2374 26.2162C22.6927 26.1897 23.0315 26.1632 23.2539 26.1368C23.6192 26.0944 23.9475 26.0335 24.2386 25.9541C24.694 25.8217 25.001 25.6311 25.1599 25.3823C25.2763 25.1864 25.3399 24.882 25.3504 24.469C25.361 23.9343 25.3266 23.5399 25.2472 23.2858C25.189 23.0952 25.046 22.796 24.8184 22.3884C24.6384 22.0389 24.4875 21.6842 24.3657 21.3242ZM37.1515 11.58C36.9292 11.4953 36.6512 11.4238 36.3177 11.3656C35.9365 11.302 35.6479 11.2491 35.452 11.2067C35.145 11.1379 34.9173 11.0876 34.7691 11.0558C34.5043 11.0082 34.274 10.9897 34.0782 11.0003C33.7287 11.0267 33.4058 11.1432 33.1093 11.3497C32.8181 11.5615 32.609 11.8288 32.4819 12.1518C32.3178 12.6071 32.3496 13.0836 32.5772 13.5812C32.7996 14.0524 33.1331 14.4098 33.5778 14.6533C33.6784 14.701 33.9802 14.8254 34.4832 15.0266C34.8538 15.1695 35.1317 15.3257 35.317 15.4951C35.5182 15.6752 35.7379 16.0166 35.9762 16.5196L38.0648 20.9668C38.3666 21.5969 38.5889 22.0892 38.7319 22.444C38.9489 22.9999 39.1131 23.5108 39.2242 23.9767C39.2613 24.1461 39.3116 24.3976 39.3751 24.7311C39.4334 25.0276 39.4969 25.2764 39.5657 25.4776C39.6081 25.6047 39.7272 25.8906 39.9231 26.3353C40.0766 26.69 40.1746 26.9838 40.2169 27.2168C40.2434 27.328 40.2752 27.5 40.3122 27.733C40.3546 27.9342 40.4181 28.093 40.5028 28.2095C40.7517 28.5483 41.2176 28.6701 41.9005 28.5748C42.5464 28.4848 42.9753 28.2677 43.1871 27.9236C43.2824 27.7436 43.3406 27.4709 43.3618 27.1056C43.4412 25.872 43.4438 24.6835 43.3697 23.5399C43.3379 22.9893 43.2903 22.5472 43.2268 22.2137C43.1421 21.7848 43.0044 21.3189 42.8138 20.8159C42.692 20.493 42.5014 20.043 42.242 19.4659L41.0031 16.734C40.6537 15.9557 40.3864 15.384 40.2011 15.0187C39.8834 14.3886 39.5631 13.846 39.2401 13.3906C38.5889 12.4694 37.8927 11.8659 37.1515 11.58Z" fill="#C4C2C2"/>
<path d="M11.5726 17.1464C11.3237 16.5376 11.4561 16.1697 11.9696 16.0426L16.9488 15.3437C16.9435 15.2114 16.9171 15.0764 16.8694 14.9387C16.8218 14.7905 16.7583 14.6529 16.6788 14.5258C16.5465 14.3299 16.3691 14.1552 16.1468 14.0017C15.7815 13.7687 15.4109 13.6761 15.035 13.7237L10.2464 14.3908C9.24046 14.5284 8.66869 14.952 8.53104 15.6614C8.45692 16.0585 8.5178 16.5455 8.71369 17.1226C11.5461 29.0187 15.2362 40.0624 19.7839 50.2538C19.9427 50.7144 20.1413 51.1035 20.3795 51.4212C20.9672 52.1836 21.8195 52.488 22.9366 52.3344L38.8034 49.5867L36.826 48.2367L23.4925 50.087C23.0372 50.1241 22.6692 49.9203 22.3886 49.4756C16.8138 39.3742 13.2085 28.5978 11.5726 17.1464ZM25.2714 9.95159C24.906 9.69218 24.5381 9.58629 24.1675 9.63394L20.991 10.0787C20.6257 10.1316 20.3583 10.3037 20.1889 10.5948C20.0142 10.8754 20.0565 11.4896 20.316 12.4372L19.1565 12.6278C18.1612 12.7655 17.5947 13.1917 17.4571 13.9064C17.3724 14.2981 17.4253 14.7799 17.6159 15.3517L17.9733 16.4952H17.9892C17.9892 16.5058 17.9918 16.5191 17.9971 16.5349C18.0395 16.6461 18.1109 16.7361 18.2115 16.805C18.328 16.8738 18.4392 16.9002 18.545 16.8844L31.2512 15.1135C31.6218 15.0605 31.7144 14.854 31.5291 14.494C31.5291 14.4887 31.5212 14.4834 31.5053 14.4781L31.1559 13.4696C30.9653 12.8978 30.7085 12.4452 30.3856 12.1116C29.8032 11.4975 29.0091 11.2566 28.0032 11.389L26.3355 11.6272C25.9967 10.7643 25.6419 10.2057 25.2714 9.95159ZM24.1516 10.5075C24.2893 10.481 24.4243 10.5154 24.5566 10.6107C24.7049 10.7007 24.8002 10.8172 24.8425 10.9601C24.8902 11.0925 24.8769 11.2196 24.8028 11.3413C24.7393 11.4578 24.6387 11.5293 24.501 11.5557L21.9122 11.9131C21.7745 11.929 21.6342 11.8919 21.4913 11.8019C21.3642 11.7119 21.2769 11.5981 21.2292 11.4604C21.1869 11.3175 21.1922 11.1878 21.2451 11.0713C21.3192 10.9495 21.4251 10.8807 21.5628 10.8648L24.1516 10.5075ZM36.2066 12.6675C36.8101 12.6358 37.2019 12.9296 37.3819 13.549C40.066 18.5362 42.0752 23.5233 43.4093 28.5105L45.1247 28.1372L39.9946 12.7708C39.804 12.199 39.5472 11.7384 39.2243 11.389C38.6366 10.7854 37.8398 10.5525 36.8339 10.6901L32.7759 11.254C32.3947 11.3069 32.1194 11.4896 31.95 11.8019C31.8388 11.9978 31.7885 12.2069 31.7991 12.4293C31.8044 12.5616 31.8309 12.7019 31.8785 12.8502C31.9262 12.9878 31.9897 13.1202 32.0691 13.2472L36.2066 12.6675Z" fill="#4C3451"/>
<path d="M24.5571 10.6111C24.4247 10.5158 24.2897 10.4814 24.1521 10.5078L21.5632 10.8652C21.4256 10.8811 21.3197 10.9499 21.2456 11.0717C21.1926 11.1881 21.1873 11.3179 21.2297 11.4608C21.2773 11.5984 21.3647 11.7123 21.4917 11.8023C21.6347 11.8923 21.775 11.9293 21.9126 11.9135L24.5015 11.5561C24.6392 11.5296 24.7397 11.4582 24.8033 11.3417C24.8774 11.2199 24.8906 11.0929 24.843 10.9605C24.8006 10.8176 24.7053 10.7011 24.5571 10.6111Z" fill="white"/>
<path d="M34.4349 41.3496L34.1887 39.9838L33.3073 40.2458C33.1431 40.2723 33.0214 40.3491 32.942 40.4761C32.8731 40.6138 32.8679 40.7647 32.9261 40.9288C32.979 41.0982 33.0796 41.2305 33.2279 41.3258C33.3867 41.4317 33.5481 41.4714 33.7123 41.4449L34.4349 41.3496ZM33.9664 38.5147L34.149 37.125L32.3702 37.4347C32.2061 37.4611 32.0843 37.5405 32.0049 37.6729C31.9361 37.8105 31.9282 37.9614 31.9811 38.1255C32.0393 38.295 32.1426 38.4273 32.2908 38.5226C32.4496 38.6285 32.6111 38.6682 32.7752 38.6417L33.9664 38.5147ZM30.0196 31.717C30.1732 31.8229 30.332 31.8626 30.4961 31.8362L37.2064 30.907L37.4684 29.6126L30.099 30.637C29.9349 30.6635 29.8132 30.7403 29.7337 30.8673C29.6649 31.005 29.657 31.1559 29.7099 31.32C29.7682 31.4894 29.8714 31.6217 30.0196 31.717ZM28.7729 28.5167C28.8311 28.6862 28.9343 28.8185 29.0826 28.9138C29.2361 29.0197 29.3949 29.0594 29.559 29.0329L39.9064 27.5956C40.0705 27.5744 40.1896 27.495 40.2637 27.3573C40.3431 27.2303 40.3537 27.0821 40.2955 26.9126C40.2372 26.7485 40.1314 26.6135 39.9778 26.5076C39.8296 26.407 39.6734 26.3673 39.5093 26.3885L29.162 27.8259C28.9979 27.8523 28.8761 27.9318 28.7967 28.0641C28.7226 28.2018 28.7146 28.3526 28.7729 28.5167ZM26.8511 22.2512C27.0099 22.3571 27.1714 22.3968 27.3355 22.3703L37.6828 20.933C37.847 20.9118 37.9634 20.8324 38.0323 20.6947C38.1117 20.5677 38.1249 20.4194 38.072 20.25C38.0137 20.0859 37.9052 19.9509 37.7464 19.845C37.5981 19.7444 37.442 19.7047 37.2778 19.7259L26.9305 21.1632C26.7664 21.1897 26.6446 21.2691 26.5652 21.4015C26.4964 21.5391 26.4911 21.69 26.5493 21.8541C26.6023 22.0235 26.7029 22.1559 26.8511 22.2512ZM36.8093 17.0418C36.6611 16.9412 36.5049 16.9015 36.3408 16.9227L25.9935 18.36C25.8293 18.3865 25.7076 18.4659 25.6282 18.5982C25.5594 18.7306 25.5514 18.8815 25.6044 19.0509C25.6626 19.215 25.7658 19.3474 25.9141 19.448C26.0729 19.5538 26.2343 19.5935 26.3985 19.5671L36.7458 18.1297C36.9099 18.1085 37.0264 18.0291 37.0952 17.8915C37.1746 17.7591 37.1852 17.6109 37.127 17.4468C37.074 17.2774 36.9681 17.1424 36.8093 17.0418Z" fill="#4C3451"/>
<path d="M39.5729 38.5893C39.5332 38.6632 39.5417 38.7371 39.5985 38.8109L40.2206 39.6461L40.2291 39.6716L41.6608 41.342L42.3938 42.0834C42.8142 42.5038 43.3397 42.9726 43.9703 43.4896L44.7544 44.0946L44.7885 44.1287L44.8822 44.1884C45.0811 44.3475 45.243 44.4639 45.368 44.5378L45.6663 44.7508L45.6748 44.7679L45.7174 44.7764L45.7259 44.7849V44.7935H45.7344L45.8964 44.8872C46.01 44.9554 46.1179 45.0122 46.2202 45.0576C46.3281 45.0917 46.3963 45.1116 46.4247 45.1173C46.51 45.1457 46.581 45.1627 46.6378 45.1684H46.6804L46.706 45.177L46.7486 45.1684H46.7912L46.8764 45.1599L46.902 45.1684L46.9531 45.1514L47.0639 45.1343L47.4133 44.9639L47.5326 44.8361L47.5752 44.8105L47.5837 44.7764H47.5923L47.6093 44.7508L47.6264 44.7423L47.9246 44.1969C49.2086 39.504 50.8875 35.2032 52.9612 31.2944C52.9783 31.2432 52.9726 31.1893 52.9442 31.1324C52.9101 31.0756 52.8646 31.0359 52.8078 31.0131C52.7169 30.962 52.6459 30.962 52.5948 31.0131L52.3647 31.2006L50.9329 32.675L49.0836 35.189C48.6973 35.7912 48.3649 36.3395 48.0865 36.8338L47.1321 38.6575C46.831 39.2825 46.5469 39.9273 46.2799 40.592C46.0924 41.0465 45.8821 41.6033 45.6492 42.2624L43.8766 41.1971C43.8482 41.1857 43.78 41.146 43.6721 41.0778L43.6295 41.0352L43.5698 41.0181L42.6579 40.4216L42.6068 40.396L40.962 39.2881L40.9024 39.237L39.9479 38.5893L39.8712 38.5467C39.8201 38.5069 39.7632 38.4899 39.7008 38.4956C39.6439 38.5069 39.6013 38.5382 39.5729 38.5893ZM46.723 42.8334L46.6804 42.8163L46.527 42.7226C46.5611 42.7339 46.598 42.7453 46.6378 42.7567L46.7315 42.7993H46.74L46.8082 42.8419V42.8589H46.7571L46.723 42.8334ZM35.7976 33.1522L35.7465 33.2374C35.7351 33.2602 35.7238 33.2744 35.7124 33.28L35.0817 34.4305L34.613 35.7515L34.3488 37.7286L34.4511 39.3137C34.4795 39.5523 34.5164 39.7881 34.5619 40.0211L34.596 40.1574V40.2171L34.7068 40.6432L34.7323 40.7113V40.7369L35.4823 42.8589C35.5959 43.0919 35.7152 43.3276 35.8402 43.5663L36.6924 44.9469C37.056 45.4525 37.4026 45.8815 37.7321 46.2337L38.3031 46.8302C38.5133 47.0405 38.7179 47.2308 38.9167 47.4012L40.0416 48.279L40.0587 48.3046L40.3143 48.4665L40.3825 48.5262L40.5189 48.6114L40.553 48.6455C40.57 48.6511 40.5871 48.6568 40.6041 48.6625L40.6126 48.6881L41.9165 49.438L42.283 49.6085C42.442 49.688 42.6863 49.796 43.0159 49.9323C43.5045 50.1368 44.0016 50.3044 44.5072 50.4351L44.601 50.4692L45.4532 50.6567L46.9446 50.8101L48.1888 50.7845C48.2627 50.7732 48.3195 50.7703 48.3593 50.776L49.2711 50.6482L49.3478 50.6226C49.4217 50.6112 49.4757 50.5999 49.5097 50.5885C49.5779 50.5772 49.6319 50.5658 49.6717 50.5544L49.7484 50.5459L50.1489 50.4436C50.2853 50.4096 50.487 50.3442 50.754 50.2476L51.342 50.0261C51.3761 50.0147 51.5636 49.9238 51.9045 49.7533L52.6885 49.2676L52.7311 49.2505L52.7482 49.2335L53.055 49.0119L54.0094 48.1086L54.1714 47.887C54.3929 47.6257 54.606 47.3274 54.8105 46.9922L55.0491 46.549L55.0747 46.5235L55.1344 46.4041L55.1429 46.3701L55.1599 46.353V46.336L55.194 46.2848L55.2792 46.0633C55.3985 45.7792 55.5207 45.461 55.6457 45.1088L55.8673 44.1287C55.9354 43.7253 55.9724 43.3987 55.9781 43.1487C56.0008 42.7794 56.0036 42.4669 55.9866 42.2112C55.9638 41.9499 55.9269 41.6431 55.8758 41.2909L55.6883 40.4472C55.6258 40.1801 55.5519 39.9188 55.4667 39.6631L54.9639 38.4871L54.9469 38.47L54.9384 38.4359L54.0009 36.8508C53.8475 36.6292 53.6856 36.419 53.5152 36.2202L53.0635 35.7174L53.0464 35.6833C52.9953 35.6321 52.9413 35.6037 52.8845 35.5981C52.8107 35.5981 52.7567 35.6123 52.7226 35.6407C52.6431 35.7202 52.6402 35.8111 52.7141 35.9134L52.9186 36.2543L52.9612 36.3054L53.4555 37.2599L53.8475 38.2058L54.2651 39.6972C54.3049 39.879 54.3418 40.1034 54.3759 40.3705C54.4384 40.8704 54.4554 41.3619 54.427 41.8448C54.41 42.1289 54.3787 42.3845 54.3333 42.6118C54.2878 42.9129 54.2282 43.1686 54.1543 43.3788C54.0123 43.9072 53.7964 44.4128 53.5066 44.8957L53.3873 45.0832L53.3703 45.1429L53.0379 45.6201C52.8618 45.853 52.6715 46.0803 52.4669 46.3019C52.3874 46.3871 52.2794 46.4894 52.1431 46.6087L52.0664 46.6854L51.0182 47.4012C50.7227 47.5546 50.4273 47.6881 50.1319 47.8018L48.649 48.1853L47.0298 48.2961C46.6491 48.2847 46.2742 48.2506 45.9049 48.1938C45.6719 48.1597 45.4873 48.1256 45.3509 48.0915L44.3538 47.8188L44.2857 47.7847L43.655 47.5546C43.5244 47.4978 43.3369 47.4098 43.0926 47.2904L41.5756 46.3956L41.5501 46.3701L41.0984 46.0633L41.0473 46.0036L40.9791 45.961L40.4933 45.5604C39.8456 45.0037 39.2832 44.3901 38.8059 43.7197C38.3571 43.0947 37.9708 42.393 37.6469 41.6147L37.1271 40.0466V40.0125L36.9907 39.3904C36.9282 39.0268 36.8884 38.666 36.8714 38.3081L36.8799 37.6519L37.0333 36.5099L37.3998 35.3594L37.4509 35.2486C37.4566 35.2202 37.4708 35.1833 37.4935 35.1379L37.7577 34.6095C37.7634 34.6038 37.7634 34.601 37.7577 34.601V34.5924L37.7833 34.5669L37.8003 34.5072L38.269 33.7999L38.3116 33.7573C38.4366 33.5811 38.6298 33.3596 38.8911 33.0925L39.5388 32.5301C39.9877 32.1892 40.4649 31.9222 40.9706 31.729C41.141 31.6608 41.3938 31.5756 41.729 31.4733L42.479 31.2859L43.9448 31.141C44.4447 31.141 44.8907 31.1665 45.2828 31.2177L46.6719 31.5159L47.3366 31.729L48.5553 32.2744C48.6121 32.2971 48.6689 32.3028 48.7257 32.2915C48.7768 32.2687 48.8138 32.2318 48.8365 32.1807C48.8819 32.0898 48.8507 31.9989 48.7427 31.908L47.4389 31.0472L47.2684 30.9535L45.9049 30.3569C45.6151 30.2547 45.3907 30.1837 45.2316 30.1439L43.5783 29.8286L42.7261 29.7774L42.6665 29.786H42.0529L42.0103 29.7945H41.9421C41.6069 29.8229 41.2972 29.8598 41.0132 29.9053C40.695 29.9507 40.3768 30.016 40.0587 30.1013L39.3684 30.3314H39.3428L39.1042 30.4251C38.786 30.5728 38.4736 30.7319 38.1668 30.9024C37.8884 31.0671 37.5958 31.2716 37.289 31.5159C36.9367 31.8284 36.6726 32.0841 36.4964 32.2829L35.7976 33.1522Z" fill="#FDCA0C"/>
<path d="M17.2242 21.243C17.0009 20.575 17.2154 20.1957 17.8676 20.105L21.1449 19.6493C21.2558 19.6339 21.3381 19.584 21.3918 19.4997C21.4367 19.4095 21.4402 19.3077 21.4023 19.1941C21.3643 19.0806 21.2972 18.9921 21.2009 18.9286C21.0959 18.8593 20.9879 18.8324 20.877 18.8478L17.5997 19.3035C16.4257 19.4667 16.0397 20.1495 16.4415 21.3518L17.925 25.7903C18.3268 26.9927 19.1147 27.5122 20.2887 27.3489L24.3585 26.783C25.5324 26.6198 25.9185 25.937 25.5166 24.7347L24.5991 21.9894C24.5611 21.8759 24.494 21.7874 24.3977 21.7239C24.2927 21.6546 24.1847 21.6277 24.0738 21.6431C23.9629 21.6585 23.885 21.7113 23.8401 21.8014C23.7864 21.8858 23.7785 21.9847 23.8165 22.0983L24.734 24.8435C24.9572 25.5115 24.7428 25.8908 24.0906 25.9815L20.0208 26.5474C19.3686 26.6381 18.9309 26.3495 18.7076 25.6815L17.2242 21.243Z" fill="#4C3451"/>
<path d="M24.1475 17.5755C24.059 17.4131 23.9286 17.2984 23.7561 17.2315C23.5966 17.1628 23.4463 17.1522 23.3053 17.1998C23.1577 17.2483 23.0594 17.3424 23.0105 17.482L22.2736 19.933L21.6646 23.6245L19.67 21.7C19.5361 21.5649 19.3821 21.4919 19.2078 21.4812C19.0314 21.4638 18.8903 21.5114 18.7846 21.6239C18.6854 21.7356 18.6419 21.871 18.6542 22.03C18.6664 22.1891 18.7307 22.3304 18.8471 22.4541L21.8073 25.4605C21.95 25.6014 22.1172 25.683 22.3089 25.7053C22.4984 25.7209 22.6525 25.6715 22.7712 25.5571C22.8663 25.474 22.9176 25.362 22.9251 25.2212L22.9316 25.2098L23.3437 21.7869L24.2168 18.0587L24.2232 18.0473C24.2677 17.8943 24.2424 17.737 24.1475 17.5755Z" fill="#FDCA0C"/>
<path d="M20.5791 31.2512C20.3559 30.5833 20.5704 30.204 21.2226 30.1133L24.4999 29.6576C24.6108 29.6422 24.6931 29.5923 24.7468 29.5079C24.7917 29.4178 24.7952 29.3159 24.7573 29.2024C24.7193 29.0888 24.6522 29.0003 24.5559 28.9368C24.4508 28.8675 24.3429 28.8406 24.232 28.856L20.9547 29.3117C19.7807 29.475 19.3946 30.1578 19.7965 31.3601L21.28 35.7986C21.6818 37.0009 22.4697 37.5204 23.6437 37.3572L27.7134 36.7913C28.8874 36.6281 29.2735 35.9453 28.8716 34.743L27.9541 31.9977C27.9161 31.8841 27.849 31.7956 27.7527 31.7321C27.6476 31.6629 27.5397 31.6359 27.4288 31.6513C27.3179 31.6668 27.24 31.7195 27.1951 31.8097C27.1414 31.894 27.1335 31.993 27.1714 32.1065L28.089 34.8518C28.3122 35.5197 28.0977 35.8991 27.4455 35.9898L23.3758 36.5557C22.7236 36.6464 22.2859 36.3577 22.0626 35.6898L20.5791 31.2512Z" fill="#4C3451"/>
<path d="M27.5025 27.5833C27.414 27.4209 27.2836 27.3062 27.1111 27.2393C26.9516 27.1706 26.8013 27.1601 26.6603 27.2077C26.5127 27.2561 26.4144 27.3502 26.3655 27.4898L25.6286 29.9409L25.0196 33.6324L23.025 31.7079C22.8911 31.5727 22.7371 31.4998 22.5629 31.4891C22.3864 31.4717 22.2453 31.5192 22.1396 31.6318C22.0404 31.7434 21.997 31.8788 22.0092 32.0379C22.0214 32.1969 22.0857 32.3383 22.2021 32.4619L25.1623 35.4683C25.305 35.6093 25.4722 35.6909 25.6639 35.7131C25.8534 35.7287 26.0075 35.6793 26.1263 35.565C26.2213 35.4819 26.2726 35.3699 26.2801 35.229L26.2866 35.2176L26.6987 31.7947L27.5718 28.0665L27.5783 28.0551C27.6227 27.9022 27.5974 27.7449 27.5025 27.5833Z" fill="#FDCA0C"/>
<path d="M23.9114 41.2707C23.6881 40.6027 23.9026 40.2234 24.5548 40.1327L27.8321 39.677C27.943 39.6616 28.0253 39.6117 28.079 39.5274C28.1239 39.4372 28.1274 39.3354 28.0895 39.2218C28.0515 39.1083 27.9844 39.0198 27.8881 38.9563C27.7831 38.887 27.6751 38.8601 27.5642 38.8755L24.2869 39.3312C23.1129 39.4944 22.7269 40.1772 23.1287 41.3795L24.6122 45.818C25.014 47.0203 25.8019 47.5399 26.9759 47.3766L31.0457 46.8107C32.2196 46.6475 32.6057 45.9647 32.2038 44.7624L31.2863 42.0171C31.2483 41.9036 31.1812 41.8151 31.0849 41.7516C30.9799 41.6823 30.8719 41.6554 30.761 41.6708C30.6501 41.6862 30.5722 41.739 30.5273 41.8291C30.4736 41.9135 30.4657 42.0124 30.5036 42.126L31.4212 44.8712C31.6444 45.5392 31.43 45.9185 30.7778 46.0092L26.708 46.5751C26.0558 46.6658 25.6181 46.3772 25.3948 45.7092L23.9114 41.2707Z" fill="#4C3451"/>
<path d="M30.8347 37.6028C30.7463 37.4403 30.6158 37.3257 30.4433 37.2588C30.2838 37.1901 30.1336 37.1795 29.9925 37.2271C29.8449 37.2756 29.7466 37.3696 29.6978 37.5092L28.9608 39.9603L28.3518 43.6518L26.3572 41.7273C26.2233 41.5922 26.0693 41.5192 25.8951 41.5085C25.7186 41.4911 25.5776 41.5387 25.4718 41.6512C25.3727 41.7629 25.3292 41.8982 25.3414 42.0573C25.3536 42.2164 25.4179 42.3577 25.5343 42.4813L28.4945 45.4878C28.6372 45.6287 28.8044 45.7103 28.9961 45.7326C29.1856 45.7482 29.3397 45.6988 29.4585 45.5844C29.5535 45.5013 29.6048 45.3893 29.6124 45.2485L29.6188 45.2371L30.0309 41.8141L30.904 38.0859L30.9105 38.0745C30.9549 37.9216 30.9296 37.7643 30.8347 37.6028Z" fill="#FDCA0C"/>
<path d="M53.2089 16.413C52.8442 16.2965 52.4153 16.3762 52.043 16.4038C51.645 16.4314 51.2495 16.4652 50.854 16.5296C50.0836 16.6522 49.3158 16.8393 48.5634 17.0692C47.0432 17.5384 45.5512 18.1609 44.2312 19.1912C43.9899 19.3782 44.1824 19.8412 44.4547 19.7278C45.8876 19.136 47.3077 18.4736 48.7842 18.0351C49.5058 17.8205 50.2351 17.6488 50.9696 17.5108C51.3445 17.4403 51.722 17.3667 52.0995 17.3084C52.4744 17.2502 52.8981 17.2685 53.2551 17.1122C53.553 16.9803 53.499 16.5081 53.214 16.4161L53.2089 16.413Z" fill="#FFF9E7"/>
<path d="M9.22916 51.9799C9.51038 51.9022 9.71507 51.6961 9.93636 51.5147C10.1641 51.3286 10.3927 51.1449 10.6114 50.9481C11.0599 50.5399 11.4953 50.1168 11.9117 49.6779C12.316 49.251 12.7079 48.8117 13.0859 48.3631C13.4791 47.8961 13.7985 47.3952 14.1342 46.8864C14.3369 46.5802 13.8671 46.1564 13.6161 46.4478C13.2364 46.8915 12.8246 47.3044 12.4441 47.7456C12.0733 48.1756 11.6893 48.5988 11.2946 49.0064C10.8983 49.4171 10.4961 49.8189 10.0816 50.2082C9.86702 50.4092 9.6599 50.616 9.44208 50.8153C9.23964 51.0044 8.96529 51.1807 8.84105 51.4322C8.71841 51.6805 8.90078 52.0697 9.22916 51.9799Z" fill="#FFF9E7"/>
<path d="M10.5599 47.8896C10.787 47.9399 11.0853 47.7751 11.299 47.6339C11.5259 47.4817 11.7434 47.3075 11.9508 47.1239C12.3462 46.7715 12.6939 46.3513 12.9681 45.9052C13.0528 45.7657 13.062 45.6052 12.953 45.513C12.857 45.433 12.6715 45.4282 12.5571 45.5531C12.226 45.9094 11.8791 46.2475 11.5193 46.5735C11.3411 46.7348 11.1558 46.8861 10.9693 47.033C10.7908 47.1741 10.5206 47.3785 10.4431 47.5944C10.396 47.7228 10.4358 47.8628 10.5645 47.8906L10.5599 47.8896Z" fill="#4C3451"/>
<path d="M8.2344 30.8407C7.26285 30.8904 6.08714 30.9264 5.3573 30.0386C5.20946 29.8588 5.08978 29.6099 5.01468 29.3388C5.02407 29.3388 5.0358 29.3388 5.04519 29.3333C5.56147 29.2227 6.07306 28.9184 6.38987 28.415C6.78646 27.7872 6.56352 26.9243 5.88297 26.7943C4.95601 26.62 4.37637 27.5687 4.26842 28.5561C3.52216 28.1523 3.34381 27.0377 3.28279 26.1222C3.19127 24.7006 3.3485 23.2264 3.7451 21.8794C3.8507 21.5171 3.34146 21.2544 3.21239 21.6139C2.91201 22.4381 2.68672 23.2734 2.59755 24.1668C2.51306 25.0352 2.53184 25.912 2.64918 26.7749C2.75243 27.5327 2.97068 28.3321 3.47522 28.8548C3.71224 29.101 3.99151 29.2558 4.28485 29.3278C4.30362 29.4439 4.32709 29.5546 4.36229 29.6597C4.61574 30.4369 5.18365 31.0094 5.8243 31.3219C6.63393 31.7174 7.45997 31.6898 8.3001 31.4408C8.57937 31.3579 8.53008 30.8268 8.23205 30.8434L8.2344 30.8407ZM5.50045 27.6738C5.60136 27.6268 5.81726 27.5659 5.8947 27.6932C6.005 27.8729 5.78206 28.227 5.67646 28.3459C5.47229 28.5782 5.20946 28.6861 4.93489 28.7027C4.94663 28.2657 5.10855 27.8591 5.49811 27.6738H5.50045Z" fill="#FFF9E7"/>
<path d="M8.27151 32.4753C7.19966 32.515 6.1302 32.529 5.05835 32.599C4.00803 32.6667 2.89312 32.6691 1.86673 32.9073C1.67054 32.954 1.61551 33.2669 1.85716 33.2879C2.90987 33.386 4.01282 33.2435 5.06553 33.1688C6.15173 33.0918 7.23076 32.9633 8.31457 32.8559C8.57057 32.8302 8.52272 32.4636 8.27151 32.4729V32.4753Z" fill="#4C3451"/>
<path d="M8.06614 34.185C7.76036 34.2737 7.44654 34.3347 7.1354 34.4068C6.81084 34.4844 6.49434 34.5787 6.17247 34.6674C5.86669 34.7506 5.55555 34.8254 5.24977 34.9058C4.94399 34.9834 4.53897 35.0278 4.31903 35.2745C4.17151 35.4409 4.25197 35.7042 4.43168 35.7985C4.716 35.9454 5.1398 35.8179 5.44021 35.7597C5.77818 35.6932 6.11346 35.6044 6.44606 35.5157C6.76256 35.4298 7.08175 35.3383 7.38753 35.2108C7.69599 35.0832 7.98835 34.9308 8.28876 34.7922C8.6616 34.623 8.45506 34.0714 8.06614 34.185Z" fill="#FFF9E7"/>
<path d="M13.3472 50.3834C13.4932 50.3513 13.6145 50.242 13.734 50.1479C13.8417 50.0631 13.9478 49.9766 14.0455 49.879C14.2343 49.6911 14.4063 49.4841 14.5634 49.2697C14.8791 48.8359 15.113 48.349 15.2766 47.8536C15.36 47.6007 15.0153 47.4972 14.9067 47.7468C14.7149 48.1887 14.4479 48.5939 14.1392 48.9735C13.9924 49.1535 13.8306 49.3195 13.6621 49.4792C13.5745 49.5626 13.4919 49.6474 13.401 49.7277C13.3016 49.817 13.1805 49.8927 13.1112 50.0101C12.9962 50.2064 13.1173 50.4348 13.3455 50.3852L13.3472 50.3834Z" fill="#4C3451"/>
<path d="M2.36985 29.3665C2.36985 29.3665 2.28717 29.3205 2.32851 29.3449C2.30267 29.3313 2.27425 29.3151 2.251 29.2989C2.20449 29.2664 2.16057 29.2312 2.11664 29.1987C2.02104 29.1284 1.92545 29.0607 1.82985 28.9903C1.73941 28.9227 1.65157 28.8496 1.56372 28.7765C1.51463 28.7359 1.46812 28.6953 1.42161 28.6547C1.40353 28.6385 1.38286 28.6196 1.36477 28.6006C1.3596 28.5952 1.32085 28.5573 1.31309 28.5519C1.30276 28.5411 1.28984 28.5275 1.28726 28.5248C1.26659 28.5032 1.24333 28.4788 1.22266 28.4572C1.18391 28.4139 1.14773 28.3706 1.10898 28.3273C1.03146 28.2353 0.956535 28.1432 0.884189 28.0458C0.817011 27.9538 0.742082 27.8699 0.680072 27.7698C0.661986 27.7427 0.646483 27.7156 0.630981 27.6913L0.620646 27.675C0.620646 27.675 0.615478 27.6642 0.607727 27.6534C0.561219 27.5668 0.514711 27.4964 0.439782 27.4369C0.277005 27.3042 0.0108775 27.426 0.000542482 27.6453C-0.0072088 27.8103 0.0573853 27.9484 0.124563 28.0945C0.18399 28.2271 0.246 28.3625 0.320929 28.4842C0.460452 28.7143 0.633564 28.92 0.822179 29.1067C1.00821 29.2935 1.20199 29.4585 1.4242 29.5966C1.54822 29.6724 1.67224 29.7427 1.80659 29.7941C1.95903 29.8537 2.01588 29.8645 2.1709 29.9132C2.31559 29.9565 2.47062 29.8997 2.52746 29.7454C2.58431 29.5857 2.49904 29.445 2.36727 29.3719L2.36985 29.3665Z" fill="#4C3451"/>
<path d="M49.0913 19.1999C48.8228 18.9566 48.413 18.9223 48.1022 18.9052C47.7512 18.8846 47.3956 18.9017 47.0494 18.9668C46.364 19.0936 45.7328 19.4192 45.1205 19.8749C44.8143 20.1045 45.0192 20.7213 45.3372 20.5705C45.9142 20.2998 46.5383 20.1353 47.1412 20.0394C47.438 19.9914 47.7371 19.9571 48.0362 19.9537C48.1917 19.9537 48.3471 19.9434 48.5025 19.9468C48.658 19.9468 48.8252 19.9914 48.9759 19.9297C49.1832 19.844 49.3222 19.402 49.0961 19.1964L49.0913 19.1999Z" fill="#4C3451"/>
<path d="M30.1363 3.63375C29.8885 3.68957 29.7308 3.88749 29.5656 4.07019C29.4079 4.24527 29.2652 4.43811 29.135 4.63603C28.8747 5.03187 28.6494 5.45055 28.4692 5.88952C28.2964 6.31327 28.1638 6.75478 28.0812 7.2039C27.9986 7.65557 27.951 8.14783 28.0787 8.59441C28.1187 8.73397 28.2989 8.76442 28.3615 8.62232C28.5267 8.24425 28.6169 7.82811 28.7345 7.43227C28.8572 7.0136 29.0149 6.60254 29.2001 6.2067C29.3753 5.8337 29.5806 5.47338 29.8134 5.13337C29.9336 4.95829 30.0587 4.78828 30.1864 4.61827C30.3316 4.42543 30.5018 4.25542 30.5419 4.00929C30.5769 3.79107 30.3466 3.583 30.1388 3.63121L30.1363 3.63375Z" fill="#4C3451"/>
<path d="M32.1909 7.16991C32.1264 7.08276 32.0252 7.03545 31.9024 7.02051C31.7367 7.00308 31.5956 7.08525 31.4667 7.15746C31.4422 7.1724 31.3931 7.18983 31.3777 7.20975L31.3992 7.19979C31.3716 7.21224 31.344 7.22468 31.3194 7.23962C31.3041 7.24958 31.2918 7.25954 31.2796 7.27199C31.1446 7.38155 31.0218 7.4936 30.9175 7.62059C30.8745 7.67287 30.8346 7.72765 30.7948 7.78243C30.7763 7.80982 30.7579 7.83721 30.7395 7.86709L30.7303 7.89946C30.7303 7.89946 30.718 7.92685 30.7119 7.93681C30.6996 7.9642 30.6874 7.99159 30.6751 8.02147C30.6536 8.07126 30.6413 8.12106 30.626 8.17335C30.6229 8.18829 30.6168 8.20074 30.6137 8.21568C30.6137 8.22315 30.6107 8.23311 30.6076 8.24058C30.6014 8.2605 30.6076 8.25303 30.6168 8.21568C30.6229 8.2356 30.5953 8.28291 30.5892 8.30283C30.5738 8.35263 30.5616 8.40243 30.5493 8.45472C30.5217 8.57174 30.6475 8.68379 30.7763 8.70869C30.9206 8.73608 31.0617 8.67383 31.12 8.56178C31.1353 8.53439 31.1476 8.507 31.163 8.47962C31.1722 8.46717 31.1783 8.45223 31.1875 8.43978V8.4348C31.209 8.4099 31.298 8.3103 31.3072 8.30034C31.3287 8.27544 31.3501 8.25303 31.3716 8.22813L31.3808 8.22066C31.3808 8.22066 31.387 8.21568 31.3962 8.20572C31.4146 8.19327 31.4299 8.17833 31.4453 8.1609C31.4882 8.11359 31.5312 8.06379 31.5772 8.01649C31.6017 7.99408 31.6232 7.96918 31.6478 7.94677C31.657 7.9393 31.6631 7.93183 31.6723 7.92436C31.7183 7.88701 31.7644 7.84717 31.8135 7.81231C31.8257 7.80235 31.8411 7.79239 31.8533 7.78243C31.8871 7.76251 31.9147 7.73761 31.9362 7.71022C31.9454 7.70275 31.9577 7.69528 31.9669 7.68532C32.062 7.61561 32.1878 7.55336 32.2215 7.44629C32.2522 7.34669 32.2553 7.26452 32.1878 7.1724L32.1909 7.16991Z" fill="#FFF9E7"/>
</svg>
