<svg width="56" height="56" viewBox="0 0 56 56" fill="none" xmlns="http://www.w3.org/2000/svg">
<g clip-path="url(#clip0_2_1291)">
<path d="M27.127 14.0679C26.6539 11.303 26.2759 8.85323 23.6823 8.99076C20.8389 9.14261 5.86637 11.6153 3.5746 13.7842C1.4017 15.8414 3.87415 29.4109 6.18018 29.1702C12.3684 28.5227 25.5247 26.0071 27.5978 25.1762C29.1311 24.5602 27.5716 16.678 27.1247 14.0679H27.127Z" fill="#FDCA0C"/>
<path d="M28.2824 15.3342C27.9139 12.7498 27.3672 11.8558 26.1642 10.9504C26.6849 13.0019 28.6367 24.1303 27.4551 24.6603C26.2736 25.1904 20.228 26.7863 13.8353 27.5914C10.9634 28.0097 8.29603 28.6773 5.38853 28.1673C5.96622 30.0412 6.52252 30.4566 7.42354 30.3621C13.6974 29.7059 26.3045 27.1473 28.4084 26.3021C29.9632 25.6775 28.8459 19.2738 28.2824 15.3342Z" fill="#C4C2C2"/>
<path d="M21.3358 52.5334C21.2645 50.7398 18.212 27.1221 18.212 27.1221L15.9701 27.5203C15.9701 27.5203 18.6233 50.8486 19.0512 52.9316C19.4791 55.0146 21.4357 55.0461 21.3358 52.5334Z" fill="#FDCA0C"/>
<path d="M17.6937 30.1162C18.0051 30.2136 18.3166 30.3024 18.6304 30.3884C18.376 28.4028 18.2096 27.1221 18.2096 27.1221L15.9677 27.5203C15.9677 27.5203 16.0557 28.2853 16.1983 29.5431C16.6881 29.7638 17.185 29.9557 17.6937 30.1162Z" fill="#FCA710"/>
<path d="M55.3581 18.2082C54.2764 12.1713 47.7102 4.7734 47.7102 4.7734C47.7102 4.7734 47.8718 1.37816 45.4184 1.44406L45.4374 1.65608C45.4136 1.63603 45.3899 1.6131 45.3661 1.59305C45.0238 1.31226 44.6077 1.18906 44.1964 1.24636C43.8161 1.3008 43.469 1.51855 43.2003 1.83659C43.1956 1.8108 43.1956 1.78215 43.1908 1.75636C43.1195 1.30939 43.0054 0.779336 42.5941 0.641807C42.1852 0.504278 41.9213 0.888213 41.7644 1.28647C41.5457 1.83659 41.346 2.40103 41.1344 2.95401C40.7635 3.93677 40.426 4.91379 40.7659 5.98537C41.0607 6.90796 41.7192 7.69875 42.4134 8.20016C42.9388 8.57836 43.5427 8.76174 44.1109 9.0282C44.2416 9.36056 44.4627 9.67286 44.6291 9.95652C44.8764 10.3863 45.1236 10.8161 45.3685 11.2458C45.6157 11.6756 45.8558 12.1111 46.0983 12.5438C46.1055 12.5868 46.1197 12.6297 46.1435 12.667C46.6309 13.4836 47.0588 14.3001 47.375 15.2371C47.6959 16.1854 47.9099 17.1796 48.0787 18.1853C48.3259 19.658 48.5208 21.1622 48.4519 22.6464C48.3259 23.208 48.1904 23.7667 48.0311 24.3168C47.7363 25.3282 47.3678 26.3081 46.947 27.2508C46.065 29.222 44.9406 31.0242 43.7543 32.7433C43.2241 33.5112 42.9317 34.0814 42.3825 34.832C41.762 32.8894 41.9903 30.4454 42.3421 28.3166C42.694 26.1878 43.2645 24.2022 41.8024 22.5834C39.9838 21.4631 38.5954 21.211 36.8362 21.2052C33.4532 22.1393 33.0205 27.8381 32.4761 31.007C32.1409 32.4683 31.5394 34.4997 32.0434 36.001C32.6496 37.6915 34.145 36.7001 34.5991 35.3306C34.6823 35.9838 35.3004 36.4795 35.7426 35.7804C35.8186 35.9007 36.2038 36.1758 36.3013 36.2732C32.6877 41.0266 29.6019 35.6887 26.9202 48.5219C25.1634 45.5134 23.0832 42.8259 22.1964 39.2043C21.7257 38.0353 22.1964 36.5597 21.7114 35.4882C20.7462 34.7088 20.3563 37.382 19.9926 38.0926C19.9237 37.3992 20.0283 36.5827 19.724 35.9896C19.7477 35.4624 19.0845 35.4882 18.8681 35.7661C17.9029 36.3477 16.2245 34.6601 16.3339 36.9179C15.6801 38.0267 16.7547 39.4937 16.8735 40.6856C16.7237 42.5365 18.5686 43.0809 19.5742 41.9864C19.6479 41.9864 19.7192 41.9463 19.7834 41.9062C20.1685 44.6883 21.3049 52.218 21.3049 52.218C21.3049 52.218 22.9905 54.7823 23.6323 55.3869C24.2742 55.9914 43.5308 55.0201 49.9996 52.218C50.1945 52.132 49.9211 49.3642 49.9639 47.479C50.0162 45.1839 50.6771 42.356 51.804 38.551C53.9246 31.3881 56.504 24.589 55.3629 18.2168L55.3581 18.2082Z" fill="white"/>
<path d="M32.1409 40.1868C32.2669 40.6223 32.4737 41.1037 32.8826 41.2011C33.3795 41.3214 33.8217 40.8372 34.2734 40.6653C34.3827 40.6252 34.5087 40.671 34.5896 40.7656C34.8701 41.0922 34.8867 41.628 35.0341 42.0434C35.115 42.2755 35.2219 42.5105 35.405 42.6423C35.6546 42.8228 35.9185 42.6652 36.123 42.4618C36.3987 42.1896 36.6175 41.7884 37.0216 41.8257C37.4329 41.8658 37.6302 42.3558 38.0771 42.2784C38.5003 42.2068 38.845 41.7856 39.1208 41.4274C39.3942 41.0693 39.6248 40.671 39.8102 40.2384C40.59 38.4247 40.659 36.1412 40.3665 34.1613C40.3594 34.1183 40.3618 34.0811 40.3665 34.0439C40.0955 34.1527 39.8079 34.1957 39.5226 34.1556C39.5012 34.1527 39.4204 34.1499 39.3681 34.1413C39.3181 34.2358 39.1636 34.4221 39.1351 34.4679C38.6858 35.2014 38.3006 36.124 37.5446 36.4477C37.1096 36.634 36.6531 36.5538 36.2751 36.293C34.7298 38.3101 33.2796 38.4906 31.9174 39.0465C31.9555 39.4505 32.0387 39.843 32.1385 40.1868H32.1409Z" fill="#C4C2C2"/>
<path d="M47.7102 4.77352C47.7102 4.77352 47.7482 3.96267 47.501 3.14036C47.2014 3.80509 46.6665 4.33801 46.0508 4.59301C45.6728 4.7506 45.2401 4.84228 44.8431 4.76206C44.5459 4.69902 44.2178 4.49273 44.0253 4.18329C44.0063 4.1661 43.9872 4.15177 43.9706 4.13458C43.7471 3.89677 43.595 3.57014 43.4761 3.24638C43.2693 2.68767 43.1147 2.02581 43.1171 1.38687C43.0886 1.27227 43.0529 1.16052 43.0054 1.06024C43.1361 1.75362 43.0458 2.5616 42.9721 3.24065C42.946 3.47559 42.984 3.78503 42.9222 4.00279C43.0815 4.03717 43.3358 4.19189 43.4262 4.23486C43.9635 4.49273 44.2749 4.9483 44.5744 5.5242C44.7076 5.77633 44.8098 6.0256 44.855 6.32072C44.8811 6.49263 44.8764 6.77915 44.9477 6.94533C44.9596 6.95106 44.981 6.95965 45.0095 6.95392C45.0689 6.94533 45.126 6.9396 45.1854 6.92527C45.3495 6.88229 45.5111 6.8078 45.668 6.7333C46.2743 6.44965 46.909 6.23476 47.4891 5.87948C47.753 5.71903 47.9859 5.54139 48.1714 5.3265C47.879 4.97695 47.7054 4.78211 47.7054 4.78211L47.7102 4.77352Z" fill="#C4C2C2"/>
<path d="M32.4547 53.307C32.3168 53.9632 32.1813 54.6193 32.0458 55.2754C32.5997 55.2353 33.1679 55.1923 33.7456 55.1436C33.7337 54.3671 33.7313 53.5878 33.729 52.8056C33.7218 50.9576 33.679 49.1153 33.5934 47.2729C33.4365 48.1612 33.3272 49.058 33.1584 49.9433C32.9397 51.0693 32.6924 52.1867 32.4571 53.3099L32.4547 53.307Z" fill="#C4C2C2"/>
<path d="M22.2154 53.5159C22.0086 52.0461 21.1955 45.4619 20.9958 43.992C20.7938 42.4907 20.9269 41.8661 21.0624 40.8403C21.1028 40.5424 21.1456 40.2415 21.1884 39.9435C21.1884 39.9177 21.1884 39.892 21.1908 39.8662C21.2336 39.0439 21.2811 38.2216 21.293 37.3964C21.2978 37.0526 21.3453 36.4394 21.1337 36.1443C20.7629 36.5311 20.5822 37.2503 20.4467 37.7975C20.392 38.0181 20.1875 38.0382 20.0497 37.9379C20.0283 37.9923 20.0069 38.0439 19.9831 38.084C19.976 38.0095 19.9712 37.9293 19.9665 37.8519C19.926 37.7889 19.907 37.7116 19.9213 37.6199C19.9308 37.5626 19.9427 37.5024 19.9522 37.4422C19.9403 36.9265 19.9284 36.3993 19.7145 35.981C19.7311 35.64 19.4553 35.5311 19.2009 35.5713C19.3697 36.13 19.4292 36.7202 19.472 37.3133C19.5171 37.915 19.5671 38.5138 19.6217 39.1126C19.7073 40.0524 19.8547 41.2959 19.3055 42.0838C19.2295 42.1927 19.1391 42.2844 19.0464 42.3617C19.2319 42.2701 19.4102 42.144 19.5647 41.9749C19.6384 41.9749 19.7097 41.9348 19.7739 41.8947C20.159 44.6768 21.2954 52.2065 21.2954 52.2065C21.2954 52.2065 21.7162 52.8454 22.2178 53.5617C22.2178 53.5474 22.2131 53.5331 22.2107 53.5159H22.2154Z" fill="#C4C2C2"/>
<path d="M51.8016 38.5423C53.9222 31.3793 56.5016 24.5802 55.3605 18.2081C55.1608 17.0992 54.7757 15.9417 54.2812 14.7956C54.3406 15.4546 54.3834 16.1136 54.4191 16.7755C54.5165 18.6092 54.5617 20.4372 54.4642 22.2737C54.2907 25.5773 53.6226 28.772 52.5386 31.8091C51.3998 34.998 50.0875 38.0924 48.7301 41.1553C48.0501 42.6882 47.3559 44.2096 46.676 45.7425C46.0532 47.1464 45.4945 48.622 45.2853 50.2064C45.1379 51.3152 45.1712 52.4527 45.2686 53.5787C47.1515 53.1833 48.7942 52.7278 49.9972 52.2063C50.1921 52.1204 49.9187 49.3526 49.9615 47.4673C50.0138 45.1723 50.6747 42.3443 51.8016 38.5394V38.5423Z" fill="#C4C2C2"/>
<path d="M53.9174 13.0564C52.5695 10.3832 49.0344 5.91352 47.9883 4.7216C48.0097 4.68149 48.0311 4.63851 48.0501 4.59553C48.2831 4.05115 48.1714 3.41794 47.9527 2.89648C47.5604 1.97103 46.7996 1.1831 45.939 1.00833C45.6656 0.953887 45.5325 1.40372 45.7798 1.56417C46.3361 1.92232 46.8686 2.35783 47.2252 2.9939C47.3987 3.3062 47.558 3.69014 47.4986 4.07694C47.4748 4.22593 47.4201 4.36059 47.3322 4.47233C47.2941 4.52104 47.2513 4.56115 47.2038 4.59553C47.1467 4.63851 47.0825 4.69582 47.0231 4.72733C46.8733 4.80183 46.8091 5.12273 46.997 5.20009C47.1039 5.24593 47.2085 5.29464 47.325 5.27458C47.4344 5.25739 47.5414 5.20295 47.6365 5.13419C47.6388 5.13419 47.6412 5.12846 47.6436 5.12846C47.6436 5.14278 47.6484 5.15711 47.6507 5.16857C47.6579 5.20582 47.6626 5.24307 47.6674 5.28031C49.4956 7.65268 51.4521 9.89612 52.9475 12.6066C54.3953 15.234 55.3534 18.2223 55.3605 21.4056C55.3676 24.818 54.5189 28.1387 53.5846 31.3277C52.6551 34.5023 51.5734 37.6139 50.7603 40.8372C49.8545 44.433 49.2721 48.1836 49.6739 51.9427C49.719 52.3581 50.2302 52.2435 50.1993 51.8367C49.6905 44.8628 52.1748 38.3875 54.0767 31.9895C55.0229 28.8063 55.9001 25.4884 55.9881 22.0817C56.0713 18.8555 55.2987 15.7984 53.9127 13.0536L53.9174 13.0564Z" fill="#4C3451"/>
<path d="M47.1729 13.8877C46.3313 12.0941 45.2734 10.4695 44.1513 8.92517C44.1655 8.84208 44.1513 8.74753 44.0966 8.69022C43.7519 8.32921 43.3382 8.16017 42.9293 7.9109C42.5252 7.66449 42.1353 7.38657 41.8001 7.01696C41.075 6.21471 40.8016 5.16032 41.1035 4.01998C41.2485 3.46986 41.4696 2.9484 41.6693 2.42407C41.7668 2.1662 41.8643 1.90834 41.9641 1.64761C42.0497 1.42126 42.1258 1.0803 42.2589 0.891197C42.6012 0.404116 42.644 1.99429 42.6464 2.22637C42.6535 2.78795 42.6416 3.35525 42.5822 3.91396C42.4681 3.97413 42.3706 4.07442 42.3159 4.22914C42.2494 4.41537 42.354 4.65032 42.537 4.6274C42.6678 4.6102 42.7914 4.57296 42.9245 4.60734C43.041 4.63886 43.148 4.70762 43.2479 4.79358C43.5046 5.01419 43.7424 5.27779 43.9658 5.54139C44.1798 5.79639 44.3747 6.06572 44.5602 6.34937C44.66 6.50122 44.7575 6.65595 44.8478 6.81353C44.8906 6.88802 44.931 6.96825 44.9762 7.04274C45.0404 7.14589 45.126 7.20033 45.2021 7.28342C45.4041 7.50117 45.6538 7.23471 45.6014 6.95965C45.5777 6.83359 45.5753 6.72184 45.5206 6.60151C45.4778 6.50409 45.4255 6.4124 45.3756 6.32072C45.2758 6.13448 45.1711 5.95398 45.057 5.78206C44.9643 5.64167 44.8645 5.50414 44.7646 5.36948C45.0451 5.21762 45.2448 4.89959 45.3019 4.51279C45.378 4.01425 45.2401 3.50711 45.0356 3.07733C44.8478 2.68194 44.5768 2.34098 44.2701 2.07452C44.1085 1.93412 43.9397 1.79946 43.7638 1.69058C43.6734 1.63328 43.5759 1.58457 43.4809 1.53873C43.4 1.49862 43.3144 1.48142 43.2312 1.45564C43.217 1.17198 43.1813 0.896927 43.0981 0.650522C42.9602 0.237935 42.6036 -0.0829654 42.2232 0.017316C41.8191 0.123328 41.6574 0.62187 41.5005 1.02586C41.2747 1.61036 41.0536 2.19485 40.8253 2.77649C40.6138 3.32087 40.4022 3.88245 40.319 4.48127C40.1668 5.59296 40.5543 6.64162 41.1867 7.43528C41.5481 7.89084 41.9998 8.25185 42.4681 8.53264C42.8675 8.77332 43.274 8.99393 43.7091 9.07416C43.7328 9.10568 43.7542 9.13433 43.7661 9.15438C45.4921 11.9823 47.4225 14.8704 47.9574 18.4204C48.5327 22.2282 47.3155 26.0045 45.6395 29.1706C44.6981 30.947 43.6021 32.5973 42.5204 34.2505C42.3706 33.4884 42.2494 32.7234 42.2422 31.9154C42.228 30.6203 42.4087 29.3281 42.6607 28.0732C42.839 27.1821 43.1052 26.2567 43.1266 25.3283C43.2479 25.3054 43.5997 25.0103 43.6021 24.8413C43.6045 24.6751 43.2574 24.635 43.0957 24.6808C43.0886 24.6149 43.0791 24.5462 43.0672 24.4803C42.9008 23.5261 42.3944 22.5692 41.6408 22.1623C41.5457 22.1107 40.7303 21.7956 40.3523 21.6466C39.9267 21.4775 39.4964 21.3257 39.0613 21.1939C38.2364 20.9417 37.3615 20.7011 36.5152 20.9618C35.4787 21.2827 34.6205 22.2683 34.1117 23.4316C33.9168 23.1852 33.7551 22.8929 33.6077 22.5692C33.5293 22.3944 33.2463 22.3944 33.2511 22.6408C33.2606 23.1623 33.4769 23.6322 33.786 23.9989C33.6553 24.4086 33.5269 24.8183 33.4056 25.2338C32.8802 27.0217 32.438 28.8497 32.1171 30.7063C31.9602 31.6174 31.8318 32.5371 31.7391 33.4626C31.6535 34.3136 31.5228 35.2734 31.8366 36.0814C32.1433 36.8693 32.8137 37.2934 33.5197 37.0383C33.9595 36.8808 34.2805 36.5312 34.5325 36.11C34.6014 36.2103 34.6823 36.302 34.7869 36.3708C35.1411 36.6086 35.5429 36.5083 35.8305 36.2189C36.2751 36.7346 36.9265 36.9868 37.5351 36.8005C38.2602 36.5799 38.7975 35.8149 38.8521 34.9152C38.8759 34.5055 38.4052 34.474 38.3363 34.8579C38.1033 36.1817 36.7054 36.5971 36.0564 35.4596C35.9185 35.2161 35.6451 35.3393 35.5548 35.557C35.3693 36.004 34.8487 35.7146 34.9129 35.3049C34.9438 35.2247 34.9747 35.1445 35.0032 35.0642C35.1316 34.6946 34.6609 34.3737 34.4826 34.7233C34.4683 34.7519 34.4588 34.7806 34.4469 34.8092H34.4445C34.4374 34.8293 34.4279 34.8522 34.4208 34.8751C34.4112 34.9038 34.3994 34.9324 34.3899 34.9611C34.1711 35.5599 33.8645 36.2103 33.301 36.3679C32.6496 36.5484 32.3049 35.8178 32.2502 35.1445C32.186 34.3594 32.3287 33.5113 32.4238 32.7348C32.5046 32.073 32.6068 31.414 32.7186 30.7579C32.7614 30.7092 32.8018 30.6633 32.847 30.6203C32.9468 30.5201 33.0514 30.4255 33.1584 30.3367C33.1822 30.3166 33.2059 30.2966 33.2297 30.2794C33.244 30.2679 33.2606 30.2565 33.2749 30.245L33.282 30.2393C33.3486 30.1934 33.4151 30.1504 33.4793 30.0989C33.5245 30.0616 33.5602 30.0387 33.622 30.0015C33.6838 29.9642 33.7456 29.9298 33.8098 29.8983C33.8882 29.8582 33.9286 29.7465 33.9025 29.649C33.8787 29.5574 33.7955 29.4771 33.7099 29.5058C33.5697 29.5488 33.4365 29.6089 33.301 29.6576C33.2939 29.6576 33.2535 29.6748 33.2416 29.6806C33.2273 29.6863 33.2154 29.6949 33.2012 29.7035C33.1679 29.7235 33.137 29.7436 33.1037 29.7636C33.0443 29.8009 32.9825 29.8439 32.9254 29.8869C32.9064 29.9012 32.8897 29.9155 32.8731 29.9298C33.1441 28.5345 33.4817 27.1592 33.8716 25.8068C34 25.357 34.1379 24.91 34.2781 24.4631L34.2829 24.4545C34.4493 24.5691 34.6252 24.6608 34.8011 24.7238C35.6237 25.0132 36.539 24.784 37.2522 24.2195C37.402 24.4917 37.5826 24.7181 37.7491 24.8384C38.1603 25.1364 38.7119 25.2137 39.1327 24.8957C39.2135 24.8355 39.2824 24.761 39.3443 24.6808C39.3823 24.7725 39.4275 24.8613 39.4774 24.9473C39.7104 25.3398 40.0789 25.6091 40.4735 25.6836C41.0631 25.7954 41.7026 25.4458 42.0283 24.8499C42.159 25.039 42.3183 25.1908 42.5299 25.2796C42.5299 25.3054 42.5323 25.3312 42.5299 25.357C42.4895 26.5575 42.0925 27.738 41.8999 28.9127C41.7073 30.0817 41.6122 31.2679 41.6764 32.4598C41.7359 33.5686 41.9403 34.815 42.537 35.7003C42.625 35.8292 42.8295 35.7376 42.7938 35.5599C42.7486 35.3393 42.7035 35.1215 42.6583 34.9038C42.7296 34.9038 42.8009 34.8694 42.8604 34.7834C44.9643 31.7578 47.0825 28.5832 48.1119 24.7754C48.6112 22.9302 48.8513 20.9647 48.6611 19.0307C48.4828 17.2113 47.9194 15.4778 47.1753 13.8905L47.1729 13.8877ZM43.2312 2.40401C43.2336 2.32952 43.236 2.25502 43.2384 2.17766C43.2954 2.22064 43.3572 2.26362 43.4119 2.3066C43.5308 2.40115 43.652 2.48424 43.7661 2.58452C43.992 2.78508 44.2059 3.02003 44.3676 3.29795C44.5673 3.63891 44.9025 4.55863 44.3652 4.72481C44.3343 4.73341 44.3105 4.75346 44.2868 4.77065C44.0229 4.47268 43.7305 4.15464 43.4 3.9684C43.2954 3.90823 43.167 3.86812 43.0363 3.84807C43.1361 3.37245 43.2146 2.89683 43.2312 2.40115V2.40401ZM37.4091 23.2597C37.3901 23.1852 37.3734 23.1078 37.3663 23.0333L37.3782 22.7984C37.5351 22.6465 37.6112 22.6408 37.6064 22.7841C37.6421 22.9445 37.5446 23.1107 37.4067 23.2625L37.4091 23.2597ZM42.2232 24.2654C42.2209 24.0218 41.9166 23.784 41.7906 24.0677C41.5481 24.6092 41.1534 25.0647 40.6019 25.0189C40.3427 24.9988 40.1121 24.8413 39.9338 24.6235C39.8221 24.486 39.6842 24.2596 39.6153 24.0276C39.6414 23.8356 39.6319 23.635 39.5772 23.4345C39.494 23.1336 39.1588 23.3141 39.1707 23.5834C39.1969 24.0132 38.9401 24.3914 38.5859 24.4487C38.2221 24.5089 37.8846 24.251 37.6777 23.9101C37.6658 23.89 37.6563 23.8671 37.6444 23.847C37.9131 23.5577 38.1651 23.1766 38.0914 22.7268C38.0177 22.2884 37.6421 21.9818 37.2926 22.1967C36.8457 22.4718 36.829 23.0534 36.9931 23.6064C36.9574 23.6322 36.9241 23.6579 36.898 23.6751C36.3179 24.1049 35.5785 24.3141 34.9176 24.0476C34.7869 23.996 34.668 23.9273 34.5586 23.8499C34.7227 23.5118 34.8962 23.1795 35.1078 22.8815C35.5452 22.2683 36.1443 21.7612 36.8148 21.6151C37.5826 21.446 38.3862 21.6953 39.1279 21.9188C39.5083 22.0362 39.8887 22.1595 40.2643 22.297C40.6375 22.4345 41.403 22.6609 41.4102 22.6666C41.9308 23.2167 42.3326 23.8384 42.4729 24.6092C42.3302 24.5404 42.2232 24.4287 42.2209 24.2539L42.2232 24.2654Z" fill="#4C3451"/>
<path d="M34.5967 30.5256C34.5872 30.6058 34.5753 30.686 34.5658 30.7634C34.523 31.0872 34.4517 31.5341 34.7774 31.6888C34.9485 31.7691 35.1126 31.6888 35.26 31.5828C35.3812 31.494 35.5048 31.4052 35.6261 31.3164C35.8828 31.1301 36.142 30.9353 36.3868 30.7261C36.5033 30.6259 36.52 30.4167 36.4487 30.2763C36.3797 30.1416 36.2133 30.0557 36.0897 30.1416C35.8638 30.2935 35.6499 30.4683 35.4311 30.6345C35.3289 30.7118 35.2314 30.792 35.1316 30.8694C35.1126 30.8837 35.0936 30.9009 35.0722 30.9152C35.0793 30.8493 35.0888 30.7834 35.0959 30.7175C35.1126 30.5686 35.1221 30.4196 35.134 30.2706C35.1435 30.1502 35.1435 30.0385 35.1482 29.9239C35.1934 29.8179 35.1958 29.6832 35.1245 29.5887C34.939 29.3308 34.6395 29.2448 34.4659 28.9583C34.2876 28.6661 34.359 28.4025 34.5182 28.1246C34.7013 27.8037 34.8891 27.4856 35.0745 27.1676C35.1673 27.0071 35.2647 26.8467 35.3527 26.6805C35.3955 26.5974 35.4454 26.5143 35.4834 26.4284C35.5239 26.3338 35.5405 26.2249 35.5785 26.1247C35.6475 25.9413 35.4311 25.7464 35.3075 25.8897C35.2338 25.9728 35.1506 26.0358 35.0817 26.1247C35.0127 26.2135 34.9509 26.3195 34.8915 26.4169C34.775 26.606 34.6656 26.798 34.5515 26.9871C34.3328 27.3538 34.0665 27.7206 33.9144 28.1331C33.767 28.5285 33.8312 28.9612 34.0214 29.3165C34.164 29.5801 34.4208 29.8694 34.6894 30.0098C34.6728 30.0901 34.6561 30.1703 34.6419 30.2534C34.6252 30.3537 34.6133 30.4081 34.5967 30.5256Z" fill="#4C3451"/>
<path d="M37.2688 30.4626C37.478 30.7549 37.6706 31.0672 37.8822 31.3594C37.9749 31.4884 38.1485 31.5256 38.2602 31.4081C38.3814 31.2792 38.3814 31.1073 38.3006 30.9526C38.1294 30.6231 37.9083 30.3194 37.692 30.03C37.4638 29.7263 37.2213 29.4398 36.9669 29.1676C36.8718 29.0644 36.7125 29.1045 36.6317 29.2048C36.5509 29.3051 36.5271 29.4999 36.6174 29.6088C36.8433 29.8839 37.062 30.1675 37.2712 30.4598L37.2688 30.4626Z" fill="#4C3451"/>
<path d="M36.7696 26.9701C36.8932 27.036 37.0382 27.0159 37.15 26.9328C37.2379 26.8669 37.3093 26.7609 37.3402 26.6406C37.3687 26.5202 37.3735 26.42 37.3687 26.2968C37.3616 26.0991 37.314 25.8813 37.2047 25.7295C37.1666 25.675 37.1215 25.632 37.0715 25.5948C37.0382 25.5633 37.0002 25.5346 36.9622 25.5146C36.9099 25.4916 36.8504 25.4802 36.791 25.4888H36.7862C36.7744 25.4802 36.7649 25.4659 36.7506 25.4573C36.7054 25.4343 36.6222 25.4315 36.577 25.463C36.5128 25.5117 36.4724 25.5489 36.4201 25.6206L36.4629 25.5661C36.4296 25.6005 36.3964 25.6292 36.3702 25.6693C36.3298 25.7323 36.3132 25.8297 36.3036 25.9042C36.2918 25.9845 36.2965 26.0675 36.3036 26.1478C36.3036 26.1736 36.3036 26.1993 36.3084 26.2223C36.3155 26.2652 36.3298 26.3082 36.3417 26.3483C36.3536 26.3884 36.3702 26.4286 36.3868 26.4658C36.4296 26.5575 36.4772 26.652 36.5271 26.738C36.5889 26.8383 36.6674 26.9214 36.7625 26.9729L36.7696 26.9701Z" fill="#4C3451"/>
<path d="M33.9025 26.454C33.9025 26.454 33.9073 26.4741 33.912 26.4827C33.931 26.5256 33.9501 26.5686 33.9786 26.603C34.0261 26.6632 34.0547 26.689 34.1093 26.7262C34.1759 26.7692 34.2472 26.7978 34.3233 26.7978C34.4089 26.7978 34.4992 26.7892 34.5753 26.7377C34.6086 26.7148 34.6514 26.6861 34.6823 26.6517C34.7156 26.6145 34.7488 26.5744 34.775 26.5285C34.813 26.4626 34.8463 26.3881 34.8606 26.3108C34.8725 26.2592 34.8844 26.2047 34.8867 26.1503C34.8915 26.0959 34.8867 26.0386 34.8844 25.9841C34.8844 25.9641 34.8796 25.944 34.8748 25.924C34.8653 25.8781 34.8535 25.8179 34.8321 25.7721C34.813 25.7291 34.7916 25.6833 34.7655 25.6432C34.7441 25.6117 34.7156 25.583 34.6918 25.5572C34.6847 25.5486 34.6775 25.5429 34.6704 25.5372C34.5706 25.4627 34.4541 25.4197 34.3352 25.4541C34.2567 25.477 34.2068 25.5056 34.1402 25.5572C34.1022 25.5887 34.0713 25.6317 34.0404 25.6747C34.0333 25.6833 34.0285 25.6947 34.0238 25.7033C34.0047 25.7406 33.9857 25.7807 33.9715 25.8208C33.9524 25.8724 33.9429 25.9326 33.9358 25.987C33.9358 25.9899 33.9358 25.9927 33.9358 25.9956C33.9073 26.0615 33.8859 26.1303 33.8811 26.2076L33.8978 26.1188C33.8859 26.1646 33.8764 26.2105 33.874 26.2563C33.8692 26.3251 33.8835 26.3853 33.9025 26.4512V26.454Z" fill="#4C3451"/>
<path d="M35.5976 36.5771C35.2243 36.9667 34.8677 37.3306 34.4303 37.6114C34 37.8893 33.5411 38.0956 33.0799 38.2819C32.1171 38.6715 31.1234 38.9781 30.2651 39.6571C29.4283 40.3161 28.8649 41.3189 28.4298 42.3848C27.9448 43.571 27.574 44.8345 27.2316 46.0895C27.0819 46.6396 26.9297 47.2012 26.7942 47.7656C26.0881 46.5049 25.3821 45.2471 24.6784 43.9864C23.9152 42.6255 23.0618 41.276 22.572 39.7288C22.3367 38.9924 22.1964 38.1959 22.2368 37.4022C22.2725 36.7146 22.515 35.9668 22.1251 35.3594C21.7495 34.7749 21.1385 34.9382 20.8128 35.4883C20.5061 36.0069 20.2684 36.6745 20.1234 37.3192C20.0948 37.2389 20.0639 37.1616 20.0283 37.0899C20.4538 36.451 20.0639 35.3021 19.4292 35.1502C19.4054 35.113 19.3745 35.0814 19.3388 35.0585C19.3388 35.0327 19.3341 35.007 19.3341 34.9783C19.3151 34.6889 19.2865 34.4024 19.2556 34.1159C19.1962 33.5629 19.132 33.0128 19.0726 32.4598C19.0108 31.9068 18.9489 31.3567 18.8871 30.8037C18.8229 30.2422 18.8039 29.6376 18.6732 29.0904C18.5923 28.7523 18.1145 28.6921 18.1097 29.1161C18.105 29.672 18.2072 30.2393 18.269 30.7894C18.3142 31.6174 18.4402 32.8265 18.6755 34.3881C18.7041 34.623 18.735 34.8551 18.7706 35.0872C18.7825 35.1559 18.792 35.219 18.8039 35.2763C18.3427 35.5485 17.6295 35.6975 17.1873 35.325C17.1802 35.2362 17.1707 35.1559 17.1636 35.07C17.1636 34.7806 17.1208 34.4798 17.078 34.1904C17.0066 33.5056 16.9329 32.8867 16.8616 32.3366C16.8545 32.2621 16.845 32.1905 16.8379 32.1188C16.7285 31.0014 16.6548 29.8811 16.6072 28.758C16.5859 28.2623 15.9582 28.397 15.9773 28.8869C16.02 30.0301 16.1009 31.1733 16.2174 32.308C16.272 32.8552 16.3386 33.3996 16.4147 33.944C16.4551 34.2276 16.486 34.5313 16.5454 34.8236C16.5645 34.964 16.5835 35.1015 16.6049 35.2476C15.1999 36.3966 16.001 38.428 16.5906 39.8548C16.7237 40.4164 16.5074 41.0296 16.757 41.5568C16.7856 42.041 17.1184 42.4364 17.4774 42.6255C18.7754 56.1635 20.0711 57.2981 18.086 42.8031C18.6494 42.8805 19.2366 42.7086 19.7145 42.3447C20.0711 45.1554 20.4229 47.969 20.7819 50.7798C20.9269 51.837 21.3762 53.7825 20.1923 54.1607C19.9308 54.1779 19.6954 54.006 19.6027 53.7137C19.491 53.3613 18.9894 53.5332 19.0702 53.9057C19.422 55.3927 21.1432 54.9114 21.4047 53.5877C21.4547 53.4186 21.4832 53.2467 21.5022 53.0748C21.5307 53.1149 21.5569 53.1579 21.5854 53.198C21.8041 53.5246 22.0371 53.8427 22.263 54.1636C22.4841 54.4759 22.7075 54.7853 22.9286 55.0947C23.0356 55.2466 23.1426 55.3985 23.2543 55.5446C23.3875 55.7194 23.504 55.897 23.6965 55.9686C23.8606 56.0288 24.027 55.8798 24.0008 55.6678C23.9699 55.4328 23.8653 55.2924 23.7464 55.1119C23.6442 54.9544 23.5349 54.8054 23.4255 54.6564C23.1973 54.3355 22.9714 54.0146 22.7408 53.6965C22.5174 53.3871 22.2963 53.0748 22.068 52.7711C21.9563 52.625 21.8469 52.4731 21.7328 52.3298C21.6615 52.2382 21.5854 52.135 21.4998 52.0491C21.4666 51.6766 21.4095 51.3041 21.3643 50.9431C20.9816 47.9089 20.5822 44.8746 20.1994 41.8404C20.5679 41.3132 20.5537 40.5482 20.3492 39.9379C20.5085 39.3878 20.4847 38.7346 20.2089 38.2446C20.2208 38.1902 20.2303 38.1329 20.2351 38.0784C20.3254 38.0813 20.4205 38.0355 20.4609 37.9208C20.7058 37.2647 20.8794 36.5542 21.2027 35.941C21.3382 35.686 21.5593 35.4654 21.7352 35.8063C21.8921 36.1129 21.7732 36.5542 21.7304 36.8808C21.5426 38.2847 21.8707 39.7116 22.4009 40.9579C22.9619 42.2788 23.706 43.4879 24.3907 44.7142C25.1182 46.015 26.9321 49.3243 27.6501 50.5019C27.8616 50.8485 28.2468 50.4388 28.0685 50.0921C27.3481 48.6911 28.0209 49.9145 27.253 48.5478C27.379 47.9748 27.5074 47.3989 27.6548 46.8344C27.9853 45.568 28.3585 44.3073 28.8078 43.0954C29.2048 42.0267 29.716 40.9837 30.5219 40.2903C31.3516 39.5769 32.3739 39.2818 33.3248 38.8921C34.2496 38.5139 35.3907 37.9696 35.9019 36.8922C36.0088 36.6659 35.7972 36.3565 35.6071 36.5542L35.5976 36.5771ZM18.9394 42.0668C18.2381 42.3476 17.4369 42.296 17.1184 41.3648C17.1326 41.3934 17.1469 41.4221 17.1612 41.4507C17.1041 41.3447 17.0352 40.7287 17.154 40.5998C17.2682 39.0268 15.5826 37.4624 16.6881 35.9983C16.6881 36.0126 16.6905 36.027 16.6928 36.0413C16.7737 35.878 16.9448 35.8293 17.0851 35.9038C17.2372 35.8694 17.3823 35.9754 17.456 36.1301C18.1454 36.4023 18.8729 36.1301 19.403 35.5915C19.5433 35.8579 19.7145 36.1645 19.6598 36.494C19.5718 36.5914 19.4981 36.7031 19.4125 36.8034C19.4411 36.8034 19.472 36.8034 19.4981 36.8235C18.8467 37.5083 17.9552 37.3392 17.1873 37.1129C17.0447 37.0899 16.952 37.3077 17.0423 37.4366C17.7103 38.2618 18.9109 38.0698 19.6574 37.4968C19.9118 38.9065 18.3166 39.1586 17.513 38.6887C16.4337 39.0497 18.5234 40.2646 19.9379 38.9007C20.0615 41.9722 17.4417 40.1041 17.7317 40.8949C18.3998 41.743 19.7121 41.3161 20.1638 40.3706C20.6749 41.1356 19.5076 41.9693 18.9323 42.0668H18.9394Z" fill="#4C3451"/>
<path d="M33.4128 46.9435C33.2154 47.9004 33.0158 48.8574 32.8398 49.8172C32.7519 50.2957 32.6663 50.7771 32.5831 51.2584C32.5022 51.7226 31.9364 55.0748 31.984 55.5447C32.0006 55.7109 32.2693 55.7109 32.3358 55.5763C32.545 55.1379 33.0966 51.7742 33.1798 51.3071C33.2654 50.8286 33.3486 50.3473 33.4294 49.8659C33.5934 48.9061 33.729 47.9434 33.8716 46.9807C33.9096 46.72 33.4651 46.6885 33.4128 46.9435Z" fill="#4C3451"/>
<path d="M43.8707 1.47294C44.0467 1.45575 44.2012 1.55317 44.3676 1.61334C44.5245 1.67064 44.6767 1.75946 44.8098 1.87407C45.1189 2.14053 45.3352 2.50154 45.5301 2.89121C45.7132 3.25795 45.9747 3.70779 45.9723 4.15475C45.9723 4.3152 45.92 4.45846 45.8202 4.56734C45.7845 4.60459 45.7441 4.63324 45.6989 4.6533C45.6657 4.66762 45.63 4.67335 45.5967 4.68768C45.5753 4.702 45.5515 4.71346 45.5301 4.72779C45.5206 4.73639 45.5159 4.74212 45.5111 4.74785C45.3328 4.81948 45.3471 5.08307 45.4564 5.22347C45.6038 5.49852 45.9747 5.38678 46.1649 5.24352C46.3575 5.10026 46.5001 4.86818 46.5762 4.61318C46.7782 3.93413 46.4811 3.25509 46.2101 2.67059C45.9581 2.12334 45.6395 1.58468 45.1973 1.24373C45 1.09187 44.767 0.974401 44.5364 0.928558C44.2701 0.876984 44.0514 0.980131 43.8113 1.1062C43.6568 1.18929 43.6877 1.49013 43.8731 1.47008L43.8707 1.47294Z" fill="#4C3451"/>
<path d="M27.127 14.0679C26.6539 11.303 26.2759 8.85323 23.6823 8.99076C20.8389 9.14261 5.86637 11.6153 3.5746 13.7842C1.4017 15.8414 3.87415 29.4109 6.18018 29.1702C12.3684 28.5227 25.5247 26.0071 27.5978 25.1762C29.1311 24.5602 27.5716 16.678 27.1247 14.0679H27.127ZM27.2649 24.3023C26.3663 25.0759 14.8361 27.2248 9.6416 27.7606C6.34184 28.1015 6.16591 28.4883 5.46697 27.3738C4.32109 25.5429 2.57849 15.0191 4.19271 14.2885C9.06629 12.0737 13.9422 11.0938 21.6044 10.0652C23.221 9.84745 25.3179 9.3661 25.8932 11.7728C26.5208 14.406 28.1659 23.5287 27.2673 24.2994L27.2649 24.3023Z" fill="#4C3451"/>
<path d="M24.6665 17.6899C23.9343 16.6814 22.8121 17.2802 22.1132 17.9879C21.6995 18.4062 21.3073 18.8159 20.8199 19.1053C20.3112 19.409 19.7739 19.5866 19.2128 19.6611C18.9585 19.6955 18.8634 20.0308 18.9371 20.2829C19.1225 20.9075 19.1249 21.6037 18.9585 22.2369C18.7825 22.9103 18.4378 23.3716 18.0503 23.8787C17.8173 24.1824 18.1811 24.7182 18.4759 24.5119C19.5885 23.7268 19.9807 21.939 19.7335 20.4663C20.354 20.3259 20.9483 20.0565 21.4927 19.664C21.904 20.5981 23.0808 20.6811 23.8106 20.3345C24.6213 19.9505 25.3535 18.6354 24.6665 17.687V17.6899ZM23.5919 19.5093C23.3185 19.664 23.0166 19.7099 22.7194 19.6611C22.427 19.6124 22.1988 19.4434 21.9468 19.2944C22.1489 19.111 22.3391 18.9162 22.534 18.7156C22.824 18.4148 23.1545 18.0882 23.5491 18.0337C23.8297 17.9965 24.1958 18.1541 24.21 18.5495C24.2267 18.9764 23.882 19.3431 23.5919 19.5093Z" fill="#4C3451"/>
<path d="M12.5459 24.0964C12.5411 24.0649 12.5292 24.0276 12.5221 23.999C12.5221 23.9933 12.5173 23.9847 12.5149 23.9761C12.5126 23.9617 12.5149 23.9474 12.5102 23.9331C12.4983 23.8615 12.4698 23.7956 12.4294 23.7383C12.3985 23.7039 12.3699 23.6695 12.339 23.6351C12.3343 23.6322 12.3295 23.6294 12.3248 23.6265C12.3129 23.6122 12.2986 23.5979 12.2891 23.5893C12.2796 23.5807 12.2701 23.5692 12.2582 23.5635C12.213 23.532 12.1655 23.5004 12.1203 23.4747C12.1156 23.4718 12.1084 23.4689 12.1037 23.4661C12.0989 23.4661 12.0918 23.4603 12.0846 23.4603C12.0347 23.4431 11.9824 23.4288 11.9325 23.4174C11.9206 23.4174 11.9087 23.4145 11.8945 23.4145C11.8493 23.4145 11.8017 23.4174 11.7566 23.4202C11.7328 23.426 11.7114 23.4345 11.6876 23.446C11.6211 23.4632 11.5593 23.5004 11.507 23.5549C11.476 23.595 11.4428 23.6351 11.4119 23.6752C11.4095 23.681 11.4071 23.6838 11.4023 23.6895C11.3572 23.7583 11.331 23.8357 11.3215 23.9188C11.3001 23.999 11.2954 24.0792 11.3096 24.1623C11.3215 24.2139 11.3358 24.2655 11.3477 24.3142C11.3857 24.4144 11.4404 24.4975 11.5141 24.5634C11.5188 24.5663 11.5212 24.5692 11.526 24.5749C11.5545 24.5921 11.583 24.6121 11.6116 24.6293C11.6353 24.658 11.6591 24.6838 11.6853 24.7067C11.6876 24.7067 11.69 24.7096 11.6924 24.7124C11.7138 24.7267 11.7352 24.7411 11.7566 24.7525C11.778 24.7669 11.7994 24.7812 11.8208 24.7955H11.8279C11.8517 24.807 11.8754 24.8156 11.9016 24.8184C11.9254 24.827 11.9491 24.8328 11.9753 24.8385C12.068 24.8471 12.156 24.8299 12.2416 24.784C12.3057 24.7525 12.3604 24.7038 12.4032 24.6379C12.4555 24.5806 12.4936 24.5119 12.5173 24.4288C12.5506 24.3199 12.5601 24.211 12.5435 24.0964H12.5459Z" fill="#4C3451"/>
<path d="M9.69121 14.6836C9.61275 14.592 9.45823 14.5633 9.37264 14.6664C9.31083 14.7409 9.2514 14.8154 9.19196 14.8899C9.16106 14.93 9.13015 14.9673 9.09925 15.0074C9.0826 15.0275 9.06834 15.0504 9.04932 15.0704C9.07072 15.0447 9.04932 15.0676 9.03981 15.079C8.96611 15.1593 8.89717 15.2338 8.83536 15.3283C8.78544 15.4057 8.73789 15.483 8.69034 15.5604C8.48589 15.8956 8.29332 16.2337 8.14831 16.6119C8.07936 16.7924 8.16732 17.013 8.30283 17.1019C8.44072 17.1935 8.63329 17.1563 8.726 16.9901C8.89955 16.6749 9.0517 16.3454 9.22049 16.0274C9.26091 15.95 9.3037 15.8727 9.34649 15.7982C9.40117 15.7036 9.43921 15.6062 9.482 15.5031C9.48675 15.4888 9.49389 15.4744 9.50102 15.4572C9.5034 15.4544 9.51053 15.4429 9.51528 15.4343C9.53906 15.3913 9.56283 15.3484 9.5866 15.3054C9.63177 15.2252 9.67694 15.1449 9.72211 15.0647C9.79106 14.9444 9.77917 14.7839 9.69121 14.6808V14.6836Z" fill="#4C3451"/>
<path d="M8.71887 14.2828C8.60476 14.1281 8.42883 14.108 8.29095 14.2284C8.05797 14.4318 7.82974 14.6725 7.64668 14.9418C7.5611 15.065 7.48265 15.1968 7.41133 15.3343C7.37567 15.4031 7.34238 15.4718 7.3091 15.5435C7.28295 15.6008 7.25442 15.6581 7.23303 15.7183C7.2045 15.7899 7.19974 15.8672 7.20687 15.9446C7.17835 16.0936 7.16884 16.234 7.20925 16.3887C7.24253 16.5119 7.39944 16.5835 7.49216 16.5176C7.59676 16.4431 7.66333 16.3457 7.72989 16.2369C7.76555 16.2111 7.79883 16.1824 7.82499 16.1366C7.85351 16.0907 7.87966 16.0248 7.89868 15.9704L7.92008 15.9245C7.93672 15.8902 7.95099 15.8586 7.96763 15.8271C8.03419 15.6925 8.10789 15.5635 8.18634 15.4375C8.26242 15.3171 8.33612 15.1939 8.4217 15.0822C8.42883 15.0736 8.43121 15.0707 8.43121 15.0679C8.43834 15.0621 8.44547 15.0535 8.44547 15.0507C8.47163 15.0191 8.4954 14.9905 8.52155 14.9618C8.57147 14.9074 8.6214 14.853 8.67132 14.8014C8.79257 14.6782 8.82585 14.4375 8.71649 14.2857L8.71887 14.2828Z" fill="#4C3451"/>
<path d="M16.1856 19.3317C15.2251 18.3947 14.2552 18.5638 13.8415 20.0451C13.7203 20.429 14.2147 20.7872 14.3883 20.4032C14.9042 18.8045 15.6126 19.8875 16.3591 20.5264C15.3345 21.1568 12.3842 22.3773 11.4927 21.2542C11.5878 19.6497 10.3611 20.0737 10.7866 21.4089C10.8104 22.2627 9.89034 22.363 9.32691 22.4805C8.58042 22.7871 8.34268 22.5693 8.06691 21.727C7.72933 20.4663 7.46782 18.6154 7.17303 17.3318C7.07555 16.8791 6.42178 16.9564 6.47408 17.4464C6.59295 18.5495 6.98759 20.3918 7.24197 21.4576C7.55816 23.0449 8.21668 23.8672 9.63359 23.2856C10.2588 23.1653 11.0743 22.9991 11.3429 22.2169C12.7812 23.0621 14.5975 22.2398 16.0192 21.6582C17.4551 21.0937 17.5335 20.1883 16.1903 19.3345L16.1856 19.3317Z" fill="#4C3451"/>
<path d="M37.2831 12.263C37.1618 12.4234 37.1286 12.6584 37.0763 12.8618C37.0216 13.0738 36.9693 13.283 36.9194 13.495C36.8195 13.9191 36.7339 14.346 36.6602 14.7786C36.5081 15.6496 36.4106 16.5092 36.3464 17.3945C36.3226 17.7097 36.7054 17.7469 36.7506 17.4404C36.8742 16.5837 37.0263 15.7241 37.207 14.8818C37.295 14.4692 37.3877 14.0594 37.4828 13.6497C37.5327 13.4377 37.5826 13.2257 37.6373 13.0137C37.692 12.8045 37.7586 12.6125 37.7395 12.3919C37.7158 12.1054 37.4186 12.0853 37.2878 12.263H37.2831Z" fill="#4C3451"/>
<path d="M35.7521 17.5977C35.6736 17.2625 35.5928 16.9301 35.512 16.5978C35.4692 16.4173 35.4264 16.2368 35.3788 16.0563C35.3289 15.8672 35.279 15.6523 35.1197 15.5634C35.0413 15.5176 34.9295 15.5634 34.882 15.6494C34.7869 15.8213 34.8392 16.0563 34.8772 16.2425C34.9105 16.4058 34.9462 16.5663 34.9818 16.7267C35.0531 17.0562 35.1245 17.3857 35.1982 17.7123C35.2362 17.8814 35.3622 18.0275 35.5191 17.9874C35.6546 17.953 35.7901 17.7811 35.7473 17.6006L35.7521 17.5977Z" fill="#C4C2C2"/>
<path d="M39.3561 15.18C39.2492 15.0339 39.0566 14.9909 38.9282 15.1255C38.6144 15.4493 38.3267 15.816 38.089 16.2229C37.9749 16.4177 37.8703 16.6183 37.7776 16.8246C37.673 17.0567 37.5921 17.2916 37.5161 17.538C37.4685 17.6927 37.5351 17.8704 37.6635 17.9306C37.8037 17.9936 37.9274 17.9019 37.9892 17.7529C38.0605 17.5839 38.158 17.4005 38.2507 17.2171C38.3505 17.0194 38.4575 16.8303 38.574 16.647C38.6881 16.4693 38.8093 16.2974 38.933 16.1341C38.9472 16.1169 38.9615 16.0968 38.9758 16.0796L38.9805 16.0711C38.9805 16.0711 38.9876 16.0625 38.9948 16.0539C39.0281 16.0137 39.0613 15.9736 39.0946 15.9364C39.1659 15.8533 39.2373 15.7759 39.3133 15.6986C39.4346 15.5725 39.4702 15.3347 39.3585 15.1828L39.3561 15.18Z" fill="#FCA710"/>
<path d="M28.8078 33.0182C28.3442 32.7747 27.8783 32.5311 27.4028 32.322C27.2697 32.2647 27.1009 32.342 27.0557 32.5111C27.0082 32.6887 27.0747 32.8492 27.2126 32.9294C27.6691 33.193 28.1398 33.4251 28.6081 33.6543C28.7436 33.7202 28.9243 33.6285 28.9719 33.4566C29.0218 33.2732 28.9528 33.0956 28.8078 33.0182Z" fill="#4C3451"/>
<path d="M28.815 34.6059C28.5677 34.6575 28.3205 34.7005 28.0756 34.7578C27.9449 34.7893 27.8379 34.9469 27.8664 35.1102C27.8949 35.2678 28.0209 35.3967 28.1588 35.3623C28.4037 35.3022 28.6462 35.2277 28.891 35.1589C29.0099 35.1274 29.1098 34.9898 29.0812 34.8351C29.0551 34.6861 28.941 34.5773 28.8126 34.6059H28.815Z" fill="#FCA710"/>
<path d="M25.5675 16.389C25.1158 15.5237 24.5286 14.7501 23.8915 14.051C24.0151 14.0167 24.1363 13.9794 24.26 13.9479C24.3788 13.9164 24.4929 13.8763 24.6118 13.839C24.638 13.8304 24.6641 13.8247 24.6926 13.8161C24.7758 13.9422 24.859 14.0682 24.9541 14.1828C25.0754 14.3261 25.2727 14.1972 25.2109 13.9937C25.1562 13.819 25.073 13.6585 24.9874 13.5009C24.9827 13.4923 24.9803 13.4837 24.9755 13.478C24.966 13.4608 24.9565 13.4408 24.947 13.4236C24.8448 13.2373 24.7521 13.0511 24.6284 12.8849C24.531 12.7502 24.4311 12.6242 24.3265 12.4981C24.4549 12.458 24.4715 12.1944 24.317 12.1944C24.2386 12.1944 24.1577 12.203 24.0793 12.2059C24.008 12.1256 23.939 12.0425 23.8653 11.9652C23.7346 11.8277 23.5991 11.693 23.4612 11.5669C23.4041 11.5153 23.3423 11.4666 23.2829 11.4208C23.8463 11.3406 24.4074 11.2603 24.9708 11.1773C25.1443 11.1515 25.0968 10.842 24.9256 10.8592C24.2219 10.928 23.5182 11.0053 22.8145 11.0798C22.5601 10.9079 22.301 10.7618 22.0324 10.6214C21.9183 10.5612 21.8137 10.7819 21.9254 10.8592C22.049 10.9452 22.1679 11.0397 22.2868 11.1343C21.8374 11.183 21.3905 11.226 20.9412 11.2747C20.8175 11.289 20.6939 11.3033 20.5703 11.3177C20.2089 11.1056 19.8381 10.9108 19.4577 10.7389C19.2818 10.6587 19.1891 10.971 19.3555 11.0627C19.5433 11.1658 19.7263 11.2804 19.9118 11.3921C19.6122 11.4265 19.3103 11.458 19.0084 11.4953C18.6779 11.5354 18.3451 11.5784 18.0147 11.6242C17.658 11.6729 17.3228 11.7675 16.9757 11.8534C16.8402 11.8878 16.8331 12.16 16.9853 12.16C17.2919 12.16 17.5962 12.1801 17.91 12.1457C18.2429 12.1113 18.5733 12.0712 18.9038 12.0282C19.4577 11.9595 20.0093 11.885 20.5632 11.8076C20.9436 12.0626 21.3168 12.3348 21.6782 12.6242C21.1242 12.7732 20.5822 12.9537 20.0354 13.1514C19.8737 13.2087 19.9046 13.5152 20.0806 13.4723C20.7676 13.309 21.4618 13.1686 22.1512 13.011C22.3082 13.1456 22.4603 13.2803 22.6125 13.4207C22.7789 13.5754 22.9381 13.7359 23.0974 13.8992C22.7765 14.0195 22.4579 14.1485 22.1417 14.2917C21.9729 14.3662 22.0894 14.6613 22.2558 14.5954C22.6267 14.4464 23.0047 14.3204 23.3827 14.2029C24.0721 14.9593 24.6998 15.7873 25.3393 16.6154C25.4748 16.7902 25.6769 16.581 25.5746 16.3862L25.5675 16.389ZM22.2416 12.4866C21.9064 12.2116 21.564 11.9566 21.2122 11.7188C21.7138 11.6471 22.2154 11.5727 22.7171 11.501C22.7385 11.5211 22.7622 11.5383 22.7836 11.5583C23.0237 11.7704 23.2543 12.0168 23.4778 12.2603C23.0618 12.3147 22.6481 12.395 22.2416 12.4866ZM22.7123 12.8906C23.0784 12.8133 23.4445 12.7359 23.8083 12.6442C23.9675 12.8362 24.1197 13.0339 24.2647 13.2373C24.3265 13.3233 24.3907 13.4064 24.4525 13.4895C24.3669 13.5038 24.2837 13.5181 24.2005 13.541C23.9937 13.5983 23.7892 13.6614 23.5848 13.7301C23.3447 13.4837 23.0998 13.2459 22.8549 13.0196C22.8074 12.9766 22.7598 12.9365 22.7123 12.8935V12.8906Z" fill="#FCA710"/>
<path d="M19.7786 13.3745C19.7382 13.343 19.7026 13.3287 19.6526 13.3344C19.636 13.3344 19.6194 13.3401 19.6003 13.3401C19.5599 13.3459 19.5195 13.3516 19.4791 13.3545C19.403 13.363 19.3317 13.3745 19.258 13.3946C19.1059 13.4318 18.9513 13.4576 18.7992 13.4891C18.7326 13.5034 18.6874 13.5808 18.6969 13.661C18.7088 13.747 18.773 13.79 18.8396 13.7842C18.9846 13.7728 19.1391 13.7527 19.277 13.747C19.3602 13.747 19.4411 13.7355 19.5219 13.7241C19.6003 13.7126 19.724 13.7183 19.781 13.6438C19.8143 13.6037 19.8333 13.5636 19.8309 13.5063C19.8309 13.4576 19.8119 13.4032 19.7739 13.3745H19.7786Z" fill="#FCA710"/>
<path d="M15.2284 12.2914C15.2475 12.2856 15.2499 12.2856 15.2284 12.2914V12.2914Z" fill="#FCA710"/>
<path d="M15.6706 12.263C15.585 12.2601 15.4994 12.263 15.4138 12.2658C15.3924 12.2658 15.3734 12.2658 15.352 12.2716C15.3306 12.2716 15.3306 12.2716 15.352 12.2716C15.3425 12.2716 15.333 12.2716 15.3211 12.2716C15.2878 12.2687 15.2569 12.2744 15.2284 12.2916C15.2118 12.2973 15.1927 12.3002 15.1761 12.3059C15.0929 12.3317 15.0097 12.3604 14.9288 12.3919C14.8932 12.4062 14.8575 12.4206 14.8219 12.4406C14.7957 12.4549 14.7672 12.4693 14.7458 12.4893C14.7078 12.5266 14.6959 12.5724 14.6864 12.6297C14.6745 12.6899 14.7101 12.7558 14.7458 12.7902C14.8338 12.8704 14.9407 12.8102 15.0358 12.7816C15.1048 12.7615 15.1737 12.7443 15.245 12.73C15.2617 12.7271 15.2807 12.7243 15.2973 12.7214C15.3116 12.7214 15.3068 12.7214 15.2878 12.7214C15.3211 12.7243 15.352 12.7214 15.3829 12.7013C15.4019 12.6927 15.4019 12.6956 15.3829 12.7013C15.3924 12.7013 15.4019 12.6956 15.4138 12.6927C15.4281 12.6899 15.4447 12.687 15.459 12.6841C15.5351 12.6698 15.6088 12.6584 15.6848 12.6498C15.7657 12.6412 15.8204 12.5409 15.818 12.4492C15.8156 12.3575 15.7538 12.2658 15.673 12.263H15.6706Z" fill="#FCA710"/>
<path d="M21.0267 14.3864C20.7676 14.3864 20.7272 14.8734 20.9887 14.8734C21.2502 14.8734 21.2883 14.3864 21.0267 14.3864Z" fill="#FCA710"/>
<path d="M24.0412 15.9905C23.7084 15.9905 23.6561 16.618 23.9937 16.618C24.3313 16.618 24.3788 15.9905 24.0412 15.9905Z" fill="#FCA710"/>
</g>
<defs>
<clipPath id="clip0_2_1291">
<rect width="53.2622" height="56" fill="white" transform="translate(2.73778)"/>
</clipPath>
</defs>
</svg>
