<svg width="56" height="56" viewBox="0 0 56 56" fill="none" xmlns="http://www.w3.org/2000/svg">
<g clip-path="url(#clip0_2_452)">
<path d="M35.8409 54.8412C35.8815 54.9109 47.8072 54.8412 47.8072 54.8412C47.8072 54.8412 48.1652 54.0341 48.0661 53.3439C47.9671 52.6537 39.6931 38.7373 39.6931 38.7373C39.6931 38.7373 43.5183 30.7112 44.3445 29.2656C45.1708 27.82 44.268 25.5741 44.268 25.5741C44.268 25.5741 44.5719 12.8177 41.2646 11.5025C40.3978 11.1586 35.8905 10.7202 33.4319 11.0686C30.7685 11.4463 30.1359 12.6873 28.9989 14.3038C27.1798 16.8937 28.5824 25.5651 29.3974 26.633C31.1895 28.9823 30.424 29.4724 28.9989 32.1815C27.5738 34.8906 19.8919 50.682 18.8113 51.9747C17.8522 53.1258 14.4683 52.4581 14.8825 54.9648H26.7542L32.3715 43.2337C32.3715 43.2337 36.1742 48.4383 36.7483 50.0907C37.8785 53.3394 34.2154 51.9995 35.8432 54.8389L35.8409 54.8412Z" fill="white"/>
<path d="M34.3618 31.1878C34.3595 31.1518 34.3528 31.1181 34.346 31.0821C34.3325 31.0079 34.3122 30.9315 34.2875 30.8595C34.2334 30.7044 34.1569 30.5583 34.0668 30.4189C33.952 30.239 33.8192 30.0727 33.6751 29.9153C33.2856 30.6055 32.9479 31.3182 32.6124 32.0376C32.2499 32.811 31.8537 33.5664 31.4642 34.3263C30.8045 35.6145 30.1426 36.9027 29.5573 38.2269C29.0057 39.4702 28.4563 40.7606 28.2649 42.1163C28.0578 43.5866 28.3595 44.9738 28.9516 46.3227C29.2511 47.0039 29.6 47.6626 29.9287 48.3303L32.3152 43.3483C32.1554 42.9819 32.009 42.6131 31.8762 42.2512C31.5362 41.3137 31.3021 40.3357 31.2548 39.3375C31.2075 38.3078 31.4552 37.4153 31.9055 36.498C32.4008 35.4931 33.0064 34.5286 33.4499 33.5012C33.7246 32.8649 33.9768 32.1635 34.4518 31.6464C34.4113 31.6059 34.3775 31.5565 34.3618 31.4958C34.3415 31.4193 34.3573 31.3339 34.355 31.253C34.355 31.2305 34.355 31.208 34.355 31.1878C34.355 31.1945 34.3595 31.226 34.355 31.1878H34.3618Z" fill="#C4C2C2"/>
<path d="M41.5325 33.6428C41.6653 33.7777 41.8049 33.9126 41.9513 34.043C42.9396 32.0061 43.9618 29.9333 44.3445 29.2656C45.1708 27.82 44.268 25.574 44.268 25.574C44.268 25.574 44.3175 23.5304 44.1622 20.9967C43.8109 20.8325 43.4575 20.6707 43.1153 20.4908C42.4511 20.1423 41.8207 19.7264 41.2083 19.2948C39.7989 18.2988 38.4773 17.1837 37.0027 16.2844C36.9869 16.2754 36.9711 16.2687 36.9554 16.2619C36.9261 16.2282 36.8946 16.1922 36.8653 16.1585C36.6807 15.9472 36.3453 16.2147 36.5231 16.4351L36.5276 16.4418C36.4893 16.5272 36.4983 16.6284 36.5884 16.7206C36.8068 16.9431 37.0297 17.159 37.2571 17.3748C37.919 18.2696 38.5021 19.2318 38.7588 20.3177C39.0897 21.7161 38.77 23.0965 37.7772 24.1486C36.7933 25.1918 35.4154 25.7156 34.0308 25.9629C32.4638 26.244 30.8338 26.2687 29.2443 26.208C29.2218 26.208 29.2015 26.2057 29.179 26.2057C29.2533 26.3968 29.3276 26.5452 29.3974 26.6374C30.2687 27.7795 30.5344 28.4832 30.415 29.2138C30.6897 29.2903 30.9486 29.4072 31.1512 29.605C31.5948 30.0389 31.5587 30.7426 32.1081 31.1091C32.6327 31.4576 33.3711 31.4598 33.9745 31.5317C34.7467 31.6239 35.5235 31.6936 36.3025 31.6711C37.4845 31.6397 38.68 31.3811 39.6886 30.7674C40.1501 31.8195 40.7265 32.811 41.5348 33.6428H41.5325Z" fill="#C4C2C2"/>
<path d="M29.8927 26.9992C29.2398 28.1795 28.3099 29.8747 27.2923 30.2141C26.2747 30.5536 22.7602 29.5959 21.3846 28.6202C20.009 27.6444 19.0094 26.0977 19.4371 23.4358C19.4371 23.4358 19.4866 22.8085 20.2296 22.8085C20.9726 22.8085 21.3351 23.1728 21.612 23.0334C21.8889 22.894 22.3662 22.4556 23.0191 22.5882C23.672 22.7209 24.0255 22.921 23.8747 23.2357C23.7238 23.5505 22.8187 23.9978 22.8052 25.0657C22.7917 26.1336 23.672 27.0891 24.7415 26.9632C24.8563 26.9497 25.6285 25.0815 26.3242 22.8355C26.7767 21.3787 27.0019 19.398 27.4206 18.1683C27.8597 16.8778 28.3212 16.2685 28.4765 16.2663C30.0751 16.2595 29.8927 26.9992 29.8927 26.9992Z" fill="white"/>
<path d="M28.6567 29.0203C29.1272 28.3864 29.5482 27.622 29.8927 26.9992C29.8927 26.9992 29.8972 26.7092 29.8994 26.2258C29.6811 26.2213 29.4627 26.2146 29.2443 26.2056C27.9182 26.1539 26.5944 26.0212 25.2863 25.8077C25.0071 26.5136 24.7977 26.9542 24.7415 26.961C24.4578 26.9947 24.1899 26.9498 23.9467 26.8486C24.415 27.5433 25.1017 28.0806 25.8784 28.4268C26.5021 28.7056 27.1775 28.863 27.8552 28.9507C28.1231 28.9844 28.391 29.0024 28.6589 29.0181L28.6567 29.0203Z" fill="#C4C2C2"/>
<path d="M29.1768 18.2677C29.3366 18.4296 29.6383 18.6387 29.8837 18.6252C30.0661 18.6162 30.1787 18.4588 30.2665 18.3149C30.5029 17.9305 30.6357 17.4943 30.9059 17.1301C31.0455 16.9413 31.3201 17.011 31.4124 17.2021C31.6173 17.627 32.1194 18.6476 32.7295 18.1148C33.1528 17.7439 33.2383 17.0694 33.5333 16.6085C33.6076 16.4916 33.7674 16.4309 33.9002 16.4781C35.2106 16.9503 35.7577 14.8954 35.8837 13.9849C36.0233 12.9799 35.9445 11.9502 35.7959 10.9408C34.9314 10.9363 34.1029 10.9723 33.4297 11.0689C30.7663 11.4466 30.1336 12.6877 28.9967 14.3041C28.7603 14.6413 28.5779 15.0842 28.4428 15.5968C28.5757 16.4871 28.5171 17.5955 29.1768 18.2655V18.2677Z" fill="#C4C2C2"/>
<path d="M35.4244 11.3249C35.6406 9.70841 36.0076 7.94806 35.4244 6.03709C34.8413 4.12611 33.2406 1.90489 31.9303 1.29562C30.6199 0.686359 26.5314 3.06946 25.8064 4.38466C25.0814 5.69986 24.9509 7.2691 25.3854 8.12342C25.8199 8.97774 26.6867 10.1513 27.0402 11.3249C27.3936 12.4984 27.486 15.4953 28.301 16.0888C29.116 16.6823 30.352 16.4688 31.0364 14.5713C31.5498 15.8572 33.5828 15.7156 33.5648 14.3959C33.5468 13.0762 33.6999 13.2448 34.4743 13.2448C35.2488 13.2448 35.4244 11.3249 35.4244 11.3249Z" fill="white"/>
<path d="M35.3186 47.0312C29.6856 39.1445 30.9599 38.8927 34.5621 31.7614C34.6589 31.5591 34.328 31.3769 34.2109 31.5725C30.8113 37.6607 28.9764 39.4165 34.1726 46.3095C40.0286 54.0771 33.7854 51.3275 35.4852 54.6076C35.6361 54.8977 36.0661 54.5537 35.8792 54.2906C34.8931 51.9345 40.0826 53.7061 35.3164 47.0334L35.3186 47.0312Z" fill="#4C3451"/>
<path d="M30.3385 27.6829C30.2259 27.575 30.0053 27.6716 30.0863 27.838C30.5389 28.7485 30.0211 29.6793 29.6045 30.4999C29.08 31.534 28.5509 32.566 28.0286 33.6024C26.9952 35.6528 25.9618 37.7031 24.9284 39.7535L21.8304 45.9001C21.3103 46.932 20.788 47.9662 20.2679 48.9981C19.8402 49.8479 19.4574 50.7607 18.8473 51.5004C18.5096 51.9095 18.0931 52.2175 17.591 52.3929C17.0799 52.5705 16.5373 52.6335 16.0285 52.8133C15.2203 53.0966 14.3445 53.9262 14.7114 54.8524C14.797 55.066 15.155 54.9626 15.1009 54.7333C14.9951 54.2791 15.2113 53.8767 15.558 53.5889C15.9407 53.2697 16.4248 53.1618 16.8998 53.0539C17.3614 52.9504 17.8319 52.847 18.2484 52.6155C18.6176 52.4109 18.9328 52.1344 19.2053 51.8129C19.8176 51.0979 20.2094 50.2054 20.6304 49.3736L22.1951 46.2755C24.2822 42.1433 26.3693 38.0134 28.4563 33.8834C29.0462 32.7144 29.6361 31.5453 30.2169 30.374C30.5997 29.6006 31.077 28.3978 30.3385 27.6851V27.6829Z" fill="#4C3451"/>
<path d="M31.6668 43.9413C31.4619 44.3819 26.8555 54.2313 26.7632 54.4741C26.6957 54.6517 26.9681 54.8158 27.0694 54.6405C27.1888 54.4336 31.9257 44.6359 32.1239 44.1773C32.313 43.7389 31.8694 43.5051 31.6668 43.9413Z" fill="#4C3451"/>
<path d="M48.1404 52.9861C45.4185 48.2806 42.7888 43.5121 39.9633 38.8673C41.0102 36.3853 42.1562 33.9483 43.4057 31.5607C44.2027 29.9712 45.6504 28.0804 44.698 26.2639C44.5742 26.0548 44.2815 26.1875 44.3558 26.419C44.9232 28.1951 43.6849 29.8678 42.8991 31.3696C41.5708 33.9842 40.2267 36.6146 39.1731 39.3529C39.101 39.8813 39.7652 39.2877 39.7652 39.2877C39.7652 39.2877 46.2718 50.7581 46.9112 51.8822C47.5506 53.0063 47.9446 53.3548 47.8342 54.1844C47.7239 54.4744 48.1584 54.634 48.2823 54.3552C48.4871 53.8921 48.3566 53.4222 48.1382 52.9883L48.1404 52.9861Z" fill="#4C3451"/>
<path d="M50.7678 36.3514C50.2185 36.792 48.3363 45.1553 48.5052 45.5398C48.674 45.9242 55.1941 42.5811 55.48 42.0641C55.766 41.547 51.3194 35.9085 50.7678 36.3514Z" fill="#86D7FE"/>
<path d="M49.6106 10.2519C50.2275 10.3531 54.1472 7.05272 54.1855 6.3288C54.2237 5.60488 51.0695 1.50415 50.5134 1.38275C49.9573 1.26135 45.8822 4.67637 45.862 5.29013C45.8417 5.90389 49.068 10.162 49.6106 10.2519Z" fill="#FF7147"/>
<path d="M8.60111 33.9257C8.68666 33.4963 4.97858 27.4959 5.01236 27.307C5.04613 27.1182 7.50242 25.6793 6.95307 23.5008C6.66264 22.3497 5.84088 20.74 3.36432 20.8097C1.8919 20.8502 0.277632 22.3317 0.295644 24.3102C0.324912 27.3587 2.18008 27.4959 2.41873 27.6375C2.65738 27.7791 -0.170399 34.3237 0.171816 34.5957C0.514031 34.8677 8.51556 34.3551 8.60111 33.928V33.9257Z" fill="#8E7F91"/>
<path d="M17.2627 22.9284L11.9758 22.6739C11.6715 22.6593 11.4129 22.8937 11.3983 23.1976L11.1322 28.7083C11.1176 29.0121 11.3523 29.2703 11.6566 29.285L16.9436 29.5395C17.2478 29.5541 17.5064 29.3197 17.5211 29.0158L17.7871 23.5051C17.8018 23.2013 17.567 22.9431 17.2627 22.9284Z" fill="#FDCA0C"/>
<path d="M17.6067 27.2079L17.7846 23.5096C17.8004 23.2061 17.564 22.9476 17.26 22.9319L11.9759 22.6778C11.672 22.6621 11.4131 22.8981 11.3973 23.2016L11.2465 26.3289C12.1583 26.4795 16.4022 27.0393 17.6067 27.2079Z" fill="#FCA710"/>
<path d="M19.561 26.4526C19.3809 26.0569 19.2638 25.6388 19.212 25.2049C19.1783 24.9283 19.1692 24.6473 19.1873 24.3708C19.1985 24.1932 19.2255 23.9796 19.2976 23.793C19.2976 23.7008 19.3043 23.6086 19.3223 23.5187C19.3606 23.3411 19.4687 23.1815 19.6105 23.0443L10.1591 22.5879C9.7786 22.57 9.45439 22.8622 9.43638 23.2444L9.33732 25.315C9.31931 25.695 9.61199 26.0187 9.99473 26.0367L19.5858 26.4998C19.579 26.4841 19.57 26.4661 19.5632 26.4504L19.561 26.4526Z" fill="#FDCA0C"/>
<path d="M19.2975 23.7933C19.2975 23.7011 19.3043 23.6089 19.3223 23.519C19.3606 23.3414 19.4687 23.1818 19.6105 23.0446L19.3831 23.0334C18.6446 24.0046 18.397 25.2186 18.3024 26.4394L19.5857 26.5024C19.579 26.4866 19.57 26.4686 19.5632 26.4529C19.3831 26.0572 19.266 25.6391 19.2142 25.2052C19.1805 24.9286 19.1715 24.6476 19.1895 24.3711C19.2007 24.1935 19.2278 23.9799 19.2998 23.7933H19.2975Z" fill="#FCA710"/>
<path d="M41.3276 24.0922L23.9467 23.2536C23.7148 23.6763 23.0056 24.0607 22.8818 24.4744C22.7287 24.987 23.0304 25.5962 23.2893 26.0166C23.4446 26.2684 23.609 26.518 23.8702 26.6754C23.8927 26.6889 23.9174 26.7001 23.9422 26.7113L41.1633 27.5409C41.5438 27.5589 41.868 27.2666 41.886 26.8845L41.985 24.8139C42.003 24.4339 41.7104 24.1102 41.3276 24.0922Z" fill="#FDCA0C"/>
<path d="M24.3475 25.8546C24.0143 25.288 24.0458 24.7777 24.4556 24.2561C24.6514 24.0066 24.8766 23.7885 25.1355 23.6041C25.2593 23.5164 25.3854 23.4333 25.5227 23.3681C25.552 23.3546 25.579 23.3456 25.6083 23.3321L23.949 23.2512C23.7171 23.6738 23.0079 24.0583 22.8841 24.4719C22.731 24.9845 23.0327 25.5938 23.2916 26.0142C23.4469 26.266 23.6113 26.5156 23.8724 26.6729C23.895 26.6864 23.9197 26.6977 23.9445 26.7089L25.4327 26.7808C24.9734 26.556 24.6244 26.3155 24.352 25.8523L24.3475 25.8546Z" fill="#FCA710"/>
<path d="M41.3277 24.0921L38.3468 23.9482C38.331 23.9617 38.313 23.973 38.2973 23.9865C38.0001 24.2203 37.7029 24.4563 37.4012 24.6857C36.7528 25.1803 36.1044 25.6411 35.3659 25.9941C34.1727 26.5652 32.8916 26.79 31.5925 26.9676C31.3899 26.9946 31.185 27.0238 30.9824 27.0485L41.1633 27.5386C41.5438 27.5566 41.868 27.2643 41.886 26.8822L41.9851 24.8116C42.0031 24.4316 41.7104 24.1079 41.3277 24.0899V24.0921Z" fill="#FCA710"/>
<path d="M47.6766 19.3889C43.6173 18.9347 40.0983 22.125 40.1591 26.2032C40.2086 29.5665 42.8023 32.4195 46.1501 32.7927C50.2094 33.2468 53.7284 30.0566 53.6676 25.9784C53.6181 22.6151 51.0244 19.7621 47.6766 19.3889ZM47.1813 29.3552C45.0267 29.5215 43.3111 27.6353 43.6848 25.5107C43.9392 24.0629 45.1753 22.941 46.6432 22.8286C48.7978 22.6623 50.5134 24.5485 50.1396 26.6731C49.8852 28.1209 48.6492 29.2405 47.1813 29.3552Z" fill="#FDCA0C"/>
<path d="M42.8833 29.2448C43.462 29.011 44.0451 28.7278 44.5944 28.395C43.8762 27.6733 43.4912 26.6257 43.6871 25.5061C43.9415 24.0582 45.1775 22.9364 46.6455 22.824C47.1408 22.7857 47.6091 22.8599 48.0391 23.0173C48.3115 21.846 48.4016 20.6455 48.1832 19.4651C48.0166 19.4337 47.85 19.4067 47.6789 19.3865C43.6196 18.9323 40.1006 22.1225 40.1614 26.2008C40.1817 27.5025 40.5824 28.7255 41.2601 29.7597C41.8117 29.6248 42.3543 29.4584 42.8879 29.2426L42.8833 29.2448Z" fill="#FCA710"/>
<path d="M19.561 26.4524C19.5339 26.3939 19.5114 26.3332 19.4867 26.2725L17.4311 26.1736L17.2938 29.0063C17.2893 29.094 17.251 29.1749 17.188 29.2334C17.1227 29.2918 17.0394 29.3211 16.9516 29.3188L11.6675 29.0648C11.5797 29.0603 11.5009 29.0221 11.4401 28.9591C11.3816 28.8939 11.3523 28.8107 11.3546 28.723L11.4919 25.8903L10.0037 25.8184C9.74704 25.8071 9.54892 25.5868 9.56017 25.3305L9.65924 23.2599C9.67275 23.0036 9.89338 22.8013 10.1478 22.817L19.4349 23.2644C19.5429 23.0913 19.7095 22.9429 19.8987 22.8372L10.1703 22.3674C9.66824 22.3449 9.23597 22.7338 9.21121 23.2374L9.11214 25.308C9.08738 25.8116 9.47912 26.241 9.98344 26.2658L11.0236 26.3152L10.9088 28.6983C10.8998 28.9051 10.9696 29.1052 11.1091 29.2581C11.2487 29.411 11.4401 29.5009 11.6472 29.5122L16.9313 29.7662C17.1384 29.7775 17.3388 29.7055 17.4919 29.5661C17.645 29.4267 17.7351 29.2356 17.7463 29.0288L17.8611 26.6457L19.6915 26.7334C19.6465 26.639 19.606 26.5445 19.5632 26.4524H19.561Z" fill="#4C3451"/>
<path d="M47.7014 19.1638C44.4481 18.8018 41.3704 20.751 40.3145 23.8176L24.0188 23.0329C24.0052 23.1836 23.9152 23.3297 23.7891 23.4714L40.6364 24.283L40.6882 24.1188C41.6248 21.1602 44.5539 19.2672 47.6518 19.6112C50.9051 19.9731 53.393 22.7115 53.4425 25.9803C53.4695 27.8598 52.6905 29.6584 51.3036 30.9174C49.9168 32.1764 48.0481 32.7767 46.1772 32.5676C43.4372 32.2618 41.1137 30.1575 40.5306 27.4529L40.4946 27.2843L23.6248 26.4705C23.6991 26.5469 23.7756 26.6188 23.8702 26.675C24.0638 26.7919 24.2799 26.8414 24.4735 26.9628L40.1299 27.7182C40.8188 30.5712 43.2076 32.6912 46.1276 33.0172C46.3888 33.0465 46.65 33.0599 46.9089 33.0599C48.6402 33.0599 50.3175 32.4215 51.6076 31.2501C53.0913 29.9057 53.9243 27.9812 53.895 25.9736C53.8432 22.4799 51.1821 19.5527 47.7036 19.1638H47.7014Z" fill="#4C3451"/>
<path d="M47.1993 29.5774C48.7618 29.456 50.0924 28.251 50.3625 26.711C50.5516 25.6296 50.2409 24.546 49.507 23.7389C48.773 22.9318 47.7239 22.5158 46.6274 22.6035C45.065 22.7249 43.7344 23.93 43.4642 25.47C43.2751 26.5514 43.5858 27.635 44.3197 28.4421C44.9907 29.1795 45.925 29.5887 46.9201 29.5887C47.0124 29.5887 47.107 29.5842 47.1993 29.5774ZM44.6529 28.1386C44.0135 27.4349 43.7434 26.4907 43.9077 25.5464C44.1441 24.2042 45.3013 23.1543 46.6612 23.0487C46.7423 23.0419 46.8256 23.0397 46.9066 23.0397C47.7734 23.0397 48.5884 23.3971 49.1738 24.0401C49.8132 24.7438 50.0834 25.6881 49.919 26.6323C49.6826 27.9745 48.5254 29.0244 47.1655 29.1301C46.2087 29.2065 45.2923 28.8423 44.6529 28.1386Z" fill="#4C3451"/>
<path d="M32.9074 27.2718C32.8826 27.3213 32.5471 28.6387 34.4991 28.3779C34.4991 28.3779 36.1719 30.2035 38.3805 28.9377C40.2087 28.8006 42.9959 27.0245 44.8489 24.7516C46.7018 22.4786 46.7648 19.7044 46.7648 19.7044C46.7648 19.7044 43.9663 14.6954 42.9329 13.1778C41.8995 11.6603 34.3753 14.1985 36.6762 16.1949C38.9772 18.1913 41.2781 20.6756 41.2916 21.2736C41.3051 21.8716 39.7899 24.6347 36.0796 26.5029C34.2267 27.4359 32.9074 27.2741 32.9074 27.2741V27.2718Z" fill="white"/>
<path d="M28.7198 9.12807C28.704 9.04714 28.6837 8.96395 28.6477 8.89201C28.6049 8.80433 28.5374 8.70991 28.4519 8.6582C28.4113 8.63347 28.3685 8.60874 28.3213 8.59525C28.2425 8.57277 28.1772 8.56377 28.0961 8.57501C27.9791 8.59075 27.862 8.66045 27.7967 8.75712C27.6954 8.91 27.6909 9.09435 27.7382 9.26746C27.7517 9.31467 27.7674 9.36189 27.7854 9.4091C27.7967 9.44732 27.8124 9.48554 27.8327 9.52151C27.8575 9.56422 27.8822 9.61144 27.9183 9.64741C27.952 9.68338 27.9903 9.7216 28.0331 9.74858C28.1006 9.78905 28.1637 9.81602 28.2425 9.82726C28.3168 9.83626 28.3888 9.82277 28.4564 9.79579C28.5667 9.75307 28.6455 9.6609 28.695 9.55523C28.7535 9.42484 28.7468 9.26521 28.7198 9.12807Z" fill="#4C3451"/>
<path d="M31.5431 7.4826C31.5318 7.38592 31.5115 7.287 31.4643 7.20157C31.4215 7.12513 31.3832 7.07792 31.3134 7.01947C31.2819 6.99474 31.2436 6.97675 31.2098 6.95876C31.1941 6.94977 31.1783 6.94303 31.1603 6.93853C31.068 6.91155 30.9802 6.90706 30.8879 6.93403C30.8248 6.95427 30.7641 6.98125 30.7145 7.02621C30.6537 7.08466 30.62 7.13188 30.5839 7.21056C30.5614 7.26002 30.5502 7.31623 30.5412 7.37019C30.5187 7.46236 30.5209 7.55904 30.5412 7.65121C30.5524 7.76137 30.593 7.87378 30.6673 7.95472C30.6853 7.97271 30.7033 7.99069 30.7235 8.00643C30.7483 8.0379 30.7753 8.06713 30.8046 8.09411C30.9239 8.19977 31.1018 8.21102 31.2459 8.15256C31.2954 8.13233 31.3449 8.1031 31.3809 8.06488C31.4417 8.00418 31.4958 7.93673 31.5205 7.85355C31.5566 7.72765 31.5566 7.61074 31.5431 7.4826Z" fill="#4C3451"/>
<path d="M31.6894 10.6546C31.4259 10.7512 31.2053 10.9176 30.9576 11.0502C30.8924 11.0862 30.6875 11.2323 30.6177 11.2076C30.5591 11.1874 30.5276 11.0412 30.5096 10.9918C30.4736 10.8906 30.4286 10.7939 30.3588 10.7108C30.2552 10.5894 30.1426 10.6006 29.9963 10.5961C29.8252 10.5916 29.6563 10.5916 29.4875 10.5961C29.4942 10.5871 29.501 10.5781 29.5077 10.5669C29.573 10.4567 29.6181 10.3398 29.6586 10.2184C29.7306 9.99583 29.7824 9.76427 29.8094 9.53045C29.8635 9.04035 29.8094 8.56597 29.6271 8.10734C29.5528 7.92299 29.2488 8.01292 29.2916 8.20851C29.3817 8.61543 29.4222 9.04709 29.3727 9.46076C29.3479 9.66535 29.3074 9.86544 29.2443 10.0588C29.2105 10.1622 29.1678 10.2611 29.1363 10.3623C29.1025 10.4657 29.0822 10.5781 29.0282 10.6748C28.9674 10.785 29.0102 10.9221 29.1475 10.9378C29.4492 10.976 29.7509 10.9895 30.0526 11.0008C30.1291 11.1379 30.1426 11.3155 30.2394 11.4459C30.361 11.6123 30.5501 11.6842 30.7528 11.6415C30.9689 11.5943 31.1738 11.4639 31.3606 11.3515C31.5723 11.2256 31.7524 11.1064 31.8987 10.9064C32.0046 10.7625 31.8447 10.5961 31.6916 10.6523L31.6894 10.6546Z" fill="#4C3451"/>
<path d="M32.8601 10.196C32.7926 10.1286 32.7205 10.0634 32.6417 10.0072C32.5629 9.94875 32.4706 9.91053 32.3806 9.87231C32.3423 9.85657 32.304 9.84083 32.2635 9.82959C32.2432 9.82285 32.223 9.8161 32.2027 9.8116C32.1892 9.80936 32.1734 9.80486 32.1599 9.80036H32.1239L32.1127 9.79587C32.1127 9.79587 32.0901 9.78912 32.0789 9.78687C32.0496 9.78013 32.0203 9.77339 31.9911 9.76664C31.9483 9.75765 31.9055 9.7509 31.8605 9.74641C31.7817 9.73741 31.7006 9.80261 31.6961 9.8813C31.6916 9.96673 31.7479 10.0319 31.8312 10.0454C31.8537 10.0499 31.8763 10.0522 31.8988 10.0567L31.919 10.0612L31.9415 10.0657C31.9821 10.0769 32.0203 10.0904 32.0586 10.1084C32.0789 10.1196 32.0991 10.1308 32.1217 10.1398C32.1352 10.1466 32.1464 10.1511 32.1599 10.1578C32.1622 10.1578 32.1667 10.1601 32.1689 10.1623C32.2185 10.1826 32.2725 10.2208 32.313 10.2567C32.3558 10.2927 32.4008 10.3242 32.4436 10.3602C32.4639 10.3782 32.4841 10.3961 32.5044 10.4141L32.5089 10.4186C32.5202 10.4299 32.5314 10.4411 32.5427 10.4546C32.6147 10.531 32.7408 10.5603 32.8286 10.4838C32.9029 10.4164 32.9389 10.2792 32.8579 10.1983L32.8601 10.196Z" fill="#4C3451"/>
<path d="M29.3727 11.255C29.3321 11.1898 29.2308 11.1426 29.1565 11.1876C29.0575 11.246 28.9674 11.3135 28.8774 11.3854C28.7895 11.4551 28.713 11.5451 28.6455 11.635C28.5059 11.8238 28.4136 12.0442 28.3843 12.278C28.3708 12.3769 28.4451 12.4691 28.5396 12.4915C28.632 12.514 28.7423 12.4646 28.7738 12.3679C28.8031 12.278 28.8391 12.1925 28.8751 12.1049C28.8931 12.0599 28.9134 12.0172 28.9359 11.9745C28.9359 11.9767 28.9336 11.979 28.9314 11.9812C28.9314 11.979 28.9359 11.9745 28.9359 11.9722C28.9426 11.9565 28.9426 11.9587 28.9404 11.9632C28.9426 11.9587 28.9449 11.9542 28.9494 11.9497C28.9629 11.9272 28.9742 11.907 28.9877 11.8868C29.0372 11.8058 29.0957 11.7317 29.152 11.6575C29.1588 11.6485 29.1678 11.6372 29.1745 11.6282C29.179 11.6215 29.179 11.6215 29.179 11.6215C29.1926 11.6058 29.2083 11.5923 29.2241 11.5765C29.2601 11.5428 29.2984 11.5113 29.3366 11.4799C29.4042 11.4281 29.4177 11.327 29.3727 11.2573V11.255Z" fill="#4C3451"/>
<path d="M28.9314 11.9721C28.9314 11.9721 28.936 11.963 28.9383 11.9607C28.9383 11.963 28.936 11.9653 28.9337 11.9699L28.9314 11.9721Z" fill="#4C3451"/>
<path d="M47.0192 19.7331C46.605 18.4809 44.1239 14.4161 43.5746 13.5303C43.0658 12.7098 42.5006 11.8622 41.6609 11.3451C40.8008 10.8168 36.0594 10.7898 35.85 10.7538C35.6113 10.7133 35.5213 11.0978 35.7532 11.1697C36.0976 11.2754 40.0669 11.2304 40.9764 11.6261C41.8793 12.0196 42.4714 12.8424 42.9825 13.645C43.104 13.8361 45.7967 18.5461 46.1074 19.1014C46.1907 19.279 46.2718 19.4589 46.3483 19.641C46.8234 23.4382 42.4354 27.7435 38.6395 28.6315C37.3922 29.1127 35.8747 29.4297 34.722 28.3707C34.9359 27.6356 32.9794 28.7957 33.0492 27.4198C33.6819 27.4018 34.4023 27.3748 34.9967 27.1612C38.0136 26.0686 40.7738 23.5798 41.4943 21.3878C41.7037 20.7493 39.3982 18.2066 36.9104 16.1248C36.7505 15.9899 36.5637 16.2529 36.7213 16.3833C39.0943 18.337 41.116 20.8865 40.9787 21.3563C40.2943 23.6855 37.4958 25.7786 34.641 26.9139C34.0601 27.1455 33.3329 26.9341 32.7768 27.1972C32.1937 28.1864 33.5558 28.9013 34.4001 28.5663C35.3457 29.7939 37.3066 29.9827 38.5517 29.0902C42.4061 28.6922 47.2984 23.6787 47.017 19.7331H47.0192Z" fill="#4C3451"/>
<path d="M36.1337 3.1368C36.2575 2.97268 36.0639 2.71188 35.8725 2.81755C35.4763 3.03338 35.143 3.34588 34.7738 3.60217C34.6995 3.65388 34.623 3.70559 34.5442 3.75505C34.1839 3.21323 33.7719 2.71188 33.3081 2.27573C33.1573 2.13185 32.9119 2.39039 33.056 2.54102C33.4702 2.97942 33.8395 3.46728 34.1569 3.98437C33.9768 4.08104 33.7877 4.16647 33.5918 4.23392C33.0492 4.41602 32.4211 4.44975 31.8965 4.23392C31.9483 3.91243 31.964 3.58194 31.9505 3.26269C31.9303 2.84228 31.8155 2.24426 31.3224 2.14309C30.8541 2.04642 30.5794 2.49831 30.5254 2.90298C30.4398 3.53698 30.773 4.08779 31.2571 4.45874C31.1535 4.8814 30.9667 5.27259 30.6335 5.58284C30.3408 5.85488 29.958 6.03698 29.5505 6.01C29.161 5.98302 28.7333 5.76944 28.5959 5.38275C28.5239 5.17592 28.1614 5.17817 28.1074 5.39849C27.9205 6.1359 27.6301 6.77439 26.9862 7.22628C26.6552 7.45785 26.2702 7.60623 25.8695 7.66693C25.7501 7.68491 25.6308 7.68941 25.5137 7.68941C25.2301 6.77214 25.516 5.43446 26.1937 4.40478C27.0064 3.16602 31.2841 0.834633 32.4278 1.84183C32.5764 1.97222 32.7993 1.7564 32.6777 1.60127C31.1918 -0.249002 26.5381 3.05361 26.0879 3.6359C25.158 4.83419 24.7032 6.61927 24.9757 7.66468C24.9757 7.67143 24.9757 7.68042 24.9757 7.68716C24.8924 7.68716 24.8113 7.69166 24.728 7.7029C24.5997 7.71864 24.5614 7.89849 24.665 7.97268C24.764 8.04238 25.0409 8.15704 25.158 8.19076C25.8695 9.69481 26.5539 9.8994 27.2766 13.564C27.4162 14.2744 27.5941 15.7762 28.1502 16.2978C28.7198 16.8329 29.5303 16.7744 30.1449 16.3495C30.629 16.0168 30.8879 15.5177 31.0815 14.9893C31.2729 15.3108 31.5746 15.5649 31.946 15.675C32.626 15.8751 33.3397 15.4997 33.6481 14.8814C33.8012 14.5757 33.8215 14.2632 33.7742 13.9304C33.7494 13.7596 33.6504 13.4695 33.9003 13.4471C34.0894 13.4291 34.2763 13.537 34.4766 13.5145C35.1408 13.4358 35.5258 12.7186 35.3232 12.1139C35.2196 11.8059 34.7648 12.0172 34.8639 12.3207C34.9404 12.5568 34.8008 12.8243 34.6027 12.9547C34.3438 13.1256 34.0781 12.9637 33.7967 12.9974C33.2136 13.0694 33.2541 13.6494 33.2991 14.0856C33.3509 14.6094 32.9659 15.1557 32.4211 15.2164C31.8425 15.2816 31.3224 14.7353 31.3404 14.1732C31.3472 13.9214 30.9554 13.7933 30.8789 14.0676C30.7033 14.6926 30.4804 15.43 29.9603 15.8571C29.4807 16.2506 28.8166 16.318 28.4001 15.8032C27.9633 15.2636 27.8372 13.7776 27.7156 13.1211C27.2023 10.376 25.7186 8.19076 25.7186 8.19076C25.8695 8.19076 25.8222 8.18851 25.9618 8.16828C26.4233 8.10533 26.8691 7.93896 27.2586 7.68491C27.8102 7.3252 28.2897 6.72943 28.5059 6.0797C29.089 6.60802 29.94 6.71369 30.674 6.2618C31.2436 5.91333 31.5926 5.36926 31.7817 4.76225C31.9933 4.85442 32.214 4.91737 32.4301 4.9421C33.1123 5.02304 33.8102 4.83419 34.4113 4.51495C34.4248 4.5082 34.4406 4.49921 34.4541 4.49246C34.7085 4.97583 34.9202 5.47943 35.0823 5.99426C35.4875 7.29822 35.5235 8.62691 35.3592 9.97359C35.3209 10.2928 35.7757 10.3131 35.8455 10.0186C36.289 8.08509 35.8567 5.99202 34.8616 4.2564C35.3434 3.95289 35.8095 3.5752 36.1404 3.13904L36.1337 3.1368ZM31.2684 3.77304C31.0567 3.52124 30.7911 3.07609 30.9599 2.74111C31.041 2.58149 31.1738 2.55676 31.2706 2.70289C31.3674 2.85127 31.3652 3.06485 31.3674 3.23347C31.3719 3.4403 31.3674 3.65163 31.3517 3.86297C31.3224 3.83374 31.2954 3.80451 31.2684 3.77304Z" fill="#4C3451"/>
<path d="M27.8485 16.7673C26.7543 18.1972 26.7228 21.1243 26.2815 22.3968C26.0721 22.9993 26.5066 23.0893 26.7205 22.534C27.0627 21.6437 27.4815 18.395 28.2177 16.9854C28.319 16.7921 27.9813 16.5897 27.8462 16.7673H27.8485Z" fill="#4C3451"/>
<path d="M29.2916 27.5389C28.9606 28.0043 28.1659 29.7691 27.1055 29.9377C25.4845 30.1963 21.531 29.0497 20.2995 27.2174C19.5768 26.1405 19.3651 24.7668 19.6038 23.4741C19.6083 23.4449 19.6038 23.4224 19.5925 23.3999C19.8199 23.1504 20.1824 23.0537 20.5156 23.0739C20.9231 23.0964 21.3644 23.3617 21.7674 23.2021C21.9317 23.1369 22.0466 23.0132 22.1884 22.9121C22.3527 22.7929 22.5486 22.7794 22.7467 22.7907C22.9381 22.8019 23.143 22.8109 23.3254 22.8716C23.4447 22.9098 23.6878 23.056 23.5933 23.2201C23.5685 23.2605 23.5595 23.3033 23.5573 23.3437C23.1182 23.5326 22.8008 23.9867 22.6612 24.4296C22.5058 24.9265 22.5441 25.4593 22.7558 25.9337C23.206 26.9453 23.8657 27.3141 24.9644 27.1702C25.1783 27.1432 25.1558 26.815 24.9509 26.8037C23.8882 26.7498 23.3974 26.1967 23.2038 25.7943C23.0237 25.4211 22.9629 24.9894 23.0845 24.5892C23.2105 24.1711 23.483 23.89 23.8274 23.6382C23.895 23.6382 23.9603 23.6045 24.0098 23.5258C24.2935 23.0717 23.9715 22.5546 23.4987 22.4107C23.0462 22.2736 22.3775 22.2241 21.961 22.4804C21.8597 22.5434 21.7741 22.6265 21.6751 22.6917C21.5422 22.7794 21.4184 22.7569 21.2721 22.721C20.9816 22.649 20.698 22.5816 20.3963 22.5928C19.8649 22.6153 19.4056 22.8716 19.1985 23.3707C19.1647 23.4539 19.2098 23.5326 19.2773 23.5753C18.9351 24.8613 19.1377 26.3271 19.8965 27.4804C21.5985 30.0659 25.8447 30.4795 27.0402 30.457C28.1974 30.4368 29.0507 28.681 29.4515 28.1504C29.877 27.5883 29.6181 27.0802 29.2916 27.5389Z" fill="#4C3451"/>
<path d="M8.97033 33.901C7.96845 31.6033 6.73918 29.4338 5.34781 27.352C6.71667 26.6123 7.55194 24.9734 7.248 23.4289C7.08815 22.615 6.62661 21.8866 5.99846 21.3515C5.39959 20.8412 4.52154 20.4118 3.71553 20.5512C3.53767 20.5826 3.48589 20.8704 3.67951 20.9244C4.38195 21.1132 5.02811 21.2841 5.59771 21.7629C6.1313 22.2126 6.53205 22.8353 6.66263 23.5255C6.9283 24.9284 6.09077 26.4055 4.78946 26.963C4.60259 27.0417 4.57557 27.2665 4.68139 27.4172C6.06601 29.4136 7.23899 31.5629 8.23412 33.7774C7.38308 33.892 6.53205 33.9819 5.67651 34.0471C5.20146 34.0831 4.72416 34.1123 4.24687 34.1348C3.74255 34.1595 3.20671 34.1348 2.7159 34.2517C2.46149 34.3102 2.48401 34.6452 2.73166 34.6946C3.21572 34.7913 3.74255 34.7396 4.23336 34.7193C4.72867 34.6991 5.22398 34.6699 5.71929 34.6339C6.72792 34.562 7.73205 34.4563 8.73618 34.3304C8.93656 34.3057 9.04238 34.0764 8.96583 33.901H8.97033Z" fill="#4C3451"/>
<path d="M2.56506 27.4243C1.45962 27.1163 0.732414 26.0799 0.626597 24.9625C0.565809 24.3128 0.714403 23.6608 0.968812 23.0673C1.10165 22.7571 1.26825 22.467 1.45737 22.1883C1.61722 21.95 0.959807 21.8128 0.6311 22.4041C0.234851 23.119 -0.0150556 23.9261 0.000704327 24.7512C0.0277213 26.0754 0.788699 27.4108 2.03823 27.9144C1.68026 28.8519 1.33804 29.7962 1.01834 30.7494C0.667123 31.8016 0.300142 32.8627 0.0367269 33.9419C-0.055581 34.3241 0.496015 34.5601 0.626597 34.1645C0.971064 33.1078 1.26375 32.0309 1.61497 30.9765C1.96844 29.9198 2.34668 28.8744 2.74743 27.8358C2.80597 27.6851 2.72717 27.4715 2.56281 27.4266L2.56506 27.4243Z" fill="#4C3451"/>
<path d="M2.90953 20.9427C2.87351 20.8213 2.73392 20.7134 2.60109 20.7493C2.46375 20.7876 2.33092 20.8303 2.20709 20.9C2.13729 20.9382 2.06975 20.9809 2.00221 21.0259C1.93917 21.0708 1.86712 21.1181 1.8221 21.181L1.86938 21.1315C1.82885 21.172 1.78832 21.2125 1.75005 21.2552C1.71178 21.2957 1.69377 21.3451 1.68251 21.3991C1.67801 21.4126 1.6735 21.4238 1.66675 21.4373C1.63523 21.5115 1.66225 21.6037 1.71853 21.6576C1.77482 21.7116 1.87163 21.7363 1.94367 21.6981C1.94818 21.6981 1.95043 21.6936 1.95493 21.6936C2.00896 21.6869 2.06075 21.6599 2.10352 21.6284C2.13729 21.6037 2.17107 21.5767 2.20709 21.552C2.25212 21.5227 2.29714 21.4913 2.34217 21.462C2.47275 21.3856 2.61459 21.3204 2.76094 21.2777C2.82172 21.2597 2.88701 21.181 2.90728 21.1226C2.92754 21.0641 2.92979 21.0056 2.91178 20.9449L2.90953 20.9427Z" fill="#4C3451"/>
<path d="M17.6991 6.78802C17.6293 6.5587 17.2645 6.6801 17.3051 6.90717C17.6248 8.75295 16.8278 10.4638 15.6323 11.8285C14.7677 12.8155 13.4416 13.8766 12.0728 13.8204C12.2957 13.5214 12.5096 13.2134 12.7009 12.8919C13.2255 12.0128 13.7929 10.9427 13.5587 9.88604C13.3696 9.03172 12.6491 8.27408 11.7193 8.3685C10.6611 8.47642 10.0195 9.48586 9.66827 10.3896C9.30804 11.3159 9.236 12.3838 9.83262 13.2314C10.1456 13.6743 10.5913 13.9845 11.0889 14.1689C10.9718 14.3083 10.8525 14.4454 10.7287 14.5803C10.4 14.931 10.0488 15.2705 9.68178 15.5807C9.50617 15.7291 9.32605 15.873 9.14144 16.0102C8.91179 16.181 8.68665 16.3879 8.38496 16.3946C8.15532 16.4013 8.10804 16.7363 8.35119 16.7588C8.85776 16.8105 9.28328 16.5093 9.67052 16.2237C10.078 15.9247 10.4698 15.6032 10.83 15.248C11.1272 14.9557 11.4064 14.6455 11.672 14.324C11.8859 14.3577 12.102 14.3757 12.3159 14.3667C13.3831 14.3262 14.367 13.8092 15.1595 13.119C16.9066 11.5969 18.433 9.17336 17.6968 6.78577L17.6991 6.78802ZM11.0214 13.5394C10.2581 13.1437 9.86414 12.3838 9.94519 11.534C10.0217 10.7314 10.4202 9.75789 11.0619 9.24306C11.3861 8.98226 11.8364 8.83613 12.2371 9.00475C12.5703 9.14638 12.8022 9.45664 12.9283 9.78487C13.2593 10.6482 12.7752 11.6172 12.3542 12.3591C12.0863 12.8312 11.7823 13.2831 11.4514 13.7147C11.3073 13.6698 11.1632 13.6136 11.0191 13.5394H11.0214Z" fill="#4C3451"/>
<path d="M6.02549 9.82718C5.99397 9.60011 5.61348 9.6046 5.61573 9.84291C5.63149 11.9427 5.37708 13.9953 4.73543 15.9985C4.65663 16.2458 5.0101 16.3807 5.11366 16.1424C5.54143 15.1509 5.82511 14.1078 5.98496 13.0399C6.06376 12.5093 6.11554 11.9765 6.12905 11.4414C6.14256 10.8906 6.09978 10.3712 6.02774 9.82718H6.02549Z" fill="#FDCA0C"/>
<path d="M14.2139 18.8471C14.0428 18.8201 13.8626 18.8786 13.696 18.9145C13.5429 18.9483 13.3898 18.9842 13.2367 19.0225C12.9125 19.1034 12.5906 19.2001 12.2731 19.3057C11.6337 19.5216 11.0191 19.7981 10.4225 20.1151C10.1591 20.2545 10.3459 20.6771 10.6138 20.54C11.1925 20.2432 11.7936 19.9869 12.4082 19.7689C12.7054 19.6632 13.0094 19.5643 13.3133 19.4788C13.4641 19.4361 13.6172 19.3957 13.7703 19.3597C13.9347 19.3192 14.1283 19.3035 14.2746 19.2158C14.439 19.1169 14.4142 18.8786 14.2139 18.8471Z" fill="#4C3451"/>
<path d="M17.654 15.2391C17.278 15.1515 16.839 15.2931 16.463 15.3673C16.0848 15.4437 15.7088 15.5314 15.3373 15.6303C14.5516 15.8394 13.7794 16.1092 13.0296 16.4262C11.5459 17.0489 10.105 17.8515 8.90954 18.9307C8.70467 19.115 8.95007 19.4028 9.17296 19.2567C10.4765 18.4136 11.8026 17.6087 13.2413 17.0107C13.9595 16.7117 14.6934 16.4622 15.4431 16.2531C15.7989 16.1542 16.1591 16.0665 16.5193 15.9878C16.7084 15.9473 16.8976 15.9091 17.0867 15.8754C17.2803 15.8394 17.4964 15.8327 17.6698 15.7337C17.8409 15.6348 17.9062 15.2976 17.654 15.2391Z" fill="#FDCA0C"/>
<path d="M20.0946 12.0487C19.7523 12.0577 19.4011 12.2758 19.0927 12.4129C18.7595 12.5591 18.4285 12.7097 18.1021 12.8693C17.7756 13.0289 17.4492 13.1908 17.1249 13.3572C16.7985 13.5258 16.4923 13.7169 16.1771 13.908C15.9565 14.0406 16.0983 14.3981 16.346 14.2834C16.9966 13.9867 17.6428 13.6832 18.2912 13.3842C18.6109 13.238 18.9283 13.0896 19.2503 12.9435C19.4056 12.8738 19.561 12.8041 19.7163 12.7367C19.8874 12.6625 20.0878 12.6063 20.2229 12.4736C20.3535 12.3455 20.3265 12.0397 20.0946 12.0465V12.0487Z" fill="white"/>
<path d="M15.9992 36.3942C15.9249 36.1267 15.7065 35.9334 15.5219 35.731C15.3306 35.5197 15.1324 35.3151 14.9298 35.1128C14.5245 34.7126 14.099 34.3349 13.6555 33.9797C12.7639 33.267 11.8071 32.6577 10.7624 32.1968C10.5418 32.1002 10.3459 32.4464 10.5576 32.5745C11.4919 33.1433 12.4127 33.7504 13.2638 34.4406C13.687 34.7845 14.0923 35.1487 14.4795 35.5287C14.6731 35.7198 14.8623 35.9131 15.0446 36.1132C15.227 36.3133 15.3913 36.5696 15.6412 36.6843C15.8146 36.7652 16.0533 36.5808 15.9992 36.3898V36.3942Z" fill="white"/>
<path d="M11.7553 42.7007C11.5459 42.368 11.296 42.0577 11.0191 41.7767C10.9921 41.1382 10.8593 40.4975 10.6746 39.8882C10.4472 39.1441 10.1253 38.4404 9.70878 37.7794C9.31704 37.1567 8.82172 36.444 8.18908 36.0483C7.9797 35.9179 7.74105 36.1562 7.88964 36.3608C8.20709 36.7969 8.60334 37.1701 8.92079 37.6085C9.24049 38.0537 9.51291 38.5281 9.7403 39.0272C9.96094 39.5105 10.1366 40.0141 10.2581 40.5312C10.3122 40.7583 10.3639 40.9966 10.4 41.2371C9.93843 40.9157 9.27426 40.7043 8.83748 41.1764C8.02698 42.051 9.13692 43.6742 10.2446 43.328C10.6364 43.2043 10.8502 42.8896 10.9516 42.5276C11.0957 42.712 11.2262 42.9031 11.3411 43.1032C11.9084 44.0946 12.1786 45.2817 12.0638 46.4193C12.0367 46.7003 12.4442 46.7295 12.496 46.4597C12.7437 45.149 12.4623 43.8271 11.7531 42.7007H11.7553ZM9.68402 42.7569C9.28101 42.5906 8.95456 42.0802 9.12341 41.6441C9.35756 41.0438 10.1433 41.6958 10.4067 41.9341C10.4225 41.9476 10.4382 41.9656 10.454 41.9791C10.454 42.0128 10.454 42.0487 10.4495 42.0825C10.4202 42.5141 10.1816 42.9615 9.68402 42.7547V42.7569Z" fill="white"/>
<path d="M14.6687 40.6166C14.5516 40.358 14.3174 40.1512 14.1306 39.9399L13.5317 39.2542C13.1332 38.7955 12.728 38.3436 12.3249 37.8895C11.5167 36.979 10.6949 36.0864 9.87316 35.1894C9.67503 34.9736 9.32381 35.2501 9.51518 35.4772C10.3009 36.4034 11.0867 37.3297 11.8882 38.2425C12.2777 38.6854 12.6649 39.1305 13.0589 39.5689C13.2615 39.796 13.4642 40.023 13.6668 40.2479C13.8649 40.4682 14.054 40.756 14.3084 40.9111C14.5066 41.0325 14.779 40.8481 14.6732 40.6166H14.6687Z" fill="#FDCA0C"/>
<path d="M14.2634 42.8941C14.108 42.5479 13.9099 42.2242 13.6825 41.9184C13.6037 41.8128 13.4349 41.7993 13.3358 41.8824C13.2255 41.9724 13.2232 42.1185 13.2998 42.2287C13.4912 42.5097 13.6533 42.8132 13.7928 43.1235C13.9369 43.445 14.0202 43.8024 14.2071 44.1014C14.2994 44.2498 14.5268 44.1486 14.5426 44.0003C14.5831 43.6226 14.4165 43.2291 14.2656 42.8919L14.2634 42.8941Z" fill="#4C3451"/>
<path d="M6.70539 39.9625C6.65136 39.3015 6.54329 38.6496 6.39244 38.0043C6.31139 37.6603 5.7688 37.748 5.8476 38.0965C5.99169 38.7282 6.09751 39.3712 6.16055 40.0165C6.19207 40.3357 6.21458 40.655 6.22134 40.9742C6.22584 41.1338 6.22584 41.2934 6.22809 41.4531C6.22809 41.6194 6.21233 41.7791 6.27087 41.9364C6.34516 42.132 6.60858 42.0848 6.68513 41.9229C6.75492 41.7723 6.74366 41.5902 6.74817 41.4261C6.75267 41.2552 6.75267 41.0844 6.74817 40.9113C6.74366 40.5943 6.7279 40.2773 6.70314 39.9603L6.70539 39.9625Z" fill="#FDCA0C"/>
<path d="M46.5419 4.93773C46.7265 4.78035 46.9089 4.62523 47.0935 4.4701C47.447 4.16884 47.8005 3.86983 48.1539 3.56857C48.8902 2.94357 49.6309 2.32531 50.3446 1.67333C50.5675 1.46875 50.2883 1.12028 50.0474 1.30688C49.2279 1.94537 48.4399 2.62432 47.6451 3.29204C47.2466 3.62702 46.8504 3.95976 46.4519 4.29474C46.1434 4.55328 45.7044 4.82981 45.6594 5.27046C45.6143 5.71111 45.9678 6.08431 46.2155 6.40805C46.5329 6.82397 46.8504 7.23989 47.1678 7.65581C47.4853 8.07172 47.8027 8.48764 48.1202 8.90356C48.4466 9.33072 48.7551 9.78935 49.1311 10.1738C49.3202 10.3694 49.7367 10.176 49.5746 9.90176C49.1018 9.10365 48.4556 8.38422 47.8905 7.64906L47.0372 6.53845C46.8886 6.3451 46.7423 6.15401 46.5937 5.96066C46.4766 5.81003 46.2402 5.58746 46.2155 5.38512C46.1907 5.18503 46.4113 5.05239 46.5442 4.93998L46.5419 4.93773Z" fill="#4C3451"/>
<path d="M54.3881 6.14675C54.3633 5.78703 54.1697 5.47229 53.9558 5.19126C53.6902 4.84054 53.4065 4.49881 53.1318 4.15484C52.5509 3.42867 51.9678 2.70474 51.3689 1.99431C51.1506 1.73577 50.7588 2.05501 50.9614 2.32255C51.4545 2.97903 51.9566 3.62876 52.4654 4.27174C52.7265 4.59998 52.9855 4.92822 53.2466 5.25871C53.4493 5.51275 53.7217 5.79153 53.7802 6.12202C53.8387 6.44126 53.6181 6.71554 53.4042 6.92687C53.1431 7.18542 52.8504 7.41473 52.5712 7.65304C52.2673 7.91384 51.9611 8.17688 51.6571 8.43767C51.3622 8.69172 50.9659 8.94576 50.7903 9.29873C50.689 9.50557 50.9389 9.6562 51.1123 9.59999C51.3217 9.53479 51.4928 9.36168 51.6594 9.22229C51.8417 9.06941 52.0196 8.91429 52.1997 8.75916C52.5329 8.47364 52.8661 8.19037 53.1971 7.90484C53.7284 7.45071 54.4421 6.93362 54.3858 6.14675H54.3881Z" fill="#4C3451"/>
<path d="M55.9326 41.8039C54.7551 39.9694 53.3817 38.2675 51.8237 36.7409C51.6031 36.5251 51.2226 36.8174 51.4433 37.0489C52.8594 38.544 54.1337 40.165 55.2481 41.8961C54.4084 42.3974 53.5573 42.8763 52.6883 43.3214C52.2087 43.5665 51.7247 43.8026 51.2361 44.0296C50.7656 44.2477 50.1735 44.4073 49.7682 44.7266C49.5363 44.9087 49.7187 45.2706 49.9979 45.2324C50.268 45.1964 50.5202 45.0571 50.7678 44.9469C51.0335 44.83 51.2969 44.7108 51.5603 44.5872C52.0489 44.3601 52.5307 44.1218 53.0102 43.8767C53.9919 43.3709 54.951 42.8246 55.8875 42.2423C56.0429 42.1456 56.0159 41.9275 55.9348 41.8017L55.9326 41.8039Z" fill="#4C3451"/>
<path d="M50.0136 37.2846C49.7434 37.8624 49.6624 38.5481 49.5228 39.1686C49.3764 39.8229 49.2346 40.4771 49.0928 41.1313C48.9509 41.7855 48.8091 42.4398 48.6695 43.094C48.5344 43.7212 48.361 44.344 48.3903 44.9892C48.4016 45.2141 48.7033 45.1826 48.7821 45.0275C49.0747 44.4497 49.167 43.7842 49.3021 43.1525C49.4395 42.5207 49.5746 41.8867 49.7096 41.255C49.847 40.6232 49.9843 39.9915 50.1149 39.3575C50.2477 38.7167 50.4639 38.0423 50.4571 37.3881C50.4549 37.1318 50.1262 37.0418 50.0136 37.2846Z" fill="#4C3451"/>
<path d="M30.3813 22.5521C30.3655 22.3992 30.3385 22.2463 30.316 22.0934C30.2665 21.7607 30.2169 21.4302 30.1697 21.0997C30.0706 20.4365 29.9625 19.7755 29.8319 19.1168C29.7779 18.8448 29.3839 18.9167 29.4109 19.1887C29.4762 19.8565 29.5618 20.5219 29.6586 21.1851C29.7081 21.5179 29.7554 21.8484 29.8049 22.1811C29.85 22.4824 29.8635 22.8691 30.0143 23.1388C30.1179 23.3209 30.3498 23.2692 30.3925 23.0759C30.4286 22.914 30.397 22.7184 30.3813 22.5566V22.5521Z" fill="#4C3451"/>
</g>
<defs>
<clipPath id="clip0_2_452">
<rect width="56" height="56" fill="white"/>
</clipPath>
</defs>
</svg>
