<svg width="24" height="24" viewBox="0 0 24 24" fill="none" xmlns="http://www.w3.org/2000/svg">
<g clip-path="url(#clip0_50_2210)">
<path d="M5 5.00024H15V19.0002H5C4.46957 19.0002 3.96086 18.7895 3.58579 18.4145C3.21071 18.0394 3 17.5307 3 17.0002V14.0002C3.53043 14.0002 4.03914 13.7895 4.41421 13.4145C4.78929 13.0394 5 12.5307 5 12.0002C5 11.4698 4.78929 10.9611 4.41421 10.586C4.03914 10.211 3.53043 10.0002 3 10.0002V7.00024C3 6.46981 3.21071 5.9611 3.58579 5.58603C3.96086 5.21096 4.46957 5.00024 5 5.00024Z" fill="#FECD34"/>
<path d="M5 5.00024H19C19.5304 5.00024 20.0391 5.21096 20.4142 5.58603C20.7893 5.9611 21 6.46981 21 7.00024V10.0002C20.4696 10.0002 19.9609 10.211 19.5858 10.586C19.2107 10.9611 19 11.4698 19 12.0002C19 12.5307 19.2107 13.0394 19.5858 13.4145C19.9609 13.7895 20.4696 14.0002 21 14.0002V17.0002C21 17.5307 20.7893 18.0394 20.4142 18.4145C20.0391 18.7895 19.5304 19.0002 19 19.0002H5C4.46957 19.0002 3.96086 18.7895 3.58579 18.4145C3.21071 18.0394 3 17.5307 3 17.0002V14.0002C3.53043 14.0002 4.03914 13.7895 4.41421 13.4145C4.78929 13.0394 5 12.5307 5 12.0002C5 11.4698 4.78929 10.9611 4.41421 10.586C4.03914 10.211 3.53043 10.0002 3 10.0002V7.00024C3 6.46981 3.21071 5.9611 3.58579 5.58603C3.96086 5.21096 4.46957 5.00024 5 5.00024" stroke="#4C3451" stroke-width="1.5" stroke-linecap="round" stroke-linejoin="round"/>
<path d="M15 5.00024V7.00024" stroke="#4C3451" stroke-width="1.5" stroke-linecap="round" stroke-linejoin="round"/>
<path d="M15 11.0002V13.0002" stroke="#4C3451" stroke-width="1.5" stroke-linecap="round" stroke-linejoin="round"/>
<path d="M15 17.0002V19.0002" stroke="#4C3451" stroke-width="1.5" stroke-linecap="round" stroke-linejoin="round"/>
</g>
<defs>
<clipPath id="clip0_50_2210">
<rect width="24" height="24" fill="white" transform="translate(0 0.000244141)"/>
</clipPath>
</defs>
</svg>
