<svg width="352" height="210" viewBox="0 0 352 210" fill="none" xmlns="http://www.w3.org/2000/svg">
<path d="M213 26C213 23.7909 214.791 22 217 22H248C250.209 22 252 23.7909 252 26V168H213V26Z" fill="url(#paint0_linear_75_308)" fill-opacity="0.15"/>
<path d="M119 26C119 23.7909 120.791 22 123 22H154C156.209 22 158 23.7909 158 26V168H119V26Z" fill="url(#paint1_linear_75_308)" fill-opacity="0.15"/>
<path d="M72 26C72 23.7909 73.7909 22 76 22H107C109.209 22 111 23.7909 111 26V168H72V26Z" fill="url(#paint2_linear_75_308)" fill-opacity="0.15"/>
<path d="M25 26C25 23.7909 26.7909 22 29 22H60C62.2091 22 64 23.7909 64 26V168H25V26Z" fill="url(#paint3_linear_75_308)" fill-opacity="0.15"/>
<path d="M308 26C308 23.7909 309.791 22 312 22H344C346.209 22 348 23.7909 348 26V165H308V26Z" fill="url(#paint4_linear_75_308)" fill-opacity="0.15"/>
<path d="M260 26C260 23.7909 261.791 22 264 22H296C298.209 22 300 23.7909 300 26V168H260V26Z" fill="url(#paint5_linear_75_308)" fill-opacity="0.15"/>
<path d="M9.88963 60.056H8.64163V62H7.62163V60.056H3.51763V59.156L7.54963 53.384H8.64163V59.108H9.88963V60.056ZM7.62163 59.108V56.408C7.62163 55.992 7.62563 55.64 7.63363 55.352C7.64963 55.056 7.66563 54.776 7.68163 54.512H7.63363C7.56963 54.664 7.48963 54.828 7.39363 55.004C7.29763 55.18 7.20563 55.328 7.11763 55.448L4.54963 59.108H7.62163ZM16.4088 57.704C16.4088 58.632 16.3128 59.424 16.1208 60.08C15.9288 60.736 15.6208 61.24 15.1968 61.592C14.7808 61.944 14.2328 62.12 13.5528 62.12C12.5848 62.12 11.8688 61.732 11.4048 60.956C10.9488 60.172 10.7208 59.088 10.7208 57.704C10.7208 56.776 10.8128 55.984 10.9968 55.328C11.1888 54.672 11.4928 54.172 11.9088 53.828C12.3248 53.476 12.8728 53.3 13.5528 53.3C14.5128 53.3 15.2288 53.688 15.7008 54.464C16.1728 55.232 16.4088 56.312 16.4088 57.704ZM11.7768 57.704C11.7768 58.88 11.9088 59.76 12.1728 60.344C12.4448 60.928 12.9048 61.22 13.5528 61.22C14.1928 61.22 14.6488 60.932 14.9208 60.356C15.2008 59.772 15.3408 58.888 15.3408 57.704C15.3408 56.536 15.2008 55.66 14.9208 55.076C14.6488 54.492 14.1928 54.2 13.5528 54.2C12.9048 54.2 12.4448 54.492 12.1728 55.076C11.9088 55.66 11.7768 56.536 11.7768 57.704Z" fill="#4C3451"/>
<path opacity="0.1" d="M25 57L352 57" stroke="#422A47"/>
<path d="M9.18163 83.436C9.18163 84.012 9.01763 84.472 8.68963 84.816C8.36963 85.152 7.94163 85.376 7.40563 85.488V85.536C8.08563 85.616 8.59363 85.832 8.92963 86.184C9.27363 86.536 9.44563 86.996 9.44563 87.564C9.44563 88.068 9.32963 88.512 9.09763 88.896C8.86563 89.28 8.50563 89.58 8.01763 89.796C7.53763 90.012 6.91763 90.12 6.15763 90.12C5.70963 90.12 5.29363 90.084 4.90963 90.012C4.52563 89.948 4.15763 89.828 3.80563 89.652V88.668C4.16563 88.852 4.55363 88.992 4.96963 89.088C5.38563 89.184 5.78563 89.232 6.16963 89.232C6.93763 89.232 7.48963 89.084 7.82563 88.788C8.16963 88.484 8.34163 88.068 8.34163 87.54C8.34163 87.004 8.12963 86.62 7.70563 86.388C7.28963 86.148 6.70163 86.028 5.94163 86.028H5.11363V85.128H5.95363C6.65763 85.128 7.18963 84.98 7.54963 84.684C7.91763 84.388 8.10163 83.996 8.10163 83.508C8.10163 83.092 7.96163 82.772 7.68163 82.548C7.40163 82.316 7.02163 82.2 6.54163 82.2C6.07763 82.2 5.68163 82.268 5.35363 82.404C5.02563 82.54 4.70163 82.712 4.38163 82.92L3.85363 82.2C4.15763 81.96 4.53363 81.752 4.98163 81.576C5.43763 81.4 5.95363 81.312 6.52963 81.312C7.42563 81.312 8.08963 81.512 8.52163 81.912C8.96163 82.312 9.18163 82.82 9.18163 83.436ZM16.4088 85.704C16.4088 86.632 16.3128 87.424 16.1208 88.08C15.9288 88.736 15.6208 89.24 15.1968 89.592C14.7808 89.944 14.2328 90.12 13.5528 90.12C12.5848 90.12 11.8688 89.732 11.4048 88.956C10.9488 88.172 10.7208 87.088 10.7208 85.704C10.7208 84.776 10.8128 83.984 10.9968 83.328C11.1888 82.672 11.4928 82.172 11.9088 81.828C12.3248 81.476 12.8728 81.3 13.5528 81.3C14.5128 81.3 15.2288 81.688 15.7008 82.464C16.1728 83.232 16.4088 84.312 16.4088 85.704ZM11.7768 85.704C11.7768 86.88 11.9088 87.76 12.1728 88.344C12.4448 88.928 12.9048 89.22 13.5528 89.22C14.1928 89.22 14.6488 88.932 14.9208 88.356C15.2008 87.772 15.3408 86.888 15.3408 85.704C15.3408 84.536 15.2008 83.66 14.9208 83.076C14.6488 82.492 14.1928 82.2 13.5528 82.2C12.9048 82.2 12.4448 82.492 12.1728 83.076C11.9088 83.66 11.7768 84.536 11.7768 85.704Z" fill="#4C3451"/>
<path opacity="0.1" d="M25 85L352 85" stroke="#422A47"/>
<path d="M9.50563 118H3.84163V117.124L6.08563 114.856C6.50963 114.424 6.86963 114.04 7.16563 113.704C7.46963 113.368 7.69763 113.04 7.84963 112.72C8.00163 112.4 8.07763 112.044 8.07763 111.652C8.07763 111.18 7.93763 110.824 7.65763 110.584C7.37763 110.336 7.01363 110.212 6.56563 110.212C6.14163 110.212 5.77363 110.284 5.46163 110.428C5.14963 110.572 4.82963 110.772 4.50163 111.028L3.93763 110.32C4.27363 110.04 4.65763 109.804 5.08963 109.612C5.52963 109.412 6.02163 109.312 6.56563 109.312C7.36563 109.312 7.99763 109.516 8.46163 109.924C8.92563 110.332 9.15763 110.888 9.15763 111.592C9.15763 112.04 9.06563 112.46 8.88163 112.852C8.69763 113.244 8.44163 113.632 8.11363 114.016C7.78563 114.4 7.40163 114.804 6.96163 115.228L5.17363 116.992V117.04H9.50563V118ZM16.4088 113.704C16.4088 114.632 16.3128 115.424 16.1208 116.08C15.9288 116.736 15.6208 117.24 15.1968 117.592C14.7808 117.944 14.2328 118.12 13.5528 118.12C12.5848 118.12 11.8688 117.732 11.4048 116.956C10.9488 116.172 10.7208 115.088 10.7208 113.704C10.7208 112.776 10.8128 111.984 10.9968 111.328C11.1888 110.672 11.4928 110.172 11.9088 109.828C12.3248 109.476 12.8728 109.3 13.5528 109.3C14.5128 109.3 15.2288 109.688 15.7008 110.464C16.1728 111.232 16.4088 112.312 16.4088 113.704ZM11.7768 113.704C11.7768 114.88 11.9088 115.76 12.1728 116.344C12.4448 116.928 12.9048 117.22 13.5528 117.22C14.1928 117.22 14.6488 116.932 14.9208 116.356C15.2008 115.772 15.3408 114.888 15.3408 113.704C15.3408 112.536 15.2008 111.66 14.9208 111.076C14.6488 110.492 14.1928 110.2 13.5528 110.2C12.9048 110.2 12.4448 110.492 12.1728 111.076C11.9088 111.66 11.7768 112.536 11.7768 113.704Z" fill="#4C3451"/>
<path opacity="0.1" d="M25 113L352 113" stroke="#422A47"/>
<path d="M7.52563 146H6.49363V140.012C6.49363 139.668 6.49763 139.392 6.50563 139.184C6.51363 138.976 6.52563 138.76 6.54163 138.536C6.41363 138.664 6.29363 138.772 6.18163 138.86C6.07763 138.948 5.94963 139.06 5.79763 139.196L4.88563 139.94L4.33363 139.232L6.64963 137.432H7.52563V146ZM16.4088 141.704C16.4088 142.632 16.3128 143.424 16.1208 144.08C15.9288 144.736 15.6208 145.24 15.1968 145.592C14.7808 145.944 14.2328 146.12 13.5528 146.12C12.5848 146.12 11.8688 145.732 11.4048 144.956C10.9488 144.172 10.7208 143.088 10.7208 141.704C10.7208 140.776 10.8128 139.984 10.9968 139.328C11.1888 138.672 11.4928 138.172 11.9088 137.828C12.3248 137.476 12.8728 137.3 13.5528 137.3C14.5128 137.3 15.2288 137.688 15.7008 138.464C16.1728 139.232 16.4088 140.312 16.4088 141.704ZM11.7768 141.704C11.7768 142.88 11.9088 143.76 12.1728 144.344C12.4448 144.928 12.9048 145.22 13.5528 145.22C14.1928 145.22 14.6488 144.932 14.9208 144.356C15.2008 143.772 15.3408 142.888 15.3408 141.704C15.3408 140.536 15.2008 139.66 14.9208 139.076C14.6488 138.492 14.1928 138.2 13.5528 138.2C12.9048 138.2 12.4448 138.492 12.1728 139.076C11.9088 139.66 11.7768 140.536 11.7768 141.704Z" fill="#4C3451"/>
<path opacity="0.1" d="M25 141L352 141" stroke="#422A47"/>
<path d="M16.3335 167.604V169.115C16.3335 169.839 16.2616 170.457 16.1177 170.969C15.978 171.477 15.7749 171.889 15.5083 172.207C15.2417 172.524 14.9222 172.757 14.5498 172.905C14.1816 173.053 13.769 173.127 13.312 173.127C12.9481 173.127 12.6095 173.08 12.2964 172.987C11.9875 172.894 11.7082 172.748 11.4585 172.549C11.2088 172.35 10.9951 172.094 10.8174 171.781C10.6439 171.464 10.5085 171.085 10.4111 170.645C10.318 170.205 10.2715 169.695 10.2715 169.115V167.604C10.2715 166.877 10.3434 166.263 10.4873 165.764C10.6312 165.26 10.8364 164.852 11.103 164.539C11.3696 164.221 11.687 163.991 12.0552 163.847C12.4276 163.703 12.8423 163.631 13.2993 163.631C13.6675 163.631 14.006 163.677 14.3149 163.771C14.6281 163.859 14.9074 164.001 15.1528 164.196C15.4025 164.39 15.6141 164.644 15.7876 164.958C15.9653 165.266 16.1007 165.641 16.1938 166.081C16.2869 166.517 16.3335 167.025 16.3335 167.604ZM14.8037 169.331V167.376C14.8037 167.008 14.7826 166.684 14.7402 166.405C14.6979 166.121 14.6344 165.882 14.5498 165.688C14.4694 165.489 14.3678 165.328 14.2451 165.205C14.1224 165.078 13.9827 164.987 13.8262 164.932C13.6696 164.873 13.494 164.843 13.2993 164.843C13.0623 164.843 12.8507 164.89 12.6646 164.983C12.4784 165.072 12.3218 165.216 12.1948 165.415C12.0679 165.613 11.9705 165.876 11.9028 166.202C11.8394 166.523 11.8076 166.915 11.8076 167.376V169.331C11.8076 169.703 11.8288 170.031 11.8711 170.315C11.9134 170.598 11.9769 170.842 12.0615 171.045C12.1462 171.244 12.2477 171.409 12.3662 171.54C12.4889 171.667 12.6286 171.76 12.7852 171.819C12.946 171.879 13.1216 171.908 13.312 171.908C13.5532 171.908 13.7669 171.862 13.9531 171.769C14.1393 171.675 14.2959 171.527 14.4229 171.324C14.5498 171.117 14.645 170.848 14.7085 170.518C14.772 170.188 14.8037 169.792 14.8037 169.331Z" fill="#4C3451"/>
<path opacity="0.1" d="M25 169L352 169" stroke="#422A47"/>
<path d="M33.0933 179.758H34.5151L37.1875 186.886L39.8535 179.758H41.2754L37.7461 189H36.6162L33.0933 179.758ZM32.4458 179.758H33.7979L34.0327 185.928V189H32.4458V179.758ZM40.5708 179.758H41.9292V189H40.3359V185.928L40.5708 179.758ZM43.3765 185.642V185.496C43.3765 185.001 43.4484 184.542 43.5923 184.119C43.7362 183.691 43.9435 183.321 44.2144 183.008C44.4894 182.69 44.8237 182.445 45.2173 182.271C45.6151 182.094 46.0636 182.005 46.563 182.005C47.0666 182.005 47.5151 182.094 47.9087 182.271C48.3065 182.445 48.6429 182.69 48.918 183.008C49.193 183.321 49.4025 183.691 49.5464 184.119C49.6903 184.542 49.7622 185.001 49.7622 185.496V185.642C49.7622 186.137 49.6903 186.596 49.5464 187.02C49.4025 187.443 49.193 187.813 48.918 188.13C48.6429 188.444 48.3086 188.689 47.915 188.867C47.5215 189.04 47.075 189.127 46.5757 189.127C46.0721 189.127 45.6214 189.04 45.2236 188.867C44.8301 188.689 44.4958 188.444 44.2207 188.13C43.9456 187.813 43.7362 187.443 43.5923 187.02C43.4484 186.596 43.3765 186.137 43.3765 185.642ZM44.9062 185.496V185.642C44.9062 185.951 44.938 186.243 45.0015 186.518C45.0649 186.793 45.1644 187.034 45.2998 187.242C45.4352 187.449 45.6087 187.612 45.8203 187.73C46.0319 187.849 46.2837 187.908 46.5757 187.908C46.8592 187.908 47.1047 187.849 47.312 187.73C47.5236 187.612 47.6971 187.449 47.8325 187.242C47.9679 187.034 48.0674 186.793 48.1309 186.518C48.1986 186.243 48.2324 185.951 48.2324 185.642V185.496C48.2324 185.191 48.1986 184.904 48.1309 184.633C48.0674 184.358 47.9658 184.114 47.8262 183.903C47.6908 183.691 47.5173 183.526 47.3057 183.408C47.0983 183.285 46.8507 183.224 46.563 183.224C46.2752 183.224 46.0256 183.285 45.814 183.408C45.6066 183.526 45.4352 183.691 45.2998 183.903C45.1644 184.114 45.0649 184.358 45.0015 184.633C44.938 184.904 44.9062 185.191 44.9062 185.496ZM52.5615 183.598V189H51.0317V182.132H52.4727L52.5615 183.598ZM52.2886 185.312L51.7935 185.306C51.7977 184.819 51.8654 184.373 51.9966 183.966C52.132 183.56 52.3182 183.211 52.5552 182.919C52.7964 182.627 53.0841 182.403 53.4185 182.246C53.7528 182.085 54.1252 182.005 54.5356 182.005C54.8657 182.005 55.1641 182.051 55.4307 182.145C55.7015 182.233 55.9321 182.379 56.1226 182.583C56.3172 182.786 56.4653 183.05 56.5669 183.376C56.6685 183.698 56.7192 184.093 56.7192 184.563V189H55.1831V184.557C55.1831 184.227 55.1344 183.966 55.0371 183.776C54.944 183.581 54.8065 183.444 54.6245 183.363C54.4468 183.279 54.2246 183.236 53.958 183.236C53.6956 183.236 53.4608 183.291 53.2534 183.401C53.0461 183.511 52.8704 183.662 52.7266 183.852C52.5869 184.042 52.479 184.263 52.4028 184.512C52.3267 184.762 52.2886 185.028 52.2886 185.312Z" fill="#422A47"/>
<path d="M85.4443 179.758V189H83.8638V179.758H85.4443ZM88.3452 179.758V181.027H80.9883V179.758H88.3452ZM93.0107 187.381V182.132H94.5469V189H93.0996L93.0107 187.381ZM93.2266 185.953L93.7407 185.94C93.7407 186.402 93.6899 186.827 93.5884 187.216C93.4868 187.601 93.3302 187.938 93.1187 188.226C92.9071 188.509 92.6362 188.731 92.3062 188.892C91.9761 189.049 91.5804 189.127 91.1191 189.127C90.7848 189.127 90.478 189.078 90.1987 188.981C89.9194 188.884 89.6782 188.733 89.4751 188.53C89.2762 188.327 89.1217 188.063 89.0117 187.737C88.9017 187.411 88.8467 187.022 88.8467 186.569V182.132H90.3765V186.582C90.3765 186.831 90.4061 187.041 90.4653 187.21C90.5246 187.375 90.605 187.508 90.7065 187.61C90.8081 187.711 90.9266 187.783 91.062 187.826C91.1974 187.868 91.3413 187.889 91.4937 187.889C91.9295 187.889 92.2723 187.805 92.522 187.635C92.7759 187.462 92.9557 187.229 93.0615 186.937C93.1715 186.645 93.2266 186.317 93.2266 185.953ZM99.1426 189.127C98.6348 189.127 98.1756 189.044 97.7651 188.879C97.3589 188.71 97.0119 188.475 96.7241 188.175C96.4406 187.874 96.2227 187.521 96.0703 187.115C95.918 186.708 95.8418 186.271 95.8418 185.801V185.547C95.8418 185.009 95.9201 184.523 96.0767 184.087C96.2332 183.651 96.4512 183.279 96.7305 182.97C97.0098 182.657 97.3398 182.417 97.7207 182.252C98.1016 182.087 98.5142 182.005 98.9585 182.005C99.4494 182.005 99.8789 182.087 100.247 182.252C100.615 182.417 100.92 182.65 101.161 182.951C101.407 183.247 101.589 183.6 101.707 184.011C101.83 184.421 101.891 184.874 101.891 185.369V186.023H96.5845V184.925H100.38V184.804C100.372 184.529 100.317 184.271 100.215 184.03C100.118 183.789 99.9678 183.594 99.7646 183.446C99.5615 183.298 99.2907 183.224 98.9521 183.224C98.6982 183.224 98.4718 183.279 98.2729 183.389C98.0783 183.494 97.9154 183.649 97.7842 183.852C97.653 184.055 97.5514 184.301 97.4795 184.588C97.4118 184.872 97.3779 185.191 97.3779 185.547V185.801C97.3779 186.101 97.4181 186.381 97.4985 186.639C97.5832 186.893 97.7059 187.115 97.8667 187.305C98.0275 187.496 98.2222 187.646 98.4507 187.756C98.6792 187.862 98.9395 187.915 99.2314 187.915C99.5996 187.915 99.9276 187.84 100.215 187.692C100.503 187.544 100.753 187.335 100.964 187.064L101.771 187.845C101.622 188.061 101.43 188.268 101.193 188.467C100.956 188.661 100.666 188.82 100.323 188.943C99.9847 189.066 99.5911 189.127 99.1426 189.127Z" fill="#422A47"/>
<path d="M129.029 186.924L130.87 179.758H131.835L131.727 181.605L129.759 189H128.756L129.029 186.924ZM127.652 179.758L129.144 186.867L129.277 189H128.21L126.071 179.758H127.652ZM133.923 186.848L135.396 179.758H136.983L134.844 189H133.777L133.923 186.848ZM132.209 179.758L134.031 186.943L134.298 189H133.295L131.359 181.605L131.257 179.758H132.209ZM140.836 189.127C140.328 189.127 139.869 189.044 139.458 188.879C139.052 188.71 138.705 188.475 138.417 188.175C138.134 187.874 137.916 187.521 137.764 187.115C137.611 186.708 137.535 186.271 137.535 185.801V185.547C137.535 185.009 137.613 184.523 137.77 184.087C137.927 183.651 138.145 183.279 138.424 182.97C138.703 182.657 139.033 182.417 139.414 182.252C139.795 182.087 140.208 182.005 140.652 182.005C141.143 182.005 141.572 182.087 141.94 182.252C142.309 182.417 142.613 182.65 142.854 182.951C143.1 183.247 143.282 183.6 143.4 184.011C143.523 184.421 143.584 184.874 143.584 185.369V186.023H138.278V184.925H142.074V184.804C142.065 184.529 142.01 184.271 141.909 184.03C141.811 183.789 141.661 183.594 141.458 183.446C141.255 183.298 140.984 183.224 140.646 183.224C140.392 183.224 140.165 183.279 139.966 183.389C139.772 183.494 139.609 183.649 139.478 183.852C139.346 184.055 139.245 184.301 139.173 184.588C139.105 184.872 139.071 185.191 139.071 185.547V185.801C139.071 186.101 139.111 186.381 139.192 186.639C139.277 186.893 139.399 187.115 139.56 187.305C139.721 187.496 139.916 187.646 140.144 187.756C140.373 187.862 140.633 187.915 140.925 187.915C141.293 187.915 141.621 187.84 141.909 187.692C142.196 187.544 142.446 187.335 142.658 187.064L143.464 187.845C143.316 188.061 143.123 188.268 142.886 188.467C142.649 188.661 142.359 188.82 142.017 188.943C141.678 189.066 141.285 189.127 140.836 189.127ZM146.295 183.598V189H144.765V182.132H146.206L146.295 183.598ZM146.022 185.312L145.527 185.306C145.531 184.819 145.599 184.373 145.73 183.966C145.865 183.56 146.052 183.211 146.289 182.919C146.53 182.627 146.818 182.403 147.152 182.246C147.486 182.085 147.859 182.005 148.269 182.005C148.599 182.005 148.897 182.051 149.164 182.145C149.435 182.233 149.666 182.379 149.856 182.583C150.051 182.786 150.199 183.05 150.3 183.376C150.402 183.698 150.453 184.093 150.453 184.563V189H148.917V184.557C148.917 184.227 148.868 183.966 148.771 183.776C148.677 183.581 148.54 183.444 148.358 183.363C148.18 183.279 147.958 183.236 147.691 183.236C147.429 183.236 147.194 183.291 146.987 183.401C146.779 183.511 146.604 183.662 146.46 183.852C146.32 184.042 146.212 184.263 146.136 184.512C146.06 184.762 146.022 185.028 146.022 185.312Z" fill="#422A47"/>
<path d="M179.051 179.758V189H177.47V179.758H179.051ZM181.952 179.758V181.027H174.595V179.758H181.952ZM184.529 179.25V189H183.005V179.25H184.529ZM184.262 185.312L183.767 185.306C183.771 184.832 183.837 184.394 183.964 183.992C184.095 183.59 184.277 183.241 184.51 182.944C184.747 182.644 185.03 182.413 185.36 182.252C185.69 182.087 186.056 182.005 186.458 182.005C186.797 182.005 187.102 182.051 187.373 182.145C187.648 182.238 187.885 182.388 188.083 182.595C188.282 182.798 188.433 183.065 188.534 183.395C188.64 183.721 188.693 184.119 188.693 184.588V189H187.157V184.576C187.157 184.246 187.108 183.983 187.011 183.789C186.918 183.594 186.78 183.454 186.598 183.37C186.416 183.281 186.194 183.236 185.932 183.236C185.657 183.236 185.413 183.291 185.202 183.401C184.994 183.511 184.821 183.662 184.681 183.852C184.542 184.042 184.436 184.263 184.364 184.512C184.296 184.762 184.262 185.028 184.262 185.312ZM194.374 187.381V182.132H195.91V189H194.463L194.374 187.381ZM194.59 185.953L195.104 185.94C195.104 186.402 195.053 186.827 194.952 187.216C194.85 187.601 194.694 187.938 194.482 188.226C194.27 188.509 194 188.731 193.669 188.892C193.339 189.049 192.944 189.127 192.482 189.127C192.148 189.127 191.841 189.078 191.562 188.981C191.283 188.884 191.042 188.733 190.838 188.53C190.639 188.327 190.485 188.063 190.375 187.737C190.265 187.411 190.21 187.022 190.21 186.569V182.132H191.74V186.582C191.74 186.831 191.769 187.041 191.829 187.21C191.888 187.375 191.968 187.508 192.07 187.61C192.171 187.711 192.29 187.783 192.425 187.826C192.561 187.868 192.705 187.889 192.857 187.889C193.293 187.889 193.636 187.805 193.885 187.635C194.139 187.462 194.319 187.229 194.425 186.937C194.535 186.645 194.59 186.317 194.59 185.953Z" fill="#422A47"/>
<path d="M227.581 179.758V189H225.987V179.758H227.581ZM231.351 183.801V185.064H227.174V183.801H231.351ZM231.878 179.758V181.027H227.174V179.758H231.878ZM234.366 183.439V189H232.836V182.132H234.296L234.366 183.439ZM236.467 182.087L236.455 183.509C236.361 183.492 236.26 183.48 236.15 183.471C236.044 183.463 235.938 183.458 235.833 183.458C235.57 183.458 235.34 183.497 235.141 183.573C234.942 183.645 234.775 183.75 234.639 183.89C234.508 184.026 234.406 184.191 234.334 184.385C234.263 184.58 234.22 184.798 234.208 185.039L233.858 185.064C233.858 184.633 233.901 184.233 233.985 183.865C234.07 183.497 234.197 183.173 234.366 182.894C234.54 182.614 234.756 182.396 235.014 182.24C235.276 182.083 235.579 182.005 235.921 182.005C236.014 182.005 236.114 182.013 236.22 182.03C236.33 182.047 236.412 182.066 236.467 182.087ZM239.063 182.132V189H237.527V182.132H239.063ZM237.426 180.329C237.426 180.096 237.502 179.904 237.654 179.751C237.811 179.595 238.027 179.517 238.302 179.517C238.573 179.517 238.786 179.595 238.943 179.751C239.099 179.904 239.178 180.096 239.178 180.329C239.178 180.558 239.099 180.748 238.943 180.9C238.786 181.053 238.573 181.129 238.302 181.129C238.027 181.129 237.811 181.053 237.654 180.9C237.502 180.748 237.426 180.558 237.426 180.329Z" fill="#422A47"/>
<path d="M275.698 186.62C275.698 186.429 275.668 186.26 275.609 186.112C275.554 185.964 275.454 185.828 275.311 185.706C275.167 185.583 274.964 185.464 274.701 185.35C274.443 185.232 274.113 185.111 273.711 184.988C273.271 184.853 272.865 184.703 272.492 184.538C272.124 184.368 271.802 184.174 271.527 183.954C271.252 183.729 271.039 183.473 270.886 183.186C270.734 182.894 270.658 182.557 270.658 182.176C270.658 181.8 270.736 181.457 270.893 181.148C271.053 180.839 271.28 180.572 271.572 180.348C271.868 180.12 272.217 179.944 272.619 179.821C273.021 179.694 273.465 179.631 273.952 179.631C274.638 179.631 275.228 179.758 275.723 180.012C276.222 180.266 276.605 180.606 276.872 181.034C277.143 181.461 277.278 181.933 277.278 182.449H275.698C275.698 182.145 275.632 181.876 275.501 181.643C275.374 181.406 275.179 181.22 274.917 181.084C274.659 180.949 274.331 180.881 273.933 180.881C273.556 180.881 273.243 180.938 272.994 181.053C272.744 181.167 272.558 181.321 272.435 181.516C272.312 181.711 272.251 181.931 272.251 182.176C272.251 182.35 272.291 182.508 272.372 182.652C272.452 182.792 272.575 182.923 272.74 183.046C272.905 183.164 273.112 183.277 273.362 183.382C273.611 183.488 273.906 183.59 274.244 183.687C274.756 183.839 275.203 184.009 275.583 184.195C275.964 184.377 276.282 184.584 276.536 184.817C276.79 185.05 276.98 185.314 277.107 185.61C277.234 185.902 277.297 186.235 277.297 186.607C277.297 186.996 277.219 187.347 277.062 187.661C276.906 187.97 276.682 188.234 276.39 188.454C276.102 188.67 275.755 188.837 275.349 188.956C274.947 189.07 274.498 189.127 274.003 189.127C273.559 189.127 273.121 189.068 272.689 188.949C272.262 188.831 271.872 188.651 271.521 188.41C271.17 188.164 270.89 187.86 270.683 187.496C270.476 187.127 270.372 186.698 270.372 186.207H271.965C271.965 186.507 272.016 186.764 272.118 186.975C272.223 187.187 272.369 187.36 272.556 187.496C272.742 187.627 272.958 187.724 273.203 187.788C273.453 187.851 273.719 187.883 274.003 187.883C274.375 187.883 274.686 187.83 274.936 187.724C275.19 187.618 275.38 187.47 275.507 187.28C275.634 187.089 275.698 186.869 275.698 186.62ZM282.426 187.623V184.347C282.426 184.102 282.382 183.89 282.293 183.712C282.204 183.535 282.069 183.397 281.887 183.3C281.709 183.202 281.485 183.154 281.214 183.154C280.964 183.154 280.748 183.196 280.566 183.281C280.384 183.365 280.243 183.48 280.141 183.624C280.04 183.767 279.989 183.93 279.989 184.112H278.465C278.465 183.841 278.531 183.579 278.662 183.325C278.793 183.071 278.984 182.845 279.233 182.646C279.483 182.447 279.781 182.291 280.128 182.176C280.475 182.062 280.865 182.005 281.296 182.005C281.813 182.005 282.27 182.092 282.667 182.265C283.069 182.439 283.385 182.701 283.613 183.052C283.846 183.399 283.962 183.835 283.962 184.36V187.413C283.962 187.726 283.984 188.008 284.026 188.257C284.072 188.503 284.138 188.716 284.223 188.898V189H282.655C282.583 188.835 282.526 188.625 282.483 188.372C282.445 188.113 282.426 187.864 282.426 187.623ZM282.648 184.823L282.661 185.769H281.563C281.279 185.769 281.03 185.797 280.814 185.852C280.598 185.902 280.418 185.979 280.274 186.08C280.131 186.182 280.023 186.304 279.951 186.448C279.879 186.592 279.843 186.755 279.843 186.937C279.843 187.119 279.885 187.286 279.97 187.438C280.054 187.587 280.177 187.703 280.338 187.788C280.503 187.872 280.702 187.915 280.935 187.915C281.248 187.915 281.521 187.851 281.753 187.724C281.99 187.593 282.177 187.434 282.312 187.248C282.447 187.058 282.519 186.878 282.528 186.708L283.023 187.388C282.972 187.561 282.885 187.747 282.763 187.946C282.64 188.145 282.479 188.336 282.28 188.518C282.086 188.695 281.851 188.841 281.576 188.956C281.305 189.07 280.992 189.127 280.636 189.127C280.188 189.127 279.788 189.038 279.437 188.86C279.085 188.678 278.81 188.435 278.611 188.13C278.412 187.821 278.313 187.472 278.313 187.083C278.313 186.719 278.381 186.397 278.516 186.118C278.656 185.835 278.859 185.598 279.125 185.407C279.396 185.217 279.726 185.073 280.116 184.976C280.505 184.874 280.949 184.823 281.449 184.823H282.648ZM288.71 182.132V183.249H284.838V182.132H288.71ZM285.956 180.45H287.485V187.102C287.485 187.314 287.515 187.477 287.574 187.591C287.638 187.701 287.724 187.775 287.834 187.813C287.944 187.851 288.074 187.87 288.222 187.87C288.327 187.87 288.429 187.864 288.526 187.851C288.624 187.838 288.702 187.826 288.761 187.813L288.768 188.981C288.641 189.019 288.493 189.053 288.323 189.083C288.158 189.112 287.968 189.127 287.752 189.127C287.401 189.127 287.09 189.066 286.819 188.943C286.548 188.816 286.336 188.611 286.184 188.327C286.032 188.044 285.956 187.667 285.956 187.197V180.45Z" fill="#422A47"/>
<path d="M321.13 186.62C321.13 186.429 321.1 186.26 321.041 186.112C320.986 185.964 320.887 185.828 320.743 185.706C320.599 185.583 320.396 185.464 320.133 185.35C319.875 185.232 319.545 185.111 319.143 184.988C318.703 184.853 318.297 184.703 317.924 184.538C317.556 184.368 317.235 184.174 316.959 183.954C316.684 183.729 316.471 183.473 316.318 183.186C316.166 182.894 316.09 182.557 316.09 182.176C316.09 181.8 316.168 181.457 316.325 181.148C316.486 180.839 316.712 180.572 317.004 180.348C317.3 180.12 317.649 179.944 318.051 179.821C318.453 179.694 318.898 179.631 319.384 179.631C320.07 179.631 320.66 179.758 321.155 180.012C321.655 180.266 322.038 180.606 322.304 181.034C322.575 181.461 322.71 181.933 322.71 182.449H321.13C321.13 182.145 321.064 181.876 320.933 181.643C320.806 181.406 320.611 181.22 320.349 181.084C320.091 180.949 319.763 180.881 319.365 180.881C318.989 180.881 318.675 180.938 318.426 181.053C318.176 181.167 317.99 181.321 317.867 181.516C317.744 181.711 317.683 181.931 317.683 182.176C317.683 182.35 317.723 182.508 317.804 182.652C317.884 182.792 318.007 182.923 318.172 183.046C318.337 183.164 318.544 183.277 318.794 183.382C319.044 183.488 319.338 183.59 319.676 183.687C320.188 183.839 320.635 184.009 321.016 184.195C321.396 184.377 321.714 184.584 321.968 184.817C322.222 185.05 322.412 185.314 322.539 185.61C322.666 185.902 322.729 186.235 322.729 186.607C322.729 186.996 322.651 187.347 322.495 187.661C322.338 187.97 322.114 188.234 321.822 188.454C321.534 188.67 321.187 188.837 320.781 188.956C320.379 189.07 319.93 189.127 319.435 189.127C318.991 189.127 318.553 189.068 318.121 188.949C317.694 188.831 317.304 188.651 316.953 188.41C316.602 188.164 316.323 187.86 316.115 187.496C315.908 187.127 315.804 186.698 315.804 186.207H317.397C317.397 186.507 317.448 186.764 317.55 186.975C317.656 187.187 317.802 187.36 317.988 187.496C318.174 187.627 318.39 187.724 318.635 187.788C318.885 187.851 319.152 187.883 319.435 187.883C319.807 187.883 320.118 187.83 320.368 187.724C320.622 187.618 320.812 187.47 320.939 187.28C321.066 187.089 321.13 186.869 321.13 186.62ZM328.119 187.381V182.132H329.655V189H328.208L328.119 187.381ZM328.334 185.953L328.849 185.94C328.849 186.402 328.798 186.827 328.696 187.216C328.595 187.601 328.438 187.938 328.227 188.226C328.015 188.509 327.744 188.731 327.414 188.892C327.084 189.049 326.688 189.127 326.227 189.127C325.893 189.127 325.586 189.078 325.307 188.981C325.027 188.884 324.786 188.733 324.583 188.53C324.384 188.327 324.23 188.063 324.12 187.737C324.01 187.411 323.955 187.022 323.955 186.569V182.132H325.484V186.582C325.484 186.831 325.514 187.041 325.573 187.21C325.632 187.375 325.713 187.508 325.814 187.61C325.916 187.711 326.035 187.783 326.17 187.826C326.305 187.868 326.449 187.889 326.602 187.889C327.037 187.889 327.38 187.805 327.63 187.635C327.884 187.462 328.064 187.229 328.169 186.937C328.279 186.645 328.334 186.317 328.334 185.953ZM332.74 183.598V189H331.21V182.132H332.651L332.74 183.598ZM332.467 185.312L331.972 185.306C331.976 184.819 332.044 184.373 332.175 183.966C332.31 183.56 332.496 183.211 332.733 182.919C332.975 182.627 333.262 182.403 333.597 182.246C333.931 182.085 334.303 182.005 334.714 182.005C335.044 182.005 335.342 182.051 335.609 182.145C335.88 182.233 336.11 182.379 336.301 182.583C336.495 182.786 336.644 183.05 336.745 183.376C336.847 183.698 336.897 184.093 336.897 184.563V189H335.361V184.557C335.361 184.227 335.313 183.966 335.215 183.776C335.122 183.581 334.985 183.444 334.803 183.363C334.625 183.279 334.403 183.236 334.136 183.236C333.874 183.236 333.639 183.291 333.432 183.401C333.224 183.511 333.049 183.662 332.905 183.852C332.765 184.042 332.657 184.263 332.581 184.512C332.505 184.762 332.467 185.028 332.467 185.312Z" fill="#422A47"/>
<path d="M82.1131 142.354L44.5 168.5H310.5C247.7 166.5 233 158 208.5 141L172.171 114.186C168.93 111.793 164.415 112.184 161.633 115.098L128.093 150.236C125.908 152.525 122.58 153.311 119.603 152.242L89.3822 141.394C86.9464 140.519 84.2381 140.877 82.1131 142.354Z" fill="url(#paint6_linear_75_308)" fill-opacity="0.3"/>
<path d="M44 169L82.0615 142.403C84.2148 140.898 86.9696 140.546 89.4318 141.462L119.594 152.676C122.574 153.784 125.927 153.022 128.136 150.735L162.142 115.529C164.924 112.649 169.407 112.269 172.634 114.641L208.5 141C233 158 249.2 167 312 169" stroke="url(#paint7_linear_75_308)" stroke-width="2" stroke-linecap="round"/>
<g opacity="0.7" filter="url(#filter0_d_75_308)">
<rect x="166" y="22" width="39" height="177" rx="4" fill="white"/>
</g>
<path d="M185.049 41.1094V42H179.465V41.2207L182.26 38.1094C182.604 37.7266 182.869 37.4023 183.057 37.1367C183.248 36.8672 183.381 36.627 183.455 36.416C183.533 36.2012 183.572 35.9824 183.572 35.7598C183.572 35.4785 183.514 35.2246 183.396 34.998C183.283 34.7676 183.115 34.584 182.893 34.4473C182.67 34.3105 182.4 34.2422 182.084 34.2422C181.705 34.2422 181.389 34.3164 181.135 34.4648C180.885 34.6094 180.697 34.8125 180.572 35.0742C180.447 35.3359 180.385 35.6367 180.385 35.9766H179.301C179.301 35.4961 179.406 35.0566 179.617 34.6582C179.828 34.2598 180.141 33.9434 180.555 33.709C180.969 33.4707 181.479 33.3516 182.084 33.3516C182.623 33.3516 183.084 33.4473 183.467 33.6387C183.85 33.8262 184.143 34.0918 184.346 34.4355C184.553 34.7754 184.656 35.1738 184.656 35.6309C184.656 35.8809 184.613 36.1348 184.527 36.3926C184.445 36.6465 184.33 36.9004 184.182 37.1543C184.037 37.4082 183.867 37.6582 183.672 37.9043C183.48 38.1504 183.275 38.3926 183.057 38.6309L180.771 41.1094H185.049ZM191.564 37.0547V38.3555C191.564 39.0547 191.502 39.6445 191.377 40.125C191.252 40.6055 191.072 40.9922 190.838 41.2852C190.604 41.5781 190.32 41.791 189.988 41.9238C189.66 42.0527 189.289 42.1172 188.875 42.1172C188.547 42.1172 188.244 42.0762 187.967 41.9941C187.689 41.9121 187.439 41.7812 187.217 41.6016C186.998 41.418 186.811 41.1797 186.654 40.8867C186.498 40.5938 186.379 40.2383 186.297 39.8203C186.215 39.4023 186.174 38.9141 186.174 38.3555V37.0547C186.174 36.3555 186.236 35.7695 186.361 35.2969C186.49 34.8242 186.672 34.4453 186.906 34.1602C187.141 33.8711 187.422 33.6641 187.75 33.5391C188.082 33.4141 188.453 33.3516 188.863 33.3516C189.195 33.3516 189.5 33.3926 189.777 33.4746C190.059 33.5527 190.309 33.6797 190.527 33.8555C190.746 34.0273 190.932 34.2578 191.084 34.5469C191.24 34.832 191.359 35.1816 191.441 35.5957C191.523 36.0098 191.564 36.4961 191.564 37.0547ZM190.475 38.5312V36.873C190.475 36.4902 190.451 36.1543 190.404 35.8652C190.361 35.5723 190.297 35.3223 190.211 35.1152C190.125 34.9082 190.016 34.7402 189.883 34.6113C189.754 34.4824 189.604 34.3887 189.432 34.3301C189.264 34.2676 189.074 34.2363 188.863 34.2363C188.605 34.2363 188.377 34.2852 188.178 34.3828C187.979 34.4766 187.811 34.627 187.674 34.834C187.541 35.041 187.439 35.3125 187.369 35.6484C187.299 35.9844 187.264 36.3926 187.264 36.873V38.5312C187.264 38.9141 187.285 39.252 187.328 39.5449C187.375 39.8379 187.443 40.0918 187.533 40.3066C187.623 40.5176 187.732 40.6914 187.861 40.8281C187.99 40.9648 188.139 41.0664 188.307 41.1328C188.479 41.1953 188.668 41.2266 188.875 41.2266C189.141 41.2266 189.373 41.1758 189.572 41.0742C189.771 40.9727 189.938 40.8145 190.07 40.5996C190.207 40.3809 190.309 40.1016 190.375 39.7617C190.441 39.418 190.475 39.0078 190.475 38.5312ZM172.562 49.4688V58H171.432V49.4688H172.562ZM177.109 51.6602V52.4922H173.682V51.6602H177.109ZM174.842 50.1191H175.926V56.4297C175.926 56.6445 175.959 56.8066 176.025 56.916C176.092 57.0254 176.178 57.0977 176.283 57.1328C176.389 57.168 176.502 57.1855 176.623 57.1855C176.713 57.1855 176.807 57.1777 176.904 57.1621C177.006 57.1426 177.082 57.127 177.133 57.1152L177.139 58C177.053 58.0273 176.939 58.0527 176.799 58.0762C176.662 58.1035 176.496 58.1172 176.301 58.1172C176.035 58.1172 175.791 58.0645 175.568 57.959C175.346 57.8535 175.168 57.6777 175.035 57.4316C174.906 57.1816 174.842 56.8457 174.842 56.4238V50.1191ZM181.012 58.1172C180.57 58.1172 180.17 58.043 179.811 57.8945C179.455 57.7422 179.148 57.5293 178.891 57.2559C178.637 56.9824 178.441 56.6582 178.305 56.2832C178.168 55.9082 178.1 55.498 178.1 55.0527V54.8066C178.1 54.291 178.176 53.832 178.328 53.4297C178.48 53.0234 178.688 52.6797 178.949 52.3984C179.211 52.1172 179.508 51.9043 179.84 51.7598C180.172 51.6152 180.516 51.543 180.871 51.543C181.324 51.543 181.715 51.6211 182.043 51.7773C182.375 51.9336 182.646 52.1523 182.857 52.4336C183.068 52.7109 183.225 53.0391 183.326 53.418C183.428 53.793 183.479 54.2031 183.479 54.6484V55.1348H178.744V54.25H182.395V54.168C182.379 53.8867 182.32 53.6133 182.219 53.3477C182.121 53.082 181.965 52.8633 181.75 52.6914C181.535 52.5195 181.242 52.4336 180.871 52.4336C180.625 52.4336 180.398 52.4863 180.191 52.5918C179.984 52.6934 179.807 52.8457 179.658 53.0488C179.51 53.252 179.395 53.5 179.312 53.793C179.23 54.0859 179.189 54.4238 179.189 54.8066V55.0527C179.189 55.3535 179.23 55.6367 179.312 55.9023C179.398 56.1641 179.521 56.3945 179.682 56.5938C179.846 56.793 180.043 56.9492 180.273 57.0625C180.508 57.1758 180.773 57.2324 181.07 57.2324C181.453 57.2324 181.777 57.1543 182.043 56.998C182.309 56.8418 182.541 56.6328 182.74 56.3711L183.396 56.8926C183.26 57.0996 183.086 57.2969 182.875 57.4844C182.664 57.6719 182.404 57.8242 182.096 57.9414C181.791 58.0586 181.43 58.1172 181.012 58.1172ZM185.822 52.9199V58H184.732V51.6602H185.764L185.822 52.9199ZM185.6 54.5898L185.096 54.5723C185.1 54.1387 185.156 53.7383 185.266 53.3711C185.375 53 185.537 52.6777 185.752 52.4043C185.967 52.1309 186.234 51.9199 186.555 51.7715C186.875 51.6191 187.246 51.543 187.668 51.543C187.965 51.543 188.238 51.5859 188.488 51.6719C188.738 51.7539 188.955 51.8848 189.139 52.0645C189.322 52.2441 189.465 52.4746 189.566 52.7559C189.668 53.0371 189.719 53.377 189.719 53.7754V58H188.635V53.8281C188.635 53.4961 188.578 53.2305 188.465 53.0312C188.355 52.832 188.199 52.6875 187.996 52.5977C187.793 52.5039 187.555 52.457 187.281 52.457C186.961 52.457 186.693 52.5137 186.479 52.627C186.264 52.7402 186.092 52.8965 185.963 53.0957C185.834 53.2949 185.74 53.5234 185.682 53.7812C185.627 54.0352 185.6 54.3047 185.6 54.5898ZM189.707 53.9922L188.98 54.2148C188.984 53.8672 189.041 53.5332 189.15 53.2129C189.264 52.8926 189.426 52.6074 189.637 52.3574C189.852 52.1074 190.115 51.9102 190.428 51.7656C190.74 51.6172 191.098 51.543 191.5 51.543C191.84 51.543 192.141 51.5879 192.402 51.6777C192.668 51.7676 192.891 51.9062 193.07 52.0938C193.254 52.2773 193.393 52.5137 193.486 52.8027C193.58 53.0918 193.627 53.4355 193.627 53.834V58H192.537V53.8223C192.537 53.4668 192.48 53.1914 192.367 52.9961C192.258 52.7969 192.102 52.6582 191.898 52.5801C191.699 52.498 191.461 52.457 191.184 52.457C190.945 52.457 190.734 52.498 190.551 52.5801C190.367 52.6621 190.213 52.7754 190.088 52.9199C189.963 53.0605 189.867 53.2227 189.801 53.4062C189.738 53.5898 189.707 53.7852 189.707 53.9922ZM198.959 56.3184C198.959 56.1621 198.924 56.0176 198.854 55.8848C198.787 55.748 198.648 55.625 198.438 55.5156C198.23 55.4023 197.918 55.3047 197.5 55.2227C197.148 55.1484 196.83 55.0605 196.545 54.959C196.264 54.8574 196.023 54.7344 195.824 54.5898C195.629 54.4453 195.479 54.2754 195.373 54.0801C195.268 53.8848 195.215 53.6562 195.215 53.3945C195.215 53.1445 195.27 52.9082 195.379 52.6855C195.492 52.4629 195.65 52.2656 195.854 52.0938C196.061 51.9219 196.309 51.7871 196.598 51.6895C196.887 51.5918 197.209 51.543 197.564 51.543C198.072 51.543 198.506 51.6328 198.865 51.8125C199.225 51.9922 199.5 52.2324 199.691 52.5332C199.883 52.8301 199.979 53.1602 199.979 53.5234H198.895C198.895 53.3477 198.842 53.1777 198.736 53.0137C198.635 52.8457 198.484 52.707 198.285 52.5977C198.09 52.4883 197.85 52.4336 197.564 52.4336C197.264 52.4336 197.02 52.4805 196.832 52.5742C196.648 52.6641 196.514 52.7793 196.428 52.9199C196.346 53.0605 196.305 53.209 196.305 53.3652C196.305 53.4824 196.324 53.5879 196.363 53.6816C196.406 53.7715 196.48 53.8555 196.586 53.9336C196.691 54.0078 196.84 54.0781 197.031 54.1445C197.223 54.2109 197.467 54.2773 197.764 54.3438C198.283 54.4609 198.711 54.6016 199.047 54.7656C199.383 54.9297 199.633 55.1309 199.797 55.3691C199.961 55.6074 200.043 55.8965 200.043 56.2363C200.043 56.5137 199.984 56.7676 199.867 56.998C199.754 57.2285 199.588 57.4277 199.369 57.5957C199.154 57.7598 198.896 57.8887 198.596 57.9824C198.299 58.0723 197.965 58.1172 197.594 58.1172C197.035 58.1172 196.562 58.0176 196.176 57.8184C195.789 57.6191 195.496 57.3613 195.297 57.0449C195.098 56.7285 194.998 56.3945 194.998 56.043H196.088C196.104 56.3398 196.189 56.5762 196.346 56.752C196.502 56.9238 196.693 57.0469 196.92 57.1211C197.146 57.1914 197.371 57.2266 197.594 57.2266C197.891 57.2266 198.139 57.1875 198.338 57.1094C198.541 57.0312 198.695 56.9238 198.801 56.7871C198.906 56.6504 198.959 56.4941 198.959 56.3184Z" fill="#422A47"/>
<path d="M179.051 179.758V189H177.47V179.758H179.051ZM181.952 179.758V181.027H174.595V179.758H181.952ZM184.529 179.25V189H183.005V179.25H184.529ZM184.262 185.312L183.767 185.306C183.771 184.832 183.837 184.394 183.964 183.992C184.095 183.59 184.277 183.241 184.51 182.944C184.747 182.644 185.03 182.413 185.36 182.252C185.69 182.087 186.056 182.005 186.458 182.005C186.797 182.005 187.102 182.051 187.373 182.145C187.648 182.238 187.885 182.388 188.083 182.595C188.282 182.798 188.433 183.065 188.534 183.395C188.64 183.721 188.693 184.119 188.693 184.588V189H187.157V184.576C187.157 184.246 187.108 183.983 187.011 183.789C186.918 183.594 186.78 183.454 186.598 183.37C186.416 183.281 186.194 183.236 185.932 183.236C185.657 183.236 185.413 183.291 185.202 183.401C184.994 183.511 184.821 183.662 184.681 183.852C184.542 184.042 184.436 184.263 184.364 184.512C184.296 184.762 184.262 185.028 184.262 185.312ZM194.374 187.381V182.132H195.91V189H194.463L194.374 187.381ZM194.59 185.953L195.104 185.94C195.104 186.402 195.053 186.827 194.952 187.216C194.85 187.601 194.694 187.938 194.482 188.226C194.27 188.509 194 188.731 193.669 188.892C193.339 189.049 192.944 189.127 192.482 189.127C192.148 189.127 191.841 189.078 191.562 188.981C191.283 188.884 191.042 188.733 190.838 188.53C190.639 188.327 190.485 188.063 190.375 187.737C190.265 187.411 190.21 187.022 190.21 186.569V182.132H191.74V186.582C191.74 186.831 191.769 187.041 191.829 187.21C191.888 187.375 191.968 187.508 192.07 187.61C192.171 187.711 192.29 187.783 192.425 187.826C192.561 187.868 192.705 187.889 192.857 187.889C193.293 187.889 193.636 187.805 193.885 187.635C194.139 187.462 194.319 187.229 194.425 186.937C194.535 186.645 194.59 186.317 194.59 185.953Z" fill="#422A47"/>
<g filter="url(#filter1_d_75_308)">
<circle cx="185" cy="129" r="8" fill="white"/>
</g>
<circle cx="185" cy="129" r="4" fill="#FECD34"/>
<defs>
<filter id="filter0_d_75_308" x="136" y="0" width="99" height="237" filterUnits="userSpaceOnUse" color-interpolation-filters="sRGB">
<feFlood flood-opacity="0" result="BackgroundImageFix"/>
<feColorMatrix in="SourceAlpha" type="matrix" values="0 0 0 0 0 0 0 0 0 0 0 0 0 0 0 0 0 0 127 0" result="hardAlpha"/>
<feOffset dy="8"/>
<feGaussianBlur stdDeviation="15"/>
<feColorMatrix type="matrix" values="0 0 0 0 0.0705882 0 0 0 0 0.0980392 0 0 0 0 0.356863 0 0 0 0.1 0"/>
<feBlend mode="normal" in2="BackgroundImageFix" result="effect1_dropShadow_75_308"/>
<feBlend mode="normal" in="SourceGraphic" in2="effect1_dropShadow_75_308" result="shape"/>
</filter>
<filter id="filter1_d_75_308" x="161" y="109" width="48" height="48" filterUnits="userSpaceOnUse" color-interpolation-filters="sRGB">
<feFlood flood-opacity="0" result="BackgroundImageFix"/>
<feColorMatrix in="SourceAlpha" type="matrix" values="0 0 0 0 0 0 0 0 0 0 0 0 0 0 0 0 0 0 127 0" result="hardAlpha"/>
<feOffset dy="4"/>
<feGaussianBlur stdDeviation="8"/>
<feColorMatrix type="matrix" values="0 0 0 0 0.0705882 0 0 0 0 0.0980392 0 0 0 0 0.356863 0 0 0 0.08 0"/>
<feBlend mode="normal" in2="BackgroundImageFix" result="effect1_dropShadow_75_308"/>
<feBlend mode="normal" in="SourceGraphic" in2="effect1_dropShadow_75_308" result="shape"/>
</filter>
<linearGradient id="paint0_linear_75_308" x1="232.5" y1="22" x2="232.5" y2="168" gradientUnits="userSpaceOnUse">
<stop stop-color="#BCB0FF"/>
<stop offset="1" stop-color="#BCB0FF" stop-opacity="0"/>
</linearGradient>
<linearGradient id="paint1_linear_75_308" x1="138.5" y1="22" x2="138.5" y2="168" gradientUnits="userSpaceOnUse">
<stop stop-color="#BCB0FF"/>
<stop offset="1" stop-color="#BCB0FF" stop-opacity="0"/>
</linearGradient>
<linearGradient id="paint2_linear_75_308" x1="91.5" y1="22" x2="91.5" y2="168" gradientUnits="userSpaceOnUse">
<stop stop-color="#BCB0FF"/>
<stop offset="1" stop-color="#BCB0FF" stop-opacity="0"/>
</linearGradient>
<linearGradient id="paint3_linear_75_308" x1="44.5" y1="22" x2="44.5" y2="168" gradientUnits="userSpaceOnUse">
<stop stop-color="#BCB0FF"/>
<stop offset="1" stop-color="#BCB0FF" stop-opacity="0"/>
</linearGradient>
<linearGradient id="paint4_linear_75_308" x1="328" y1="22" x2="328" y2="165" gradientUnits="userSpaceOnUse">
<stop stop-color="#BCB0FF"/>
<stop offset="1" stop-color="#BCB0FF" stop-opacity="0"/>
</linearGradient>
<linearGradient id="paint5_linear_75_308" x1="280" y1="22" x2="280" y2="168" gradientUnits="userSpaceOnUse">
<stop stop-color="#BCB0FF"/>
<stop offset="1" stop-color="#BCB0FF" stop-opacity="0"/>
</linearGradient>
<linearGradient id="paint6_linear_75_308" x1="177.5" y1="112" x2="177.5" y2="168.5" gradientUnits="userSpaceOnUse">
<stop stop-color="#FECD34"/>
<stop offset="1" stop-color="#FECD34" stop-opacity="0"/>
</linearGradient>
<linearGradient id="paint7_linear_75_308" x1="45" y1="169" x2="311" y2="169" gradientUnits="userSpaceOnUse">
<stop stop-color="#FFCE12"/>
<stop offset="0.457431" stop-color="#FFCE12"/>
<stop offset="1" stop-color="#FFCE12" stop-opacity="0"/>
</linearGradient>
</defs>
</svg>
