<svg width="106" height="24" viewBox="0 0 106 24" fill="none" xmlns="http://www.w3.org/2000/svg">
<path fill-rule="evenodd" clip-rule="evenodd" d="M17.4858 23.3069L16.0665 19.4526C15.9529 19.2117 15.7258 19.031 15.4988 19.031H7.66422C7.43713 19.031 7.21004 19.2117 7.0965 19.4526L5.73397 23.2467C5.62043 23.4876 5.39334 23.6683 5.16625 23.6683H0.624492C0.28386 23.6683 0 23.3672 0 23.0058C0 22.9456 0 22.8251 0.056772 22.7649L8.96998 0.421573C9.08352 0.180674 9.31061 0 9.53769 0H13.9659C14.193 0 14.4201 0.180674 14.5336 0.421573L23.3333 22.8854C23.4468 23.1865 23.3333 23.6081 22.9927 23.7285C22.9359 23.7887 22.8223 23.7887 22.7656 23.7887H18.0535C17.8264 23.7285 17.5993 23.5478 17.4858 23.3069ZM11.0705 8.00988L9.08352 13.671C8.96998 14.0323 9.14029 14.3937 9.42415 14.5141C9.44767 14.5141 9.47118 14.5245 9.49873 14.5366C9.53769 14.5537 9.58473 14.5744 9.65124 14.5744H13.5685C13.9091 14.5744 14.193 14.2732 14.193 13.9119C14.193 13.8517 14.193 13.7914 14.1362 13.671L12.206 8.00988C12.0924 7.64853 11.7518 7.52808 11.4112 7.64853C11.2409 7.64853 11.1273 7.82921 11.0705 8.00988Z" fill="#422A47"/>
<path d="M26.1151 23.1865V2.34876C26.1151 2.04764 26.3422 1.80674 26.6261 1.80674H30.1459C30.4298 1.80674 30.6569 2.04764 30.6569 2.34876V23.1865C30.6569 23.4876 30.4298 23.7285 30.1459 23.7285H26.6261C26.3422 23.7285 26.1151 23.4876 26.1151 23.1865Z" fill="#422A47"/>
<path d="M39.4566 5.661C39.7404 4.99853 39.7404 4.27583 39.4566 3.61336C39.1727 2.95089 38.6618 2.46909 38.094 2.16797C37.7534 2.04752 37.4128 1.9873 37.0721 1.9873C36.7315 1.9873 36.3909 2.10775 36.0502 2.22819C35.7664 2.40887 35.4825 2.58954 35.2554 2.70999C34.9716 2.95089 34.8013 3.25201 34.6877 3.55314C34.5742 3.91448 34.5174 4.21561 34.5174 4.57696C34.5174 5.29965 34.8013 5.96212 35.2554 6.44392C35.7096 6.98594 36.3909 7.22684 37.0721 7.22684C37.4128 7.22684 37.7534 7.16662 38.094 7.04617C38.7185 6.80527 39.1727 6.32347 39.4566 5.661Z" fill="#422A47"/>
<path d="M34.8013 9.8165V23.1864C34.8013 23.4875 35.0284 23.7284 35.3122 23.7284H38.7753C39.0592 23.7284 39.2862 23.4875 39.2862 23.1864V9.8165C39.2862 9.51538 39.0592 9.27448 38.7753 9.27448H35.3122C35.0284 9.27448 34.8013 9.51538 34.8013 9.8165Z" fill="#422A47"/>
<path d="M51.9464 4.63736C51.9464 4.93848 51.6625 5.17938 51.3787 5.11915H51.3219C51.0948 5.05893 50.8677 5.05893 50.6406 5.05893C50.3 5.05893 49.9594 5.11915 49.6187 5.29983C49.3916 5.42028 49.1646 5.66118 48.9942 5.90207C48.8239 6.2032 48.7671 6.50432 48.7104 6.80545C48.6536 7.10657 48.6536 7.46792 48.6536 7.76904V8.67241C48.6536 8.97353 48.8807 9.21443 49.1646 9.21443H51.1516C51.4354 9.21443 51.6625 9.45533 51.6625 9.75645V12.2257C51.6625 12.5268 51.4354 12.7677 51.1516 12.7677H49.1646C48.8807 12.7677 48.6536 13.0086 48.6536 13.3097V23.0661C48.6536 23.3672 48.4265 23.6081 48.1427 23.6081H44.6796C44.3957 23.6081 44.1686 23.3672 44.1686 23.0661V13.3699C44.1686 13.0688 43.9415 12.8279 43.6577 12.8279H42.2384C41.9545 12.8279 41.7274 12.587 41.7274 12.2859V9.81668C41.7274 9.51555 41.9545 9.27466 42.2384 9.27466H43.6577C43.9415 9.27466 44.1686 9.03376 44.1686 8.73263V7.88949C44.1686 7.04634 44.2822 6.2032 44.4525 5.36005C44.6228 4.57713 44.9634 3.85444 45.4176 3.25219C45.8718 2.58972 46.4963 2.10792 47.2343 1.8068C48.1427 1.44545 49.1078 1.26478 50.0729 1.26478C50.4703 1.26478 50.8109 1.26478 51.2083 1.325C51.4354 1.325 51.6057 1.38523 51.7761 1.44545C52.0599 1.50568 52.2302 1.74657 52.1735 2.0477L51.9464 4.63736Z" fill="#422A47"/>
<path fill-rule="evenodd" clip-rule="evenodd" d="M68.8645 11.8643C69.4151 12.1655 69.8977 12.5449 70.3008 13.0086C70.7095 13.4723 71.0331 14.0144 71.2716 14.6287C71.51 15.249 71.6292 15.9476 71.6292 16.7184C71.6292 17.9952 71.3851 19.0732 70.9082 19.9465C70.4314 20.8197 69.7955 21.5184 69.0064 22.0483C68.2116 22.5783 67.3146 22.9637 66.304 23.1926C65.2935 23.4275 64.2603 23.5419 63.1986 23.5419H55.1313C54.7169 23.5419 54.3876 23.1866 54.3876 22.753V0.87334C54.3876 0.4337 54.7226 0.0843969 55.1313 0.0843969H63.1929C64.0445 0.0843969 64.9188 0.180756 65.8158 0.367453C66.7128 0.560172 67.5246 0.879362 68.2513 1.33105C68.9837 1.78273 69.5741 2.39702 70.034 3.1679C70.4938 3.9448 70.7209 4.92646 70.7209 6.11891C70.7209 7.41976 70.3859 8.49778 69.7217 9.34695C69.0575 10.1961 68.1832 10.8104 67.0989 11.1838V11.25C67.7233 11.3645 68.3138 11.5632 68.8645 11.8643ZM60.2919 4.5892C59.8775 4.5892 59.5482 4.94453 59.5482 5.37814H59.5368V8.6363C59.5368 9.07594 59.8718 9.42524 60.2805 9.42524H62.4152C63.4143 9.42524 64.1921 9.20843 64.7428 8.78084C65.2935 8.35324 65.5717 7.71486 65.5717 6.87774C65.5717 6.08277 65.2878 5.50462 64.7144 5.13724C64.141 4.76987 63.2951 4.5892 62.171 4.5892H60.2919ZM65.0551 18.4409C65.4184 18.2421 65.7193 17.9591 65.9464 17.5977C66.1735 17.2304 66.2927 16.7606 66.2927 16.1824C66.2927 15.2068 65.9464 14.5323 65.2594 14.1589C64.5725 13.7855 63.6585 13.5988 62.5117 13.5988H60.2862C59.8718 13.5988 59.5425 13.9541 59.5425 14.3878V18.1819C59.5425 18.6215 59.8775 18.9708 60.2862 18.9708H62.5401C62.9545 18.9708 63.386 18.9347 63.8345 18.8564C64.283 18.7781 64.6917 18.6396 65.0551 18.4409Z" fill="#422A47"/>
<path d="M100.464 19.3624C99.9017 19.6815 99.2147 19.8321 98.4029 19.8321C97.943 19.8321 97.5002 19.7478 97.0744 19.5912C96.6486 19.4346 96.2626 19.2178 95.922 18.9408C95.922 18.9408 95.7403 18.8143 95.5018 18.5313C95.4507 18.471 95.3997 18.4048 95.3542 18.3385C95.3259 18.3024 95.2975 18.2602 95.2691 18.2181C95.2599 18.2057 95.2506 18.1933 95.2412 18.1809L95.2296 18.1654C95.179 18.0984 95.1279 18.0307 95.0874 17.9591C95.0674 17.9238 95.0533 17.8865 95.0394 17.8495C95.0295 17.8234 95.0197 17.7973 95.0079 17.7724C94.673 17.116 94.3664 16.1524 94.355 14.7793C94.355 14.6046 94.3607 14.442 94.3721 14.2854L90.6819 19.4286C91.102 20.3079 91.63 21.0727 92.2942 21.6991C93.072 22.4459 93.9803 23.012 95.0193 23.4034C96.0582 23.7949 97.1596 23.9936 98.3291 23.9997C99.913 24.0117 101.304 23.7106 102.502 23.1144C103.49 22.6205 104.319 21.946 104.994 21.1028C105.227 20.8138 105.17 20.3741 104.869 20.1694L102.286 18.4168C102.053 18.2602 101.747 18.2964 101.559 18.5072C101.236 18.8444 100.878 19.1275 100.464 19.3624Z" fill="#422A47"/>
<path d="M103.853 8.86514C104.54 9.64204 105.068 10.5815 105.448 11.6897C105.829 12.7918 106.016 14.0565 105.999 15.4718L105.993 16.1343C105.993 16.3511 105.982 16.5618 105.959 16.7606L98.9479 16.7124C98.4596 16.7064 98.0736 16.2728 98.102 15.7548L98.1871 14.1348C98.2098 13.6831 98.5675 13.3278 98.9933 13.3338L101.298 13.3579C101.304 12.4967 101.048 11.7559 100.543 11.1356C100.038 10.5153 99.2771 10.2021 98.2552 10.1961C97.7556 10.1961 97.3015 10.2744 96.8813 10.437C96.6883 10.5093 96.5123 10.5996 96.342 10.702L96.2512 10.7562C96.2512 10.7562 95.5983 11.0935 95.0249 12.0089L88.9162 20.3741C88.9077 20.3861 88.8978 20.3982 88.8878 20.4102C88.8779 20.4222 88.868 20.4343 88.8595 20.4463L88.7743 20.5608C88.059 21.5725 87.145 22.3735 86.0265 22.9336C84.8287 23.5298 83.4377 23.831 81.8538 23.8189C80.6843 23.8129 79.5829 23.6142 78.544 23.2227C77.5051 22.8312 76.5967 22.2651 75.8189 21.5183C75.0412 20.7716 74.4337 19.8561 73.9909 18.7721C73.5481 17.688 73.3323 16.4474 73.338 15.0562C73.3437 13.7132 73.5708 12.4907 74.0136 11.4006C74.4564 10.3105 75.0525 9.38909 75.8076 8.63026C76.5627 7.87143 77.4483 7.28725 78.4702 6.8717C79.4921 6.46218 80.5991 6.25741 81.7857 6.26343C82.9325 6.26946 83.9828 6.48024 84.9365 6.89579C85.8903 7.31134 86.7135 7.90757 87.3948 8.68447C88.1214 9.51557 88.6778 10.5334 89.0639 11.7439C89.0639 11.7493 89.0627 11.7547 89.0614 11.7607C89.0599 11.768 89.0582 11.7761 89.0582 11.786L85.7597 16.1824C85.578 16.4233 85.3055 16.5558 85.0217 16.5558L82.4556 16.5317C81.9901 16.5257 81.6154 16.1102 81.6437 15.6103L81.7346 13.8758C81.7573 13.4663 82.0752 13.1471 82.4613 13.1531L84.84 13.1772C84.8457 12.316 84.5902 11.5752 84.0849 10.9549C83.5797 10.3346 82.8189 10.0215 81.797 10.0154C81.2974 10.0154 80.8433 10.0937 80.4231 10.2563C80.2301 10.3286 80.0541 10.4189 79.8838 10.5213V10.4912C79.8838 10.4912 77.8571 11.4668 77.8854 14.5985C77.8968 15.9716 78.2034 16.9352 78.5383 17.5917C78.5501 17.6166 78.5599 17.6426 78.5697 17.6687C78.5837 17.7057 78.5978 17.7431 78.6178 17.7784C78.6582 17.8499 78.7094 17.9176 78.7599 17.9846C78.7732 18.0022 78.7865 18.0198 78.7995 18.0374C78.8278 18.0795 78.8563 18.1217 78.8846 18.1578C78.93 18.224 78.9811 18.2903 79.0322 18.3505C79.2707 18.6336 79.4523 18.76 79.4523 18.76C79.793 19.0371 80.179 19.2539 80.6048 19.4105C81.0306 19.5671 81.4734 19.6514 81.9333 19.6514C82.7451 19.6514 83.4321 19.5008 83.9941 19.1816C84.5505 18.8685 85.0046 18.4649 85.3623 17.9651H85.368L91.8286 9.29876V9.28671C92.6689 8.293 93.7021 7.54622 94.9284 7.05238C95.9503 6.64285 97.0574 6.43809 98.2439 6.44411C99.3907 6.45013 100.441 6.66092 101.395 7.07647C102.348 7.49202 103.172 8.08824 103.853 8.86514Z" fill="#422A47"/>
</svg>
