<svg width="85" height="83" viewBox="0 0 85 83" fill="none" xmlns="http://www.w3.org/2000/svg">
<g clip-path="url(#clip0_2_58)">
<path d="M39.4694 65.8064C39.3195 65.6158 39.1322 65.458 38.9191 65.3429C38.706 65.2277 38.4717 65.1576 38.2305 65.1368C38.1753 64.5437 37.9456 63.9804 37.5706 63.5185C37.3383 63.2369 37.0495 63.0074 36.723 62.8449C36.3966 62.6825 36.0397 62.5907 35.6756 62.5755C36.4671 61.6933 37.3543 60.9025 38.3208 60.2179C39.2326 59.5898 38.6968 58.1054 37.5518 58.3883L37.3112 58.4543C35.7245 58.411 34.3276 59.586 33.162 60.6139C31.5621 62.0342 30.342 63.9278 28.4507 65.0067C26.6873 66.0195 24.4087 65.7045 22.4742 65.3443C21.1088 64.4517 19.884 63.3595 18.8401 62.104C19.3655 62.2687 19.9106 62.3619 20.4607 62.3812C21.9064 62.3548 22.4309 61.0119 21.8933 59.7954C21.6056 59.1465 21.1413 58.5996 20.8141 57.9772C20.3836 57.1774 20.4757 57.3698 20.4889 56.4683C20.5133 54.982 20.6449 52.4452 20.5641 50.9552C20.4099 48.1524 18.7386 46.1607 15.7908 45.6627C12.2376 45.0648 9.69765 47.1131 8.34593 49.5047C7.23297 51.472 7.21795 54.7557 7.75563 57.019C7.03371 56.7851 6.34938 57.036 5.98466 57.1661C4.26445 57.6546 1.61553 59.1918 1.07973 59.8067C-0.540836 61.6928 1.96709 76.4497 3.09885 77.7908C7.50371 83.0059 23.3145 82.3174 23.5082 82.4061C23.6097 80.784 23.1811 77.108 22.1433 75.7066L22.3595 75.7745C24.7645 76.4947 27.3165 76.565 29.7573 75.9782C32.0484 75.4151 34.1743 74.3164 35.9613 72.7718C36.8169 72.0338 37.5823 71.1968 38.2418 70.2784C38.5626 69.8409 38.8546 69.3828 39.116 68.9072C39.7364 67.9717 40.2045 66.8136 39.4694 65.8064Z" fill="white"/>
<path d="M23.51 82.4185C23.6116 80.7964 23.1829 77.1204 22.1452 75.719L22.3614 75.7869C23.0189 75.9811 23.6892 76.1286 24.3673 76.2283C21.8124 75.14 19.3533 73.7518 16.8605 72.3882C16.7495 73.8669 17.6801 75.521 18.3024 76.7507C19.0883 78.3086 19.8835 79.8534 20.9344 81.2566C21.2315 81.6527 21.5436 82.0375 21.8744 82.409C22.8596 82.4147 23.4724 82.4034 23.51 82.4185Z" fill="#DFDBDA"/>
<path d="M79.2034 46.1061C77.9231 42.8997 43.0809 44.1446 40.0579 47.3114C38.6178 48.8203 37.1834 51.0496 35.9914 58.4394C35.9144 58.911 37.0236 57.9151 38.0594 58.4262C39.8003 59.292 37.221 60.6896 35.5365 62.1626C36.1005 62.3343 36.7209 62.3965 37.0894 62.9755C37.3206 63.3396 37.2134 64.5278 37.5988 64.7541C37.9391 64.9522 38.7513 65.1106 39.1029 65.2898C40.9246 66.2083 39.6668 68.0341 38.8114 69.426C37.6834 71.2612 35.0514 74.2168 34.1791 74.5374C34.1791 76.9158 34.5833 79.2527 35.0721 79.5507C36.3486 80.3315 71.6307 82.6062 73.71 81.8725C75.7893 81.1388 80.4836 49.3182 79.2034 46.1061Z" fill="#DFDBDA"/>
<path d="M44.0097 58.164C44.1368 58.1634 44.2625 58.1376 44.3796 58.0881C44.4967 58.0386 44.6029 57.9663 44.6921 57.8755C44.8893 57.6912 45.0212 57.4475 45.0681 57.1814C45.095 57.0628 45.0977 56.9401 45.076 56.8205C45.0544 56.7009 45.0088 56.5869 44.9422 56.4854C44.8781 56.392 44.7912 56.3166 44.6899 56.2664C44.5885 56.2162 44.476 56.1929 44.3631 56.1987C44.1068 56.2001 43.8615 56.3031 43.6807 56.4854C43.4831 56.6701 43.3511 56.9145 43.3047 57.1814C43.2779 57.2996 43.2752 57.4221 43.2969 57.5413C43.3185 57.6606 43.364 57.7743 43.4307 57.8755C43.4942 57.9695 43.581 58.0455 43.6824 58.096C43.7839 58.1466 43.8966 58.17 44.0097 58.164Z" fill="#292F3A"/>
<path d="M46.2994 58.164C46.4265 58.1634 46.5523 58.1376 46.6694 58.0881C46.7865 58.0386 46.8927 57.9663 46.9819 57.8755C47.179 57.6912 47.311 57.4475 47.3579 57.1814C47.3847 57.0628 47.3874 56.9401 47.3658 56.8205C47.3441 56.7009 47.2986 56.5869 47.2319 56.4854C47.1679 56.392 47.081 56.3166 46.9796 56.2664C46.8783 56.2162 46.7658 56.1929 46.6529 56.1987C46.5259 56.199 46.4002 56.2244 46.2831 56.2736C46.166 56.3228 46.0597 56.3948 45.9704 56.4854C45.7729 56.6701 45.6408 56.9145 45.5944 57.1814C45.5672 57.2996 45.5643 57.4221 45.586 57.5415C45.6076 57.6608 45.6534 57.7745 45.7204 57.8755C45.784 57.9695 45.8707 58.0455 45.9722 58.096C46.0736 58.1466 46.1863 58.17 46.2994 58.164Z" fill="#292F3A"/>
<path d="M49.9766 67.7086C49.7326 67.7086 49.4978 67.8024 49.3205 67.9707C49.0929 68.1803 48.9475 68.4646 48.9107 68.7723C48.8741 68.9896 48.9226 69.2125 49.046 69.3948C49.1112 69.4852 49.1982 69.5577 49.2987 69.6055C49.3993 69.6533 49.5102 69.6749 49.6213 69.6682C49.8769 69.669 50.1224 69.5679 50.3037 69.3872C50.4826 69.2195 50.6077 69.0022 50.6628 68.7629C50.7009 68.6281 50.7094 68.4866 50.6877 68.3482C50.6659 68.2098 50.6145 68.0778 50.5369 67.9613C50.4704 67.8774 50.3848 67.8106 50.2874 67.7666C50.1899 67.7227 50.0833 67.7028 49.9766 67.7086Z" fill="#292F3A"/>
<path d="M47.702 67.7085C47.4579 67.7085 47.2231 67.8023 47.0458 67.9706C46.8182 68.1801 46.6728 68.4645 46.636 68.7722C46.5995 68.9894 46.6479 69.2124 46.7714 69.3946C46.8361 69.487 46.9232 69.5613 47.0245 69.6105C47.1259 69.6596 47.238 69.6821 47.3504 69.6757C47.606 69.6764 47.8515 69.5753 48.0328 69.3946C48.2117 69.227 48.3367 69.0096 48.3919 68.7703C48.43 68.6355 48.4385 68.494 48.4167 68.3556C48.395 68.2172 48.3436 68.0852 48.266 67.9687C48.1999 67.8829 48.1141 67.8144 48.0159 67.769C47.9176 67.7237 47.8099 67.7029 47.702 67.7085Z" fill="#292F3A"/>
<path d="M53.0054 64.4264C53.0005 64.4691 52.9813 64.5088 52.9509 64.5389C52.9204 64.5691 52.8807 64.588 52.8381 64.5924H51.5428C51.0521 64.5924 50.7419 64.4453 50.6028 64.1511C50.4641 63.7949 50.4365 63.4048 50.5238 63.0326L51.069 59.9809C51.0859 59.8884 51.0371 59.8149 50.96 59.8149H49.565C49.5221 59.8189 49.4819 59.8376 49.4511 59.8678C49.4203 59.898 49.4008 59.9379 49.3958 59.9809L48.7284 63.7116C48.6965 63.9386 48.6205 64.1571 48.5047 64.3548C48.4536 64.4331 48.3825 64.4965 48.299 64.5382C48.2154 64.58 48.1222 64.5987 48.0291 64.5924H47.0082C46.9311 64.5924 46.8822 64.5189 46.8992 64.4264L47.2301 62.5762C47.317 62.1269 47.3322 61.6666 47.2752 61.2125C47.2301 60.8331 47.1017 60.4685 46.8992 60.145C46.7076 59.8495 46.4417 59.6101 46.1284 59.4509C45.7844 59.2806 45.4046 59.1959 45.021 59.2038C44.5639 59.2042 44.1131 59.312 43.705 59.5188C43.2815 59.7342 42.8995 60.0235 42.577 60.3732C42.228 60.7501 41.9343 61.175 41.7047 61.635C41.4652 62.1112 41.2949 62.6193 41.199 63.1439C41.126 63.5521 41.1108 63.9687 41.1539 64.3812C41.1919 64.7698 41.3207 65.1439 41.5299 65.4732C41.7493 65.8069 42.0528 66.0763 42.4097 66.2541C42.8684 66.4673 43.3709 66.5688 43.8761 66.5502H47.7414C48.1407 66.5552 48.5327 66.4431 48.8694 66.2277C49.1311 66.0616 49.3646 65.8546 49.5613 65.6147C49.6346 65.5242 49.7493 65.526 49.785 65.6147C49.8773 65.8268 50.0044 66.0219 50.161 66.1918C50.2879 66.3173 50.4402 66.414 50.6075 66.4755C50.7749 66.537 50.9534 66.5618 51.1311 66.5483H54.1391C54.1816 66.5439 54.2214 66.525 54.2518 66.4948C54.2822 66.4647 54.3015 66.425 54.3064 66.3823L55.4532 59.9696C55.4701 59.8771 55.4212 59.8036 55.3442 59.8036H53.9473C53.9048 59.808 53.865 59.8269 53.8346 59.8571C53.8041 59.8872 53.7849 59.9269 53.78 59.9696L53.0054 64.4264ZM45.2316 64.4264C45.2267 64.4691 45.2074 64.5088 45.177 64.5389C45.1466 64.5691 45.1068 64.588 45.0643 64.5924H44.1694C43.9725 64.5936 43.7768 64.5618 43.5904 64.4981C43.4153 64.4398 43.2593 64.3348 43.1392 64.1945C43.0099 64.0377 42.922 63.8509 42.8835 63.6512C42.8346 63.3852 42.8391 63.1121 42.8966 62.8478C42.9384 62.5926 43.0216 62.346 43.1429 62.1178C43.251 61.915 43.3885 61.7294 43.5509 61.5671C43.7307 61.384 43.9482 61.2424 44.1882 61.1521C44.3013 61.1148 44.4189 61.0926 44.5379 61.0861C44.7201 61.0642 44.9046 61.1027 45.0631 61.1956C45.2216 61.2886 45.3454 61.4309 45.4158 61.601C45.565 61.9456 45.5819 62.4397 45.4666 63.0835L45.2316 64.4264Z" fill="#292F3A"/>
<path d="M53.0185 67.7106C52.7626 67.7112 52.5171 67.812 52.3342 67.9916C52.1354 68.1738 52.0031 68.4175 51.9582 68.6838C51.929 68.8045 51.9252 68.9299 51.9472 69.052C51.9693 69.1742 52.0165 69.2903 52.0861 69.393C52.152 69.4851 52.2399 69.559 52.3417 69.6081C52.4436 69.6572 52.556 69.6799 52.6689 69.6741C52.9199 69.6713 53.16 69.5705 53.3382 69.393C53.5387 69.2053 53.6711 68.9557 53.7142 68.6838C53.7414 68.5656 53.7437 68.443 53.7211 68.3238C53.6984 68.2047 53.6512 68.0915 53.5826 67.9916C53.5195 67.9012 53.4348 67.8281 53.3362 67.7791C53.2377 67.73 53.1285 67.7064 53.0185 67.7106Z" fill="#292F3A"/>
<path d="M66.5114 64.4276C66.5064 64.4706 66.4869 64.5105 66.4561 64.5407C66.4253 64.5709 66.3851 64.5896 66.3422 64.5936H65.3101C65.0224 64.5936 64.7837 64.5936 64.5975 64.5748C64.4791 64.5748 64.4565 64.3862 64.5618 64.29C65.0852 63.8118 65.534 63.2574 65.8929 62.6453C66.1782 62.1504 66.3832 61.613 66.5001 61.0534C66.537 60.829 66.5176 60.5989 66.4437 60.3838C66.3599 60.1407 66.2171 59.9223 66.0282 59.7482C65.797 59.537 65.5232 59.3781 65.2255 59.2823C64.8182 59.1539 64.3926 59.094 63.9659 59.105C63.6329 59.1066 63.3012 59.1459 62.977 59.222C62.6345 59.3031 62.2988 59.411 61.9731 59.5445C61.6424 59.6793 61.3219 59.8382 61.0142 60.0198C60.7461 60.1757 60.4891 60.3503 60.2453 60.5423C60.2017 60.5766 60.1734 60.6267 60.1664 60.6818L59.9972 61.9248C59.9953 61.9411 59.9953 61.9575 59.9972 61.9738C60.0231 62.1421 60.0646 62.3075 60.1212 62.468C60.1927 62.6755 60.2792 62.8961 60.3845 63.1281C60.4897 63.3601 60.61 63.594 60.7435 63.8316C60.8281 63.9806 60.9146 64.1221 61.003 64.2541C61.0163 64.2806 61.0235 64.3097 61.024 64.3394C61.0246 64.369 61.0185 64.3984 61.0062 64.4254C60.994 64.4524 60.9758 64.4762 60.9531 64.4952C60.9304 64.5142 60.9038 64.5279 60.8751 64.5352L60.7172 64.5597C60.5251 64.5836 60.3317 64.5949 60.1382 64.5936H60.0348C59.5272 64.5936 59.2076 64.4465 59.0797 64.1523C58.9455 63.7949 58.9206 63.4055 59.0083 63.0338L59.5535 59.9821C59.5704 59.8897 59.5215 59.8161 59.4444 59.8161H58.0476C58.0051 59.8205 57.9653 59.8394 57.9349 59.8696C57.9044 59.8998 57.8852 59.9394 57.8803 59.9821L56.7654 66.1346C56.6989 66.6236 56.54 67.0953 56.2973 67.5246C56.1948 67.681 56.0527 67.8073 55.8855 67.8905C55.7184 67.9737 55.5322 68.0108 55.346 67.9981C55.2272 67.9976 55.1085 67.9894 54.9907 67.9735C54.8629 67.9566 54.7407 67.9358 54.6279 67.9132L54.3778 67.8491C54.3344 67.8455 54.2912 67.8581 54.2565 67.8846C54.2218 67.9111 54.198 67.9494 54.1898 67.9924L53.7555 69.6012C53.7485 69.6178 53.7448 69.6356 53.7446 69.6537C53.7445 69.6717 53.7479 69.6896 53.7548 69.7063C53.7616 69.7229 53.7717 69.7381 53.7844 69.7508C53.7971 69.7636 53.8122 69.7736 53.8289 69.7804L53.8909 69.7936L54.0977 69.8276C54.2124 69.8502 54.3477 69.871 54.5057 69.8879C54.6724 69.905 54.84 69.9132 55.0076 69.9125C55.4366 69.9174 55.8609 69.8218 56.2466 69.6333C56.6274 69.4432 56.9683 69.1813 57.2505 68.8619C57.5537 68.5195 57.8011 68.1312 57.9837 67.7114C58.1852 67.2563 58.3298 66.778 58.4142 66.2874L58.4292 66.2044C58.4537 66.0686 58.5984 65.9875 58.6736 66.0723C58.7651 66.172 58.8672 66.2611 58.9782 66.3383C59.1952 66.488 59.4538 66.5652 59.7171 66.559H59.7753C60.2193 66.5563 60.6612 66.4993 61.0913 66.3892C61.5238 66.2842 61.9395 66.1191 62.3265 65.8988C62.3457 65.8859 62.3683 65.879 62.3914 65.879C62.4145 65.879 62.437 65.8859 62.4562 65.8988C62.7285 66.0765 63.0207 66.2215 63.3267 66.3307C63.8421 66.5054 64.3846 66.5859 64.9284 66.5684H67.6507C67.6932 66.5639 67.733 66.5451 67.7634 66.5149C67.7938 66.4847 67.8131 66.445 67.818 66.4024L69.9255 54.5935C69.9424 54.5029 69.8935 54.4275 69.8164 54.4275H68.4346C68.3921 54.4319 68.3523 54.4508 68.3219 54.481C68.2915 54.5111 68.2722 54.5508 68.2673 54.5935L66.5114 64.4276ZM64.6163 61.9757C64.4891 62.1961 64.3438 62.4055 64.1821 62.6019C63.9966 62.8253 63.7949 63.0346 63.5786 63.2281C63.3855 63.401 63.1793 63.5587 62.9619 63.6996C62.9408 63.7171 62.9142 63.7266 62.8867 63.7266C62.8593 63.7266 62.8327 63.7171 62.8115 63.6996C62.6657 63.552 62.5347 63.3902 62.4205 63.2168C62.2777 63.0057 62.1471 62.7865 62.0295 62.5604C61.9251 62.3581 61.8316 62.1503 61.7493 61.938C61.7061 61.8248 61.6722 61.7286 61.6478 61.6475C61.637 61.6032 61.6408 61.5566 61.6588 61.5147C61.6768 61.4729 61.7079 61.438 61.7475 61.4155C62.0041 61.2838 62.2755 61.1831 62.5559 61.1156C62.8996 61.0246 63.2532 60.9765 63.6087 60.9723C63.7619 60.9717 63.9151 60.9799 64.0674 60.9968C64.2038 61.0121 64.3389 61.0373 64.4716 61.0723C64.5756 61.0979 64.6722 61.1477 64.7536 61.2175C64.7859 61.2449 64.8101 61.2807 64.8237 61.3209C64.8373 61.3611 64.8397 61.4042 64.8307 61.4457C64.7893 61.6361 64.7169 61.8184 64.6163 61.9851V61.9757Z" fill="#292F3A"/>
<path d="M70.9802 54.5935L68.8709 66.393C68.8558 66.4835 68.9047 66.559 68.9799 66.559H70.3617C70.4042 66.5545 70.444 66.5357 70.4744 66.5055C70.5048 66.4753 70.5241 66.4356 70.529 66.393L72.6383 54.5935C72.6553 54.5029 72.6064 54.4275 72.5312 54.4275H71.1494C71.1065 54.4315 71.0663 54.4502 71.0355 54.4804C71.0047 54.5106 70.9852 54.5505 70.9802 54.5935Z" fill="#292F3A"/>
<path d="M21.9854 9.76609C21.5116 7.67628 24.5516 2.65168 28.9527 2.41026C31.8385 2.2556 33.2184 6.26735 31.8705 8.66272C30.5225 11.0581 22.4648 11.8578 21.9854 9.76609Z" fill="#C4C2C2"/>
<path d="M17.6613 12.5837C21.2916 5.46556 31.2086 11.3578 31.6598 16.6144C31.9361 19.1908 29.0748 20.6016 26.9241 20.728C23.5382 21.009 14.0347 19.7 17.6613 12.5837Z" fill="#292F3A"/>
<path d="M15.473 4.10947C16.0675 4.11351 16.6608 4.16333 17.2477 4.25847C17.1728 3.68882 16.9022 3.16322 16.4826 2.77222C16.1066 2.44403 15.5783 2.32143 15.1666 2.07435C15.1069 2.12313 15.0387 2.16024 14.9654 2.18375C14.8634 2.23448 14.7501 2.25786 14.6364 2.25165C14.4854 2.24895 14.3379 2.20528 14.2097 2.12528C14.1342 2.07788 14.0648 2.02152 14.0029 1.95741C13.8888 1.83623 13.8068 1.68842 13.7641 1.52738C13.7538 1.48516 13.7463 1.44232 13.7415 1.39913V1.40856C13.7415 1.40856 13.7415 1.39347 13.7415 1.38404C13.7405 1.36582 13.7405 1.34756 13.7415 1.32934C13.7091 1.18529 13.7176 1.035 13.766 0.895533C13.8102 0.744102 13.8932 0.606914 14.0066 0.497566C14.0883 0.410667 14.1904 0.345802 14.3037 0.308954C14.4127 0.25505 14.5338 0.230359 14.6552 0.237281C14.8166 0.240735 14.9742 0.286933 15.112 0.371193C15.1778 0.420232 15.2418 0.471163 15.3 0.523974C15.4099 0.639112 15.4882 0.780734 15.5275 0.935145C15.5381 0.975947 15.545 1.0176 15.5482 1.05963C16.3115 1.15205 17.1086 1.79898 17.5354 2.33653C17.7764 2.62356 17.9518 2.9601 18.0492 3.32245C18.1467 3.68481 18.1638 4.06418 18.0994 4.43388C18.3511 4.50328 18.5984 4.58768 18.8401 4.68662C18.9937 4.16323 19.0429 3.61459 18.9849 3.07211C18.904 2.56663 18.6389 2.11396 18.4829 1.62735C18.415 1.6277 18.3473 1.61882 18.2817 1.60094L18.1896 1.57642C18.1476 1.56775 18.1061 1.55641 18.0655 1.54247H18.0467L18.0073 1.5255L17.9509 1.50098C17.9235 1.49007 17.897 1.47681 17.8719 1.46137L17.8399 1.44628C17.747 1.38749 17.6676 1.30961 17.6069 1.21776C17.5463 1.12591 17.5057 1.02218 17.488 0.913445C17.4702 0.804706 17.4756 0.693422 17.5039 0.586944C17.5321 0.480466 17.5826 0.381216 17.6519 0.29575C17.7135 0.216128 17.7905 0.149959 17.8785 0.101308C17.9664 0.0526571 18.0634 0.0225502 18.1633 0.0128332C18.2665 -0.00925864 18.3737 -0.00273712 18.4735 0.0316955C18.4866 0.0316955 18.4979 0.0448976 18.513 0.0486698C18.6255 0.0702092 18.7323 0.114836 18.8267 0.17975C18.9212 0.244664 19.0013 0.328464 19.0619 0.425892C19.1652 0.503281 19.2378 0.61488 19.2669 0.740876C19.2904 0.846455 19.2904 0.955932 19.2669 1.06151C19.2307 1.18065 19.1592 1.28592 19.0619 1.36329L19.0375 1.3897C20.0301 2.27429 20.2012 3.8737 19.5733 5.03932C21.6808 6.2917 21.7973 8.52675 21.2051 9.99414L17.714 14.219C16.1062 14.2667 14.5149 13.8832 13.1042 13.1081C10.6903 11.8067 9.52843 4.05477 15.473 4.10947Z" fill="#292F3A"/>
<path d="M23.2471 20.5218C24.117 20.6688 24.997 20.7483 25.8791 20.7594C25.6917 20.1995 25.5959 19.6129 25.5952 19.0223C25.6284 18.0612 25.886 17.1212 26.3472 16.278C27.1556 14.7692 28.4998 13.7205 30.0245 13.0434C29.5987 12.5282 29.1246 12.0551 28.6088 11.6307C27.6317 11.9555 26.7286 12.4719 25.952 13.1499C25.1755 13.8279 24.5411 14.654 24.0856 15.5802C23.467 16.842 22.9105 18.9035 23.2471 20.5218Z" fill="#FDCA0C"/>
<path d="M27.0709 20.7158C27.6156 20.6689 28.1524 20.5542 28.6689 20.3744C28.6689 20.0066 28.605 19.6388 28.5993 19.2427C28.5838 18.5393 28.7468 17.8436 29.0731 17.2208C29.5581 16.3211 30.4022 15.6365 31.2934 15.1178C31.122 14.688 30.9078 14.2766 30.6542 13.8899C29.2874 14.2162 28.1688 15.1593 27.4845 16.4777C26.9129 17.581 26.4298 19.4973 27.0709 20.7158Z" fill="#FDCA0C"/>
<path d="M19.4362 19.3098C20.2524 19.74 21.1198 20.0645 22.0175 20.2755C22.0381 19.3626 21.9103 18.4554 22.1528 17.5293C22.4678 16.4219 22.9674 15.3761 23.6305 14.4361C24.7303 12.8291 26.1779 11.7955 27.8473 11.0505C27.1275 10.5493 26.3482 10.14 25.5274 9.83206C23.9428 10.5853 22.5775 11.7341 21.5625 13.1686C20.6695 14.4059 19.2651 17.2049 19.4362 19.3098Z" fill="#FDCA0C"/>
<path d="M18.6239 18.7958C16.9319 17.5453 16.1385 15.5781 17.6651 12.583L17.6989 12.5189C18.0525 11.8171 18.5303 11.1857 19.1089 10.6554C20.5208 9.3898 22.3049 9.09556 24.0985 9.43506H24.1097C22.7637 10.4177 21.4777 11.5098 20.5377 12.898C19.2443 14.7841 18.81 16.6211 18.6145 18.7996L18.6239 18.7958Z" fill="#FDCA0C"/>
<path d="M20.5434 10.87C19.265 9.15173 20.0113 3.32553 23.9387 1.31682C26.5143 -0.0034548 29.3907 3.10674 29.135 5.84349C28.8793 8.58024 21.8236 12.5863 20.5434 10.87Z" fill="white"/>
<path d="M30.8796 17.3309C31.5639 17.3045 33.7127 18.1042 33.5623 18.4324C33.5172 18.7643 31.1184 19.2887 30.4416 18.6757C29.9772 18.2494 30.199 17.3573 30.8796 17.3309Z" fill="#292F3A"/>
<path d="M12.7546 6.95714L13.0028 6.64782C13.1954 6.45998 13.4341 6.32658 13.6946 6.26116C13.8951 6.20067 14.1081 6.19546 14.3113 6.24608C14.5125 6.25847 14.7069 6.32349 14.8753 6.43469C15.0497 6.53279 15.1965 6.6736 15.302 6.84398C15.4346 6.99634 15.5265 7.18001 15.569 7.37774C15.569 7.40981 15.5803 7.44187 15.5859 7.47394C15.6338 7.66332 15.6338 7.86171 15.5859 8.05109C15.5843 8.18849 15.5453 8.32284 15.4731 8.43963C15.4084 8.62884 15.2957 8.79786 15.146 8.93002L14.8283 9.16578L14.4523 9.31478C14.2524 9.3753 14.04 9.38051 13.8375 9.32987C13.6362 9.3181 13.4416 9.25302 13.2735 9.14126C13.219 9.09976 13.1645 9.05638 13.1137 9.01112C13.0523 8.97892 12.9979 8.93466 12.9539 8.88097L12.7189 8.56222V8.55091C12.6907 8.48866 12.6663 8.42642 12.6437 8.36229C12.6118 8.30217 12.586 8.23898 12.5666 8.17368C12.5516 8.036 12.5365 7.89831 12.5196 7.76062V7.74365C12.5256 7.46498 12.6068 7.19316 12.7546 6.95714Z" fill="white"/>
<path d="M13.7284 6.73929C14.8564 6.76192 14.8263 8.52544 13.6946 8.5028C12.5628 8.48017 12.5967 6.71854 13.7284 6.73929Z" fill="#292F3A"/>
<path d="M84.9167 46.408C84.3527 45.2367 80.2392 44.2805 75.9754 44.2069C77.4361 44.8086 78.8123 45.7026 78.7315 47.485C78.7303 47.5078 78.7272 47.5306 78.7221 47.5529C78.7291 47.5857 78.7323 47.6193 78.7315 47.6528C76.9849 79.0453 73.945 79.3622 73.71 80.6598C73.475 81.9575 68.9931 82.3799 67.506 82.6063C73.913 82.6723 79.5549 82.9609 80.1151 82.1272C81.5439 79.9808 86.2364 49.1429 84.9167 46.408Z" fill="#FDCA0C"/>
<path d="M7.56387 56.3386C5.65002 56.0519 -0.217494 59.4149 0.00622633 60.4032C0.229947 61.3915 5.61052 57.8645 7.45105 57.1761C7.90037 57.1515 8.07335 56.4122 7.56387 56.3386Z" fill="#4C3451"/>
<path d="M23.5064 76.9521C29.2404 79.0589 34.9631 76.2787 38.9469 71.0863C40.0279 69.6773 41.1897 66.3257 40.0241 64.7452C39.5127 63.9322 37.8452 64.6282 38.1103 63.5267C36.9466 62.0669 37.5463 61.6614 38.8491 60.4675C40.152 59.2736 39.4244 57.5893 38.569 57.3422C36.9183 56.8631 33.2166 58.8265 32.0172 60.2506C28.5824 64.7772 26.285 66.967 20.8988 63.3985C24.7058 62.6742 23.5308 59.0038 21.0492 57.2441C22.0344 52.8363 20.6958 45.2673 15.4712 44.6222C11.3446 44.2865 8.15802 46.8592 7.1729 50.8332C6.71606 50.9313 4.19497 51.0633 5.00713 51.7895C5.42073 51.6688 6.78939 51.9234 6.78939 51.9234C6.78939 51.9234 6.56754 55.7465 7.85911 54.3376C7.56395 53.1229 7.68427 52.3346 8.09411 51.8234C9.26159 51.7668 15.9055 52.0894 18.5789 49.1036C20.2709 50.6672 18.6184 60.0091 20.5529 58.1853C24.9277 66.7501 13.4897 56.2558 11.6097 59.0397C11.2337 59.6187 12.4388 60.7542 12.6794 59.8375C18.4059 62.3687 23.1342 69.7848 30.1748 66.0371C31.2107 64.4453 32.2277 62.231 33.8201 60.8786C34.8955 59.9658 36.8037 58.6625 37.6252 59.1415C38.4468 59.6206 36.2453 60.475 35.1192 61.5539C33.8126 62.8081 33.0061 63.9398 35.8035 63.24C37.174 63.2174 36.1532 65.411 37.5726 65.4185C40.9848 65.5317 37.7023 69.5189 36.8206 70.6996C31.7916 77.3651 24.1381 75.9411 17.2949 72.2538C14.911 70.9693 20.0058 75.9505 21.2429 76.3617C21.7712 78.1894 23.0289 83.1159 23.9519 83.0065C24.875 82.8971 23.5064 76.9521 23.5064 76.9521ZM12.1342 50.1806C10.9929 50.4203 9.83646 50.581 8.67314 50.6616C10.5268 42.6701 24.9709 47.3816 12.1342 50.1806Z" fill="#4C3451"/>
<path d="M18.3551 52.3509C18.2816 52.0921 18.1112 51.8718 17.8795 51.7361L17.7949 51.687C17.6381 51.5946 17.4597 51.5458 17.2779 51.5456L17.0053 51.5833C16.8345 51.6304 16.679 51.7214 16.5541 51.8473C16.4561 51.9368 16.3835 52.0507 16.3435 52.1774C16.2797 52.2986 16.2492 52.4347 16.2552 52.5716C16.2489 52.7092 16.2794 52.8459 16.3435 52.9677C16.3835 53.0944 16.4561 53.2083 16.5541 53.2978C16.679 53.4237 16.8345 53.5147 17.0053 53.5618L17.0955 53.5996C17.1844 53.6374 17.2815 53.6517 17.3775 53.6411C17.5574 53.6415 17.734 53.5933 17.8889 53.5015C17.9611 53.4517 18.0308 53.3982 18.0976 53.3412C18.1932 53.2524 18.265 53.1408 18.3063 53.0168C18.3677 52.8968 18.3975 52.763 18.3927 52.6282C18.3904 52.5347 18.3778 52.4417 18.3551 52.3509Z" fill="#4C3451"/>
<path d="M17.6409 55.843C17.233 55.6148 16.7836 55.4431 16.4095 55.1527C16.3224 55.0694 16.2088 55.0198 16.0887 55.0125C15.9686 55.0053 15.8498 55.0409 15.7534 55.1131C15.6567 55.1864 15.5903 55.2929 15.5668 55.4121C15.5432 55.5314 15.5641 55.6552 15.6256 55.76C15.8959 56.1579 16.2406 56.4993 16.6407 56.7653C17.0299 56.9935 17.7161 57.2538 18.0808 56.8596C18.4455 56.4654 17.9868 56.0373 17.6409 55.843Z" fill="#4C3451"/>
<path d="M79.3706 44.9254C76.9868 41.7813 42.9775 43.1563 38.8471 47.3661C36.6795 49.5747 35.2751 54.8558 36.6362 54.8671C37.9974 54.8784 38.8546 49.2427 40.6218 48.0771C45.2222 45.0443 75.5411 44.3049 77.1503 46.6022C78.7596 48.8995 74.1217 78.7887 72.8263 80.175C72.0142 81.0426 55.7333 80.1863 47.4463 79.9392C42.5695 79.794 33.9835 78.7924 33.8369 79.6714C33.6903 80.5503 38.3245 82.1686 47.2432 82.3251C55.6732 82.4722 73.27 83.2173 74.3153 82.3459C76.2009 80.7955 81.7564 48.0715 79.3706 44.9254Z" fill="#292F3A"/>
<path d="M30.4549 29.0368C30.2894 28.7256 29.7536 28.8595 29.7762 29.2254C29.9191 31.451 29.7104 33.9954 28.3455 35.8589C28.03 36.3026 27.6252 36.6749 27.1573 36.9517C26.6893 37.2285 26.1686 37.4037 25.6289 37.4658C25.3637 37.4936 25.0958 37.4828 24.8337 37.4338C25.3625 35.8896 25.5417 34.2466 25.3582 32.6242C25.2379 31.7038 25.0386 30.2402 24.0741 29.795C23.1097 29.3499 22.134 29.9836 21.647 30.8079C20.3874 32.926 21.1959 36.1833 23.0401 37.7224C23.267 37.9097 23.5157 38.0687 23.7809 38.1958C23.5493 38.887 23.282 39.5657 22.98 40.229C22.8277 40.5666 23.3033 40.8646 23.4876 40.5251C23.8553 39.8495 24.1836 39.1529 24.4708 38.4391C26.0181 38.8163 27.7796 38.1788 28.8813 37.0038C29.8213 36.0041 30.3571 34.7159 30.641 33.3881C30.9418 31.9867 31.1505 30.342 30.4549 29.0368ZM22.7111 35.6684C22.1189 34.5688 21.8219 33.2164 22.1885 31.9886C22.3972 31.2964 23.2413 29.8799 24.0121 31.1097C24.3185 31.5982 24.3994 32.4299 24.4595 32.9958C24.5875 34.396 24.4601 35.8078 24.0835 37.1622C23.492 36.8075 23.0154 36.2887 22.7111 35.6684Z" fill="#FDCA0C"/>
<path d="M16.6497 36.6325C16.1666 35.3933 15.2886 33.8731 14.0422 33.2827C13.6887 33.1149 13.2563 33.4713 13.4782 33.8486C14.138 34.967 15.0047 35.8611 15.4935 37.1021C15.9677 38.3153 16.2285 39.6019 16.2643 40.9045C16.2643 41.2817 16.8453 41.3817 16.9336 40.9951C17.2942 39.5467 17.1949 38.0215 16.6497 36.6325Z" fill="#FDCA0C"/>
<path d="M29.1124 43.2112C27.7156 44.0619 26.4804 45.1634 25.2678 46.2498C24.9087 46.5704 25.3863 47.2079 25.7867 46.925C27.1234 45.9819 28.477 45.0389 29.6257 43.8789C29.9584 43.5394 29.5298 42.9585 29.1124 43.2112Z" fill="#4C3451"/>
<path d="M41.0448 22.8953C40.8568 22.0258 40.1913 21.6769 39.4713 21.2469C38.6497 20.7546 37.8225 20.2718 36.9972 19.7832C36.1719 19.2947 35.3879 20.5377 36.202 21.0903C37.016 21.643 37.7887 22.1673 38.5858 22.6992C39.287 23.165 39.8868 23.597 40.7497 23.3933C40.8536 23.3649 40.9425 23.2971 40.9976 23.2042C41.0526 23.1113 41.0696 23.0005 41.0448 22.8953Z" fill="#C4C2C2"/>
<path d="M45.2973 26.2609C45.2555 26.0415 45.1807 25.8297 45.0755 25.6328C44.9481 25.4357 44.8013 25.2518 44.6375 25.084C44.3686 24.7954 44.0923 24.5181 43.8215 24.2277C43.678 24.0805 43.4862 23.9905 43.2816 23.9742C43.077 23.9579 42.8735 24.0165 42.7086 24.139C42.4003 24.3748 42.2254 24.8784 42.4698 25.2311C42.6917 25.5536 42.9116 25.878 43.1353 26.1986C43.3787 26.5909 43.7229 26.9101 44.1317 27.1228C44.7089 27.419 45.4853 26.9644 45.2973 26.2609Z" fill="#C4C2C2"/>
<path d="M49.723 30.8912C49.421 30.2419 49.0571 29.6235 48.6363 29.0446C48.5296 28.8716 48.3605 28.7466 48.1642 28.6955C47.968 28.6444 47.7596 28.6712 47.5825 28.7704C47.4055 28.8695 47.2733 29.0334 47.2136 29.2278C47.1539 29.4222 47.1713 29.6323 47.262 29.8142C47.5361 30.4742 47.8736 31.1059 48.2697 31.7003C48.8995 32.5717 50.1384 31.8908 49.723 30.8912Z" fill="#C4C2C2"/>
<path d="M56.8935 35.2201C56.0362 34.956 55.3124 35.1805 54.4363 35.1201C53.4451 35.0396 52.5112 34.6217 51.7892 33.9357C51.2384 33.4132 50.163 34.0865 50.6612 34.775C51.4086 35.8755 52.5558 36.6386 53.8572 36.9006C55.0755 37.1496 56.5475 37.1326 57.1454 35.8727C57.1789 35.8146 57.199 35.7496 57.2042 35.6827C57.2093 35.6157 57.1995 35.5485 57.1753 35.4858C57.1511 35.4232 57.1132 35.3668 57.0645 35.3208C57.0157 35.2748 56.9573 35.2404 56.8935 35.2201Z" fill="#C4C2C2"/>
<path d="M64.0187 30.936C63.0204 30.8568 62.3267 31.5019 61.5747 32.0677C60.7738 32.6807 60.0067 33.322 59.2397 33.9783C58.3975 34.7007 59.4615 36.1738 60.4053 35.557C61.2494 35.0044 62.0785 34.4461 62.8888 33.8463C63.6408 33.2899 64.4643 32.8033 64.6692 31.8263C64.6966 31.7239 64.7007 31.6167 64.6813 31.5126C64.6619 31.4084 64.6194 31.31 64.5569 31.2245C64.4945 31.139 64.4137 31.0687 64.3205 31.0188C64.2274 30.9689 64.1242 30.9406 64.0187 30.936Z" fill="#C4C2C2"/>
<path d="M67.0829 24.3623C66.6899 23.4475 65.1822 23.8738 65.216 24.83C65.2555 25.9994 65.4736 27.1877 65.2649 28.3552C65.1145 29.2021 66.3666 29.9848 66.7877 29.0342C67.4664 27.5102 67.7653 25.9447 67.0829 24.3623Z" fill="#C4C2C2"/>
<path d="M63.5336 21.1242C62.227 20.2245 60.5256 19.4418 59.2566 20.8356C59.1331 20.9552 59.0434 21.1055 58.9969 21.2712C58.9503 21.4369 58.9484 21.612 58.9915 21.7787C59.2679 22.6369 60.0161 22.4615 60.7324 22.4143C61.4487 22.3672 62.1198 22.5482 62.8004 22.7915C63.8194 23.1367 64.3608 21.6882 63.5336 21.1242Z" fill="#C4C2C2"/>
<path d="M57.0662 24.4037C56.9413 24.239 56.7622 24.1241 56.5608 24.0795C56.3594 24.035 56.1487 24.0636 55.9664 24.1604C55.2821 24.4678 54.5733 24.8545 54.1879 25.5316C53.7442 26.3087 53.9021 27.4686 54.6936 27.9364C55.4137 28.3608 56.2127 27.8458 56.286 27.0612C56.3022 26.872 56.2914 26.6815 56.254 26.4954C56.2667 26.424 56.2837 26.3535 56.3048 26.2841C56.4195 25.9597 56.7259 25.7428 56.9778 25.5297C57.1263 25.3847 57.2171 25.1906 57.2333 24.9834C57.2496 24.7762 57.1902 24.5702 57.0662 24.4037Z" fill="#C4C2C2"/>
<path d="M56.9347 32.0664C56.8076 31.9019 56.659 31.7553 56.4929 31.6307C56.6188 31.7363 56.3218 31.476 56.3462 31.4986C56.2797 31.4458 56.2169 31.3885 56.1582 31.327C55.9108 31.1092 55.7351 30.8211 55.6544 30.5009C55.4908 29.7936 54.2613 29.6748 54.1391 30.4707C54.0263 31.1893 54.0733 31.8796 54.4944 32.4964C54.9155 33.1132 55.6732 33.7054 56.4327 33.4904H56.4477C57.2242 33.4187 57.5175 32.5662 56.9347 32.0664Z" fill="#C4C2C2"/>
<path d="M69.0682 35.6082C67.2803 35.1404 65.3552 35.7421 63.5354 35.5158C62.6348 35.4026 62.616 36.6682 63.3098 36.9699C65.1898 37.7829 67.6714 38.4147 69.3634 36.8285C69.4527 36.7395 69.5176 36.6289 69.5519 36.5074C69.5861 36.3859 69.5885 36.2576 69.5588 36.1348C69.5291 36.0121 69.4684 35.8992 69.3824 35.8069C69.2965 35.7146 69.1883 35.6462 69.0682 35.6082Z" fill="#C4C2C2"/>
<path d="M77.0883 29.5296C76.1653 29.7371 75.4208 30.5896 74.7308 31.1913C73.9406 31.8917 73.0942 32.5257 72.2003 33.0868C71.4878 33.5263 71.8958 34.7843 72.7643 34.5108C74.6049 33.9299 77.8309 32.4927 77.9137 30.1878C77.9141 30.086 77.8915 29.9854 77.8476 29.8936C77.8037 29.8018 77.7396 29.7212 77.6602 29.6578C77.5807 29.5945 77.488 29.55 77.389 29.5278C77.2899 29.5056 77.1871 29.5062 77.0883 29.5296Z" fill="#C4C2C2"/>
<path d="M82.8976 27.0701C81.9344 26.9264 80.9511 27.116 80.1096 27.6077C79.0248 28.2358 79.9328 29.8201 81.0496 29.3052C81.6286 29.0317 82.1776 29.0675 82.7792 29.2316C83.066 29.3273 83.3612 29.3955 83.6609 29.4353L83.8489 29.4146H83.9278C84.0724 29.4198 84.217 29.4071 84.3584 29.3769C84.4835 29.343 84.5945 29.2698 84.675 29.1679C84.7556 29.0661 84.8014 28.941 84.8058 28.811C84.8209 27.7718 83.8094 27.2041 82.8976 27.0701Z" fill="#C4C2C2"/>
<path d="M18.7461 34.4425C18.5412 33.2448 18.3287 32.049 17.8982 30.9079C17.5523 29.9894 17.1462 28.869 16.2419 28.3824C16.1659 28.3409 16.0794 28.3225 15.9931 28.3293C15.9068 28.3361 15.8243 28.3679 15.7557 28.4208C15.687 28.4737 15.6352 28.5455 15.6063 28.6274C15.5775 28.7093 15.573 28.7978 15.5933 28.8822C15.8208 29.863 16.5333 30.7231 16.8755 31.6775C17.2364 32.6696 17.5241 33.6862 17.8155 34.6952C17.9772 35.3195 18.8514 35.0517 18.7461 34.4425Z" fill="#4C3451"/>
<path d="M15.8734 32.0206C15.1928 31.1681 14.5329 30.2251 13.6287 29.597C13.5878 29.5742 13.5423 29.561 13.4956 29.5584C13.4489 29.5558 13.4023 29.5639 13.3592 29.582C13.3161 29.6002 13.2776 29.628 13.2468 29.6632C13.216 29.6985 13.1936 29.7404 13.1812 29.7856C12.683 31.0493 14.6194 32.032 15.4241 32.6148C15.7944 32.8694 16.114 32.3243 15.8734 32.0206Z" fill="#4C3451"/>
</g>
<defs>
<clipPath id="clip0_2_58">
<rect width="85" height="83" fill="white"/>
</clipPath>
</defs>
</svg>
