<svg width="24" height="24" viewBox="0 0 24 24" fill="none" xmlns="http://www.w3.org/2000/svg">
<path fill-rule="evenodd" clip-rule="evenodd" d="M19.4216 10.8229C19.5392 11.3574 19.5991 11.903 19.6002 12.4503C19.5991 12.9976 19.5392 13.5432 19.4216 14.0777L22 16.03L20.0999 19.3209L17.114 18.0612C16.3054 18.8025 15.3457 19.3597 14.301 19.6943L13.9001 22.9006H10.0999L9.69903 19.6943C8.65433 19.3597 7.6946 18.8025 6.886 18.0612L3.90006 19.3209L2 16.03L4.57838 14.0777C4.34029 13.0058 4.34029 11.8948 4.57838 10.8229L2 8.87061L3.90006 5.57971L6.886 6.83945C7.6946 6.09814 8.65433 5.54097 9.69903 5.20635L10.0999 2H13.9001L14.301 5.20635C15.3457 5.54097 16.3054 6.09814 17.114 6.83945L20.0999 5.57971L22 8.87061L19.4216 10.8229ZM14.8501 12.4497C14.8501 14.0238 13.574 15.2998 12 15.2998C10.4259 15.2998 9.1499 14.0238 9.1499 12.4497C9.1499 10.8756 10.4259 9.59961 12 9.59961C13.574 9.59961 14.8501 10.8756 14.8501 12.4497Z" fill="#FECD34"/>
<path fill-rule="evenodd" clip-rule="evenodd" d="M10.1 1.20001C9.69654 1.20001 9.35622 1.50043 9.30617 1.90076L8.96643 4.61781C8.16236 4.93135 7.41146 5.36712 6.74032 5.9097L4.21107 4.84263C3.83934 4.68581 3.40901 4.83031 3.20728 5.17971L1.30723 8.47061C1.10551 8.81998 1.19549 9.26488 1.51711 9.50841L3.70045 11.1616C3.56632 12.0155 3.56632 12.8852 3.70045 13.7391L1.51711 15.3922C1.19549 15.6358 1.10551 16.0807 1.30723 16.43L3.20728 19.7209C3.40901 20.0703 3.83934 20.2148 4.21107 20.058L6.74032 18.991C7.41146 19.5335 8.16236 19.9693 8.96643 20.2828L9.30617 22.9999C9.35622 23.4002 9.69654 23.7006 10.1 23.7006H13.9001C14.3035 23.7006 14.6439 23.4002 14.6939 22.9999L15.0337 20.2828C15.8377 19.9693 16.5886 19.5335 17.2598 18.991L19.789 20.058C20.1607 20.2148 20.5911 20.0703 20.7928 19.7209L22.6929 16.43C22.8946 16.0807 22.8046 15.6358 22.483 15.3922L20.299 13.7386C20.3655 13.3132 20.3994 12.8831 20.4003 12.452L19.6003 12.4503L20.4003 12.4487C20.3994 12.0176 20.3655 11.5875 20.299 11.1621L22.483 9.50841C22.8046 9.26488 22.8946 8.81998 22.6929 8.47061L20.7928 5.17971C20.5911 4.83031 20.1607 4.68581 19.789 4.84263L17.2598 5.9097C16.5886 5.36712 15.8377 4.93135 15.0337 4.61781L14.6939 1.90076C14.6439 1.50043 14.3035 1.20001 13.9001 1.20001H10.1ZM18.6404 10.9948C18.7455 11.4729 18.7991 11.9608 18.8003 12.4503C18.7991 12.9398 18.7455 13.4278 18.6404 13.9058C18.5732 14.2108 18.6898 14.527 18.9387 14.7155L20.9541 16.2416L19.7603 18.3093L17.425 17.3241C17.1368 17.2025 16.804 17.2601 16.5734 17.4715C15.8501 18.1347 14.9915 18.6331 14.057 18.9324C13.7604 19.0274 13.5458 19.286 13.5072 19.595L13.1939 22.1006H10.8062L10.4929 19.595C10.4542 19.286 10.2397 19.0274 9.9431 18.9324C9.00855 18.6331 8.15001 18.1347 7.42665 17.4715C7.19603 17.2601 6.86333 17.2025 6.57507 17.3241L4.2398 18.3093L3.04594 16.2416L5.06135 14.7155C5.31079 14.5266 5.42723 14.2097 5.35939 13.9043C5.14668 12.9466 5.14668 11.954 5.35939 10.9964C5.42723 10.691 5.31079 10.374 5.06135 10.1851L3.04594 8.6591L4.2398 6.59132L6.57507 7.57655C6.86333 7.69816 7.19603 7.64057 7.42665 7.42915C8.15001 6.766 9.00855 6.26758 9.9431 5.96823C10.2397 5.87322 10.4542 5.61468 10.4929 5.30562L10.8062 2.80001H13.1939L13.5072 5.30562C13.5458 5.61468 13.7604 5.87322 14.057 5.96823C14.9915 6.26758 15.8501 6.766 16.5734 7.42915C16.804 7.64057 17.1368 7.69816 17.425 7.57655L19.7603 6.59132L20.9541 8.6591L18.9387 10.1851C18.6898 10.3737 18.5732 10.6898 18.6404 10.9948ZM9.94988 12.4502C9.94988 11.318 10.8677 10.4001 12 10.4001C13.1322 10.4001 14.05 11.318 14.05 12.4502C14.05 13.5824 13.1322 14.5003 12 14.5003C10.8677 14.5003 9.94988 13.5824 9.94988 12.4502ZM12 8.80011C9.98408 8.80011 8.34988 10.4343 8.34988 12.4502C8.34988 14.4661 9.98408 16.1003 12 16.1003C14.0159 16.1003 15.6501 14.4661 15.6501 12.4502C15.6501 10.4343 14.0159 8.80011 12 8.80011Z" fill="#4C3451"/>
</svg>
