<svg width="85" height="83" viewBox="0 0 85 83" fill="none" xmlns="http://www.w3.org/2000/svg">
<path d="M10.5979 14.2822C11.9845 10.1881 15.4477 7.14551 19.6829 6.30063L50.0952 0.233622C54.3304 -0.61126 58.6941 0.869877 61.5426 4.1191L81.9973 27.4515C84.8458 30.7007 85.7464 35.2244 84.3597 39.3185L74.4021 68.7178C73.0154 72.812 69.5523 75.8545 65.3171 76.6994L34.9048 82.7664C30.6696 83.6113 26.3059 82.1301 23.4574 78.8809L3.00265 55.5485C0.154162 52.2993 -0.746358 47.7756 0.640314 43.6815L10.5979 14.2822Z" fill="#C9C2CB"/>
<g clip-path="url(#clip0_1_1940)">
<path d="M65.0921 33.5837C63.0608 33.1467 60.769 36.206 59.1335 36.3761C61.3428 34.261 59.6874 33.2501 57.3528 35.5855C56.258 36.5897 55.948 37.8374 55.5655 39.302C53.8046 42.1512 51.526 43.9928 49.7816 46.8586C47.0216 43.6892 45.1321 39.9226 41.5015 37.6739C40.4825 37.0467 38.5172 37.8674 37.9104 35.9791C38.7546 36.2227 39.1404 35.9958 39.1074 35.2385C39.4438 35.402 40.0802 35.7489 40.6243 35.4153C41.1684 35.0817 41.0398 32.8364 40.2253 29.717C39.2525 25.9871 40.9706 20.866 36.7794 20.8694C32.2156 20.8727 28.984 23.0646 28.5289 25.2698C28.0738 27.4818 29.0367 30.3609 29.2775 32.8965C29.5215 35.4453 29.7028 36.1259 28.2552 36.1092C26.5306 36.0892 25.0137 36.6497 23.8233 39.4021C21.304 45.2505 19.9751 56.1466 19.243 58.2818C19.1672 58.5454 26.956 59.2994 28.6509 59.4862C31.5429 59.8065 40.4891 59.6864 41.8609 59.5196C43.3844 59.9566 43.4173 60.1968 43.7966 59.4195C45.1551 59.9566 45.4486 59.9166 45.4025 58.2618C48.7759 60.1167 47.3546 56.1199 44.1098 54.3217C43.0843 53.7546 41.8642 53.6511 40.5551 53.6278C40.8255 51.9029 41.1157 50.1848 41.3893 48.46C44.9177 52.5735 48.1691 53.8179 50.5796 53.7245C53.4913 53.6111 57.2571 46.9987 60.1293 40.8567C61.877 40.9568 63.2092 38.4913 62.7476 36.9133C63.6544 36.2961 66.3386 34.9215 65.0921 33.5871V33.5837Z" fill="white"/>
<path d="M52.4922 46.2313C52.202 45.5875 51.9184 44.9402 51.6414 44.2897C51.1765 44.8568 50.7214 45.444 50.2894 46.0745C50.4279 46.4115 50.5631 46.7518 50.7049 47.0921C51.0479 47.9128 51.3974 48.7302 51.7568 49.5409C51.9415 49.9613 52.1262 50.3783 52.3141 50.7953C52.4823 51.1723 52.634 51.5827 52.8483 51.943C52.8318 52.013 52.8186 52.0864 52.8153 52.1565C52.8121 52.2432 52.8252 52.3333 52.845 52.4167C52.5515 52.697 52.2548 52.9705 51.958 53.2474C52.789 52.737 53.6628 51.8395 54.5466 50.6919C54.2927 50.0113 53.9266 49.3507 53.6265 48.6968C53.2473 47.8761 52.8681 47.0554 52.4955 46.2313H52.4922Z" fill="#C4C2C2"/>
<path d="M41.1585 37.5254C40.1561 37.2084 38.6557 37.6088 38.0259 36.2509C37.6236 36.8281 36.5848 37.0049 35.9352 36.9282C35.6318 36.8915 35.3911 36.7781 35.1141 36.6446C34.7052 36.4478 34.2996 36.2409 33.9138 35.9974C33.6302 35.8172 33.3796 35.6137 33.1554 35.3702C33.0597 35.2868 32.9641 35.2 32.8751 35.1099C32.8388 35.6004 32.4761 35.9907 32.1793 36.3544C31.8924 36.7047 31.7506 37.0216 31.6649 37.462C31.5264 38.1492 31.4769 39 31.7737 39.6539C32.1595 40.508 33.0037 40.1043 33.683 39.8974C34.0655 39.784 34.5008 39.6572 34.8899 39.804C35.3252 39.9675 35.4703 40.4312 35.7934 40.7248C36.3771 41.2553 37.7027 40.8182 37.9302 40.0909C37.9896 39.9041 38.1973 39.754 38.3952 39.824C39.2591 40.131 40.5979 40.4145 41.3135 39.6439C41.9631 38.9466 41.5938 38.2193 41.1618 37.5187L41.1585 37.5254Z" fill="#C4C2C2"/>
<path d="M23.9552 56.775C23.2594 55.1602 23.0946 53.3787 22.8571 51.6438C22.7186 52.0842 22.5373 52.5179 22.3955 52.9583C22.102 53.8824 21.7755 54.7932 21.4656 55.714C21.1457 56.6582 20.839 57.6123 20.5752 58.5732C21.9536 58.7734 24.1531 59.0136 25.9535 59.2037C25.017 58.7967 24.3146 57.6157 23.9519 56.775H23.9552Z" fill="#C4C2C2"/>
<path d="M32.6344 53.0855C33.6863 53.3657 34.7382 53.6527 35.8231 53.7094C36.8025 53.7594 37.7818 53.7427 38.7645 53.7194C39.3515 53.5793 39.9648 53.5192 40.5716 53.5359C40.6573 52.9954 40.743 52.455 40.8321 51.9112C40.2121 51.9112 39.5625 51.7644 38.9854 51.6576C37.5543 51.3874 36.1166 51.0904 34.7811 50.4933C32.3145 49.389 28.8026 45.2187 28.8026 45.2187C28.8026 45.2187 29.2709 47.4773 29.7325 48.4348C30.2305 49.4657 30.5404 50.59 31.1241 51.5775C31.5165 52.2381 32.0243 52.7385 32.6377 53.0855H32.6344Z" fill="#C4C2C2"/>
<path d="M46.24 52.5794C45.7619 51.8688 45.3068 51.1482 44.8814 50.4008C44.2318 49.2565 43.6613 48.0855 43.1931 46.8544C42.959 46.2406 42.7743 45.6067 42.5204 45.0062C42.405 44.7359 42.2929 44.469 42.2038 44.1955C41.6169 46.2506 40.7859 48.4225 41.053 50.5543C41.1684 49.857 41.2805 49.1598 41.3926 48.4625C43.0942 50.4476 44.7297 51.7587 46.24 52.5794Z" fill="#C4C2C2"/>
<path d="M38.7513 30.7226C38.5172 30.3489 38.26 30.0187 38.0786 29.6116C37.8972 29.1979 37.7818 28.7576 37.7192 28.3138C37.6763 28.0136 37.1553 28.0803 37.1915 28.3872C37.2674 29.0712 37.4586 29.7317 37.7785 30.3423C37.8511 30.4824 37.9335 30.6192 38.0192 30.7526C38.0258 30.7626 38.1182 30.9128 38.1841 31.0229C38.1742 31.0229 38.1643 31.0162 38.1577 31.0128C38.0753 30.9862 37.9961 30.9628 37.9137 30.9361C37.7258 30.8761 37.5345 30.816 37.3465 30.756C37.0333 30.6559 36.8321 31.0128 36.9541 31.2731C37.119 31.6267 37.2839 31.9804 37.4488 32.334C37.4982 32.4374 37.5576 32.5475 37.5741 32.6609C37.5675 32.6609 37.5642 32.6609 37.551 32.6609C37.4751 32.6576 37.396 32.671 37.3202 32.671C36.6606 32.6476 36.0836 32.1372 35.5659 31.7802C35.279 31.5833 35.0053 32.0037 35.213 32.2439C35.8297 32.9512 36.7497 33.6885 37.7554 33.4183C38.2336 33.2882 38.4215 32.8244 38.2534 32.3707C38.1643 32.1305 38.0555 31.9003 37.9368 31.6701C38.1149 31.7235 38.2962 31.7768 38.4809 31.7268C38.9228 31.6034 38.9656 31.0729 38.7546 30.7326L38.7513 30.7226Z" fill="#4C3451"/>
<path d="M38.9722 28.2324C39.0118 27.8754 38.7744 27.3483 38.3754 27.6786C38.1907 27.9655 38.2896 28.4692 38.4578 28.7528C38.804 29.0464 39.0744 28.5627 38.9722 28.2357V28.2324Z" fill="#4C3451"/>
<path d="M35.6945 28.3045C35.7835 28.011 35.4373 27.7374 35.1801 27.9042C34.8866 28.1411 34.9064 28.7249 35.1174 29.0152C35.7308 29.4255 35.6813 28.7082 35.6945 28.3045Z" fill="#4C3451"/>
<path d="M57.3594 38.06C57.3594 38.06 57.3694 38.05 57.376 38.0467C57.3694 38.05 57.3627 38.0567 57.3561 38.0633C57.3561 38.0633 57.3594 38.0633 57.3627 38.06H57.3594Z" fill="#4C3451"/>
<path d="M57.7222 37.6861C57.6659 37.7398 57.7023 37.7129 57.7222 37.6861V37.6861Z" fill="#4C3451"/>
<path d="M41.6202 59.5447C41.8444 59.0176 40.4034 59.518 32.8916 59.5147C29.9106 59.5147 26.5471 59.6982 24.9741 57.9266C23.2166 55.9482 23.4804 50.2833 22.9396 50.2733C22.3988 50.2633 22.9989 57.2694 24.6411 58.724C26.2833 60.1786 29.0961 60.0218 33.162 60.1452C38.0127 60.292 41.4223 60.0218 41.6268 59.5447H41.6202Z" fill="#4C3451"/>
<path d="M65.6659 33.8455C64.8217 31.5368 61.5572 35.2567 59.9941 35.7438C61.0625 34.8564 60.6239 33.5619 59.1928 34.0123C55.8656 35.1266 56.3932 37.4153 54.197 40.0042C52.9077 41.6389 50.7577 44.358 49.6002 46.0594C47.2887 42.9668 44.9276 39.9675 41.851 37.4787C41.3168 37.0483 40.4034 36.9816 39.7538 36.8982C39.2822 36.8615 38.5502 36.8381 38.4183 36.2543C38.8898 36.4945 39.4801 36.1508 39.4405 35.6237C39.9648 36.1542 40.8486 36.1742 41.1552 35.3902C41.884 33.1883 40.7134 30.903 40.4067 28.7277C40.2088 27.51 40.1528 26.4558 40.1033 25.4349C39.8956 21.1311 38.0522 19.0193 32.0309 21.388C28.2486 22.876 27.5594 24.7009 28.0211 27.8169C27.7771 27.5434 27.5594 27.2398 27.355 26.9495C27.1604 26.6793 26.7285 26.9162 26.9032 27.2164C27.2429 27.8003 27.6518 28.4275 28.1893 28.8545C28.6443 31.0664 29.4654 33.4418 28.7993 35.6437C28.7564 35.7905 28.5652 35.8739 28.4234 35.8406C27.0978 35.527 25.7755 36.1442 24.8587 37.105C23.8728 38.1359 23.3089 39.5605 22.811 40.8816C21.1193 45.4289 20.684 50.3231 19.6882 55.0439C19.4145 56.1582 18.8638 57.2959 18.8638 58.4669C18.8869 58.8472 19.3782 58.9073 19.5068 58.5536C20.0476 56.0548 20.9709 53.626 21.2182 51.0571C22.0921 46.9169 22.5505 42.5264 24.585 38.7564C25.3039 37.4553 26.646 36.1075 28.2585 36.4511C28.3574 36.4711 29.3269 36.5946 29.5248 36.1609C30.4712 34.0891 29.6732 31.4668 29.1456 29.3149C29.7391 29.4817 30.3953 29.2182 30.6393 28.7211C31.8265 29.2749 33.5939 28.5809 33.4159 27.143C35.6252 27.2832 37.7983 26.5091 39.4702 25.0379C39.49 25.1913 39.5856 28.5743 39.8956 30.0956C39.8164 30.0689 39.7373 30.0389 39.6581 30.0089C39.5526 29.9655 39.4471 29.8887 39.3251 29.9254C39.18 29.9621 39.0844 30.129 39.1305 30.2724C39.1503 30.3391 39.1932 30.4092 39.2591 30.4426C39.5064 30.556 39.7604 30.6628 40.0275 30.7061C40.2649 31.737 40.5386 32.7679 40.5353 33.8355C40.5353 34.1091 40.5716 35.1366 40.2055 35.1433C40.0341 35.1433 39.8065 34.8797 39.6746 34.7797C38.8931 34.1858 38.5106 34.5094 38.6425 35.4436C38.4512 35.2834 38.1017 35.2567 37.8939 35.3635C37.6071 35.5136 37.5411 35.8506 37.3531 36.0941C36.1265 37.6054 33.7193 35.3935 32.9311 34.2892C32.664 33.9456 32.0606 34.4093 32.3277 34.7596C33.4554 36.3644 36.1594 38.7364 37.9335 36.6947C38.4644 37.7789 40.2352 37.3752 41.1519 37.859C44.8452 39.7973 49.3529 47.4006 49.6926 47.424C49.9926 47.444 52.8912 42.9868 54.9917 40.3979C55.4567 39.6806 55.6381 39.5605 55.9216 38.8132C57.1714 35.4903 59.4335 34.1725 59.7996 34.7196C59.9875 35.0032 59.3346 35.7905 58.6685 36.5445C58.7377 38.3561 57.3693 38.1726 57.5572 38.7131C57.6562 38.9933 58.4278 38.8765 58.8367 38.0859C58.9026 38.2293 59.0246 38.3561 59.2324 38.4528C58.995 38.7698 58.9257 39.2335 59.1236 39.6005C58.7213 40.0376 59.0774 40.6581 59.6116 40.7515C59.2489 41.6156 59.2851 41.5722 58.8532 42.4029C58.2761 43.584 57.6397 44.735 56.9867 45.8726C56.0634 47.4874 55.1599 49.1354 54.0651 50.6434C53.0693 52.0146 51.8228 53.3558 50.0157 53.3491C48.3109 53.3424 46.6885 52.4116 45.3365 51.4341C43.9779 50.4499 42.9326 49.1988 41.9005 47.901C42.0719 46.7067 42.2401 45.5123 42.405 44.3179C42.4709 43.8442 41.7587 43.634 41.6861 44.1178C41.5245 45.1987 40.7331 50.5533 40.6639 51.0438C40.5683 51.7344 40.2682 53.2624 40.2682 53.2624C40.2682 53.2624 38.6689 53.3524 37.795 53.3825C35.6846 53.4559 33.772 53.219 32.209 52.2348C30.5239 51.1739 28.7334 43.8742 28.3344 43.9409C27.9354 44.0077 29.7292 51.0304 31.5857 52.6318C33.0268 53.8762 35.2493 54.3466 38.9788 54.0564C40.2187 53.9897 42.1247 54.043 42.7776 54.1665C43.4305 54.2899 43.7867 54.5568 44.1692 54.7503C44.6176 54.9271 46.7808 56.7587 46.9655 57.6795C47.0018 57.8764 47.0743 58.3067 46.9094 58.4736C46.7248 58.657 46.3686 58.3301 46.217 58.2167C45.9367 58.0098 45.6597 57.7996 45.3794 57.5928C45.1815 57.446 44.8782 57.6428 44.8913 57.8764C44.9177 58.3301 44.9408 58.7838 44.9507 59.2375C44.9507 59.2776 44.9507 59.3176 44.9507 59.361C44.6374 59.2943 44.3308 59.1708 44.034 59.0507C43.8625 58.9773 43.5921 59.014 43.5558 59.2476C43.5393 59.351 43.5328 59.4744 43.48 59.5678C43.4074 59.6946 43.3448 59.6612 43.2063 59.6212C42.9392 59.5478 42.6985 59.4177 42.4512 59.2943C42.1742 59.1541 41.8741 59.5044 42.1115 59.7413C42.6028 60.2584 43.7966 60.7021 44.0933 59.7747C45.4684 60.3218 45.7091 59.9348 45.5706 58.5469C47.015 59.808 48.0075 58.9139 47.4568 57.1991C47.137 56.2249 44.6902 54.1598 44.1758 53.9229C43.3118 53.3224 41.0629 53.2457 41.0629 53.2457C41.0629 53.2457 41.3135 51.8044 41.4487 51.0905L41.729 49.1254C43.513 51.5209 46.339 53.7228 49.3167 54.1832C51.216 54.4334 52.7857 53.5593 53.9992 52.1347C55.2885 50.6134 56.2613 48.8452 57.2374 47.1137C58.0683 45.6424 58.8729 44.1611 59.5819 42.6298C59.9908 41.8091 59.8259 42.126 60.1755 41.2753C62.0749 41.5389 63.5093 38.623 62.9553 37.0249C64.2183 36.5946 66.1836 35.2701 65.6626 33.8489L65.6659 33.8455ZM39.3152 24.6309C37.5708 26.1188 35.2394 26.7827 32.9839 26.5125C32.7531 26.4858 32.6245 26.7861 32.73 26.9629C33.1949 27.7702 32.2321 28.3407 31.5429 28.304C31.2923 28.2907 31.0482 28.2273 30.8207 28.1272C30.8933 27.4433 30.4085 26.5091 29.6336 26.5392C29.1489 26.5792 28.9939 27.0863 29.1983 27.4867C29.3896 27.867 29.7028 28.1839 30.0722 28.4275C29.8545 28.7578 29.3368 28.7044 28.9873 28.5409C28.5256 26.3957 28.8257 23.8168 30.9592 22.7359C37.3499 19.79 38.6887 21.2346 39.3976 24.5875C39.3713 24.5942 39.3416 24.6108 39.3185 24.6309H39.3152ZM30.1414 27.6668C29.9271 27.4733 29.7193 27.2565 29.8051 27.2064C29.8974 27.1664 30.1249 27.5968 30.1414 27.6668ZM59.084 37.0683C59.0906 36.9415 59.0873 36.8047 59.0774 36.6613C59.1895 36.6379 59.4764 36.5879 59.7435 36.5045C59.5127 36.6146 59.2687 36.8214 59.0807 37.0683H59.084ZM62.3782 38.1426C62.0749 39.1301 61.5835 40.3078 60.5019 40.588C61.201 40.3445 59.7996 40.3278 59.6743 40.0175C59.5489 39.7073 60.9075 39.4904 61.1549 39.6105C61.2999 39.6706 61.4714 39.5571 61.5275 39.427C61.5901 38.583 59.8029 39.5772 59.671 38.99C59.5391 38.4028 61.0559 38.0492 61.7088 38.1626C61.8836 38.2026 62.065 38.1092 62.1144 37.9291C62.0122 36.7947 59.6248 38.3327 59.4731 37.7522C59.3214 37.1717 60.8185 36.5479 61.5835 36.5979C62.1012 36.6313 62.2925 36.8948 62.4112 37.2451C62.5167 37.5654 62.464 37.839 62.3815 38.1492L62.3782 38.1426ZM64.8052 34.6295C64.2611 35.5103 63.3147 36.0074 62.431 36.4678C62.3123 36.3076 62.1441 36.1909 61.9858 36.0741C61.666 35.8372 61.2043 35.9507 60.8251 36.0474C61.0065 36.0207 63.4829 34.3393 63.938 34.0957C64.393 33.8522 65.3131 33.7354 64.8052 34.6295Z" fill="#4C3451"/>
<path d="M44.6375 38.2813L49.5442 40.9904L54.5202 52.1567L47.7899 58.2453H49.7684L55.7568 52.8273C55.9711 52.6338 56.0371 52.3202 55.9184 52.0566L50.6522 40.2397C50.5928 40.1063 50.4939 39.9995 50.3653 39.9294L45.264 37.1137C44.9441 36.9368 44.5451 37.057 44.3704 37.3806C44.1956 37.7042 44.3143 38.1079 44.6342 38.2847L44.6375 38.2813Z" fill="#747C89"/>
<path d="M55.6512 58.1796C55.2457 57.469 54.4971 57.0286 53.6859 57.0286H47.193C47.3052 57.2121 47.3909 57.4056 47.4305 57.6125C47.5294 58.1262 47.3414 58.6233 46.916 58.9269H55.2226C55.6018 58.9269 55.8392 58.5132 55.6512 58.1796Z" fill="#61789E"/>
<path d="M55.3215 53.4154C55.9152 53.4154 56.3965 52.9284 56.3965 52.3278C56.3965 51.7271 55.9152 51.2401 55.3215 51.2401C54.7278 51.2401 54.2465 51.7271 54.2465 52.3278C54.2465 52.9284 54.7278 53.4154 55.3215 53.4154Z" fill="#747C89"/>
<path d="M50.0553 41.6013C50.649 41.6013 51.1303 41.1143 51.1303 40.5137C51.1303 39.913 50.649 39.426 50.0553 39.426C49.4616 39.426 48.9803 39.913 48.9803 40.5137C48.9803 41.1143 49.4616 41.6013 50.0553 41.6013Z" fill="#747C89"/>
<path d="M48.0839 36.9043L43.7659 34.661C42.7193 34.1173 41.4353 34.5349 40.8979 35.5937C40.3605 36.6526 40.7732 37.9517 41.8198 38.4954L46.1378 40.7387C47.1844 41.2824 48.4684 40.8648 49.0058 39.8059C49.5432 38.7471 49.1305 37.448 48.0839 36.9043Z" fill="#292F3A"/>
<path d="M48.4989 36.7957L46.1807 35.5914C46.0455 35.5213 45.8773 35.5747 45.8048 35.7115C45.1387 36.9792 44.4594 38.2403 43.7801 39.5014C43.7042 39.6415 43.757 39.8184 43.8988 39.8918L46.2961 41.1362C47.4799 41.75 48.9342 41.2796 49.5442 40.0786C50.151 38.8809 49.686 37.4096 48.4989 36.7924V36.7957Z" fill="#61789E"/>
<path d="M48.8814 39.7122C48.5516 39.7222 48.2219 39.7122 47.8921 39.6922C47.8361 39.5954 47.78 39.4987 47.7272 39.3986C47.6679 39.2885 47.5096 39.2451 47.4074 39.3152C47.2986 39.3852 47.2656 39.5187 47.3216 39.6321C47.0941 39.5988 46.8732 39.5554 46.6489 39.5054C46.5302 39.3185 46.4214 39.125 46.3258 38.9148C46.2763 38.8047 46.1114 38.768 46.0125 38.8314C45.9004 38.9048 45.8773 39.0283 45.9301 39.1484C45.9598 39.2118 45.9927 39.2718 46.0224 39.3352C45.752 39.2485 45.4849 39.145 45.2244 39.0249C45.2145 38.9982 45.2046 38.9716 45.1947 38.9449C45.1716 38.8748 45.1486 38.8014 45.1288 38.728C45.0958 38.6046 44.9573 38.5212 44.8353 38.5612C44.71 38.6012 44.6341 38.728 44.6704 38.8581C44.6704 38.8681 44.677 38.8781 44.6803 38.8848C44.5484 38.9716 44.4956 39.1817 44.677 39.2785C44.7364 39.3085 44.7957 39.3352 44.8551 39.3652C44.9111 39.4887 44.9705 39.6121 45.043 39.7289C45.0496 39.7356 45.0562 39.7456 45.0595 39.7522C44.9012 39.6822 44.743 39.6154 44.588 39.5387C44.3605 39.4286 44.1626 39.7689 44.3901 39.8823C44.8056 40.0859 45.2277 40.2693 45.6597 40.4262C45.6729 40.4362 45.6828 40.4462 45.696 40.4528C45.7322 40.4795 45.7784 40.4862 45.8246 40.4795C46.2104 40.613 46.6028 40.7297 47.0051 40.8198C47.1601 40.8565 47.2524 40.7064 47.226 40.5863C47.226 40.5863 47.2293 40.5863 47.2326 40.583C47.3184 40.4962 47.3085 40.3661 47.2326 40.2794C47.1766 40.216 47.1271 40.1526 47.0743 40.0892C47.2557 40.1192 47.4371 40.1392 47.6217 40.1559C47.6778 40.2393 47.7371 40.3227 47.8064 40.3995C47.902 40.5062 48.0108 40.5996 48.1262 40.6797C48.1922 40.7231 48.2615 40.7564 48.334 40.7865C48.4065 40.8165 48.489 40.8232 48.5681 40.8332C48.6572 40.8432 48.7561 40.7598 48.7759 40.673C48.7957 40.5863 48.766 40.4662 48.6769 40.4262C48.5681 40.3794 48.4626 40.3194 48.3637 40.256C48.3538 40.2493 48.3439 40.2427 48.334 40.236C48.334 40.236 48.3274 40.2293 48.3208 40.226C48.301 40.2126 48.2845 40.196 48.2647 40.1793C48.4692 40.1759 48.6736 40.1659 48.8781 40.1392C49.1386 40.1092 49.1551 39.7055 48.8781 39.7155L48.8814 39.7122ZM45.6795 39.7823C45.6564 39.7556 45.6333 39.7289 45.6135 39.6989C45.6102 39.6955 45.6102 39.6955 45.6069 39.6922C45.8608 39.7889 46.1213 39.869 46.3818 39.9391C46.4808 40.0792 46.5896 40.2126 46.705 40.3394C46.4544 40.266 46.2038 40.1859 45.9532 40.0959C45.8575 39.9958 45.7685 39.8857 45.6795 39.7823Z" fill="#455670"/>
<path d="M43.1766 35.1975C43.1338 35.1375 43.1074 35.1008 43.0447 35.0607C42.9821 35.024 42.9128 35.004 42.8403 35.0007C42.7941 35.0007 42.748 35.0007 42.7018 35.0073C42.5897 35.0174 42.4776 35.034 42.3654 35.0607C42.1676 35.1074 41.9763 35.1842 41.8016 35.2843C41.6598 35.361 41.6037 35.5678 41.6927 35.708C41.7356 35.7747 41.7983 35.8314 41.8741 35.8514C41.9565 35.8714 42.0258 35.8547 42.1049 35.8214C42.0983 35.8214 42.0917 35.8281 42.0852 35.8314C42.2171 35.778 42.3523 35.738 42.4908 35.7146C42.56 35.708 42.6325 35.7013 42.7018 35.7013C42.7414 35.7013 42.7809 35.7046 42.8238 35.7046C42.9359 35.7046 43.0513 35.6646 43.1305 35.5778C43.1766 35.5245 43.2063 35.4677 43.2162 35.3977C43.2261 35.3343 43.2162 35.2509 43.1799 35.1975H43.1766Z" fill="#38414F"/>
<path d="M44.4264 35.6391C44.4165 35.6057 44.3967 35.579 44.3736 35.5524C44.3604 35.5423 44.3472 35.529 44.3341 35.519C44.3275 35.5123 44.3209 35.509 44.3143 35.5023C44.2945 35.4856 44.2714 35.4656 44.2483 35.4489C44.2252 35.4356 44.1956 35.4256 44.1692 35.4156L44.067 35.3755C44.0274 35.3622 43.9878 35.3622 43.9482 35.3689C43.9087 35.3689 43.8724 35.3822 43.8394 35.4056C43.8065 35.4256 43.7768 35.4489 43.757 35.4823C43.7306 35.5123 43.7141 35.5457 43.7042 35.5824C43.7009 35.6091 43.6976 35.6358 43.6943 35.6625C43.6943 35.7158 43.7075 35.7659 43.7339 35.8126C43.7504 35.8326 43.7636 35.8526 43.7801 35.8726C43.8163 35.9093 43.8592 35.936 43.9087 35.9494C43.9416 35.9627 43.9746 35.9761 44.0109 35.9894C44.0505 36.0061 44.0933 36.0028 44.1362 36.0061C44.1527 36.0061 44.1692 36.0061 44.189 36.0061C44.2121 36.0061 44.2351 35.9994 44.2582 35.9961L44.3209 35.9694C44.3374 35.956 44.3571 35.9427 44.3736 35.9294C44.4 35.906 44.4165 35.876 44.4264 35.8426C44.4396 35.8226 44.4429 35.7992 44.4429 35.7759C44.4495 35.7525 44.4495 35.7292 44.4429 35.7058C44.4429 35.6825 44.4363 35.6591 44.4264 35.6391Z" fill="#38414F"/>
<path d="M56.4921 51.7417C56.347 51.408 56.0964 51.001 55.7073 50.941C55.704 50.941 55.7007 50.941 55.6974 50.941C55.4501 50.1703 55.0214 49.4297 54.6851 48.699C54.3059 47.8783 53.9266 47.0576 53.554 46.2336C52.8055 44.5788 52.0932 42.9073 51.4832 41.1992C51.4832 41.1958 51.4799 41.1925 51.4766 41.1892C51.4931 41.1491 51.5128 41.1124 51.5227 41.0691C51.5524 40.9323 51.5689 40.7922 51.5623 40.652C51.5524 40.3751 51.4766 40.0815 51.3183 39.8547C51.038 39.4577 50.5862 39.1974 50.1048 39.1841C50.1444 38.5702 49.9894 37.953 49.6728 37.4259C49.3167 36.8287 48.7495 36.4084 48.1691 36.048C47.5261 35.651 46.8501 35.3775 46.1214 35.2073C46.0323 35.1873 45.9598 35.2073 45.9037 35.244C45.8707 35.2507 45.8378 35.264 45.8081 35.2841C45.7982 35.2774 45.7916 35.2674 45.7817 35.264C45.0101 34.8937 44.3275 34.3232 43.4866 34.1097C42.7282 33.9195 41.9829 34.083 41.3795 34.5834C40.1495 35.601 40.2319 37.3892 41.1849 38.5669C41.7323 39.2408 42.56 39.6378 43.3844 39.868C43.3745 40.0182 43.4701 40.1349 43.5954 40.175C43.6152 40.2217 43.6416 40.2617 43.6911 40.2984C44.5418 40.8889 45.5014 41.356 46.494 41.6429C46.9754 41.783 47.4701 41.8464 47.968 41.7663C48.1955 41.7296 48.4659 41.6562 48.6967 41.5295C48.7561 41.6629 48.8352 41.7864 48.9375 41.8864C49.0727 42.0166 49.2342 42.1133 49.4123 42.17C49.5013 42.2001 49.597 42.2134 49.6893 42.2134C49.7355 42.2134 49.7849 42.2134 49.8311 42.2001C50.4477 43.8448 51.0941 45.4729 51.7734 47.0943C52.1163 47.915 52.4658 48.7324 52.8253 49.5431C53.0099 49.9635 53.1946 50.3805 53.3826 50.7975C53.5507 51.1745 53.7024 51.5849 53.9168 51.9452C53.9003 52.0152 53.8871 52.0886 53.8838 52.1587C53.8805 52.2454 53.8937 52.3355 53.9135 52.4189C53.0858 53.2063 52.2449 53.9836 51.3776 54.7276C50.949 55.0946 50.517 55.4549 50.0751 55.8119C49.8575 55.9887 49.6365 56.1622 49.4156 56.3356C49.2375 56.4758 49.0397 56.6025 48.8682 56.7594C48.4428 56.7393 48.0174 56.746 47.5888 56.8261C47.2095 56.8961 47.3744 57.4666 47.747 57.4066C48.4494 57.2965 49.1584 57.4133 49.8608 57.47C50.5632 57.5267 51.2622 57.5 51.9646 57.4866C52.6472 57.4733 53.343 57.4666 54.0124 57.6201C54.3092 57.6868 54.662 57.7636 54.8961 57.9704C55.1467 58.1906 55.1566 58.5042 55.2292 58.8111C55.3017 59.1181 55.7799 59.1247 55.8491 58.8111C55.9942 58.1706 55.6051 57.5033 55.0379 57.2231C54.3224 56.8694 53.465 56.8094 52.6835 56.8061C52.3636 56.8061 52.0437 56.8161 51.7239 56.8261C51.7305 56.8194 51.7371 56.8127 51.7437 56.8094C51.9118 56.6659 52.0767 56.5191 52.2449 56.3757C52.601 56.0688 52.9539 55.7585 53.31 55.4515C53.9959 54.8544 54.6785 54.2538 55.3578 53.6467C55.4864 53.6767 55.6216 53.6867 55.7568 53.6633C56.1459 53.6033 56.4328 53.2997 56.5713 52.9394C56.723 52.549 56.6537 52.122 56.4921 51.745V51.7417ZM43.5921 39.2442C42.8205 38.9572 42.0456 38.6837 41.5542 37.963C41.1223 37.3292 40.9706 36.4918 41.3003 35.7778C41.6136 35.1006 42.2896 34.6101 43.0414 34.6402C43.2624 34.6502 43.4767 34.6935 43.6878 34.7569C43.9812 34.887 44.2714 35.0205 44.5583 35.1673C44.7661 35.274 44.9705 35.3841 45.175 35.4976C45.2772 35.5543 45.3761 35.6143 45.4783 35.6744C45.4915 35.6811 45.5014 35.6877 45.5113 35.6944C45.1354 36.2916 44.7792 36.8988 44.4495 37.5227C44.2615 37.8796 44.0769 38.2433 43.9021 38.6103C43.8032 38.8138 43.6911 39.0273 43.5921 39.2442ZM48.7363 40.6887C48.7165 40.7021 48.6934 40.7121 48.677 40.7288C48.677 40.7288 48.6737 40.7354 48.6704 40.7388C48.5319 40.8122 48.4033 40.9089 48.2582 40.9723C48.1032 41.0424 47.9251 41.0858 47.7569 41.1058C47.3151 41.1591 46.8633 41.0624 46.4379 40.939C45.597 40.6954 44.776 40.3551 44.034 39.8814C44.189 39.5778 44.3011 39.2375 44.4396 38.9272C44.6144 38.5435 44.7957 38.1666 44.9837 37.7929C45.3299 37.109 45.7059 36.4417 46.095 35.7811C46.6226 35.9713 47.137 36.2349 47.6151 36.5285C48.1032 36.8254 48.6275 37.1657 48.9605 37.6428C49.2672 38.0865 49.4057 38.627 49.3595 39.1674C49.3101 39.7446 49.0067 40.205 48.7363 40.6921V40.6887ZM56.0074 52.539C56.0074 52.539 56.0008 52.5757 55.9975 52.5857C55.9909 52.6158 55.9843 52.6458 55.9744 52.6725C55.9744 52.6791 55.9513 52.7259 55.9513 52.7259C55.9415 52.7459 55.9316 52.7659 55.9217 52.7859C55.9118 52.8059 55.8986 52.8259 55.8854 52.8426C55.8821 52.846 55.8524 52.8793 55.8491 52.8827C55.8326 52.8993 55.8161 52.9127 55.7997 52.9294C55.7931 52.9327 55.7568 52.9561 55.7535 52.9594C55.7403 52.9661 55.7205 52.9761 55.7139 52.9761C55.6941 52.9827 55.6776 52.9861 55.6579 52.9928C55.6513 52.9928 55.6513 52.9927 55.648 52.9961C55.648 52.9961 55.648 52.9961 55.6414 52.9961C55.615 52.9961 55.5886 52.9961 55.5622 52.9961C55.5556 52.9961 55.5556 52.9961 55.5523 52.9961C55.5523 52.9961 55.5523 52.9961 55.5457 52.9961C55.5194 52.9894 55.4963 52.9827 55.4699 52.9761C55.46 52.9761 55.46 52.9761 55.46 52.9761C55.4567 52.9761 55.4534 52.9727 55.4435 52.9627C55.4204 52.9494 55.3974 52.936 55.3776 52.9227C55.3578 52.9093 55.338 52.886 55.3149 52.8793C55.3116 52.8793 55.3116 52.8793 55.3083 52.8793C55.3017 52.8726 55.2951 52.866 55.2885 52.8593C55.1962 52.7659 55.0445 52.7459 54.9324 52.8126C54.8269 52.876 54.751 53.0261 54.7972 53.1496C54.8401 53.263 54.8961 53.3564 54.972 53.4331C54.3059 53.9869 53.6365 54.5408 52.977 55.1046L51.9316 55.992C51.7635 56.1355 51.592 56.2789 51.4238 56.4224C51.2688 56.5558 51.0941 56.686 50.9622 56.8461C50.6918 56.8528 50.4214 56.8528 50.1477 56.8394C50.0125 56.8327 49.8773 56.8227 49.7454 56.8161C49.9663 56.6426 50.1905 56.4691 50.4082 56.2923C50.8599 55.9286 51.3018 55.555 51.7371 55.168C52.5878 54.414 53.4056 53.6233 54.1806 52.7892C54.2135 52.7992 54.2465 52.8059 54.2828 52.8093C54.3784 52.8159 54.5037 52.7492 54.5433 52.6591C54.5664 52.6024 54.5862 52.5557 54.5895 52.4957C54.5895 52.4456 54.5796 52.3989 54.5598 52.3522C54.5565 52.3422 54.5499 52.3288 54.5433 52.3188C54.5301 52.2855 54.5235 52.2554 54.5169 52.2221C54.5169 52.1921 54.5169 52.1654 54.5169 52.1353C54.5235 52.1087 54.5301 52.0786 54.54 52.0519C54.5565 52.0219 54.573 51.9885 54.5928 51.9585C54.6356 51.8985 54.6455 51.7817 54.6257 51.715C54.6026 51.6483 54.5697 51.5915 54.5136 51.5482C54.4839 51.5248 54.4477 51.5081 54.4081 51.4948C54.1608 50.8209 53.7816 50.1636 53.4914 49.5197C53.1155 48.6857 52.7494 47.8483 52.39 47.0042C51.6678 45.3194 50.972 43.6246 50.296 41.9198C50.2664 41.8464 50.2136 41.7997 50.1576 41.7697C50.1312 41.6729 50.0553 41.5862 49.9564 41.5595C49.9069 41.5461 49.8641 41.5328 49.8146 41.5261C49.7783 41.5228 49.7421 41.5195 49.7058 41.5161C49.6398 41.5061 49.5772 41.4894 49.5145 41.4694C49.4717 41.4494 49.4321 41.426 49.3958 41.3994C49.3661 41.3727 49.3398 41.346 49.3134 41.316C49.2837 41.2759 49.2606 41.2325 49.2375 41.1892C49.221 41.1391 49.2079 41.0924 49.198 41.039C49.6102 40.7555 49.8707 40.2951 50.0059 39.808C50.0257 39.808 50.0454 39.808 50.0652 39.808C50.0685 39.808 50.0817 39.808 50.0949 39.808C50.1081 39.808 50.1312 39.8146 50.1345 39.8146C50.1608 39.8213 50.1839 39.8247 50.2103 39.8313C50.2532 39.8413 50.2928 39.858 50.3323 39.8714C50.2631 39.848 50.3356 39.8714 50.3488 39.8814C50.3686 39.8914 50.3884 39.9014 50.4049 39.9114C50.4477 39.9348 50.4873 39.9614 50.5269 39.9881C50.5434 40.0048 50.5599 40.0182 50.5763 40.0315C50.6126 40.0649 50.6423 40.1016 50.6753 40.1349C50.6885 40.1549 50.7049 40.1783 50.7181 40.2017C50.7412 40.2417 50.761 40.2817 50.7841 40.3218C50.7841 40.3251 50.7874 40.3284 50.7907 40.3318C50.7907 40.3318 50.7907 40.3351 50.7907 40.3418C50.7973 40.3651 50.8072 40.3851 50.8138 40.4085C50.827 40.4585 50.8401 40.5086 50.85 40.5586C50.85 40.582 50.8533 40.6053 50.8533 40.6287C50.8533 40.6787 50.85 40.7321 50.85 40.7822C50.8434 40.8088 50.8401 40.8355 50.8335 40.8622C50.8171 40.9323 50.8006 41.0057 50.7841 41.0791C50.6258 41.2659 50.7049 41.6396 51.0215 41.6396C51.0479 41.6396 51.0743 41.6362 51.0974 41.6296C51.6316 43.2209 52.2746 44.7689 52.9605 46.3003C53.3199 47.1043 53.6892 47.9017 54.0553 48.699C54.4345 49.5164 54.751 50.4372 55.2325 51.1979C55.2622 51.2446 55.3017 51.2713 55.3446 51.2946C55.3677 51.4014 55.4369 51.5015 55.549 51.5215C55.5721 51.5248 55.5985 51.5315 55.6216 51.5415C55.6282 51.5448 55.6414 51.5548 55.6546 51.5615C55.6546 51.5648 55.6908 51.5949 55.6974 51.6015C55.7106 51.6149 55.7238 51.6316 55.737 51.6483C55.8095 51.7483 55.8821 51.8851 55.9217 51.9852C55.9415 52.0319 55.9678 52.122 55.9843 52.1854C56.0041 52.2688 56.0074 52.2755 56.0107 52.3455C56.014 52.4089 56.0107 52.4723 56.0074 52.5323V52.539Z" fill="#4C3451"/>
<path d="M46.8039 56.2121C46.7677 56.5291 46.7479 56.8493 46.7347 57.1663C46.8501 57.3498 46.9358 57.5233 46.9655 57.6734C47.0018 57.8702 47.0743 58.3006 46.9095 58.4674C46.8501 58.5275 46.771 58.5275 46.6885 58.5075C46.6819 58.711 46.6786 58.9178 46.6885 59.1213C47.4602 59.2081 47.8493 58.4074 47.4602 57.193C47.3744 56.9294 47.1271 56.5824 46.8072 56.2155L46.8039 56.2121Z" fill="#4C3451"/>
<path d="M55.3479 51.8042C54.9258 51.8042 54.9258 52.4681 55.3479 52.4681C55.77 52.4681 55.77 51.8042 55.3479 51.8042Z" fill="#4C3451"/>
<path d="M33.3268 31.5901C33.5346 31.1964 34.7976 30.3257 35.068 30.9262C35.091 31.043 35.0284 31.1998 34.9031 31.2265C34.4315 31.3265 34.0358 31.6335 33.7127 31.9771C33.462 32.1606 33.1521 31.8403 33.3268 31.5868V31.5901Z" fill="#4C3451"/>
<path d="M36.2585 21.2293C35.5022 21.242 32.9445 21.806 31.3768 22.3668C29.254 23.1273 28.673 25.5164 29.4358 27.5474C27.6214 29.0461 28.3549 32.9213 31.0002 32.8706C33.8793 32.7882 33.0419 27.8326 30.7828 27.2908C30.416 25.7825 30.7763 24.5848 32.3505 23.6311C33.506 22.9308 34.8563 22.2274 36.2617 22.1767C36.8849 22.164 36.8881 21.2166 36.2617 21.2293H36.2585Z" fill="#FDCA0C"/>
<path d="M36.5564 20.3987C34.7161 20.486 30.9389 21.5937 30.1668 22.4183C29.134 23.5225 28.7383 25.3115 29.4461 27.3172C27.1167 29.1376 29.1308 35.2839 32.287 33.3202C33.9472 31.8107 33.6254 27.7749 31.4376 27.1215C31.1352 25.6085 31.4955 24.5498 32.1294 23.795C33.7123 21.9012 37.5023 21.5902 38.3775 21.0066C38.5287 20.9053 37.1806 20.3707 36.5564 20.3987ZM31.7819 28.002C33.1943 29.0957 33.1299 33.114 30.8199 32.9253C28.0497 32.3593 29.1018 25.923 31.7819 28.002ZM31.6371 23.2639C30.8488 24.2108 30.4113 25.3744 30.8135 26.8769C30.5561 26.8594 30.3019 26.9013 30.0542 26.9992C29.5265 25.1822 29.8515 24.0151 30.5882 23.1521C31.8816 21.6391 34.552 21.2582 36.6304 20.8459C36.1703 20.9437 32.6377 22.0654 31.6371 23.2709V23.2639Z" fill="#4C3451"/>
<path d="M32.4753 30.355C32.4656 30.1203 32.4331 29.8856 32.3714 29.6571C32.4071 29.6201 32.4266 29.5676 32.4201 29.5243C32.4104 29.4626 32.3551 29.3977 32.2837 29.3885C32.2057 29.1785 32.1017 28.9778 31.9782 28.7894C31.8613 28.6134 31.5689 28.774 31.6858 28.9531C31.7865 29.1106 31.871 29.2773 31.936 29.4471C31.832 29.4718 31.7313 29.5058 31.6306 29.546C31.5884 29.3977 31.5396 29.2495 31.4779 29.1075C31.3999 28.9222 31.0782 29.0025 31.1562 29.1908C31.2245 29.3545 31.2764 29.5213 31.3187 29.6911C31.1985 29.7559 31.0847 29.827 30.9743 29.9103C30.9028 29.9659 30.9125 30.0833 30.9743 30.1419C31.0458 30.2099 31.1465 30.1975 31.218 30.1419C31.2732 30.1018 31.3317 30.0647 31.3902 30.0277C31.4324 30.2778 31.4454 30.5341 31.4356 30.7873C31.3187 30.8676 31.205 30.951 31.101 31.0436C31.036 31.1023 31.0393 31.2104 31.101 31.269C31.1627 31.3277 31.2732 31.3277 31.3382 31.269C31.3577 31.2505 31.3804 31.2382 31.3999 31.2196C31.3707 31.4265 31.3317 31.6365 31.2699 31.8403C31.2082 32.041 31.5331 32.1244 31.5981 31.9268C31.7021 31.6087 31.7606 31.2814 31.7833 30.951C31.884 30.8923 31.9912 30.8367 32.0985 30.7904C32.0855 30.8923 32.0692 30.9942 32.0465 31.0961C31.9977 31.3061 32.3291 31.3957 32.3876 31.1857C32.4331 31.0127 32.4591 30.8367 32.4688 30.6576C32.6346 30.6082 32.6053 30.4044 32.4753 30.3581V30.355ZM31.7833 30.5804C31.7768 30.3365 31.7573 30.0956 31.7086 29.8578C31.8125 29.8146 31.923 29.7806 32.0335 29.7529C32.092 29.9752 32.118 30.2068 32.118 30.4353C32.0042 30.4785 31.8905 30.5248 31.7833 30.5804Z" fill="#FCA710"/>
<path d="M47.8821 27.5789C47.6111 27.6583 47.4292 27.8896 47.2678 28.1085C47.0955 28.3425 46.9332 28.5845 46.7662 28.8227C46.589 29.0759 46.9884 29.3547 47.194 29.1387C47.5442 28.7687 48.1233 28.3375 48.1705 27.7954C48.1853 27.646 48.0124 27.541 47.8821 27.5789Z" fill="#8E7F91"/>
<path d="M49.888 26.041C49.3379 25.7783 48.7584 26.458 48.5194 26.8771C48.3801 27.1207 48.7097 27.3492 48.9043 27.1619C49.0771 26.9998 49.267 26.8571 49.4707 26.7363C49.6549 26.6233 49.8741 26.5312 49.969 26.3259C50.0131 26.2258 49.996 26.0907 49.888 26.041Z" fill="#8E7F91"/>
<path d="M52.7863 25.2012C52.4968 25.0214 52.1361 25.1259 51.8262 25.2133C51.4584 25.3185 51.1383 25.499 50.8064 25.6824C50.6191 25.7855 50.7551 26.0713 50.9537 26.0196C51.2965 25.9307 51.6528 25.8902 52.0007 25.8258C52.304 25.7729 52.6123 25.7687 52.8383 25.5404C52.8605 25.5161 52.877 25.4872 52.8866 25.4556C52.8961 25.4241 52.8985 25.3908 52.8935 25.3583C52.8885 25.3257 52.8763 25.2947 52.8577 25.2675C52.8392 25.2403 52.8147 25.2177 52.7863 25.2012Z" fill="#8E7F91"/>
<path d="M46.3279 29.4945C46.0134 29.4669 45.797 29.7086 45.6098 29.9142C45.3884 30.1595 45.2433 30.4476 45.0907 30.7432C45.0044 30.9097 45.2595 31.0917 45.3818 30.9635C45.5931 30.7426 45.8403 30.5566 46.0685 30.3541C46.2691 30.1804 46.4995 30.0453 46.5482 29.7571C46.552 29.7272 46.549 29.6959 46.5394 29.6653C46.5298 29.6348 46.5138 29.6058 46.4926 29.5806C46.4715 29.5554 46.4457 29.5346 46.4172 29.5197C46.3887 29.5047 46.3581 29.4961 46.3279 29.4945Z" fill="#8E7F91"/>
<path d="M55.2103 25.161C55.0202 25.0508 54.7867 25.0725 54.5738 25.0715C54.3237 25.0704 54.0743 25.045 53.8291 24.9955C53.5181 24.9317 53.398 25.3895 53.7065 25.4746C54.1427 25.596 54.8765 25.7933 55.2536 25.4491C55.2723 25.4284 55.2862 25.4038 55.2943 25.3772C55.3023 25.3505 55.3044 25.3223 55.3002 25.2947C55.2961 25.2672 55.2859 25.2409 55.2703 25.2177C55.2548 25.1946 55.2343 25.1752 55.2103 25.161Z" fill="#8E7F91"/>
<path d="M57.2438 25.3285C57.0365 25.0787 56.5619 25.1939 56.2853 25.2255C56.2225 25.23 56.1637 25.2584 56.1209 25.3048C56.0782 25.3512 56.0547 25.4123 56.0553 25.4754C56.0559 25.5386 56.0805 25.5992 56.1241 25.6448C56.1677 25.6904 56.227 25.7176 56.29 25.7209C56.5707 25.7471 57.043 25.8599 57.2503 25.6038C57.2841 25.5656 57.3023 25.5159 57.3011 25.4649C57.2999 25.4138 57.2795 25.3651 57.2438 25.3285Z" fill="#8E7F91"/>
<path d="M61.6919 21.3713C61.6644 20.5542 60.0544 19.0012 58.4073 19.3425C57.327 19.5678 57.2077 21.1814 57.9369 21.9332C58.6661 22.685 61.7199 22.1883 61.6919 21.3713Z" fill="#8E7F91"/>
<path d="M63.5613 21.9867C61.5306 19.718 58.4432 22.8589 58.7866 24.8407C58.9345 25.8174 60.1278 26.0576 60.9325 25.8943C62.2111 25.6649 65.5927 24.256 63.5613 21.9867Z" fill="#292F3A"/>
<path d="M63.5481 18.6496C63.3288 18.7088 63.1144 18.7848 62.9068 18.8772C62.8794 18.6601 62.9282 18.4401 63.0447 18.2551C63.146 18.0981 63.3349 18.0005 63.466 17.868C63.4929 17.8802 63.5218 17.8872 63.5512 17.8888C63.594 17.8979 63.6385 17.8953 63.6799 17.8813C63.7353 17.8657 63.7855 17.8355 63.8252 17.7937C63.8486 17.7688 63.8689 17.7409 63.8854 17.7109C63.9157 17.655 63.9317 17.5924 63.9319 17.5288C63.929 17.5131 63.926 17.4967 63.9275 17.4801L63.9282 17.4839C63.9276 17.4807 63.927 17.4776 63.9264 17.4744L63.9226 17.4536C63.9204 17.3974 63.9027 17.3429 63.8715 17.2962C63.8404 17.2446 63.7962 17.2022 63.7434 17.1732C63.7053 17.1494 63.6615 17.1361 63.6166 17.1347C63.5711 17.1249 63.5237 17.1276 63.4795 17.1425C63.4204 17.1594 63.3668 17.1918 63.3244 17.2364C63.3048 17.2609 63.286 17.2859 63.2686 17.3119C63.2392 17.3648 63.2239 17.4245 63.2244 17.485C63.2249 17.5011 63.2263 17.5172 63.2287 17.5331C62.9565 17.6415 62.7251 17.9575 62.6198 18.1981C62.5584 18.3273 62.5261 18.4685 62.5251 18.6117C62.5241 18.7548 62.5546 18.8964 62.6142 19.0265C62.5281 19.0765 62.445 19.1315 62.3654 19.1912C62.2576 19.0136 62.1861 18.8163 62.1551 18.6107C62.136 18.4187 62.1898 18.2235 62.1996 18.0294C62.2247 18.0229 62.2487 18.013 62.271 17.9999L62.3027 17.9816C62.3176 17.9744 62.3319 17.9663 62.3458 17.9573L62.3521 17.9562C62.3577 17.9551 62.3606 17.9494 62.3658 17.9458L62.3841 17.932C62.393 17.925 62.4017 17.9175 62.4099 17.9096L62.4199 17.9006C62.4486 17.8699 62.4705 17.8336 62.4842 17.7939C62.4979 17.7541 62.5031 17.712 62.4993 17.6701C62.4956 17.6283 62.4831 17.5877 62.4627 17.551C62.4422 17.5143 62.4142 17.4824 62.3806 17.4573C62.3501 17.4339 62.3151 17.4169 62.2778 17.4076C62.2405 17.3982 62.2016 17.3966 62.1637 17.4029C62.1234 17.4052 62.0845 17.4183 62.0509 17.4407L62.0385 17.4509C61.9989 17.4697 61.9637 17.4967 61.9352 17.5301C61.9068 17.5634 61.8856 17.6024 61.8731 17.6445C61.8419 17.6838 61.826 17.733 61.8283 17.7832C61.8307 17.8242 61.842 17.8641 61.8616 17.9002C61.8869 17.9405 61.9235 17.9723 61.9669 17.9916L61.9787 17.9992C61.6981 18.4221 61.7907 19.0276 62.1352 19.3968C61.4773 20.0643 61.6525 20.8991 62.0141 21.3824L63.7015 22.5998C64.2995 22.4598 64.8496 22.1629 65.2953 21.7395C66.0607 21.0196 65.7368 18.0483 63.5481 18.6496Z" fill="#292F3A"/>
<path d="M62.2728 25.4596C61.9651 25.5987 61.6472 25.7142 61.3221 25.8051C61.3372 25.5803 61.3157 25.3546 61.2582 25.1368C61.152 24.7859 60.9652 24.4647 60.7128 24.1991C60.2678 23.7227 59.6702 23.4662 59.0413 23.3655C59.1487 23.1345 59.2776 22.9142 59.4264 22.7074C59.8187 22.7314 60.2023 22.8335 60.5548 23.0076C60.9074 23.1816 61.2218 23.4243 61.4798 23.7214C61.8338 24.1247 62.2414 24.8297 62.2728 25.4596Z" fill="#FDCA0C"/>
<path d="M60.8781 25.9061C60.6723 25.9422 60.4629 25.9524 60.2546 25.9368C60.2192 25.8012 60.2074 25.6593 60.1707 25.5128C60.1081 25.2519 59.9802 25.0112 59.7992 24.8135C59.5329 24.5296 59.1548 24.3596 58.7757 24.2551C58.7976 24.0799 58.8367 23.9074 58.8923 23.7399C59.4281 23.7275 59.9326 23.9653 60.3124 24.3847C60.6344 24.7346 60.9972 25.3905 60.8781 25.9061Z" fill="#FDCA0C"/>
<path d="M63.5612 24.6402C63.3013 24.8783 63.0126 25.0827 62.7017 25.2485C62.6057 24.9142 62.5644 24.5664 62.3875 24.2484C62.1639 23.8711 61.8782 23.5344 61.5424 23.2527C60.9805 22.7699 60.3463 22.5306 59.6572 22.4169C59.8741 22.1617 60.1219 21.9345 60.3947 21.7405C61.0528 21.8635 61.6684 22.1537 62.1824 22.5833C62.6322 22.9552 63.42 23.8487 63.5612 24.6402Z" fill="#FDCA0C"/>
<path d="M63.8108 24.3707C64.3124 23.7446 64.4157 22.9417 63.5613 21.9869C63.5554 21.9795 63.5483 21.973 63.5426 21.9669C63.537 21.9607 63.5426 21.9669 63.5426 21.9669C63.344 21.7425 63.1062 21.5563 62.8409 21.4173C62.1949 21.089 61.5069 21.155 60.8807 21.4541L60.8763 21.4549C61.4686 21.6856 62.0479 21.9657 62.53 22.3825C63.1909 22.9545 63.5285 23.5864 63.8127 24.3704L63.8108 24.3707Z" fill="#FDCA0C"/>
<path d="M62.333 21.6375C62.6378 20.8796 61.7961 18.8029 60.1523 18.4479C59.0735 18.2146 58.3113 19.6408 58.6738 20.624C59.0364 21.6073 62.0275 22.3956 62.333 21.6375Z" fill="white"/>
<path d="M59.1451 25.0281C58.8902 25.0857 58.1743 25.5898 58.2622 25.6961C58.3118 25.8173 59.2525 25.7737 59.4369 25.4787C59.5674 25.2792 59.3988 24.9713 59.1451 25.0281Z" fill="#292F3A"/>
<path d="M64.8265 19.4335L64.7046 19.3439C64.6153 19.2936 64.5145 19.2673 64.412 19.2676C64.3319 19.2648 64.2524 19.2835 64.182 19.322C64.1077 19.3471 64.0414 19.3913 63.9895 19.4502C63.9347 19.5033 63.8942 19.5696 63.8721 19.6427C63.8376 19.7118 63.8215 19.7887 63.8253 19.8659C63.8276 19.8779 63.8298 19.8898 63.8283 19.9031C63.8283 19.9775 63.8467 20.0507 63.8818 20.1162C63.8963 20.1665 63.9238 20.212 63.9615 20.2482C64.0039 20.3116 64.0619 20.3628 64.13 20.397L64.2705 20.4531L64.4222 20.4713C64.5017 20.4737 64.5804 20.4549 64.6503 20.4167C64.7242 20.3921 64.7902 20.3481 64.8416 20.2894C64.8578 20.269 64.8734 20.2479 64.8884 20.226C64.9076 20.2078 64.9232 20.1864 64.9347 20.1626C64.9527 20.1156 64.9715 20.0691 64.9901 20.022C64.9903 20.0207 64.9901 20.0193 64.9894 20.0182C64.9937 19.992 64.9974 19.9659 64.9991 19.9401C65.0049 19.914 65.0081 19.8875 65.0086 19.8608L64.9856 19.704C64.9858 19.7018 64.9854 19.6996 64.9844 19.6977C64.9559 19.5972 64.9014 19.5061 64.8265 19.4335Z" fill="white"/>
<path d="M64.447 19.4494C64.0314 19.5687 64.215 20.2158 64.6312 20.0964C65.0474 19.977 64.8632 19.3306 64.447 19.4494Z" fill="#292F3A"/>
</g>
<defs>
<clipPath id="clip0_1_1940">
<rect width="48.3499" height="47.005" fill="white" transform="translate(18.1312 16.853)"/>
</clipPath>
</defs>
</svg>
