<svg width="85" height="83" viewBox="0 0 85 83" fill="none" xmlns="http://www.w3.org/2000/svg">
<path d="M10.5979 14.2822C11.9845 10.1881 15.4477 7.14551 19.6829 6.30063L50.0952 0.233622C54.3304 -0.61126 58.6941 0.869877 61.5426 4.1191L81.9973 27.4515C84.8458 30.7007 85.7464 35.2244 84.3597 39.3185L74.4021 68.7178C73.0154 72.812 69.5523 75.8545 65.3171 76.6994L34.9048 82.7664C30.6696 83.6113 26.3059 82.1301 23.4574 78.8809L3.00265 55.5485C0.154162 52.2993 -0.746358 47.7756 0.640314 43.6815L10.5979 14.2822Z" fill="#C9C2CB"/>
<g clip-path="url(#clip0_1_1942)">
<path d="M58.6252 54.9713C58.7325 53.2153 57.8795 49.2349 56.0483 48.6151C55.3151 47.5875 54.0276 48.5439 53.4428 49.2723C53.0404 48.421 51.8709 47.787 50.9857 48.3747C50.6942 46.8199 50.0898 45.2723 49.5766 43.8119C49.1921 42.7202 48.7611 40.3267 47.1213 40.5653C46.0572 40.7202 39.5711 42.5475 36.1716 44.0043C32.5718 44.6365 30.3097 47.4611 29.2295 50.7131C28.5822 52.6632 28.3515 55.6765 28.33 57.7335C28.3193 58.7896 28.2782 60.2536 28.5947 61.4806C29.0132 63.1066 39.7142 64.3248 40.0808 62.8306C40.5458 60.9392 41.0805 59.0728 41.7153 57.2277C41.9835 56.4459 42.2607 55.6552 42.5039 54.852C43.1423 54.9036 44.378 54.9268 45.2293 54.9196C45.8462 56.6062 47.0658 57.974 47.9671 59.5038C48.7504 60.5421 49.117 62.2927 48.9882 63.6783C49.1349 64.1342 51.7851 65.7727 57.1535 63.7869C57.5862 63.5055 57.3144 62.2892 57.3931 60.7006C57.495 58.7326 58.5054 56.9428 58.6252 54.9731V54.9713Z" fill="white"/>
<path d="M37.2124 43.5744C37.3108 43.6474 37.3895 43.7489 37.4413 43.8575C37.6363 44.2565 37.6774 44.6661 37.6792 45.1042C37.681 45.7596 37.4324 46.447 37.1338 47.0294C36.8906 47.5049 36.5776 47.9519 36.2718 48.39C36.034 48.7337 35.7478 49.0329 35.4921 49.3624C35.4349 49.4354 35.3812 49.5084 35.3312 49.585C35.3222 49.5993 35.3026 49.6242 35.2865 49.6491C35.2847 49.658 35.2829 49.6652 35.2811 49.6723C35.2793 49.6812 35.2668 49.7186 35.2561 49.7489C35.2543 49.7792 35.2525 49.8076 35.2507 49.8379C35.3902 50.2832 35.4832 50.732 35.5297 51.1968C35.5851 51.7631 35.6012 52.3348 35.603 52.9029C35.6745 53.4354 35.7353 53.9715 35.7371 54.5093C35.7371 54.6785 35.7353 54.8495 35.73 55.0187C35.8998 55.1576 36.0751 55.2858 36.2414 55.4372C36.3612 55.5494 36.4721 55.6527 36.583 55.7702C36.9549 56.1638 37.3144 56.5663 37.6327 57.0044C38.196 57.7827 38.6985 58.609 39.1903 59.4336C39.6803 60.2546 40.0272 61.1112 40.2275 62.0462C40.2346 62.0765 40.2382 62.1086 40.2436 62.1389C40.6674 60.4844 41.1431 58.8477 41.701 57.2252C41.9693 56.4434 42.2464 55.6527 42.4896 54.8495C42.8938 54.8815 43.8362 54.9029 44.3244 54.9118V41.3055C42.3573 41.8985 39.2672 42.7587 37.2107 43.5708L37.2124 43.5744Z" fill="#C4C2C2"/>
<path d="M42.0712 54.8699C41.8638 55.3454 41.6653 55.8263 41.4775 56.3107C40.6495 58.4603 39.7554 60.7826 39.5408 63.0925C39.5068 63.4647 40.0576 63.6 40.1899 63.2421C40.9893 61.0693 41.4471 58.7808 42.2518 56.6027C42.4521 56.0613 42.6613 55.5235 42.8759 54.9857C42.6095 54.9625 42.3323 54.9393 42.0712 54.8681V54.8699Z" fill="#4C3451"/>
<path d="M35.0611 43.5024C34.7696 39.0732 34.6927 25.6485 36.1 24.6049C37.3053 23.7108 48.8254 23.4918 48.8254 23.4918C48.8254 23.4918 50.8784 24.311 50.9767 24.4179C51.6706 25.1623 52.0676 30.441 52.2124 35.148C52.3573 39.855 51.6241 54.1114 50.8444 55.1408C50.0647 56.1702 39.0757 55.9992 37.7596 55.9778C37.3357 55.9707 35.9176 54.9948 35.9176 54.9948L36.5167 49.237C36.5167 49.237 38.9363 45.3367 38.7789 44.4071C38.4087 42.2254 35.0611 43.5024 35.0611 43.5024Z" fill="#8E7F91"/>
<path d="M37.3931 57.5792C37.2876 56.6371 36.9567 55.7626 36.3755 55.0129C36.2611 54.865 36.0018 55.0164 36.0912 55.1874C36.49 55.9389 36.7636 56.7884 36.8387 57.6362C36.8762 58.0529 36.8691 58.4697 36.8119 58.8828C36.7833 59.0948 36.735 59.3031 36.701 59.5151C36.6652 59.7306 36.5883 59.9514 36.5794 60.1687C36.5722 60.361 36.8047 60.4465 36.9263 60.3005C37.216 59.9532 37.3215 59.4064 37.377 58.9719C37.4378 58.5124 37.4431 58.0404 37.3913 57.5792H37.3931Z" fill="#C4C2C2"/>
<path d="M33.1924 45.16C32.9009 40.7308 32.824 25.2972 34.2314 24.2536C35.6387 23.2099 48.416 23.3239 49.1098 24.0684C49.8037 24.8128 50.2007 30.0915 50.3455 34.7985C50.4904 39.5055 50.3455 46.7005 50.3455 46.7005C50.3455 46.7005 49.9718 45.3274 49.2243 42.2375C48.4768 39.1475 45.6191 40.5206 46.0644 43.0104C46.5097 45.5001 47.4861 50.4066 47.343 50.4494C47.1999 50.4921 45.4904 51.9507 45.1166 53.0673V54.6844L35.9696 54.7913C35.8265 51.2935 34.648 48.8875 34.648 48.8875C34.648 48.8875 37.0908 46.3425 36.9317 45.4129C36.5615 43.2312 33.1924 45.1618 33.1924 45.1618V45.16Z" fill="#68556C"/>
<path d="M46.1645 41.3159C46.2432 41.1592 46.3344 41.0096 46.447 40.876C46.5347 40.746 46.6402 40.6284 46.7689 40.5376C46.9996 40.3738 47.2929 40.2936 47.5755 40.3061C47.892 40.3185 48.221 40.4539 48.4696 40.648C48.5411 40.7032 48.6073 40.7691 48.6681 40.8368C48.6574 39.9588 48.4875 39.0666 48.3122 38.9437C47.9885 38.7193 35.5994 38.6908 35.2542 38.9828C34.9091 39.2749 34.9377 42.1209 35.2095 42.4396C35.4974 42.778 42.2661 42.8225 45.8444 42.7193C45.814 42.5892 45.7997 42.4557 45.8122 42.3274C45.839 42.0051 45.9034 41.7878 46.0536 41.4975C46.0858 41.4352 46.1252 41.3746 46.1663 41.3159H46.1645Z" fill="#FDCA0C"/>
<path d="M46.8047 47.0926C46.7654 46.9288 46.7278 46.7667 46.6974 46.6011C46.5991 46.0846 46.4721 45.5806 46.3576 45.0677C46.2772 44.708 46.1842 44.1968 46.2414 43.748C43.2711 43.6768 37.6702 43.6946 35.9588 43.83C36.1037 43.9012 36.2342 44.008 36.3469 44.122C36.4077 44.1826 36.4577 44.2414 36.4989 44.2983C36.9155 44.6848 37.1945 45.2351 37.1319 45.8104C37.1123 45.9867 37.064 46.1665 37.0085 46.3357C36.8744 46.7418 36.6688 47.0998 36.4184 47.4435C36.388 47.4844 36.3576 47.5236 36.3254 47.561C38.5125 47.7462 44.2385 47.7373 46.8619 47.6251C46.8423 47.447 46.8226 47.2707 46.8047 47.0926Z" fill="#8E7F91"/>
<path d="M45.5565 52.2861C45.6101 52.1329 45.6781 51.9833 45.7478 51.8373C45.932 51.4508 46.1663 51.1481 46.4524 50.8453C46.4238 50.8738 46.3952 50.9041 46.3648 50.9361C46.4184 50.8809 46.4703 50.8239 46.524 50.7687C46.4989 50.7937 46.4775 50.8204 46.4524 50.8453C46.5722 50.7242 46.6742 50.6369 46.8083 50.5336C46.7886 50.5479 46.7672 50.5639 46.7457 50.58C46.7779 50.5568 46.8101 50.5319 46.8423 50.5087C46.8709 50.4873 46.9013 50.4642 46.9335 50.441L46.8423 50.5087C46.8298 50.5176 46.819 50.5265 46.8083 50.5354C46.9424 50.4375 47.0426 50.3769 47.182 50.3057C47.1552 50.3182 47.1284 50.3306 47.1016 50.3431C47.1445 50.3217 47.1874 50.3021 47.2303 50.2808C47.1892 50.0154 47.1481 49.7483 47.1069 49.4829C47.0676 49.2247 47.03 48.9664 46.9943 48.7082C43.6788 48.6031 35.7836 48.6352 35.5117 48.8631C35.3258 49.0199 35.2489 49.9228 35.2596 50.7705C35.3454 50.97 35.4152 51.1819 35.4831 51.3885C35.5976 51.7429 35.6852 52.0653 35.7693 52.4214C37.0193 52.6512 42.2625 52.6868 45.4742 52.6156C45.4939 52.5051 45.5207 52.3947 45.5583 52.2879L45.5565 52.2861Z" fill="#8E7F91"/>
<path d="M45.0845 54.5183C45.0916 54.4577 45.1041 54.3918 45.1184 54.3241C42.5898 54.6037 38.9757 54.6447 37.3752 54.5183C36.9102 54.4809 36.8852 55.0027 37.3716 55.0757C38.9328 55.3072 42.4611 55.3286 45.0719 55.0882C45.0612 54.8976 45.0648 54.7088 45.0845 54.52V54.5183Z" fill="#4C3451"/>
<path d="M48.6056 24.57C49.4568 25.2307 49.6803 30.1782 49.8412 35.8077C49.9289 38.8727 49.9289 42.1425 49.8412 45.0205C49.995 45.4568 50.1238 45.9021 50.2543 46.3455C50.3903 46.8139 50.494 47.2948 50.612 47.7703C50.832 44.2654 50.8981 39.7792 50.798 35.6421C50.6585 29.8042 50.6352 24.782 49.4961 23.765C47.9814 22.4133 35.1774 22.8051 33.8362 23.8826C33.2335 24.367 32.8097 28.025 32.5665 36.4364C32.4807 39.4177 32.6023 42.5664 32.8097 45.3767C32.9331 45.3001 33.0601 45.2289 33.1906 45.163C33.3676 45.0739 33.5322 45.0081 33.7235 44.9617H33.7307C33.6144 42.3117 33.5518 39.3839 33.6198 36.6038C33.8397 27.6813 34.3065 25.1809 34.9342 24.6466C35.6781 24.0108 47.47 23.6902 48.6038 24.5718L48.6056 24.57Z" fill="#4C3451"/>
<path d="M35.1845 49.2123C36.5776 48.1687 37.917 46.3539 37.3662 44.7457C36.5132 42.256 32.9742 44.6869 31.903 45.6843C27.6022 49.6967 27.4699 56.3004 28.2389 61.6895C28.2979 62.1045 29.0132 62.1009 28.9971 61.6611C28.8415 57.2693 28.2979 52.4643 30.7568 48.5605C31.7457 46.9915 33.1906 45.597 34.9395 44.9042C35.5708 44.6549 36.4077 44.5391 36.4399 45.4296C36.4578 45.9229 36.1824 46.4501 35.9374 46.8632C35.4152 47.743 34.6606 48.3966 33.7879 48.9167C33.2568 49.2337 33.6037 50.0956 34.1956 49.816C34.2904 49.7715 34.3852 49.7216 34.4835 49.6682C34.6176 50.6513 35.0558 51.6273 35.1917 52.6192C35.3437 53.7323 35.1577 54.8792 35.3473 55.9781C35.4134 56.3592 35.9249 56.3806 36.0715 56.0493C36.549 54.9754 36.3988 53.5809 36.2325 52.4465C36.084 51.4278 35.8516 50.0582 35.1827 49.2123H35.1845Z" fill="#4C3451"/>
<path d="M58.6682 51.6103C58.1084 49.1009 55.773 46.0217 53.5233 48.4918C52.9636 47.808 51.8978 47.4037 51.0769 47.8632C50.7103 46.7839 50.0684 44.2354 49.5533 42.109C48.661 38.4278 44.9431 39.653 45.6155 43.1722C46.034 45.3645 46.4703 48.0787 46.8208 49.8649C43.8773 51.5426 43.956 55.1828 45.9124 57.6102C47.4128 59.4713 48.5734 63.5212 49.0168 63.7384C49.4603 63.9557 49.2189 59.8596 47.3377 57.539C45.4564 55.2184 45.1184 53.2452 46.98 51.2737C47.1767 53.0564 46.9961 54.7465 48.6216 55.9878C48.0655 51.5479 47.1642 47.2256 46.4113 42.832C46.0161 40.5328 48.0816 40.1446 48.5912 42.0146C49.3477 44.7893 49.6928 47.2648 50.73 49.913C52.1088 50.873 50.3545 47.4892 52.4146 48.9121C52.774 49.4001 53.931 50.8623 53.9722 49.4268C55.2508 47.3841 57.0712 50.1463 57.3824 51.4553C58.4947 56.1107 56.7118 58.921 56.8584 60.8035C57.0033 62.6645 56.6635 63.6886 57.1499 63.7883C57.6363 63.888 57.9207 61.3039 57.8742 60.6218C57.8134 59.742 59.8699 55.8079 58.6682 51.612V51.6103Z" fill="#4C3451"/>
<path d="M59.3244 25.713C59.0705 25.6453 58.7719 25.6917 58.5126 25.7077C58.2354 25.7237 57.96 25.7433 57.6846 25.7807C57.1481 25.8519 56.6134 25.9606 56.0894 26.0941C55.0308 26.3666 53.9918 26.7282 53.0726 27.3266C52.9045 27.4352 53.0386 27.7041 53.2282 27.6382C54.2261 27.2945 55.215 26.9098 56.2432 26.6551C56.7457 26.5305 57.2536 26.4307 57.7651 26.3506C58.0261 26.3096 58.289 26.2669 58.5519 26.2331C58.813 26.1992 59.1081 26.2099 59.3566 26.1191C59.5641 26.0425 59.5265 25.7682 59.328 25.7148L59.3244 25.713Z" fill="white"/>
<path d="M58.5544 36.2487C58.3789 36.1452 58.1742 36.1394 57.9743 36.114C57.7688 36.0875 57.5641 36.0594 57.3575 36.0425C56.9313 36.0097 56.5039 35.9904 56.0774 35.9879C55.663 35.9858 55.2481 35.9957 54.8352 36.0168C54.4055 36.0389 53.9938 36.1134 53.5704 36.1835C53.3152 36.2254 53.3237 36.6561 53.5945 36.645C54.0057 36.6271 54.4166 36.6394 54.8269 36.623C55.2268 36.607 55.6296 36.6007 56.0295 36.607C56.4318 36.6127 56.8323 36.6254 57.2323 36.6501C57.4391 36.663 57.6454 36.6696 57.8529 36.685C58.0477 36.6976 58.2706 36.7518 58.4599 36.6964C58.6467 36.6417 58.7589 36.37 58.5544 36.2487Z" fill="white"/>
<path d="M55.7861 37.4862C55.6985 37.3063 55.4588 37.2119 55.2746 37.1585C55.0779 37.1033 54.8741 37.0677 54.6702 37.0445C54.2804 37.0018 53.878 37.0321 53.4989 37.1265C53.3809 37.1567 53.2897 37.2493 53.295 37.3776C53.3004 37.4898 53.3916 37.6144 53.5168 37.6127C53.8762 37.6109 54.2339 37.6305 54.5915 37.6661C54.7686 37.6839 54.9438 37.7124 55.1173 37.7444C55.2836 37.7747 55.5304 37.8264 55.686 37.7444C55.7789 37.6964 55.8344 37.5842 55.7843 37.4827L55.7861 37.4862Z" fill="#4C3451"/>
<path d="M30.7066 34.8008C29.9663 34.8329 29.0704 34.856 28.5142 34.2843C28.4015 34.1686 28.3103 34.0083 28.2531 33.8337C28.2603 33.8337 28.2692 33.8337 28.2764 33.8302C28.6698 33.7589 29.0596 33.563 29.301 33.2389C29.6033 32.8346 29.4334 32.279 28.9148 32.1953C28.2084 32.0831 27.7667 32.6939 27.6844 33.3297C27.1158 33.0697 26.9799 32.352 26.9334 31.7625C26.8636 30.8471 26.9834 29.8979 27.2856 29.0306C27.3661 28.7973 26.9781 28.6281 26.8797 28.8596C26.6508 29.3903 26.4791 29.9282 26.4112 30.5034C26.3468 31.0626 26.3611 31.6272 26.4505 32.1828C26.5292 32.6708 26.6955 33.1855 27.08 33.5221C27.2606 33.6806 27.4734 33.7803 27.697 33.8266C27.7113 33.9014 27.7291 33.9727 27.756 34.0403C27.9491 34.5408 28.3819 34.9094 28.8701 35.1107C29.487 35.3654 30.1165 35.3475 30.7567 35.1873C30.9695 35.1338 30.9319 34.7919 30.7048 34.8026L30.7066 34.8008ZM28.6233 32.7616C28.7002 32.7313 28.8647 32.6922 28.9237 32.7741C29.0078 32.8899 28.8379 33.1178 28.7574 33.1944C28.6018 33.344 28.4015 33.4134 28.1923 33.4241C28.2012 33.1427 28.3246 32.8809 28.6215 32.7616H28.6233Z" fill="white"/>
<path d="M30.5707 35.9556C29.7696 35.9859 28.9702 35.9966 28.169 36.05C27.384 36.1016 26.5507 36.1034 25.7835 36.2851C25.6368 36.3207 25.5957 36.5593 25.7763 36.5754C26.5632 36.6502 27.3876 36.5415 28.1744 36.4845C28.9863 36.4258 29.7928 36.3278 30.6029 36.2459C30.7942 36.2263 30.7585 35.9467 30.5707 35.9538V35.9556Z" fill="#4C3451"/>
<path d="M30.4277 37.0067C30.2238 37.0636 30.0146 37.1028 29.8072 37.1491C29.5908 37.199 29.3798 37.2596 29.1652 37.3165C28.9613 37.37 28.7539 37.4181 28.55 37.4697C28.3462 37.5196 28.0761 37.5481 27.9295 37.7066C27.8311 37.8134 27.8848 37.9826 28.0046 38.0432C28.1942 38.1376 28.4767 38.0556 28.677 38.0182C28.9023 37.9755 29.1258 37.9185 29.3476 37.8615C29.5586 37.8063 29.7714 37.7475 29.9753 37.6656C30.1809 37.5837 30.3758 37.4857 30.5761 37.3967C30.8247 37.288 30.687 36.9336 30.4277 37.0067Z" fill="white"/>
<path d="M55.6774 34.9671C55.5879 34.9012 55.4699 34.8905 55.3608 34.8727C55.2625 34.8566 55.1641 34.8424 55.064 34.8388C54.8708 34.8317 54.6759 34.8442 54.4846 34.8691C54.0983 34.9208 53.7246 35.0472 53.3812 35.2182C53.206 35.3054 53.3222 35.5566 53.5082 35.4853C53.8372 35.3589 54.1841 35.2948 54.5382 35.268C54.7063 35.2556 54.8744 35.2591 55.0425 35.2698C55.1301 35.2752 55.216 35.2769 55.3036 35.2858C55.4002 35.2948 55.5003 35.3232 55.5969 35.3001C55.7578 35.2609 55.8186 35.0704 55.6791 34.9671H55.6774Z" fill="#4C3451"/>
<path d="M26.3647 33.8854C26.3647 33.8854 26.3075 33.8552 26.3361 33.8712C26.3182 33.8623 26.2985 33.8516 26.2824 33.8409C26.2502 33.8195 26.2198 33.7964 26.1894 33.775C26.1233 33.7287 26.0571 33.6842 25.9909 33.6379C25.9283 33.5934 25.8675 33.5453 25.8067 33.4972C25.7728 33.4705 25.7406 33.4438 25.7084 33.417C25.6959 33.4064 25.6816 33.3939 25.669 33.3814C25.6655 33.3779 25.6386 33.3529 25.6333 33.3494C25.6261 33.3422 25.6172 33.3333 25.6154 33.3316C25.6011 33.3173 25.585 33.3013 25.5707 33.287C25.5439 33.2585 25.5188 33.23 25.492 33.2016C25.4384 33.141 25.3865 33.0804 25.3364 33.0163C25.2899 32.9558 25.2381 32.9006 25.1952 32.8347C25.1826 32.8169 25.1719 32.7991 25.1612 32.783L25.154 32.7723C25.154 32.7723 25.1504 32.7652 25.1451 32.7581C25.1129 32.7011 25.0807 32.6548 25.0288 32.6156C24.9162 32.5284 24.732 32.6085 24.7248 32.7528C24.7195 32.8614 24.7642 32.9522 24.8107 33.0484C24.8518 33.1357 24.8947 33.2247 24.9466 33.3048C25.0431 33.4562 25.163 33.5916 25.2935 33.7145C25.4223 33.8373 25.5564 33.946 25.7102 34.0368C25.796 34.0867 25.8819 34.133 25.9748 34.1668C26.0803 34.206 26.1197 34.2131 26.227 34.2452C26.3271 34.2737 26.4344 34.2363 26.4738 34.1348C26.5131 34.0297 26.4541 33.9371 26.3629 33.889L26.3647 33.8854Z" fill="#4C3451"/>
<path d="M56.4243 27.6986C56.2204 27.5722 55.9093 27.5543 55.6732 27.5454C55.4068 27.5348 55.1367 27.5437 54.8739 27.5775C54.3535 27.6434 53.8742 27.8126 53.4093 28.0494C53.1768 28.1688 53.3324 28.4893 53.5738 28.411C54.0119 28.2703 54.4858 28.1848 54.9436 28.1349C55.1689 28.11 55.396 28.0922 55.6231 28.0904C55.7412 28.0904 55.8592 28.0851 55.9772 28.0868C56.0952 28.0868 56.2222 28.11 56.3367 28.0779C56.494 28.0334 56.5995 27.8037 56.4279 27.6968L56.4243 27.6986Z" fill="#4C3451"/>
<path d="M44.555 18.0891C44.378 18.1283 44.2653 18.2672 44.1473 18.3954C44.0346 18.5183 43.9327 18.6537 43.8397 18.7926C43.6537 19.0704 43.4928 19.3643 43.364 19.6724C43.2406 19.9698 43.1459 20.2797 43.0868 20.5949C43.0278 20.9119 42.9939 21.2574 43.0851 21.5708C43.1137 21.6688 43.2424 21.6902 43.2871 21.5904C43.4052 21.3251 43.4695 21.033 43.5536 20.7552C43.6412 20.4613 43.7539 20.1728 43.8862 19.895C44.0114 19.6332 44.158 19.3803 44.3243 19.1416C44.4102 19.0188 44.4996 18.8994 44.5908 18.7801C44.6945 18.6448 44.8161 18.5254 44.8447 18.3527C44.8698 18.1995 44.7052 18.0535 44.5568 18.0873L44.555 18.0891Z" fill="#4C3451"/>
<path d="M41.7564 19.7845C41.7153 19.6029 41.6813 19.3731 41.5704 19.2218C41.4703 19.0864 41.2754 19.1737 41.2503 19.3179C41.2342 19.4105 41.2593 19.5121 41.2682 19.6047C41.2754 19.6848 41.2843 19.7632 41.2879 19.8433C41.2968 20.0232 41.3129 20.2031 41.3218 20.3811C41.3397 20.7213 41.3308 21.0757 41.2986 21.4141C41.2789 21.6171 41.6062 21.7079 41.6634 21.4978C41.7653 21.1202 41.8226 20.7534 41.8172 20.3616C41.8136 20.171 41.8011 19.9698 41.7582 19.7828L41.7564 19.7845Z" fill="white"/>
<path d="M46.0769 20.6148C46.0394 20.5525 45.9803 20.5187 45.9088 20.508C45.8122 20.4955 45.73 20.5543 45.6549 20.6059C45.6406 20.6166 45.612 20.6291 45.603 20.6433L45.6155 20.6362C45.5994 20.6451 45.5833 20.654 45.569 20.6647C45.5601 20.6718 45.5529 20.679 45.5458 20.6879C45.4671 20.7662 45.3956 20.8464 45.3348 20.9372C45.3097 20.9746 45.2865 21.0138 45.2632 21.053C45.2525 21.0725 45.2418 21.0921 45.2311 21.1135L45.2257 21.1367C45.2257 21.1367 45.2185 21.1562 45.215 21.1634C45.2078 21.183 45.2006 21.2026 45.1935 21.2239C45.181 21.2595 45.1738 21.2952 45.1649 21.3326C45.1631 21.3432 45.1595 21.3522 45.1577 21.3628C45.1577 21.3682 45.1559 21.3753 45.1542 21.3806C45.1506 21.3949 45.1542 21.3896 45.1595 21.3628C45.1631 21.3771 45.147 21.4109 45.1434 21.4252C45.1345 21.4608 45.1273 21.4964 45.1202 21.5338C45.1041 21.6175 45.1774 21.6977 45.2525 21.7155C45.3366 21.7351 45.4188 21.6905 45.4528 21.6104C45.4617 21.5908 45.4689 21.5712 45.4778 21.5516C45.4832 21.5427 45.4868 21.532 45.4921 21.5231V21.5196C45.5047 21.5017 45.5565 21.4305 45.5619 21.4234C45.5744 21.4056 45.5869 21.3896 45.5994 21.3717L45.6048 21.3664C45.6048 21.3664 45.6084 21.3628 45.6137 21.3557C45.6245 21.3468 45.6334 21.3361 45.6424 21.3237C45.6674 21.2898 45.6924 21.2542 45.7192 21.2204C45.7336 21.2043 45.7461 21.1865 45.7604 21.1705C45.7657 21.1652 45.7693 21.1598 45.7747 21.1545C45.8015 21.1278 45.8283 21.0993 45.8569 21.0743C45.8641 21.0672 45.873 21.0601 45.8802 21.053C45.8999 21.0387 45.916 21.0209 45.9285 21.0013C45.9338 20.996 45.941 20.9906 45.9464 20.9835C46.0018 20.9336 46.0751 20.8891 46.0948 20.8125C46.1127 20.7413 46.1145 20.6825 46.0751 20.6166L46.0769 20.6148Z" fill="white"/>
<path d="M57.3931 60.701C57.3126 62.2896 57.5862 63.5059 57.1516 63.7873C51.9996 65.6929 49.3494 64.2593 49.015 63.7392C49.0007 63.7161 48.9917 63.6965 48.9864 63.6787C49.1151 62.2931 48.7503 60.5443 47.967 59.506C47.0658 57.9744 45.8461 56.6066 45.2292 54.9201C45.045 54.9218 45.4402 54.9218 45.2292 54.9201C44.834 52.9913 45.2578 51.4953 47.2303 50.3715C46.878 48.5853 46.4041 45.4134 45.9856 43.2211C45.7997 42.2523 45.9624 40.8097 47.1212 40.5657C49.1974 40.1294 49.192 42.7206 49.5765 43.8123C50.0915 45.2745 50.696 46.8221 50.9857 48.3769C51.8709 47.7892 53.0404 48.4232 53.4428 49.2727C54.0293 48.5443 55.3151 47.5879 56.0483 48.6155C57.8795 49.2353 58.7325 53.2175 58.6252 54.9717C58.5054 56.9432 57.495 58.733 57.3931 60.701Z" fill="white"/>
<path d="M57.8759 60.6197C57.9224 61.3018 57.6399 63.8877 57.1517 63.7862C56.6653 63.6864 57.005 62.6624 56.8602 60.8013C56.7135 58.9189 58.4947 56.1086 57.3842 51.4532C57.0712 50.1442 55.2507 47.382 53.9721 49.4247C53.931 50.8619 52.774 49.398 52.4145 48.9118C50.3526 47.4888 52.1087 50.8708 50.73 49.9127C49.691 47.2626 49.3458 44.7889 48.5894 42.0142C48.0797 40.1442 46.0161 40.5325 46.4095 42.8317C47.1641 47.2252 48.0637 51.5476 48.6198 55.9875C46.9961 54.7444 47.1749 53.0542 46.98 51.2715C45.1184 53.243 45.4563 55.2181 47.3376 57.5386C49.2189 59.8574 49.4603 63.9554 49.0168 63.7381H49.015C48.5697 63.5083 47.4109 59.4692 45.9124 57.6081C45.265 56.8067 44.8233 55.8717 44.6302 54.9189C44.235 52.9901 44.8501 50.9884 46.8226 49.8646C46.4703 48.0783 46.0357 45.3642 45.6173 43.1718C45.4313 42.203 45.5797 41.4069 45.9106 40.8406C46.7779 39.3499 48.9059 39.4425 49.5533 42.1086C50.0701 44.2351 50.7103 46.7836 51.0769 47.8628C51.8977 47.4033 52.9635 47.8094 53.5233 48.4915C55.7747 46.0213 58.1102 49.1006 58.6699 51.6099C59.8716 55.8076 57.8151 59.7399 57.8759 60.6197Z" fill="#4C3451"/>
</g>
<defs>
<clipPath id="clip0_1_1942">
<rect width="48.3499" height="46.6923" fill="white" transform="translate(18.1312 18.0568)"/>
</clipPath>
</defs>
</svg>
